<svg xmlns="http://www.w3.org/2000/svg" viewBox="0 0 211.9 433.98"><defs><style>.cls-1{fill:#c7eafc;}.cls-2{fill:#5abeed;}.cls-3{fill:#fff;}.cls-4{fill:#0f5aa4;}.cls-5{fill:#fcb434;}.cls-6{fill:#f89832;}.cls-7{fill:#fba832;}</style></defs><g id="Layer_2" data-name="Layer 2"><g id="_1" data-name="1"><g id="_10" data-name="10"><path class="cls-1" d="M124.37,16.59Q104.59,44,73,64.14t-64.14,29V80.41a249.09,249.09,0,0,0,35.1-14A213.85,213.85,0,0,0,72.68,49.14a220.8,220.8,0,0,0,25.84-21.7Q111,15.32,124.37,0h14V434H125.65V16.59Z"/><path class="cls-2" d="M177.84,112.83s-86.26,25-56.63,101.28C121.21,214.11,191,209.35,177.84,112.83Z"/><line class="cls-3" x1="178" y1="113.75" x2="121.73" y2="214.4"/><path class="cls-1" d="M121.72,215.3a1,1,0,0,1-.44-.11.91.91,0,0,1-.34-1.23l56.27-100.65a.9.9,0,0,1,1.23-.34.89.89,0,0,1,.34,1.22L122.51,214.84A.9.9,0,0,1,121.72,215.3Z"/><path class="cls-1" d="M166.55,133.12l-4.83-13.82a.9.9,0,0,1,1.7-.59l4.26,12.19L179,127.49a.9.9,0,1,1,.51,1.73Z"/><path class="cls-1" d="M159.36,145.81l-7.12-21.36a.9.9,0,1,1,1.71-.57l6.63,19.89,18.64-3.26a.92.92,0,0,1,1,.74.9.9,0,0,1-.73,1Z"/><path class="cls-1" d="M151.19,160.55,139.09,134a.9.9,0,0,1,1.64-.75l11.52,25.33L177.89,154a.9.9,0,0,1,.31,1.77Z"/><path class="cls-1" d="M143,175.27l-14.72-29.92a.9.9,0,0,1,1.62-.8L144,173.31l29.94-4.08a.9.9,0,1,1,.24,1.78Z"/><path class="cls-1" d="M134.74,190l-16.21-28.79a.89.89,0,0,1,.34-1.23.91.91,0,0,1,1.23.35l15.62,27.73,31.42-4a.9.9,0,0,1,.23,1.79Z"/><path class="cls-1" d="M127,203.73l-12.74-22.14a.9.9,0,1,1,1.56-.9L128,201.88l23.79-1.07a.9.9,0,0,1,.08,1.8Z"/><path class="cls-4" d="M161.82,203c-2.42-8.12-15.68-2.63-24.26,5.79,1.43-4.86,2.63-8.38,3.25-10.12,5.08-4.81,20.1-20.15,10-25-8.26-4-13.28,12.14-11.84,24.74-.66,1.88-1.81,5.32-3.17,9.91-2.72-12-11.5-24.38-18-18.54-8.54,7.71,11.47,18.56,17.14,21.4-.06.19-.11.39-.17.59s-.27.3-.39.46l.26,0c-1.41,5.06-2.92,11.1-4.26,17.78-2.7-12-11.51-24.49-18-18.63-8.65,7.81,12,18.86,17.38,21.52-.27.31-.55.61-.79.93l.65.06c-1,5.47-1.88,11.28-2.47,17.27-3.75-11.54-13.21-22.75-19.11-16.55-8,8.38,13.09,17.76,18.8,20.1a150.08,150.08,0,0,0-.32,19.68c-4.35-11.7-15.35-23.29-21-16.35-7.32,9.05,14.78,16.74,20.49,18.54-.21.35-.42.7-.61,1.05l1.27-.08a88.3,88.3,0,0,0,5.66,25.71l1.67-.67a86.37,86.37,0,0,1-5.54-25.18c7.73-.71,27.18-3.48,22.54-13.17-3.61-7.54-15.59-.34-22.8,9.14a149.41,149.41,0,0,1,.45-19.41c4.39.09,30.32.13,26-11.28-3.3-8.66-18.34-.1-25.87,10.22.59-6.55,1.52-12.92,2.62-18.87,7.26.53,28.09,1.14,24.93-9.44-2.42-8.1-15.62-2.65-24.21,5.74,1.36-6.77,2.9-12.87,4.32-17.95C143.42,213,165,213.79,161.82,203Z"/><path class="cls-4" d="M117.21,26.51l-1.51-1A86.76,86.76,0,0,1,98.13,44.39c-5-6-18.3-20.4-23.64-11.08-4.16,7.26,8.57,13,20.46,13.57A148.51,148.51,0,0,1,78.73,57.54c-2.42-3.66-17.12-25-24-15C49.45,50.22,65,57.73,77.8,58.07c-5.72,3.23-11.49,6.09-17,8.56-3.7-6.28-15-23.76-21.94-15.15-5.29,6.59,6.7,14.36,18.48,16.67C51,70.87,45.1,73.07,40.12,74.78,36.63,68.8,25,50.56,18,59.32,12.69,65.91,24.73,73.71,36.53,76c-4.81,1.58-8.38,2.59-10.17,3.07C19.52,77.61-1.63,74,.1,85c1.42,9,17.5,4,27.06-4.31,1.92-.52,5.43-1.53,10-3C28.85,86.71,23.6,101,32.08,103c11.2,2.65,8.76-20,7.88-26.26l.56-.19.62,0L41,76.37c5-1.72,10.8-3.91,17.09-6.61-8.37,9-13.67,23.4-5.16,25.4,11.33,2.68,8.69-20.56,7.84-26.5.41,0,.81.08,1.21.1l-.31-.57c5.08-2.28,10.36-4.87,15.64-7.8C70,70,66.07,84.2,74.54,85.54,86,87.35,81.72,64.67,80.4,58.65A150.5,150.5,0,0,0,96.78,47.72C89.62,58,86.32,73.59,95.22,74.27c11.61.88,5.38-21.67,3.61-27.4l1.22-.09-.79-1A88.49,88.49,0,0,0,117.21,26.51Z"/><path class="cls-5" d="M159.09,396.5c-.08-.27-.17-.54-.25-.82,0-.05,0-.1,0-.15l-.06,0c-1.24-4.11-2.84-8.93-4.82-14.13,7.26,7.12,18.8,11.82,20.73,4.88,2.58-9.3-16.62-7.94-21.72-7.42a.87.87,0,0,1-.07-.17c0-.27.07-.55.1-.82l-.36.18a165.54,165.54,0,0,0-8.94-18.85c7.48,7.78,21.79,13.24,23.34,5.44,2.14-10.72-22.59-5.7-23.39-5.53,0-.09-.09-.18-.14-.26a.86.86,0,0,1,0-.16l-.08,0a108.59,108.59,0,0,0-11.67-17c9.3,4,21.53,4.17,20.87-2.94-.89-9.51-18-1.64-22.79.75-.12-.12-.24-.24-.35-.37s-.08-.33-.13-.5l-.17.19a65.32,65.32,0,0,0-9.49-8.48l-1.06,1.46a65.21,65.21,0,0,1,9.36,8.36c-4,4.6-14.76,18.19-6.12,21.36,6.6,2.42,9.55-9.07,8.25-19a105.22,105.22,0,0,1,11.78,17.07c-5,3.16-19.55,13.26-12.11,18.81,5.75,4.3,12-6.39,13.42-16.44a167.39,167.39,0,0,1,7.82,16.84c-5.46,2.95-20.09,11.71-13.2,17.7,5.26,4.58,12.06-4.93,14.42-14.58,2,5.31,3.64,10.22,4.89,14.37-5.22,2.79-20.47,11.75-13.47,17.84,5.26,4.59,12.06-4.93,14.42-14.59,1.19,4.18,1.91,7.23,2.22,8.59-1.49,5.95-4.92,22.8,4.18,21.74,7.5-.87,4-14.16-2.49-22.42-.34-1.5-1.06-4.47-2.2-8.48,7.27,7.11,18.78,11.79,20.71,4.86C183.09,394.79,164.54,396,159.09,396.5Z"/><path class="cls-5" d="M125.59,324.23c-5.53-30.9,19.44-70.62,19.69-71l1.52,1c-.25.39-24.84,39.53-19.44,69.73Z"/><path class="cls-5" d="M159.43,251.7c-1.46-9.1,2.07-19.18,10.23-29.15a76.6,76.6,0,0,1,12.8-12.39l1.06,1.45c-.25.19-25.66,19-22.31,39.8Z"/><path class="cls-5" d="M160.11,244.29c-4.31-8.15-4.19-18.83.33-30.9a77.56,77.56,0,0,1,8.16-15.84l1.47,1c-.18.26-18.22,26.22-8.37,44.85Z"/><path class="cls-5" d="M155.85,244.12c-6.77-6.26-10.2-16.38-9.94-29.26a77.66,77.66,0,0,1,2.45-17.65l1.73.5c-.09.3-8.49,30.77,7,45.09Z"/><path class="cls-5" d="M153.34,197.27a3.57,3.57,0,1,1-1.89-4.68A3.57,3.57,0,0,1,153.34,197.27Z"/><path class="cls-5" d="M172.88,198.85a3.56,3.56,0,1,1-1.88-4.67A3.57,3.57,0,0,1,172.88,198.85Z"/><path class="cls-5" d="M185.94,212.51a3.57,3.57,0,1,1-1.88-4.68A3.57,3.57,0,0,1,185.94,212.51Z"/><path class="cls-5" d="M147,244.85c-7.88,3.24-18.25-3.82-23.16-15.77s-2.49-24.25,5.39-27.49,13.32,2.77,16.12,22.7C147.16,237.08,154.89,241.62,147,244.85Z"/><path class="cls-6" d="M148.84,243.66c2.34,8.2,14.3,12,26.72,8.43s20.59-13.06,18.25-21.26-20.93-1.83-30.72,3.65C151.83,240.8,146.5,235.47,148.84,243.66Z"/><path class="cls-7" d="M169.39,237.17c-4.92,11.55-15,18.32-22.58,15.1s-9.68-15.19-4.75-26.75,15-18.32,22.58-15.1S174.32,225.61,169.39,237.17Z"/><path class="cls-5" d="M173.73,339.86a55.87,55.87,0,0,0-20.85-13.26c9.19-2.37,23.9-8.28,22.2-21.72,0,0-2.83-10.48-9.05-7.6,0,0-2.89-9.88-11.14-4.09a56.19,56.19,0,0,0-14.46,16.13c.55-9-.17-27.33-14.67-29.56,0,0-10.87-.16-9.8,6.61,0,0-10.29.06-7,9.59a48,48,0,0,0,4.65,9.34c-5.53-2.66-11.71-3.4-17.44.9,0,0-7.71,7.66-2.13,11.63,0,0-7.15,7.4,2,11.71a56,56,0,0,0,23.9,4.53c-8.3,4.54-20.82,13.77-15.83,26.26,0,0,5.39,9.27,10.68,4.91,0,0,5.29,8.86,11.82,1.18s15.23-26.94,9.43-35.94h-4.76c.71-1,1.38-.79,2-1.4l-2-7.45a12.13,12.13,0,0,0,4,.69l1.18-2a13.18,13.18,0,0,0,.37,5.27l2.44.64L138,335.56s8,30.92,26.86,25.88c0,0,10-4.22,6.31-10C171.18,351.45,180.58,347.26,173.73,339.86Z"/><path class="cls-3" d="M146.16,325a12.87,12.87,0,1,1-12.87-12.87A12.87,12.87,0,0,1,146.16,325Z"/><path class="cls-2" d="M141.83,322.42c0-.16,0-.31,0-.48a9.32,9.32,0,0,0-7.31-8.13c1.69-10.66-2.32-28.86-3.34-33.19a3.3,3.3,0,1,0-4.4-3.11,3.25,3.25,0,0,0,2.58,3.16c.83,3.57,5.06,21.81,3.37,32.81h-.2c0-11-8.44-29.63-10.49-34.22a2.67,2.67,0,0,0,1.47-2.37,2.72,2.72,0,1,0-3.34,2.67c1.48,3.28,10.69,24.25,10.56,34.21l-.49.1c-2.6-4.73-10.24-25-15.19-38.72a3.22,3.22,0,0,0,1.08-2.4,3.26,3.26,0,1,0-3.26,3.26,3.43,3.43,0,0,0,.56-.06c1.75,4.87,10.35,28.55,14.39,37.09-8.39-9.12-14.58-28-14.65-28.23l-.34.11a3.07,3.07,0,1,0-2.31,1.06,3,3,0,0,0,1.08-.2c1,3,7.14,20.62,15.54,29.14-8.08-5.53-20.9-23.87-21-24.06l-.21.14a3.55,3.55,0,0,0,.37-1.56,3.67,3.67,0,1,0-1.38,2.82c1.92,2.71,13.25,18.55,21.06,24a9.32,9.32,0,0,0-2.78,7.63c0,.15,0,.3.09.57l.1.55.53.16a22.82,22.82,0,0,0,6.57,1c.8,0,1.62-.05,2.42-.13a22.78,22.78,0,0,0,8.52-2.65l.48-.41Z"/><path class="cls-2" d="M123.72,319.49l.55-1.71c-3.85-1.23-11.79-10.72-14.93-14.78a2.7,2.7,0,0,0,.63-1.73A2.77,2.77,0,1,0,107.2,304a3,3,0,0,0,.61-.07C109.38,306,118.74,317.9,123.72,319.49Z"/><path class="cls-2" d="M103.82,93.48h-2.43s-1-11.84,2.43-12.68S103.82,93.48,103.82,93.48Zm-3.26,11.13S96.5,118,100,117.28s3-12.55,3-12.55ZM85.81,87.45C85.14,90.93,96.32,95,96.32,95l1-2.22S86.48,84,85.81,87.45Zm22.4,11.22-1.12,2.17s10.43,9.27,11.26,5.84S108.21,98.67,108.21,98.67Zm-23.67,7c2.34,2.65,12.38-3.71,12.38-3.71l-1.13-2.16S82.21,103,84.54,105.7Zm35.12-14c-2.2-2.76-12.53,3.11-12.53,3.11l1,2.22S121.87,94.5,119.66,91.74Z"/><path class="cls-7" d="M148.71,49.53c0,12.79-6.43,21.15-14.36,21.15S120,62.32,120,49.53s11.89-40.26,14.35-39.29C138.19,11.76,148.71,36.75,148.71,49.53Z"/><path class="cls-6" d="M161,57c-3.06,13.35-14,20.31-21.7,18.55-11.23-2.55-11.51-14-8.45-27.39s21.24-39.43,23.41-37.86C157.63,12.75,164.06,43.65,161,57Z"/><path class="cls-5" d="M136.31,49c2.34,13.5,2.32,25.24-9.9,26.9C118.55,77,108,69.73,105.7,56.23S112.36,9.35,115,10C119,10.9,134,35.51,136.31,49Z"/><path class="cls-1" d="M149.85,129.16c-22.15-21.62-17.08-56-17-56.38l1.79.28c-.06.33-5,33.85,16.5,54.81Z"/><path class="cls-7" d="M178.76,97.32c-9.6,8.44-20.13,9.12-25.36,3.17s-3.2-16.31,6.41-24.74,38.1-17.64,39-15.15C200.2,64.49,188.36,88.89,178.76,97.32Z"/><path class="cls-6" d="M181.25,111.48C169.2,118,156.78,114.4,153,107.42,147.5,97.3,155.94,89.51,168,83s43.64-10.06,43.89-7.4C212.28,79.75,193.31,105,181.25,111.48Z"/><path class="cls-5" d="M171,87.66c-8.6,10.67-17.43,18.4-26.75,10.31-6-5.19-7.47-17.87,1.12-28.55S185,43.49,186.23,45.85C188.19,49.52,179.57,77,171,87.66Z"/><path class="cls-1" d="M121.49,150.82l-1.8-.1c1.62-30.9,30.83-49.8,31.12-50l1,1.52C151.49,102.43,123.06,120.85,121.49,150.82Z"/><path class="cls-3" d="M119.2,149.31a15.76,15.76,0,1,0-31.12-3.53,15.69,15.69,0,0,0,3.85,10.3C99.1,156.22,108.31,154.69,119.2,149.31Z"/><path class="cls-5" d="M103.85,161.54a15.75,15.75,0,0,0,15.35-12.23c-10.89,5.38-20.1,6.91-27.27,6.77A15.71,15.71,0,0,0,103.85,161.54Z"/><path class="cls-3" d="M154.19,119.15a12.93,12.93,0,1,0-22.71-3.94C136.82,117.68,144.24,119.58,154.19,119.15Z"/><path class="cls-5" d="M138.62,123.25a12.93,12.93,0,0,0,15.57-4.1c-9.95.43-17.37-1.47-22.71-3.94A12.91,12.91,0,0,0,138.62,123.25Z"/><path class="cls-3" d="M163.24,186.66a15.92,15.92,0,0,0,3.47-.78,15.76,15.76,0,1,0-18.87-22.72C150.07,170,154.57,178.16,163.24,186.66Z"/><path class="cls-5" d="M146.62,176.21a15.76,15.76,0,0,0,16.62,10.45c-8.67-8.5-13.17-16.69-15.4-23.5A15.72,15.72,0,0,0,146.62,176.21Z"/><path class="cls-5" d="M130.65,229.44c-16.9-42.18,6.88-105.87,7.13-106.51l1.68.64c-.24.63-23.77,63.68-7.14,105.2Z"/><path class="cls-5" d="M125,187.45c-17-9.28-16-27-16-27.2l1.8.12a28.6,28.6,0,0,0,15,25.5Z"/><path class="cls-5" d="M125.7,199.27l-.32-1.77c15.17-2.68,21.56-18.8,21.62-19l1.68.65C148.41,179.89,141.85,196.42,125.7,199.27Z"/><path class="cls-3" d="M111.32,49.12c0-4.33-4.46-7.85-10.06-8.08,3.79-4.12,4.46-9.74,1.4-12.8S93.57,25.87,89.42,30a13.26,13.26,0,0,0-2,2.62,13.44,13.44,0,0,0,.67-4.23c0-5.87-3.63-10.63-8.11-10.63s-8.1,4.76-8.1,10.63q0,.64.06,1.26c-4.12-3.82-9.78-4.5-12.85-1.43s-2.38,8.83,1.54,13c-4.79.78-8.39,4-8.39,7.92,0,4.34,4.46,7.86,10.06,8.09C58.5,61.33,57.83,67,60.89,70c2.73,2.74,7.51,2.5,11.44-.27,1.1,4.15,4.1,7.13,7.64,7.13,3.9,0,7.15-3.6,7.93-8.39,4.13,3.92,9.86,4.63,13,1.53s2.39-8.72-1.43-12.84q.61.06,1.26.06C106.56,57.23,111.32,53.6,111.32,49.12ZM85.84,55a6.36,6.36,0,0,0-1.44,2.35A6.83,6.83,0,0,0,80,55.62a6.48,6.48,0,0,0-3,.77,6.14,6.14,0,0,0-1-1.4,6.67,6.67,0,0,0-3.86-1.82,6.62,6.62,0,0,0,1.43-4.05,6.79,6.79,0,0,0-1.73-4.42,6.32,6.32,0,0,0,2.36-1.44A7.09,7.09,0,0,0,76,37.65,6.67,6.67,0,0,0,80,39a7.5,7.5,0,0,0,6.22-3.81c-1,3-.52,6.07,1.45,8a6.67,6.67,0,0,0,3.86,1.82,6.44,6.44,0,0,0,0,8A7.08,7.08,0,0,0,85.84,55Z"/><path class="cls-5" d="M93.49,47.7A13.52,13.52,0,1,1,80,34.19,13.52,13.52,0,0,1,93.49,47.7Z"/></g></g></g></svg>