<svg xmlns="http://www.w3.org/2000/svg" viewBox="0 0 314.13 446.3"><defs><style>.cls-1{fill:#c7eafc;}.cls-2{fill:#0f5aa4;}.cls-3{fill:#fcb434;}.cls-4{fill:#5abeed;}.cls-5{fill:#fba832;}.cls-6{fill:#f89832;}.cls-7{fill:#fff;}.cls-8{fill:#f2f2f2;}</style></defs><g id="Layer_2" data-name="Layer 2"><g id="_1" data-name="1"><g id="_9" data-name="9"><path class="cls-1" d="M300.84,415.11H40.37q-.57-24.44,10.24-44.36A158.19,158.19,0,0,1,79,333.5a328.35,328.35,0,0,1,39.53-33q21.88-15.63,43.5-31,22.19-15.36,43.23-31.28A308.39,308.39,0,0,0,242.83,205a156.18,156.18,0,0,0,26.44-37,92.38,92.38,0,0,0,10-42.37q0-22.74-8.25-40.09a83.07,83.07,0,0,0-22.47-29,97.32,97.32,0,0,0-33.83-17.63,147,147,0,0,0-42.94-6Q141.59,33,120,42T84.73,67.35Q71.08,83.57,64.82,106a183,183,0,0,0-6.25,49.2H47.19q.57-63.69,31.57-98.67t93-35a160.73,160.73,0,0,1,46.64,6.54,107.46,107.46,0,0,1,37.53,19.62,95.27,95.27,0,0,1,25.31,32.42q9.38,19.34,9.38,45.49a104,104,0,0,1-17.06,58,239.66,239.66,0,0,1-42.94,48.91,537.76,537.76,0,0,1-56,42.94Q144.43,295.69,118,315.87a313,313,0,0,0-45.21,41.52Q54,378.72,51.74,403.74h249.1Z"/><path class="cls-2" d="M151.44,241.55c-2.4-7.37-14.69-1.7-22.11,6.35,1-4.17,1.64-7.35,2-9.09,6.7-9.09,10-23.74,1.84-24.34-9.95-.73-5.16,17.79-3.36,23.76-.3,1.62-.94,4.87-2,9.25-2.89-10.31-10.69-20.43-16.17-15.23-7.25,6.88,9.8,15.85,15.36,18.51-1.15,4.55-2.68,9.94-4.63,15.77-2.91-10.29-10.69-20.37-16.15-15.18-7.14,6.77,9.22,15.54,15.06,18.36-1.79,5.09-3.9,10.42-6.36,15.74-1.23-11.31-9-24.6-15.45-19.38C91,273,111.06,284.43,114.5,286.31a135,135,0,0,1-8.28,15.2c-1.36-10.53-7.41-21.41-13.55-17.19-7.89,5.43,5.9,16.2,11.56,20.18a76.61,76.61,0,0,1-15.47,17l1,1.26a78.55,78.55,0,0,0,15.78-17.35l1,.63c0-.36,0-.72,0-1.09,5.22,1.15,25.7,5,24.07-5.22-1.25-7.85-14.9-3.77-23.46,3.34a134,134,0,0,0,8.5-15.36c5.45.73,25.9,2.85,23.45-7.17-1.81-7.42-14.11-2.94-22.12,4.32,2.2-4.9,4.12-9.78,5.77-14.46l.53.24c0-.36-.11-.72-.17-1.07,5.33.32,26.17,1,22.95-8.91-2.4-7.4-14.75-1.67-22.16,6.4,1.93-5.76,3.44-11.09,4.6-15.62l.21.09-.09-.55.13-.5C134.33,250.8,154.61,251.3,151.44,241.55Z"/><path class="cls-3" d="M87.25,320.25l-.08-.19a59,59,0,0,0,10.34-4.68L96.7,314a56.59,56.59,0,0,1-10.2,4.59C84.2,313.68,77,300,71.33,305.87c-4.36,4.5,3.93,11.06,12.46,13.59a94.89,94.89,0,0,1-18.17,3.41c-.77-5.21-3.71-20.73-10.93-16.68-5.58,3.13.87,12.09,8.55,16.88a149.42,149.42,0,0,1-16.56.27c-.42-5.51-2.26-20.59-9.63-17.16-5.64,2.63-.36,11.6,6.64,17-5-.27-9.63-.73-13.46-1.22-.39-5.26-2.16-20.92-9.65-17.43-5.65,2.63-.35,11.61,6.65,17-3.83-.55-6.57-1.06-7.79-1.31C15.13,316.91,2.65,308,.22,315.8c-2,6.43,10.09,8.4,19.16,6.1,1.35.26,4,.75,7.67,1.27-8.41,3.35-16.37,11-11.42,15.11,6.52,5.39,12.28-10.15,13.82-14.78l.72.09s.07.05.07.08v-.06c4,.47,8.33.92,13.27,1.18-8.42,3.34-16.38,11-11.44,15.12,6.64,5.47,12.49-10.65,13.91-15h.21c.2.12.4.26.6.37,0,0,0-.13,0-.35,1.91.06,3.87.11,5.87.11,4.12,0,8.4-.17,12.71-.57-9,3.28-18.67,12.95-12.88,17,8,5.62,12.82-16.33,13-17l.26,0,.12.07a.45.45,0,0,0,0-.08,97.16,97.16,0,0,0,18-3.33c-6.59,6.13-11.17,16-5.15,18,8.07,2.72,7.86-14.07,7.64-18.83l.46-.15Z"/><path class="cls-3" d="M68,86.59l.06-.47.26-.36h-.22a59.06,59.06,0,0,0,.27-11.34l-1.6.13a57.44,57.44,0,0,1-.28,11.18c-5.41,0-20.86.49-18,8.18,2.17,5.88,11.67,1.24,17.64-5.36a95,95,0,0,1-4.78,17.86c-5-1.56-20.3-5.62-19.77,2.64.41,6.39,11.27,4.44,18.92-.41a152.33,152.33,0,0,1-6.92,15.06c-5.15-2-19.55-6.88-19.64,1.26-.07,6.21,10.31,5.33,18.22,1.37-2.43,4.43-4.83,8.37-6.92,11.61-4.91-1.93-19.8-7.11-19.89,1.16-.07,6.22,10.32,5.34,18.23,1.37-2.15,3.21-3.8,5.46-4.55,6.45-4.9,2.43-18.32,9.84-12.34,15.4,4.92,4.59,11.93-5.46,13.78-14.64.82-1.1,2.42-3.29,4.47-6.36-.62,9,2.86,19.53,8.68,16.83,7.67-3.55-3.84-15.46-7.35-18.85.13-.22.27-.43.41-.65l.11-.07,0,0c2.07-3.21,4.42-7.07,6.79-11.41-.63,9,2.86,19.55,8.68,16.86,7.8-3.61-4.22-15.86-7.52-19l.09-.17c.2-.13.42-.25.61-.39l-.33-.13a148.82,148.82,0,0,0,7.63-16.94c-1,9.57,3.6,22.42,9.78,19,8.51-4.74-9.15-18.61-9.75-19.08l.1-.24.11-.09-.07,0a96.43,96.43,0,0,0,4.78-17.71c2.69,8.59,9.62,17,14,12.44C87.61,95.52,72.38,88.45,68,86.59Z"/><path class="cls-4" d="M89.46,357.9A13.64,13.64,0,1,1,105.27,369,13.63,13.63,0,0,1,89.46,357.9Z"/><path class="cls-2" d="M129.54,347.31S94.65,353.68,98,339C100.36,328.42,119.72,336.43,129.54,347.31Z"/><path class="cls-2" d="M76,356.79s35-6,26.79-18.67C96.93,329,81.5,343.2,76,356.79Z"/><path class="cls-2" d="M100.2,338l-1.6-.16c0-.23,2.17-22.87-8.78-29l.79-1.41C102.47,314.07,100.3,337,100.2,338Z"/><path class="cls-4" d="M145.44,47.7c-13.64-4-22.8-13.7-20.46-21.59s15.28-11,28.91-7,39.45,24.55,37.69,26.69C188.84,49.15,159.07,51.73,145.44,47.7Z"/><path class="cls-1" d="M185,31.65C171.19,34.89,158.45,31,156.57,23S164.4,5.88,178.25,2.64s46.43,1.82,46,4.55C223.47,11.44,198.88,28.41,185,31.65Z"/><path class="cls-5" d="M114,46.08c-8.56,7.52-17.93,8.13-22.6,2.82s-2.84-14.52,5.72-22,33.95-15.71,34.75-13.5C133.14,16.82,122.59,38.57,114,46.08Z"/><path class="cls-6" d="M116.26,58.7c-10.75,5.81-21.82,2.6-25.19-3.61-4.89-9,2.63-16,13.37-21.77s38.89-9,39.11-6.59C143.9,30.42,127,52.9,116.26,58.7Z"/><path class="cls-3" d="M107.09,37.47C99.43,47,91.56,53.87,83.26,46.66c-5.34-4.63-6.67-15.93,1-25.44s35.3-23.1,36.42-21C122.43,3.49,114.75,28,107.09,37.47Z"/><path class="cls-1" d="M63,93.75l-1.61-.08c1.45-27.54,27.47-44.38,27.74-44.55L90,50.47C89.73,50.64,64.4,67.05,63,93.75Z"/><path class="cls-5" d="M271.94,129.12c-4.5,10.47-2.18,19.57,4.32,22.36s14.69-1.79,19.19-12.25,4.42-37.15,2.07-37.22C293.84,101.9,276.44,118.66,271.94,129.12Z"/><path class="cls-6" d="M259.25,130.92c-2.19,12,4.29,21.54,11.24,22.82,10.09,1.86,14.36-7.44,16.55-19.45s-3.52-39.75-5.84-39.23C277.58,95.87,261.44,118.91,259.25,130.92Z"/><path class="cls-3" d="M282.27,133.06c-6.67,10.23-10.78,19.84-1.35,25.51,6.05,3.64,17.21,1.4,23.88-8.83s11-40.73,8.69-41.15C309.84,107.94,288.94,122.83,282.27,133.06Z"/><path class="cls-1" d="M243,193.91l-.58-1.5c25-9.61,32.71-38.77,32.79-39.06l1.55.4C276.69,154.05,268.73,184,243,193.91Z"/><path class="cls-5" d="M237.66,49.64c-10.83-3.53-16.13-11.29-13.94-18s11-9.85,21.87-6.32,30.83,21.2,29.33,23C272.57,51.16,248.49,53.17,237.66,49.64Z"/><path class="cls-6" d="M227.94,58c-10.47-6.28-13.35-17.44-9.72-23.51,5.26-8.8,15.07-5.87,25.54.41s27.53,28.89,25.6,30.29C266.36,67.35,238.41,64.27,227.94,58Z"/><path class="cls-3" d="M241.53,39.28c-12.09-1.75-22-5-20.05-15.83,1.26-6.95,10.3-13.85,22.39-12.1S281.75,29.94,280.51,32C278.59,35.15,253.61,41,241.53,39.28Z"/><path class="cls-1" d="M221.63,31.19c-.27-.14-27.3-13.56-51-1.16l-.75-1.43c24.43-12.79,52.19,1,52.47,1.16Z"/><path class="cls-7" d="M92.47,83.41c0-3.86-4-7-9-7.21,3.37-3.67,4-8.68,1.25-11.4S76.65,62.68,73,66.38a12.23,12.23,0,0,0-1.79,2.34,12.11,12.11,0,0,0,.6-3.77c0-5.23-3.23-9.47-7.22-9.47S57.31,59.72,57.31,65a10.37,10.37,0,0,0,.06,1.12c-3.68-3.4-8.71-4-11.45-1.27s-2.12,7.87,1.37,11.55c-4.27.7-7.47,3.59-7.47,7.06,0,3.86,4,7,9,7.2-3.38,3.68-4,8.69-1.25,11.41,2.43,2.44,6.69,2.23,10.19-.24,1,3.69,3.66,6.35,6.82,6.35,3.46,0,6.36-3.21,7.06-7.48,3.68,3.49,8.79,4.13,11.55,1.37s2.13-7.77-1.28-11.44c.37,0,.75,0,1.13,0C88.23,90.63,92.47,87.4,92.47,83.41ZM69.76,88.64a5.65,5.65,0,0,0-1.28,2.09,6.06,6.06,0,0,0-3.94-1.54,5.76,5.76,0,0,0-2.7.69,5.3,5.3,0,0,0-.93-1.24A5.84,5.84,0,0,0,57.48,87a5.79,5.79,0,0,0-.27-7.55,5.72,5.72,0,0,0,2.1-1.29,6.3,6.3,0,0,0,1.67-5,5.93,5.93,0,0,0,3.56,1.23A6.72,6.72,0,0,0,70.08,71c-.86,2.69-.47,5.4,1.29,7.16a5.9,5.9,0,0,0,3.44,1.62,5.73,5.73,0,0,0,0,7.16A6.31,6.31,0,0,0,69.76,88.64Z"/><path class="cls-3" d="M76.58,82.14a12,12,0,1,1-12-12A12,12,0,0,1,76.58,82.14Z"/><path class="cls-4" d="M284.64,170.14s-67.51,3.29-59.1,64.29C225.54,234.43,277.46,243.1,284.64,170.14Z"/><path class="cls-1" d="M285.14,170.25a.79.79,0,0,0-1.13.05L274.13,181l-.94-9.12a.8.8,0,1,0-1.6.17l1.09,10.53-6,6.52L265.35,174a.83.83,0,0,0-.87-.76.74.74,0,0,0-.73.8l1.49,16.65-7.26,7.9-3.93-20.09a.82.82,0,0,0-.94-.66.72.72,0,0,0-.63.87l4.19,21.3-7.33,8-5.24-23a.78.78,0,0,0-1-.6.79.79,0,0,0-.6,1l5.48,24.1-7.33,8-6.48-22.59a.8.8,0,0,0-1.54.44l6.75,23.53-6.77,7.36L227.56,209a.8.8,0,0,0-1.54.46l5.37,18.09-6.12,6.65a.81.81,0,0,0,0,1.13.79.79,0,0,0,.55.22.82.82,0,0,0,.59-.26l6.48-7.05L250,231.48l.15,0a.8.8,0,0,0,.15-1.59l-16.08-3.08,6.82-7.41,23.2,2.52h.09a.8.8,0,0,0,.79-.72.79.79,0,0,0-.71-.88l-22-2.4,7.26-7.9,22.17,2.18h.08a.8.8,0,0,0,.8-.72.81.81,0,0,0-.72-.88l-21-2.06,7.53-8.35,18.88.72h.05c.42,0,.78.08.8-.34s-.31-.48-.75-.51l-17.81-1,7.44-7.91,13.59.78h.05a.73.73,0,0,0,.8-.67c0-.44-.31-.65-.75-.67l-12.53-.81,6.15-6.71,8.6-.51A.81.81,0,0,0,283,181l-7,.4,9.17-10A.81.81,0,0,0,285.14,170.25Z"/><path class="cls-4" d="M292.22,387.56s-58.37-34.09-84.62,21.62C207.6,409.18,246.38,444.78,292.22,387.56Z"/><path class="cls-1" d="M292.57,387.93a.79.79,0,0,0-1-.58L277.46,391l4.19-8.15a.81.81,0,0,0-.35-1.08.8.8,0,0,0-1.08.34l-4.84,9.42-8.58,2.2,7.11-13.37a.8.8,0,1,0-1.41-.76l-7.8,14.66-10.37,2.65L262,377.93a.81.81,0,0,0-.44-1.05.82.82,0,0,0-1.05.45l-8.09,20L242,400l8.18-22.16a.8.8,0,0,0-1.51-.55l-8.56,23.19-10.49,2.68,6.89-22.47a.8.8,0,1,0-1.53-.47l-7.18,23.41-9.69,2.47,5.1-17.17a.8.8,0,1,0-1.54-.46l-5.38,18.1-8.75,2.23a.8.8,0,0,0,.2,1.58l.2,0,9.28-2.38,12.52,12.05a.77.77,0,0,0,.55.22.76.76,0,0,0,.58-.25.79.79,0,0,0,0-1.13L219,407.55l9.76-2.5,18.07,14.78a.77.77,0,0,0,.5.18.78.78,0,0,0,.62-.29.8.8,0,0,0-.11-1.13l-17.15-14,10.41-2.66,17.38,13.94a.84.84,0,0,0,.5.17.8.8,0,0,0,.5-1.43l-16.44-13.17,10.42-2.67,15.42,11.39a.76.76,0,0,0,.47.16.8.8,0,0,0,.48-1.45l-14.36-10.61,10.31-2.63L277,403.86a.84.84,0,0,0,.48.16.82.82,0,0,0,.64-.33.79.79,0,0,0-.17-1.12l-10.09-7.49,8.82-2.25,7.47,4.28a.85.85,0,0,0,.4.1.8.8,0,0,0,.4-1.5l-6-3.45L292,388.91A.8.8,0,0,0,292.57,387.93Z"/><path class="cls-8" d="M210.7,208.26c-7.95-1.94-12.27-12.25-9.64-23s11.19-18,19.14-16,12.27,12.25,9.64,23S218.65,210.19,210.7,208.26Z"/><path class="cls-3" d="M210,207.91c-5.24.56-10.17-5.59-11-13.72s2.68-15.18,7.91-15.73,10.16,5.59,11,13.72S215.27,207.36,210,207.91Z"/><path class="cls-8" d="M181.48,234.51c-8,1.53-16.24-6.07-18.31-17s2.74-21,10.78-22.52,16.24,6.06,18.32,17S189.52,233,181.48,234.51Z"/><path class="cls-3" d="M180.73,234.48c-4.53,2.67-11.57-.88-15.72-7.93s-3.85-14.93.68-17.6,11.57.88,15.73,7.93S185.26,231.81,180.73,234.48Z"/><path class="cls-8" d="M212.72,242.05c-3.93-5-1.56-13.45,5.28-18.78s15.58-5.56,19.51-.52,1.56,13.46-5.29,18.79S216.64,247.1,212.72,242.05Z"/><path class="cls-3" d="M212.47,241.52c-3.46-2.2-3.5-8.36-.08-13.76s9-8,12.48-5.79,3.51,8.37.09,13.76S216,243.72,212.47,241.52Z"/><path class="cls-8" d="M215.76,256.14c1.49-6.22,9.53-9.62,18-7.6s14.07,8.7,12.58,14.92-9.54,9.62-18,7.6S214.26,262.35,215.76,256.14Z"/><path class="cls-3" d="M216,255.61c-.45-4.08,4.34-8,10.7-8.65S238.59,249,239,253.1s-4.35,8-10.7,8.66S216.47,259.7,216,255.61Z"/><path class="cls-8" d="M182.87,267.06c1.49-6.21,9.54-9.61,18-7.59s14.07,8.7,12.58,14.92-9.54,9.62-18,7.59S181.38,273.28,182.87,267.06Z"/><path class="cls-3" d="M183.13,266.54c-.45-4.08,4.34-8,10.7-8.65S205.7,260,206.14,264s-4.34,8-10.69,8.66S183.58,270.63,183.13,266.54Z"/><path class="cls-3" d="M92.44,328.12l-.72-1.43C175,285.09,209,208.37,209.3,207.6l1.47.63C210.44,209,176.25,286.26,92.44,328.12Z"/><path class="cls-3" d="M192.06,243.37c-.62,0-1.19,0-1.72-.05l.11-1.6c6.36.44,20.45-2.16,20.59-2.19l.3,1.58C210.8,241.21,199.05,243.37,192.06,243.37Z"/><path class="cls-3" d="M215.81,256.39c-10.16-2.79-17.41-13.35-17.71-13.8l1.33-.9c.07.1,7.22,10.52,16.8,13.15Z"/><path class="cls-8" d="M144.86,317.58c-.46-6.38,6.18-12.05,14.83-12.68s16.05,4,16.51,10.41S170,327.36,161.37,328,145.33,324,144.86,317.58Z"/><path class="cls-3" d="M145,317c-1.66-3.75,1.73-8.9,7.58-11.48s11.93-1.64,13.59,2.12-1.73,8.9-7.58,11.49S146.62,320.76,145,317Z"/><path class="cls-3" d="M144.17,317.82c-10.23,0-19.82-7.47-20.24-7.8l1-1.26c.1.08,10.13,7.84,20,7.44l.06,1.61Z"/><path class="cls-8" d="M116.82,290.09c-5.1,3.85-13.47,1.36-18.7-5.56s-5.33-15.66-.23-19.52,13.47-1.36,18.7,5.57S121.92,286.24,116.82,290.09Z"/><path class="cls-3" d="M116.28,290.32c-2.25,3.44-8.41,3.39-13.75-.12s-7.86-9.13-5.61-12.57,8.41-3.38,13.76.12S118.54,286.88,116.28,290.32Z"/><path class="cls-8" d="M130.78,285.66c-6.2-1.58-9.48-9.68-7.33-18.09s8.91-13.93,15.1-12.35,9.48,9.68,7.33,18.08S137,287.24,130.78,285.66Z"/><path class="cls-3" d="M130.26,285.39c-4.09.38-7.89-4.46-8.49-10.83s2.22-11.84,6.31-12.22,7.9,4.46,8.5,10.82S134.35,285,130.26,285.39Z"/><path class="cls-3" d="M117.76,312.48l-1.6-.13c.53-6.35-1.86-20.49-1.89-20.63l1.59-.27C116,292,118.31,305.93,117.76,312.48Z"/><path class="cls-3" d="M117,303.11l-.88-1.34c.11-.07,10.63-7.06,13.4-16.61l1.54.45C128.1,295.73,117.43,302.82,117,303.11Z"/><path class="cls-3" d="M178.42,259.4l-1.38-.81c5.21-8.83,2.92-23.84,2.9-24l1.58-.25C181.63,235,183.93,250.08,178.42,259.4Z"/><path class="cls-8" d="M145.85,287.34c-1.09-7.93,6.76-15.56,17.53-17s20.37,3.77,21.46,11.7-6.76,15.56-17.53,17S146.93,295.28,145.85,287.34Z"/><path class="cls-3" d="M144.4,290.58c-2.17-3.14,0-8.42,4.91-11.79s10.6-3.56,12.76-.43,0,8.42-4.9,11.79S146.57,293.71,144.4,290.58Z"/><path class="cls-3" d="M182.7,267.22c-3.48-2.22-7.14-3.86-7.85-3.5l-1.19-1.07c1.49-1.75,6.84,1.27,9.9,3.22Z"/><path class="cls-7" d="M124.57,314.6c0-3.87-4-7-8.95-7.21,3.37-3.67,4-8.68,1.24-11.41s-8.1-2.11-11.8,1.59a11.93,11.93,0,0,0-1.79,2.34,12.17,12.17,0,0,0,.6-3.78c0-5.22-3.23-9.46-7.22-9.46s-7.23,4.24-7.23,9.46a10.42,10.42,0,0,0,.06,1.13c-3.68-3.41-8.71-4-11.45-1.28s-2.12,7.87,1.37,11.55c-4.27.7-7.47,3.6-7.47,7.07,0,3.86,4,7,8.95,7.2-3.37,3.67-4,8.68-1.24,11.41,2.43,2.43,6.69,2.23,10.19-.24,1,3.69,3.66,6.34,6.82,6.34,3.46,0,6.36-3.2,7.06-7.47,3.68,3.49,8.79,4.13,11.55,1.37s2.13-7.77-1.28-11.45a10.55,10.55,0,0,0,1.13.06C120.34,321.82,124.57,318.59,124.57,314.6Zm-22.7,5.22a5.69,5.69,0,0,0-1.28,2.1,6.06,6.06,0,0,0-3.94-1.54,5.73,5.73,0,0,0-2.7.69,5.57,5.57,0,0,0-.93-1.25,6,6,0,0,0-3.43-1.62,6,6,0,0,0,1.27-3.6,6.06,6.06,0,0,0-1.54-4,5.69,5.69,0,0,0,2.1-1.28,6.3,6.3,0,0,0,1.67-5,5.93,5.93,0,0,0,3.56,1.23,6.7,6.7,0,0,0,5.54-3.4c-.86,2.69-.47,5.41,1.29,7.17a6,6,0,0,0,3.43,1.62,5.75,5.75,0,0,0,0,7.16A6.3,6.3,0,0,0,101.87,319.82Z"/><path class="cls-3" d="M108.69,313.33a12,12,0,1,1-12-12A12,12,0,0,1,108.69,313.33Z"/><path class="cls-7" d="M230.38,424.22a10.69,10.69,0,0,1,2.45.18,10.91,10.91,0,1,1-10.6,17.47C223.07,437,225.31,430.92,230.38,424.22Z"/><path class="cls-3" d="M220.07,433.06a10.91,10.91,0,0,1,10.31-8.84c-5.07,6.7-7.31,12.76-8.15,17.65A10.89,10.89,0,0,1,220.07,433.06Z"/><path class="cls-7" d="M255.43,404.37a9.33,9.33,0,0,1,1.9-.68,8.95,8.95,0,1,1-2.18,16.62A33.38,33.38,0,0,1,255.43,404.37Z"/><path class="cls-3" d="M250.62,414.42a8.93,8.93,0,0,1,4.81-10.05,33.38,33.38,0,0,0-.28,15.94A8.9,8.9,0,0,1,250.62,414.42Z"/><path class="cls-7" d="M210.73,389.43a11.12,11.12,0,0,1,1-2.25,10.91,10.91,0,1,1,13,15.78C220.36,400.55,215.38,396.44,210.73,389.43Z"/><path class="cls-3" d="M215.67,402.09a10.92,10.92,0,0,1-4.94-12.66c4.65,7,9.63,11.12,14,13.53A10.91,10.91,0,0,1,215.67,402.09Z"/><path class="cls-3" d="M225.37,417.1c-15.26,0-34.32-2.13-48.05-10.93l.87-1.35c26,16.66,71.83,8.89,72.29,8.81l.27,1.58A166.28,166.28,0,0,1,225.37,417.1Z"/><path class="cls-3" d="M221.61,429.88a21.21,21.21,0,0,1-16.56-14.51l1.53-.49a19.53,19.53,0,0,0,15.22,13.41Z"/><path class="cls-3" d="M198.61,413.81l-1.5-.57c4.08-10.7,16.26-13,16.77-13.12l.29,1.58C214.05,401.73,202.36,404,198.61,413.81Z"/><path class="cls-2" d="M203.93,387.14c-4.35-9-18,4.43-22.25,9-1.56.56-4.69,1.63-9,2.92,7.49-7.67,12.35-19.49,5.11-21.63-9.59-2.84-8.82,16.41-8.34,22.57-4.52,1.27-10,2.65-16,3.88,7.46-7.67,12.3-19.45,5.07-21.59-9.43-2.79-8.85,15.77-8.37,22.23-5.29,1-11,1.84-16.8,2.38,9.17-6.73,16.77-20.15,9.05-23.08-10.18-3.86-10.08,19.25-10,23.16a131,131,0,0,1-17.29.44c8.43-6.44,14.82-17.13,8.09-20.33-8.64-4.12-11.06,13.22-11.68,20.11a77,77,0,0,1-22.46-4.89l-.59,1.49a78.47,78.47,0,0,0,22.92,5c0,.73-.07,1.15-.07,1.15l.94-.55c1.62,5.09,8.51,24.76,16.56,18.22,6.18-5-4.19-14.79-14.63-18.64,2,.1,4.07.17,6.11.17,3.84,0,7.67-.18,11.45-.49,2.09,5.09,10.5,23.84,17.94,16.71,5.52-5.27-4.5-13.68-14.78-17,5.33-.54,10.51-1.33,15.38-2.24,0,.37.06.58.06.58.28-.22.55-.47.83-.7,2.37,4.75,12.26,23.16,19.21,15.44,5.2-5.79-5.94-13.61-16.64-16,5.95-1.21,11.33-2.57,15.83-3.83,0,.14,0,.22,0,.22s.27-.23.41-.34l.53-.15c2.54,5,12.25,22.85,19.1,15.22,5.19-5.76-5.87-13.56-16.55-16,4.09-1.22,7.14-2.25,8.82-2.85C193.14,399,207.49,394.48,203.93,387.14Z"/><path class="cls-4" d="M123,428.19c-13.63-4-22.79-13.7-20.46-21.59s15.28-11,28.92-7,39.45,24.55,37.69,26.69C166.36,429.65,136.6,432.22,123,428.19Z"/><path class="cls-1" d="M99.51,413c-12.56,6.65-25.87,6.15-29.72-1.12S73,393.28,85.58,386.63s45.37-10,45.6-7.28C131.55,383.66,112.08,406.31,99.51,413Z"/><path class="cls-3" d="M82.26,419.54a49.79,49.79,0,0,0-18.58-11.82c8.19-2.11,21.3-7.37,19.78-19.35,0,0-2.52-9.34-8.06-6.78,0,0-2.58-8.79-9.93-3.64a50.11,50.11,0,0,0-12.88,14.38c.48-8-.16-24.35-13.08-26.35,0,0-9.68-.13-8.74,5.89,0,0-9.16.06-6.23,8.55a43.28,43.28,0,0,0,4.14,8.33c-4.92-2.37-10.43-3-15.54.8,0,0-6.86,6.82-1.89,10.36,0,0-6.37,6.59,1.75,10.43a49.84,49.84,0,0,0,21.29,4c-7.39,4.05-18.55,12.28-14.1,23.4,0,0,4.8,8.26,9.51,4.38,0,0,4.71,8.27,10.53,1.43s13.58-23.65,8.41-31.65H44.4c.63-1,1.23-1.08,1.74-1.63l-1.81-6.82a10.86,10.86,0,0,0,3.54.52l1.06-1.81a11.34,11.34,0,0,0,.32,4.67l2.18.56-1,8.29s7.11,27.55,23.93,23.06c0,0,8.92-3.77,5.63-8.91C80,429.87,88.36,426.13,82.26,419.54Z"/><path class="cls-7" d="M57.69,406.28a11.47,11.47,0,1,1-11.47-11.47A11.48,11.48,0,0,1,57.69,406.28Z"/><path class="cls-4" d="M53.83,404c0-.15,0-.29,0-.45a8.34,8.34,0,0,0-6.52-7.26c1.51-9.49-2.07-25.71-3-29.57A2.94,2.94,0,1,0,40.4,364c0,1.4,1,2,2.29,2.27.75,3.18,4.51,20.69,3,28.69H45.5c0-8-7.5-25.85-9.33-29.95a2,2,0,0,0,1.31-1.83,2.3,2.3,0,0,0-2.42-2.27,2.48,2.48,0,0,0-.55,4.88c1.31,2.93,9.52,21.63,9.4,30.5l-.43.1c-2.33-4.22-9.13-22.28-13.53-34.49a2.9,2.9,0,1,0-4.85-2.14,2.9,2.9,0,0,0,2.9,2.9,2.83,2.83,0,0,0,.5-.05c1.56,4.34,9.22,25.44,12.82,33.05-7.48-8.12-13-25-13-25.16l-.31.1a2.7,2.7,0,0,0,.68-1.79,2.74,2.74,0,1,0-2.74,2.74,2.77,2.77,0,0,0,1-.18c.9,2.69,6.37,18.38,13.85,26C33.52,392.39,22.09,376,22,375.87l-.19.13a3.21,3.21,0,1,0-2.9,1.84,3.19,3.19,0,0,0,2-.72c1.71,2.42,11.81,16.54,18.77,21.4a7.17,7.17,0,0,0-.67.68,8.36,8.36,0,0,0-1.81,6.14c0,.15,0,.29.08.51l.08.49.48.14a20.36,20.36,0,0,0,5.85.86c.72,0,1.45,0,2.16-.11a20.27,20.27,0,0,0,7.59-2.37l.43-.33Z"/><path class="cls-4" d="M38.18,399.86c-3.42-1.09-10.5-9.55-13.3-13.16a2.43,2.43,0,0,0,.56-1.54,2.46,2.46,0,1,0-1.92,2.4c1.4,1.81,9.74,12.41,14.17,13.83Z"/></g></g></g></svg>