<svg xmlns="http://www.w3.org/2000/svg" viewBox="0 0 302.98 448.89"><defs><style>.cls-1{fill:#c7eafc;}.cls-2{fill:#5abeed;}.cls-3{fill:#fff;}.cls-4{fill:#fcb434;}.cls-5{fill:#0f5aa4;}.cls-6{fill:#f2f2f2;}</style></defs><g id="Layer_2" data-name="Layer 2"><g id="_1" data-name="1"><g id="_5" data-name="5"><path class="cls-1" d="M33.11,102A103,103,0,0,1,59.56,62.42Q76.9,46.51,101.64,38.54t54.88-8a194.5,194.5,0,0,1,44.93,5.12,118.35,118.35,0,0,1,38.67,16.49,85.39,85.39,0,0,1,27.3,29.58q10.23,18.21,10.23,43.79,0,40.94-23.6,63.69T194.62,215.4v1.14a120.57,120.57,0,0,1,33.27,8.25,90.82,90.82,0,0,1,29,18.76A89.74,89.74,0,0,1,277.37,274q7.68,18.21,7.68,43.22,0,27.3-10.52,48.34a106.2,106.2,0,0,1-28.44,35.54A124.17,124.17,0,0,1,204.58,423a167.8,167.8,0,0,1-50.33,7.39q-33,0-59.72-9.1T49,394.83q-18.76-17.34-28.16-42.94t-7.1-58.58H25.15Q22.87,324,31.41,347.63T57,387.15q17.06,15.93,42.08,24.17t55.17,8.25A154.24,154.24,0,0,0,199.17,413a113.62,113.62,0,0,0,38.11-19.62,99.12,99.12,0,0,0,26.44-32.13q9.94-19,9.95-44.08t-8.24-42.65a76.3,76.3,0,0,0-23.32-29,105.57,105.57,0,0,0-35.26-17.06,197.66,197.66,0,0,0-44.07-6.82H134.91V210.28h27.87A165.4,165.4,0,0,0,200,206a98.66,98.66,0,0,0,33.26-14.22,75.52,75.52,0,0,0,23.89-26.16q9.09-16.2,9.1-40.09-.57-23.31-10.24-39.24a79.78,79.78,0,0,0-25-25.88,104.86,104.86,0,0,0-34.69-14.22A184.48,184.48,0,0,0,156.52,42q-27.87,0-50.33,7.11T67.8,70.67a92.55,92.55,0,0,0-24.17,36.11Q35.38,128.39,36,157.39H24.58Q24,125.56,33.11,102Z"/><path class="cls-2" d="M3.77,349.13s7,79.73,78.75,67C82.52,416.13,90.41,354.31,3.77,349.13Z"/><line class="cls-3" x1="4.6" y1="349.15" x2="82.86" y2="415.73"/><path class="cls-1" d="M82.86,416.54a.83.83,0,0,1-.52-.19L4.08,349.76a.8.8,0,1,1,1-1.22l78.26,66.58a.82.82,0,0,1,.09,1.13A.81.81,0,0,1,82.86,416.54Z"/><path class="cls-1" d="M6.52,364.35a.8.8,0,0,1-.11-1.6l11.39-1.62-1-10.52a.8.8,0,0,1,.72-.87.81.81,0,0,1,.88.72l1.16,12L6.64,364.34Z"/><path class="cls-1" d="M9.4,373.52a.8.8,0,0,1-.1-1.6l18.53-2.36.37-16.85a.85.85,0,0,1,.82-.79.81.81,0,0,1,.79.82L29.4,371,9.5,373.52Z"/><path class="cls-1" d="M15.35,386.67a.8.8,0,0,1-.19-1.58l24.13-5.7.48-23.62c0-.44.37-1.22.8-1.22h0c.44,0,.79.81.79,1.25l-.51,24.65-25.34,6.09C15.47,386.56,15.41,386.67,15.35,386.67Z"/><path class="cls-1" d="M23.41,398.14a.8.8,0,0,1-.21-1.58l27.59-7.4,1.6-26.88a.79.79,0,0,1,.85-.75.81.81,0,0,1,.76.85l-1.68,28-28.7,7.7Z"/><path class="cls-1" d="M35.56,409.38a.8.8,0,0,1-.25-1.56L62.26,399l2-28.15a.83.83,0,0,1,.86-.75.8.8,0,0,1,.74.86l-2,29.23-28,9.2A.69.69,0,0,1,35.56,409.38Z"/><path class="cls-1" d="M52.63,416.61a.81.81,0,0,1-.26-1.57l20.63-7,3.18-21a.81.81,0,0,1,.91-.68.82.82,0,0,1,.68.92l-3.33,21.95-21.56,7.3A.74.74,0,0,1,52.63,416.61Z"/><path class="cls-4" d="M60.78,76.39c0-.15,0-.31.07-.47s.2-.22.29-.34l-.23,0a57.72,57.72,0,0,0,.86-11.31l-1.6,0a57.83,57.83,0,0,1-.86,11.15c-5.4-.33-20.85-.6-18.42,7.23,1.86,6,11.59,1.85,17.89-4.44a94.52,94.52,0,0,1-5.7,17.59c-4.94-1.82-20-6.66-19.88,1.61.08,6.4,11,5,18.91.58a148.09,148.09,0,0,1-7.69,14.67c-5-2.27-19.16-7.88-19.67.24-.4,6.2,10,5.86,18.12,2.31-2.66,4.31-5.25,8.11-7.52,11.24-4.8-2.19-19.4-8.13-19.92.13-.39,6.21,10,5.86,18.14,2.31-2.32,3.1-4.08,5.26-4.88,6.21-5,2.17-18.81,8.87-13.13,14.73,4.68,4.84,12.2-4.83,14.53-13.9.87-1.06,2.58-3.16,4.79-6.12-1.09,9,1.85,19.65,7.79,17.26,7.86-3.15-3-15.64-6.36-19.21l.45-.62.12-.07-.05,0c2.23-3.11,4.77-6.84,7.37-11.05-1.1,9,1.84,19.68,7.79,17.29,8-3.2-3.39-16.06-6.52-19.38l.1-.17.63-.35-.32-.16a147.48,147.48,0,0,0,8.49-16.52c-1.46,9.51,2.43,22.58,8.79,19.46,8.75-4.3-8.2-19.08-8.75-19.56l.11-.23.11-.08a.14.14,0,0,0-.07,0A96.1,96.1,0,0,0,60.26,79C62.5,87.68,69,96.43,73.65,92.11,79.9,86.33,65.06,78.48,60.78,76.39Z"/><path class="cls-4" d="M275.91,344.5c0-.15,0-.31.08-.46l.28-.35-.22,0a59.3,59.3,0,0,0,.86-11.31l-1.61.05a57.77,57.77,0,0,1-.86,11.15c-5.4-.33-20.85-.6-18.42,7.23,1.86,6,11.59,1.85,17.89-4.44a94.52,94.52,0,0,1-5.7,17.59c-4.94-1.81-20-6.66-19.87,1.61.07,6.4,11,5,18.91.58a148.11,148.11,0,0,1-7.7,14.67c-5-2.27-19.16-7.88-19.67.24-.39,6.2,10,5.86,18.12,2.31-2.65,4.31-5.25,8.11-7.51,11.24-4.81-2.18-19.41-8.12-19.93.13-.39,6.21,10,5.86,18.14,2.31-2.32,3.1-4.08,5.26-4.88,6.21-5,2.17-18.8,8.87-13.13,14.74,4.68,4.83,12.2-4.84,14.53-13.91.88-1.06,2.58-3.16,4.79-6.12-1.09,9,1.85,19.65,7.79,17.26,7.86-3.15-3-15.64-6.35-19.21l.44-.62.12-.07,0,0c2.23-3.1,4.77-6.84,7.37-11.05-1.1,9,1.84,19.68,7.79,17.3,8-3.21-3.39-16.07-6.52-19.39,0-.06.07-.11.1-.16.21-.12.43-.23.63-.36l-.32-.15A148.51,148.51,0,0,0,269.5,365c-1.46,9.51,2.43,22.59,8.79,19.46,8.75-4.3-8.2-19.08-8.75-19.55l.11-.24.12-.08-.07,0a96.84,96.84,0,0,0,5.69-17.44c2.24,8.72,8.72,17.47,13.39,13.16C295,354.45,280.2,346.59,275.91,344.5Z"/><path class="cls-4" d="M76.58,384.41c3.92-3.74,14.63-14.88,7.24-18.42-5.65-2.71-9.24,7.23-8.93,16.13a94.88,94.88,0,0,1-9-16.14c4.69-2.39,18.47-10.11,12.34-15.67C73.49,346,67,355,64.93,363.76a150.84,150.84,0,0,1-5.51-15.6c5.09-2.15,18.81-8.68,13.21-14.58-4.27-4.51-11.11,3.35-14,11.71-1.34-4.88-2.36-9.37-3.11-13.16,4.87-2,19.15-8.69,13.46-14.68-4.28-4.52-11.12,3.35-14,11.71-.7-3.81-1.08-6.57-1.24-7.8,1.82-5.16,6.3-19.81-1.86-19.65-6.73.14-4.76,12.23.3,20.1.18,1.36.56,4.06,1.23,7.71-5.84-6.92-15.65-12-18-6.06-3,7.9,13.52,8.43,18.4,8.42l.15.74,0,.13h0c.76,3.75,1.77,8.16,3.09,12.94-5.85-6.94-15.68-12.08-18-6.09C36,347.62,53.15,348,57.72,348c0,.05,0,.11.05.16-.06.24-.11.48-.16.72l.33-.12a148.45,148.45,0,0,0,6.33,17.47c-6-7.54-18.21-13.59-20.24-6.81-2.8,9.33,19.55,7,20.28,6.9l.1.24a.78.78,0,0,1,0,.14l.07,0a96.69,96.69,0,0,0,8.91,16.06c-7.91-4.31-18.74-5.53-18.76.84,0,8.51,15.83,3,20.28,1.26.09.13.19.25.28.37s0,.3.07.45l.17-.15a58.11,58.11,0,0,0,7.7,8.32l1.06-1.2A57.18,57.18,0,0,1,76.58,384.41Z"/><path class="cls-4" d="M134,422.12a49.71,49.71,0,0,0-18.58-11.82c8.19-2.1,21.3-7.37,19.79-19.34,0,0-2.53-9.35-8.07-6.78,0,0-2.57-8.8-9.93-3.65a50.26,50.26,0,0,0-12.88,14.38c.48-8-.15-24.35-13.08-26.35,0,0-9.67-.13-8.73,5.9,0,0-9.17.05-6.24,8.54a43.1,43.1,0,0,0,4.15,8.33c-4.93-2.37-10.43-3-15.54.8,0,0-6.87,6.82-1.9,10.36,0,0-6.37,6.59,1.75,10.43A49.85,49.85,0,0,0,86,417c-7.4,4.05-18.56,12.28-14.11,23.4,0,0,4.8,8.26,9.51,4.38,0,0,4.72,8.28,10.53,1.44s13.58-23.63,8.41-31.63H96.09c.64,0,1.23-1.1,1.74-1.64L96,406.07a10.89,10.89,0,0,0,3.54.52l1.06-1.81a11.69,11.69,0,0,0,.32,4.67l2.18.56-1,8.29s7.11,27.55,23.93,23.06c0,0,8.92-3.77,5.63-8.91C131.68,432.45,140.05,428.71,134,422.12Z"/><path class="cls-3" d="M109.38,408.86a11.47,11.47,0,1,1-11.47-11.47A11.47,11.47,0,0,1,109.38,408.86Z"/><path class="cls-2" d="M105.53,406.61c0-.15,0-.29,0-.45A8.33,8.33,0,0,0,99,398.9c1.5-9.49-2.07-25.71-3-29.57a2.94,2.94,0,1,0-3.92-2.77c0,1.4,1,2,2.29,2.29.75,3.17,4.52,21.7,3,28.7h-.17c0-7-7.52-25.87-9.35-30a2,2,0,0,0,1.3-1.85,2.3,2.3,0,0,0-2.42-2.27A2.49,2.49,0,0,0,84.33,366a2.46,2.46,0,0,0,1.87,2.39c1.31,2.93,9.53,21.63,9.41,30.5l-.44.1c-2.32-4.22-9.13-22.28-13.53-34.49a2.9,2.9,0,0,0-1.94-5,2.91,2.91,0,1,0,0,5.81,2.63,2.63,0,0,0,.49-.05c1.57,4.34,9.22,25.44,12.83,33.05-7.48-8.12-13-25-13.06-25.16l-.31.1a2.71,2.71,0,0,0,.69-1.79,2.75,2.75,0,1,0-2.74,2.74,2.82,2.82,0,0,0,1-.18c.9,2.69,6.37,18.38,13.85,26-7.2-4.93-18.62-21.28-18.74-21.44l-.19.13a3.17,3.17,0,0,0,.33-1.4,3.27,3.27,0,1,0-1.22,2.51c1.7,2.42,11.8,16.54,18.75,21.41a7.79,7.79,0,0,0-2.46,6.81,4.68,4.68,0,0,0,.08.51l.08.49.47.14a20.36,20.36,0,0,0,5.85.86c.72,0,1.45,0,2.17-.11a20.33,20.33,0,0,0,7.58-2.36l.43-.34Z"/><path class="cls-2" d="M89.39,404l.49-1.53c-3.43-1.09-10.51-9.55-13.3-13.16a2.45,2.45,0,1,0-1.91.92,2.35,2.35,0,0,0,.54-.06C76.61,392,85,402.55,89.39,404Z"/><path class="cls-1" d="M273.4,338.85s-24.24-1.68-26.43,8.08S263.3,361.41,273.4,338.85Z"/><path class="cls-1" d="M274.31,338.62S261.45,318,252.26,322,250.11,343.67,274.31,338.62Z"/><path class="cls-1" d="M271.93,338.74s-13.16,20.43-5.66,27.05S286.83,358.47,271.93,338.74Z"/><path class="cls-1" d="M271.48,339.9s10.54,21.9,20.11,19S296.09,337.51,271.48,339.9Z"/><path class="cls-1" d="M272.76,339.78s22.9,8.15,27.64-.66S288.57,320.77,272.76,339.78Z"/><path class="cls-1" d="M272.33,341.5s16.74-17.62,10.61-25.53S261.37,319.34,272.33,341.5Z"/><path class="cls-4" d="M265.33,341.5a7,7,0,1,0,7-7A7,7,0,0,0,265.33,341.5Z"/><path class="cls-2" d="M109,228.25s53.91,40.78,86.58-11.43C195.59,216.82,161.3,176.88,109,228.25Z"/><path class="cls-1" d="M195.42,215.59l-9.49,1.25-11-13.44a.81.81,0,0,0-1.13-.12.82.82,0,0,0-.12,1.14l10.37,12.67-10,1.32-16.18-16.82a.81.81,0,0,0-1.16,1.12l15.37,16-10.64,1.4-15.61-15.89a.81.81,0,1,0-1.15,1.13l14.77,15-10.67,1.41-13.95-13.14a.81.81,0,0,0-1.11,1.17l13,12.24-10.55,1.39-10.09-9.52a.81.81,0,0,0-1.14,0,.79.79,0,0,0,0,1.13l9.13,8.63-9,1.19-6.91-5.13a.8.8,0,0,0-1,1.29l5.59,4.15L109.38,227a.8.8,0,0,0,.11,1.6h.1l14.47-1.91-5.12,7.6a.8.8,0,0,0,.21,1.12.85.85,0,0,0,.45.14.82.82,0,0,0,.67-.36l5.92-8.78,8.78-1.16-8.65,12.42a.81.81,0,0,0,.2,1.12.79.79,0,0,0,.46.15.8.8,0,0,0,.66-.35l9.48-13.63,10.61-1.4-9.84,17.91a.8.8,0,0,0,.31,1.09.92.92,0,0,0,.39.09.8.8,0,0,0,.7-.41l10.42-18.94,10.67-1.41-10.75,21a.79.79,0,0,0,.35,1.08.77.77,0,0,0,.36.09.82.82,0,0,0,.72-.44l11.25-22,10.74-1.42-9.51,21.49a.8.8,0,0,0,.41,1.06.71.71,0,0,0,.32.07.79.79,0,0,0,.73-.48l9.91-22.39,9.91-1.3-7.1,16.44a.8.8,0,0,0,.42,1,.71.71,0,0,0,.32.07.81.81,0,0,0,.74-.48l7.48-17.33,8.95-1.18a.8.8,0,0,0-.21-1.59Z"/><path class="cls-5" d="M184.18,31.56s15.12,65.88,73.7,46.85C257.88,78.41,257.26,25.78,184.18,31.56Z"/><path class="cls-2" d="M258.54,77.36l-8.08-5.14.2-17.11c0-.45-.35-.56-.79-.56h0c-.44,0-.8.1-.8.54l-.19,16.13-8.51-5.41-1.6-23.28a.81.81,0,0,0-.86-.75.8.8,0,0,0-.74.85l1.52,22.11L229.62,59l-1.75-22.2A.85.85,0,0,0,227,36a.8.8,0,0,0-.73.87l1.65,21-9.07-5.77-2.26-19a.8.8,0,0,0-.89-.7.79.79,0,0,0-.7.89L217.1,51l-9-5.72L206.5,31.53a.8.8,0,1,0-1.59.19l1.46,12.47-7.68-4.88-2-8.37a.8.8,0,0,0-1-.6.81.81,0,0,0-.6,1l1.62,6.76-11.43-7.26a.8.8,0,0,0-.87,1.35L196.76,40l-8.82,2.53a.81.81,0,0,0,.23,1.58l.22,0,10.18-2.93L206,45.89l-14.61,4a.8.8,0,0,0,.21,1.58.76.76,0,0,0,.21,0l16-4.36,9,5.75-19,7.39a.8.8,0,0,0,.29,1.55.71.71,0,0,0,.29-.05l20.15-7.83,9.08,5.78-21.74,9.21a.8.8,0,0,0,.31,1.54.85.85,0,0,0,.31-.06l22.77-9.65,9.14,5.82-21.1,10.36a.8.8,0,0,0,.36,1.52.85.85,0,0,0,.35-.08l22-10.8,8.44,5.37-16,8a.8.8,0,0,0,.36,1.52.74.74,0,0,0,.36,0l17-8.46,7.52,4.78a.88.88,0,0,0,.43.12.8.8,0,0,0,.43-1.48Z"/><path class="cls-2" d="M236.58,149.2s-63.72,22.57-38.11,78.58C198.47,227.78,250.69,221.13,236.58,149.2Z"/><path class="cls-1" d="M239.17,171.38a.81.81,0,0,0-.37-1.57l-12.23,2.88,4-8.19,8.09-2.95a.8.8,0,0,0,.48-1,.81.81,0,0,0-1-.48l-6.53,2.39,5.91-12.2a.8.8,0,0,0-.37-1.07.81.81,0,0,0-1.08.37l-6.36,13.13-3.53-8.46a.8.8,0,0,0-1.48.62l4.07,9.78-3.86,8-5.62-14.06a.8.8,0,0,0-1-.45.82.82,0,0,0-.45,1l6.16,15.42-4.67,9.62-9.53-18.07a.8.8,0,0,0-1.42.75l10.08,19.12-4.69,9.68L202,175.08a.8.8,0,0,0-1.09-.31.82.82,0,0,0-.31,1.1l12.19,21.5-4.72,9.75-12.71-19.77a.8.8,0,0,0-1.35.87l13.24,20.59-4.36,9-9.83-15a.8.8,0,1,0-1.34.88l10.35,15.78-3.94,8.13a.8.8,0,0,0,.37,1.07.74.74,0,0,0,.35.08.78.78,0,0,0,.72-.45l4.18-8.62,17.28-1.79a.8.8,0,1,0-.17-1.59L204.6,218l4.39-9.06,22.95-4.26a.8.8,0,0,0-.29-1.58l-21.79,4,4.69-9.66,21.86-4.28a.81.81,0,0,0-.31-1.58l-20.68,4.06,4.7-9.68,18.65-4.43a.8.8,0,0,0-.37-1.56L221,184.13l4.64-9.57Z"/><path class="cls-5" d="M276.4,252.37s-19.94-64.58-76.95-41.29C199.45,211.08,204,263.53,276.4,252.37Z"/><path class="cls-2" d="M276.09,251.8l-12.86-6.91,8.61-3.17a.81.81,0,0,0-.56-1.51l-9.94,3.67-7.8-4.19,14.27-5a.8.8,0,1,0-.53-1.52l-15.66,5.53-9.42-5.06,18.44-8.78a.8.8,0,0,0,.38-1.07.8.8,0,0,0-1.07-.38l-19.51,9.29L231,227.58l21-10.8a.79.79,0,0,0,.35-1.07.8.8,0,0,0-1.08-.35l-22,11.3-9.55-5.12L240,209.65a.8.8,0,0,0-.81-1.39L218,220.65l-8.82-4.73,15.37-9.21a.82.82,0,0,0-.82-1.43l-16.3,9.7-7.85-4.22a.81.81,0,1,0-.76,1.42l8.45,4.53,1.07,17.21c0,.42.38.63.8.63h0a.69.69,0,0,0,.75-.74l-1-16.16,8.88,4.74,3.32,23.09a.8.8,0,0,0,.79.68h.12a.8.8,0,0,0,.68-.91l-3.15-21.93,9.46,5.07,3.39,22a.8.8,0,0,0,.79.68h.12a.8.8,0,0,0,.67-.91l-3.2-20.83,9.47,5.09L244,253.23a.8.8,0,0,0,.79.65h.15a.81.81,0,0,0,.64-.94l-3.41-17.53,9.38,5,2.63,13.62a.79.79,0,0,0,.78.65h.16a.8.8,0,0,0,.63-.94l-2.37-12.34,8,4.3,2.61,8.2a.8.8,0,0,0,.77.56,1,1,0,0,0,.24,0,.8.8,0,0,0,.52-1l-2.11-6.63,11.94,6.41a.85.85,0,0,0,.38.09.8.8,0,0,0,.38-1.5Z"/><path class="cls-5" d="M18.55,102.2s66.39,12.71,72.58-48.57C91.13,53.63,42.7,33,18.55,102.2Z"/><path class="cls-2" d="M91.55,52.82a.8.8,0,0,0-1.12-.22l-8,5.33L66.66,50.74A.8.8,0,0,0,66,52.2L80.91,59l-8.39,5.62L50.58,56.68a.82.82,0,0,0-1,.51A.85.85,0,0,0,50,58.25l20.71,7.53L62,71.66l-21-7.35a.79.79,0,1,0-.53,1.49l20,6.93-9,6L33,73.18a.81.81,0,0,0-1,.55.84.84,0,0,0,.54,1L49.47,80l-8.7,5.82L27.52,81.76a.79.79,0,0,0-1,.53.8.8,0,0,0,.53,1l12,3.69-7.57,5.07L23,90.51a.78.78,0,0,0-.93.64.79.79,0,0,0,.64.93l6.84,1.25-11.26,7.54a.79.79,0,0,0-.22,1.11.82.82,0,0,0,.67.36.85.85,0,0,0,.45-.14l12.12-8.12-1.23,9.09a.81.81,0,0,0,.69.91h.11a.8.8,0,0,0,.79-.69l1.43-10.5L40.47,88l-2.25,15a.81.81,0,0,0,.68.91H39a.8.8,0,0,0,.79-.68l2.47-16.42,8.9-6-.91,20.66c0,.45.32,1.09.76,1.09h0c.43,0,.78-.58.8-1l1-21.88,8.94-6L61.44,97c0,.44.35.53.79.53h0c.43,0,.79-.06.8-.5l.34-24.5,9-6,1,23.84c0,.43.37,1.14.8,1.14h0c.45,0,.79-.74.77-1.18L74,65.58,82.27,60l.91,17.83a.75.75,0,0,0,.8.71h0a.75.75,0,0,0,.76-.8l-1-18.81,7.51-5A.79.79,0,0,0,91.55,52.82Z"/><path class="cls-4" d="M240.59,218.8s4.83-7.79-3.92-9.82a50.24,50.24,0,0,0-19.3,0c6.28-5,18-16.38,10.87-27.32,0,0-6.36-7.3-10.22-2.57,0,0-6.16-6.78-10.52,1.07a42.52,42.52,0,0,0-3.43,8.64c-1.53-5.25-4.71-9.79-11-11,0,0-9.66-.55-9,5.51,0,0-9.16-.34-6.59,8.27a50.1,50.1,0,0,0,10.56,17.86c-8.12-2.61-20.88-4.67-26,5.62,0,0-3.05,9.19,3,10.1,0,0-2.71,8.76,6.27,8.52s26.68-5.69,29.48-15.15l-2.32-2.58a11.42,11.42,0,0,0,1.28.15l3.8-5.84a11.06,11.06,0,0,0,1.95,3l2-.4a11.43,11.43,0,0,0-3.26,3.36l1,2-6.84,4.8s-15.76,23.69-1.18,33.21c0,0,8.75,4.12,10.38-1.76,0,0,8.38,3.73,9.21-5.21a49.58,49.58,0,0,0-3.62-21.72c7,4.69,19.72,10.93,27.62,1.8C240.93,229.33,246.2,221.21,240.59,218.8Z"/><path class="cls-3" d="M210.39,222.11a11.47,11.47,0,1,1,.87-16.19A11.47,11.47,0,0,1,210.39,222.11Z"/><path class="cls-2" d="M234.48,181.22a3,3,0,0,0-4.16-.23,3,3,0,0,0-.6,3.62c-1.87,2.68-11.86,16.71-19.79,21.8l-.12-.13c6.72-6,14.67-23.26,16.49-27.36a2.38,2.38,0,0,0,2.46-.46,2.42,2.42,0,0,0,.19-3.41,2.49,2.49,0,0,0-3.42-.19,2.41,2.41,0,0,0-.48,2.92c-1.23,2.78-9.71,21.53-16.42,27.4l-.36-.27c1.6-4.56,10.49-21.67,16.64-33.11a2.89,2.89,0,0,0,2.45-4.81,3,3,0,0,0-4.1-.22,2.91,2.91,0,0,0-1,2,2.87,2.87,0,0,0,.74,2.09,2.3,2.3,0,0,0,.37.33c-2.16,4-12.59,23.52-15.94,31.42,1.36-11.09,9.82-25.71,9.91-25.87l-1-.69a3.1,3.1,0,0,0,.69.09,2.75,2.75,0,0,0,2.74-2.59,2.73,2.73,0,0,0-.7-2,2.82,2.82,0,0,0-3.87-.21,2.76,2.76,0,0,0-.21,3.88,3,3,0,0,0,.91.66c-.78,1.3-9.39,15.56-10.18,27.79-1.24-8.54,3.37-28.27,3.42-28.48l-.23-.05a3.19,3.19,0,0,0,1.51-5.24,3.32,3.32,0,0,0-4.55-.25,3.23,3.23,0,0,0-.25,4.56,3.24,3.24,0,0,0,1.86,1c-.66,2.89-4.42,19.82-3.4,28.25-.17,0-.34,0-.51,0a8.36,8.36,0,0,0-6.2,2.75c-.1.11-.18.22-.33.4l-.31.39.21.45A20.41,20.41,0,0,0,208.59,218l.57.06.36-.34c.1-.1.2-.19.29-.29a8.25,8.25,0,0,0,1-9.7c8.08-5.21,17.77-18.72,20-22a2.89,2.89,0,0,0,1.41.38,2.94,2.94,0,0,0,2.19-4.91Z"/><path class="cls-2" d="M200.67,204l1.47-.66c-1.47-3.28.09-14.21.91-18.69a2.46,2.46,0,0,0,1.71-4.09,2.53,2.53,0,0,0-3.48-.18,2.45,2.45,0,0,0-.18,3.47,2,2,0,0,0,.4.36C201.09,186.42,198.77,199.71,200.67,204Z"/><path class="cls-5" d="M301.81,146.09c-.68-7.74-13.95-4.94-23,1.25,1.9-3.83,3.23-6.78,3.94-8.41,8.58-7.37,15.07-20.94,7.27-23.34-9.53-2.94-9,16.18-8.61,22.4-.65,1.51-2,4.54-4,8.57-.51-10.7-5.85-22.31-12.34-18.48-8.62,5.09,6,17.65,10.81,21.49-2.15,4.17-4.84,9.08-8,14.33-.53-10.68-5.85-22.25-12.34-18.42-8.47,5,5.5,17.22,10.56,21.28-2.89,4.55-6.14,9.27-9.73,13.91,1.34-11.3-3.29-26-10.7-22.35-9.77,4.81,7.2,20.5,10.12,23.1a132.26,132.26,0,0,1-11.47,13c1-10.56-2.42-22.52-9.35-19.79-8.9,3.52,2.12,17.11,6.74,22.26a77,77,0,0,1-18.89,13.1l.69,1.45A78.66,78.66,0,0,0,242.76,198c.49.53.79.83.79.83.08-.35.16-.71.23-1.06,4.83,2.28,23.92,10.66,24.63.31.54-7.93-13.67-7-23.61-2A133.67,133.67,0,0,0,256.53,183c5.14,1.93,24.6,8.58,24.46-1.73-.1-7.63-13.08-6-22.51-.78,3.24-4.27,6.19-8.59,8.85-12.77l.47.35c0-.36.05-.72.06-1.08,5.12,1.51,25.29,6.81,24.38-3.53-.69-7.76-14-4.92-23.06,1.3,3.18-5.19,5.86-10.06,8-14.22l.18.13c0-.18,0-.37,0-.55s.16-.31.23-.47C283.06,151.26,302.71,156.3,301.81,146.09Z"/><path class="cls-5" d="M252.57,375.51c-6.69-7.4-16,9.31-18.84,14.87-1.33,1-4,2.87-7.82,5.32,5-9.46,6.37-22.17-1.17-22.19-10,0-3.86,18.23-1.67,24-4,2.49-8.8,5.33-14.24,8.21,5-9.46,6.32-22.11-1.21-22.14-9.83,0-4.06,17.61-1.78,23.69-4.82,2.44-10,4.84-15.5,7,6.93-9,10.48-24,2.24-24.69-10.85-.85-4.28,21.28-3.09,25A132.15,132.15,0,0,1,173,419.88c6.28-8.55,9.41-20.59,2.06-21.77-9.45-1.53-6.92,15.78-5.57,22.57a77.37,77.37,0,0,1-22.93,1.62l-.15,1.6q3,.28,6.06.28a85,85,0,0,0,17.34-1.94c.16.71.26,1.12.26,1.12.25-.25.49-.54.73-.81,3,4.41,15.13,21.41,21,12.86,4.51-6.54-8.17-13-19.27-13.79a133.31,133.31,0,0,0,16.75-5.23c3.44,4.3,16.77,19.93,21.92,11,3.8-6.61-8.17-11.87-19-12.16,5-2,9.72-4.23,14.13-6.47.14.35.23.55.23.55l.61-.9c3.63,3.91,18.26,18.77,22.76,9.41,3.37-7-9.53-11.4-20.47-10.67,5.37-2.84,10.16-5.65,14.12-8.12a1.78,1.78,0,0,1,.09.21c.11-.15.21-.31.31-.46l.45-.28c3.85,4.12,18.18,18.49,22.61,9.24,3.36-7-9.45-11.37-20.37-10.67,3.57-2.31,6.22-4.17,7.67-5.21C245.55,389.91,258.05,381.56,252.57,375.51Z"/><path class="cls-3" d="M303,299.18c0-2.91-3-5.27-6.76-5.42,2.55-2.76,3-6.55.95-8.61s-6.11-1.59-8.9,1.2a9,9,0,0,0-1.36,1.77,8.79,8.79,0,0,0,.46-2.86c0-3.94-2.43-7.13-5.44-7.13s-5.45,3.19-5.45,7.13a8.47,8.47,0,0,0,.07.88c-2.77-2.59-6.59-3.06-8.65-1s-1.6,5.93,1,8.71c-3.22.53-5.63,2.71-5.63,5.32,0,2.91,3,5.27,6.76,5.42-2.56,2.77-3,6.55-.95,8.61,1.84,1.84,5.06,1.68,7.7-.19.74,2.78,2.74,4.79,5.12,4.79,2.61,0,4.79-2.41,5.32-5.63,2.77,2.63,6.63,3.11,8.71,1s1.6-5.88-1-8.65a8.5,8.5,0,0,0,.87.07C299.79,304.63,303,302.19,303,299.18Zm-17.11,3.94a4.21,4.21,0,0,0-1,1.59,4.59,4.59,0,0,0-3-1.17,4.24,4.24,0,0,0-2,.53,4.09,4.09,0,0,0-.7-.95,4.48,4.48,0,0,0-2.62-1.22,4.5,4.5,0,0,0,1-2.72,4.57,4.57,0,0,0-1.17-3,4.21,4.21,0,0,0,1.59-1,4.78,4.78,0,0,0,1.26-3.8,4.48,4.48,0,0,0,2.68,1,5.08,5.08,0,0,0,4.22-2.69,5.28,5.28,0,0,0,.93,5.53,4.45,4.45,0,0,0,2.61,1.22,4.51,4.51,0,0,0-1,2.72,4.41,4.41,0,0,0,1,2.68A4.78,4.78,0,0,0,285.87,303.12Z"/><path class="cls-4" d="M291,298.23a9.08,9.08,0,1,1-9.07-9.08A9.07,9.07,0,0,1,291,298.23Z"/><path class="cls-2" d="M246.43,33.1S227,97.83,287.29,110.28C287.29,110.28,312.8,64.24,246.43,33.1Z"/><path class="cls-1" d="M292.39,85.14a.81.81,0,0,0-1.1.29L283,99.56l-4.72-8.9,10.13-21a.82.82,0,0,0-.38-1.08.81.81,0,0,0-1.07.38l-9.61,20-5-9.48,9.46-20.17a.79.79,0,0,0-.38-1.06.8.8,0,0,0-1.07.38l-8.95,19.07-5-9.5,7.46-17.66a.8.8,0,1,0-1.48-.62L265.41,66.3l-5-9.41,5.42-12.77a.8.8,0,0,0-.43-1,.79.79,0,0,0-1.05.42l-4.91,11.57L255.2,47l2.41-8.27a.8.8,0,0,0-.55-1,.79.79,0,0,0-1,.55L254.12,45l-6.33-12a.81.81,0,0,0-1.09-.33.79.79,0,0,0-.33,1.08l6.83,12.9-8.92-2.16a.8.8,0,0,0-.38,1.56l10.3,2.5,4.14,7.82-14.66-3.78a.81.81,0,0,0-.4,1.56l16.08,4.14,5,9.46-20.22-3a.8.8,0,1,0-.23,1.59l21.38,3.17,5,9.51-23.45-2.75a.8.8,0,0,0-.9.7.81.81,0,0,0,.71.89l24.56,2.88,5.06,9.58-23.46-1.44a.8.8,0,1,0-.09,1.6L277.2,92l4.67,8.83L264,99.88a.82.82,0,0,0-.84.76.8.8,0,0,0,.76.85l18.85,1,4.22,8a.81.81,0,0,0,.71.43.75.75,0,0,0,.38-.1.79.79,0,0,0,.33-1.08l-4.48-8.47,8.77-15A.81.81,0,0,0,292.39,85.14Z"/><path class="cls-3" d="M272.76,86.79c0,5.23-3.23,9.47-7.22,9.47s-7.23-4.24-7.23-9.47,3.24-9.46,7.23-9.46S272.76,81.57,272.76,86.79Z"/><path class="cls-3" d="M272.76,120.51c0,5.23-3.23,9.46-7.22,9.46s-7.23-4.23-7.23-9.46,3.24-9.47,7.23-9.47S272.76,115.28,272.76,120.51Z"/><path class="cls-3" d="M250.29,98c5.22,0,9.46,3.24,9.46,7.23s-4.24,7.22-9.46,7.22-9.47-3.23-9.47-7.22S245.06,98,250.29,98Z"/><path class="cls-3" d="M284,98c5.23,0,9.47,3.24,9.47,7.23s-4.24,7.22-9.47,7.22-9.46-3.23-9.46-7.22S278.77,98,284,98Z"/><path class="cls-3" d="M250.12,112.07c3.69-3.7,9-4.41,11.8-1.59s2.11,8.11-1.59,11.8-9,4.41-11.8,1.59S246.42,115.76,250.12,112.07Z"/><path class="cls-3" d="M274,88.23c3.7-3.7,9-4.41,11.81-1.59s2.11,8.11-1.59,11.8-9,4.41-11.8,1.59S270.26,91.92,274,88.23Z"/><path class="cls-3" d="M282.57,112.07c-3.7-3.7-9-4.41-11.8-1.59s-2.12,8.11,1.58,11.8,9,4.41,11.8,1.59S286.26,115.76,282.57,112.07Z"/><path class="cls-3" d="M258.73,88.23c-3.7-3.7-9-4.41-11.81-1.59s-2.11,8.11,1.59,11.8,9,4.41,11.8,1.59S262.42,91.92,258.73,88.23Z"/><path class="cls-4" d="M277.58,104a12,12,0,1,1-12-12A12,12,0,0,1,277.58,104Z"/><path class="cls-3" d="M174.66,421.53c0-3.86-4-7-8.95-7.2,3.37-3.67,4-8.69,1.24-11.41s-8.1-2.12-11.8,1.58a12.13,12.13,0,0,0-1.79,2.34,12.06,12.06,0,0,0,.6-3.77c0-5.23-3.24-9.47-7.23-9.47s-7.22,4.24-7.22,9.47a10.55,10.55,0,0,0,.06,1.13c-3.68-3.41-8.71-4-11.45-1.28s-2.12,7.87,1.37,11.55c-4.27.7-7.47,3.59-7.47,7.06,0,3.86,4,7,9,7.21-3.37,3.67-4,8.68-1.24,11.4,2.43,2.44,6.69,2.23,10.19-.24,1,3.7,3.66,6.35,6.81,6.35,3.47,0,6.37-3.2,7.06-7.48,3.69,3.5,8.8,4.14,11.56,1.37s2.12-7.77-1.28-11.44c.37,0,.74.06,1.13.06C170.42,428.76,174.66,425.52,174.66,421.53ZM152,426.76a5.77,5.77,0,0,0-1.29,2.1,6,6,0,0,0-3.94-1.54A5.71,5.71,0,0,0,144,428a5.3,5.3,0,0,0-.93-1.24,5.9,5.9,0,0,0-3.43-1.62,6,6,0,0,0,1.27-3.61,6,6,0,0,0-1.54-3.94,5.72,5.72,0,0,0,2.1-1.29,6.29,6.29,0,0,0,1.67-5,5.91,5.91,0,0,0,3.55,1.22,6.72,6.72,0,0,0,5.55-3.39c-.86,2.69-.47,5.41,1.29,7.16a5.84,5.84,0,0,0,3.43,1.62,6,6,0,0,0-1.27,3.61,5.92,5.92,0,0,0,1.23,3.55A6.34,6.34,0,0,0,152,426.76Z"/><path class="cls-4" d="M158.77,420.26a12,12,0,1,1-12-12A12,12,0,0,1,158.77,420.26Z"/><path class="cls-3" d="M38,322.22c0-2.78-2.87-5-6.47-5.18,2.45-2.64,2.88-6.26.91-8.23s-5.84-1.53-8.51,1.14a8.57,8.57,0,0,0-1.29,1.7,8.65,8.65,0,0,0,.44-2.74c0-3.76-2.34-6.82-5.21-6.82s-5.21,3.06-5.21,6.82a7.71,7.71,0,0,0,.07.84c-2.66-2.48-6.3-2.92-8.28-.94s-1.53,5.67,1,8.33c-3.08.5-5.39,2.58-5.39,5.08,0,2.79,2.87,5,6.47,5.18-2.45,2.65-2.88,6.27-.91,8.24,1.76,1.76,4.84,1.61,7.36-.18.71,2.66,2.62,4.58,4.9,4.58,2.5,0,4.58-2.31,5.09-5.39,2.65,2.52,6.34,3,8.33,1s1.53-5.62-.95-8.27c.28,0,.55.06.84.06C34.9,327.43,38,325.1,38,322.22ZM21.59,326a4,4,0,0,0-.93,1.52,4.36,4.36,0,0,0-2.84-1.12,4.21,4.21,0,0,0-1.94.5,4.13,4.13,0,0,0-.67-.9,4.29,4.29,0,0,0-2.5-1.17,4.12,4.12,0,0,0-.17-5.43,4.15,4.15,0,0,0,1.51-.93,4.61,4.61,0,0,0,1.21-3.64,4.24,4.24,0,0,0,2.56.92,4.86,4.86,0,0,0,4-2.57,5.06,5.06,0,0,0,.88,5.29,4.32,4.32,0,0,0,2.5,1.17,4,4,0,0,0,0,5.16A4.55,4.55,0,0,0,21.59,326Z"/><path class="cls-4" d="M26.5,321.31a8.68,8.68,0,1,1-8.68-8.68A8.68,8.68,0,0,1,26.5,321.31Z"/><path class="cls-6" d="M87.17,53.89c3.31,6-.55,14.42-8.62,18.91s-17.3,3.32-20.61-2.63.55-14.42,8.62-18.91S83.86,47.94,87.17,53.89Z"/><path class="cls-4" d="M87.34,54.49c3.29,2.88,2.33,9.37-2.15,14.5S74.4,75.93,71.11,73.05s-2.33-9.37,2.15-14.5S84,51.61,87.34,54.49Z"/><path class="cls-6" d="M119.73,56.9c5.48,4,5.47,13.35,0,20.78s-14.38,10.19-19.85,6.14-5.48-13.34,0-20.78S114.25,52.86,119.73,56.9Z"/><path class="cls-4" d="M120.13,57.38c4.19,1.26,6,7.56,4,14.08S117.22,82.25,113,81s-6-7.57-4-14.09S115.93,56.12,120.13,57.38Z"/><path class="cls-6" d="M106.68,33.56c-.86,5.25-7.34,8.55-14.46,7.39S80,34.57,80.88,29.32s7.33-8.56,14.46-7.39S107.54,28.31,106.68,33.56Z"/><path class="cls-4" d="M106.49,34c.62,3.36-3.13,6.87-8.36,7.82s-10-1-10.59-4.35,3.12-6.87,8.36-7.83S105.87,30.64,106.49,34Z"/><path class="cls-6" d="M113.56,23.74c-4.64,2.6-11.26-.39-14.79-6.69s-2.64-13.51,2-16.11,11.26.39,14.8,6.69S118.2,21.14,113.56,23.74Z"/><path class="cls-4" d="M113.1,23.87c-2.25,2.59-7.32,1.85-11.34-1.64s-5.45-8.41-3.21-11,7.32-1.85,11.34,1.64S115.34,21.29,113.1,23.87Z"/><path class="cls-6" d="M138.83,37.65c-4.64,2.61-11.27-.39-14.8-6.68s-2.64-13.51,2-16.12,11.26.4,14.79,6.69S143.47,35.05,138.83,37.65Z"/><path class="cls-4" d="M138.36,37.79c-2.24,2.58-7.32,1.84-11.33-1.65s-5.46-8.41-3.21-11,7.32-1.84,11.33,1.65S140.6,35.21,138.36,37.79Z"/><path class="cls-4" d="M226.71,59.77C154.27,32.42,88.26,55,87.61,55.25l-.54-1.52c.67-.23,67.22-23,140.21,4.53Z"/><path class="cls-4" d="M119,47.43c-3.32-4.11-12.86-11.24-13-11.31l1-1.29c.4.3,9.81,7.32,13.25,11.6Z"/><path class="cls-4" d="M115.4,42.21l-1.57-.36c0-.1,2.34-10.31-1.45-17.61l1.43-.74C117.87,31.33,115.5,41.77,115.4,42.21Z"/><path class="cls-6" d="M191.16,32.32c-3.63,3.89-10.85,3-16.13-1.89s-6.6-12.08-3-16,10.86-3,16.13,1.9S194.8,28.43,191.16,32.32Z"/><path class="cls-4" d="M190.76,32.59c-1.36,3.14-6.42,4-11.3,1.86s-7.75-6.36-6.39-9.5,6.42-4,11.3-1.86S192.11,29.45,190.76,32.59Z"/><path class="cls-4" d="M196.91,49.5c0-.11-.9-10.54-6.72-16.34L191.32,32c6.25,6.23,7.15,16.9,7.19,17.35Z"/><path class="cls-6" d="M190.22,65c5.24.94,8.44,7.46,7.17,14.57s-6.55,12.1-11.79,11.17-8.45-7.46-7.17-14.57S185,64.05,190.22,65Z"/><path class="cls-4" d="M190.66,65.19c3.38-.57,6.83,3.22,7.71,8.47s-1.14,10-4.51,10.52S187,81,186.15,75.71,187.29,65.75,190.66,65.19Z"/><path class="cls-6" d="M179.62,59c2.54,4.68-.55,11.25-6.9,14.7s-13.55,2.43-16.08-2.25.55-11.25,6.9-14.69S177.09,54.29,179.62,59Z"/><path class="cls-4" d="M179.75,59.44c2.55,2.28,1.74,7.34-1.81,11.31s-8.49,5.32-11,3-1.74-7.34,1.81-11.31S177.2,57.16,179.75,59.44Z"/><path class="cls-4" d="M192.76,65.7l-1.27-1c.3-.4,7.47-9.7,11.79-13.08l1,1.27C200.11,56.17,192.84,65.61,192.76,65.7Z"/><path class="cls-4" d="M180.11,60.16l-.72-1.44c7.89-3.95,18.29-1.43,18.73-1.32L197.73,59C197.63,58.94,187.46,56.48,180.11,60.16Z"/><path class="cls-4" d="M120.76,57.87l-1.26-1c.33-.42,8.27-10.4,17.13-12.31l.34,1.57C128.67,47.93,120.84,57.78,120.76,57.87Z"/><path class="cls-6" d="M172.14,48.81c-4.24,5.15-13.33,4.66-20.32-1.08s-9.21-14.58-5-19.72,13.33-4.67,20.31,1.08S176.37,43.66,172.14,48.81Z"/><path class="cls-4" d="M174.93,47.86c-.69,3.1-5.16,4.74-10,3.67s-8.16-4.46-7.47-7.56,5.15-4.74,10-3.66S175.62,44.76,174.93,47.86Z"/><path class="cls-4" d="M141.29,46.55c-1.89,0-3.06-4.65-3.72-8.3l1.58-.44c.58,3.24,1.62,6.6,2.22,6.91l0,1.83Z"/><path class="cls-3" d="M231.18,54.08c0,3.94-2.44,7.13-5.44,7.13s-5.45-3.19-5.45-7.13,2.44-7.14,5.45-7.14S231.18,50.14,231.18,54.08Z"/><path class="cls-3" d="M231.18,79.49c0,3.94-2.44,7.14-5.44,7.14s-5.45-3.2-5.45-7.14,2.44-7.13,5.45-7.13S231.18,75.55,231.18,79.49Z"/><path class="cls-3" d="M214.24,62.55c3.94,0,7.14,2.44,7.14,5.45s-3.2,5.44-7.14,5.44S207.11,71,207.11,68,210.3,62.55,214.24,62.55Z"/><path class="cls-3" d="M239.65,62.55c3.94,0,7.14,2.44,7.14,5.45s-3.2,5.44-7.14,5.44S232.52,71,232.52,68,235.71,62.55,239.65,62.55Z"/><path class="cls-3" d="M214.11,73.13c2.79-2.79,6.77-3.32,8.9-1.19s1.59,6.1-1.2,8.89S215,84.15,212.92,82,211.32,75.92,214.11,73.13Z"/><path class="cls-3" d="M232.08,55.16c2.79-2.79,6.77-3.32,8.9-1.19s1.59,6.1-1.2,8.89-6.77,3.32-8.89,1.2S229.29,58,232.08,55.16Z"/><path class="cls-3" d="M238.57,73.13c-2.78-2.79-6.77-3.32-8.89-1.19s-1.6,6.1,1.19,8.89,6.77,3.32,8.9,1.2S241.36,75.92,238.57,73.13Z"/><path class="cls-3" d="M220.6,55.16c-2.78-2.79-6.77-3.32-8.89-1.19s-1.6,6.1,1.19,8.89,6.77,3.32,8.9,1.2S223.39,58,220.6,55.16Z"/><path class="cls-4" d="M234.81,67A9.08,9.08,0,1,1,225.74,58,9.08,9.08,0,0,1,234.81,67Z"/></g></g></g></svg>