<svg xmlns="http://www.w3.org/2000/svg" viewBox="0 0 314.45 478.46"><defs><style>.cls-1{fill:#c7eafc;}.cls-2{fill:#fcb434;}.cls-3{fill:#0f5aa4;}.cls-4{fill:#5abeed;}.cls-5{fill:#fff;}.cls-6{fill:#f2f2f2;}.cls-7{fill:#fba832;}.cls-8{fill:#f89832;}</style></defs><g id="Layer_2" data-name="Layer 2"><g id="_1" data-name="1"><g id="_1-2" data-name="1"><path class="cls-1" d="M2.54,312.77,208.83,22.14H224V315.2h74.63v12.13H224v107.4H211.87V327.33H2.54ZM210.65,39.13,14.68,315.2H211.87V39.13Z"/><path class="cls-2" d="M248.53,72.3c-3.93-5.41-12.39,2.29-16.48,10.83A102.57,102.57,0,0,0,229.73,64h.07l-.09-.09c0-.1-.05-.2-.07-.3.92-.52,21.11-12.2,13-18.37-5.91-4.52-12.59,8.13-13,18.22a154.53,154.53,0,0,0-5.38-18.73l.36-.1-.56-.47L224,43.9c3.92-2.8,18.26-13.73,10.68-18.66C229,21.56,223.78,32,223.06,41.47c-1.82-4.87-3.67-9.24-5.34-12.89h.05a.27.27,0,0,1-.08-.07l-.36-.76c4.19-3,17.94-13.67,10.48-18.52-5.64-3.68-10.84,6.71-11.56,16.2-1.68-3.52-3-6-3.7-7.3C212,8.29,206.22-3.2,200.41.83c-7,4.88,5.75,14.58,10.51,17.87.62,1.14,2,3.73,3.76,7.41-7.64-5.32-18.3-7.8-19.16-1.31-1.15,8.62,15.1,5.48,20.52,4.21,1.69,3.69,3.59,8.14,5.45,13.12-7.64-5.32-18.3-7.79-19.16-1.31-1.13,8.47,14.57,5.58,20.24,4.27a157.83,157.83,0,0,1,4.94,16.7c-7.23-6.19-18.23-9.85-19.62-3.26-1.79,8.51,14.69,6.59,20.17,5.73a99.34,99.34,0,0,1,2.29,19.3c-5.23-7.77-14.41-14-17.55-8.22-4.11,7.57,11.87,10.45,17.52,11.22a60.85,60.85,0,0,1-1.39,11.68l1.67.38A61.83,61.83,0,0,0,232,86.77l.23,0-.22-.39c0-.18,0-.35,0-.53C236.92,84.6,253.8,79.53,248.53,72.3Z"/><path class="cls-3" d="M154.32,117.49c0-.2,0-.4,0-.59s.15-.35.23-.52c5.86,1.39,27.06,5.7,25.55-5.13-1.14-8.2-15.12-4.51-24.42,2.57,1.84-4.21,3.1-7.44,3.77-9.21,8.73-8.31,14.9-23.08,6.47-25.22-10.32-2.62-8.74,17.73-8,24.33-.61,1.65-1.89,4.94-3.81,9.35C153,101.7,146.73,89.61,140,94c-8.91,5.88,7.33,18.48,12.68,22.32-2.06,4.56-4.67,9.94-7.81,15.71-1.13-11.36-7.43-23.4-14.13-19-8.77,5.78,6.79,18.05,12.39,22.1-2.83,5-6,10.22-9.61,15.35.81-12.11-4.91-27.54-12.61-23.24-10.15,5.65,8.78,21.45,12,24.07a142.52,142.52,0,0,1-11.53,14.42c.54-11.31-3.79-23.88-11-20.58-9.3,4.22,3.18,18.11,8.39,23.35a82.29,82.29,0,0,1-19.42,15l.81,1.51A84.07,84.07,0,0,0,120,169.77c.55.53.88.83.88.83.07-.37.13-.75.19-1.14,5.27,2.18,26.06,10.08,26.26-1,.15-8.48-14.93-6.75-25.25-.89a140.59,140.59,0,0,0,11.78-14.53c5.59,1.79,26.67,7.82,26-3.16-.53-8.13-14.28-5.72-24.05.41,3.23-4.73,6.15-9.51,8.76-14.11l.51.35c0-.38,0-.77,0-1.16,5.55,1.33,27.32,5.89,25.79-5.07-1.15-8.23-15.21-4.49-24.5,2.63,3.11-5.71,5.7-11,7.77-15.59Z"/><path class="cls-3" d="M131.08,328.2a78.41,78.41,0,0,0-22.8-4.87c0-.67,0-1.07,0-1.07-.31.17-.61.36-.92.55-1.63-5.06-8.55-24.57-16.53-18-6.07,5,4.08,14.54,14.4,18.39a131.82,131.82,0,0,0-17.27.36c-2.16-5.18-10.52-23.51-17.85-16.44-5.41,5.22,4.38,13.45,14.52,16.75-5.36.57-10.44,1.36-15,2.22l-.06,0c0-.29,0-.46,0-.46-.24.19-.47.41-.7.61l-.15,0c-2.44-4.81-12.27-22.87-19.11-15.2-5.1,5.72,5.76,13.36,16.32,15.76-5.8,1.21-11,2.57-15.45,3.84l0-.14-.24.21-.72.21c-2.6-5.1-12.26-22.54-19-15-5.11,5.72,5.78,13.38,16.35,15.77-4.09,1.24-7.12,2.29-8.74,2.87C27,333.44,12.88,338,16.43,345.22c4.33,8.84,17.67-4.3,22-8.91,1.49-.54,4.61-1.63,8.94-2.94C40,341,35.28,352.7,42.45,354.79c9.51,2.77,8.7-16.22,8.2-22.39,4.47-1.27,9.83-2.66,15.79-3.9-7.34,7.65-12,19.3-4.88,21.39,9.35,2.73,8.73-15.58,8.23-22.06,5.24-1,10.85-1.86,16.62-2.42-9.06,6.74-16.51,20-8.84,22.9,10.07,3.78,9.94-18.92,9.84-23a131.71,131.71,0,0,1,17.11-.5c-8.32,6.43-14.58,17-7.9,20.17,8.58,4.05,10.93-13.07,11.53-20a76.32,76.32,0,0,1,22.31,4.77Z"/><path class="cls-3" d="M314.14,320.1s-54.48-47.24-93,6C221.16,326.11,254.82,371.07,314.14,320.1Z"/><path class="cls-4" d="M313.54,319.69l-15.48,1L304,313a.87.87,0,0,0-.15-1.21.86.86,0,0,0-1.2.16l-6.87,8.84-9.42.6,10-12.52a.87.87,0,0,0-.14-1.21.86.86,0,0,0-1.2.14l-11,13.74-11.4.73L284.34,304a.86.86,0,0,0-1.45-.92l-12.36,19.31-11.46.73,12.87-21.51a.86.86,0,0,0-.29-1.17.87.87,0,0,0-1.18.29L257,323.3l-11.53.73L257.05,302a.85.85,0,0,0-.36-1.15.86.86,0,0,0-1.16.36l-12.07,23-10.65.68L241.48,308a.85.85,0,1,0-1.52-.78L230.82,325l-9.68.62c-.47,0-.83.72-.8,1.19a1,1,0,0,0,.86,1h.05l9.85-1,11.1,15.37a.76.76,0,0,0,.7.26.93.93,0,0,0,.5-.22.89.89,0,0,0,.2-1.22l-10.49-14.72,10.7-.67L260.22,345a.81.81,0,0,0,.65.31.86.86,0,0,0,.66-1.41l-15.6-18.54,11.45-.7,15.84,18.44a.85.85,0,0,0,.65.3.89.89,0,0,0,.56-.2.86.86,0,0,0,.09-1.21l-15-17.47,11.44-.7,14.28,15.35a.84.84,0,0,0,.63.28.86.86,0,0,0,.63-1.44l-13.33-14.33,11.37-.7,10.38,11.2a.86.86,0,0,0,.62.27.85.85,0,0,0,.59-.23.86.86,0,0,0,0-1.21l-9.42-10.17,9.64-.6,7.36,6.27a.89.89,0,0,0,.55.2.82.82,0,0,0,.65-.3.86.86,0,0,0-.09-1.21l-6-5.11,14.78-.92c.47,0,.83-.18.8-.65A.88.88,0,0,0,313.54,319.69Z"/><path class="cls-3" d="M237.77,478.11s42.46-58.29-13.86-92.13C223.91,386,182,423.31,237.77,478.11Z"/><path class="cls-4" d="M253.33,433l-23.71-11.58L227.91,410l23.1,9.73a.88.88,0,0,0,1.13-.46.86.86,0,0,0-.46-1.12L227.61,408,226,397.42l17.68,7.26a.85.85,0,1,0,.65-1.58l-18.63-7.65-1.43-9.53a.87.87,0,0,0-1-.72.86.86,0,0,0-.72,1l1.52,10.11-14.13,12a.87.87,0,0,0-.1,1.21.85.85,0,0,0,.66.3.89.89,0,0,0,.55-.2l13.32-11.31L226,408.9l-17.63,17.59A.86.86,0,0,0,209,428a.85.85,0,0,0,.6-.25L226.33,411,228,422.33l-16.66,17a.85.85,0,0,0,0,1.21.86.86,0,0,0,.6.24.85.85,0,0,0,.61-.25l15.76-16,1.7,11.35-13.74,15.14a.85.85,0,0,0,.63,1.43.84.84,0,0,0,.63-.28L230.39,438l1.69,11.23-10,11a.84.84,0,0,0,.06,1.2.81.81,0,0,0,.58.23.84.84,0,0,0,.63-.28l9-9.91,1.44,9.6-5.34,7.48a.84.84,0,0,0,.2,1.19.85.85,0,0,0,1.19-.2l4.32-6,2.15,14.29a.85.85,0,0,0,.84.73h.13a.86.86,0,0,0,.72-1l-2.32-15.4,8.21,5.33a.87.87,0,0,0,1.19-.26.85.85,0,0,0-.25-1.18l-9.49-6.15-1.4-9.34,13.42,9a.86.86,0,1,0,1-1.42l-14.72-9.85L232,436.9l19.28,10.15a.85.85,0,1,0,.8-1.51l-20.4-10.75-1.71-11.35,22.64,11.06a.86.86,0,0,0,.76-1.54Z"/><path class="cls-1" d="M111.75,175c3.67-5.13,7.47-12.19,4.29-16.3-4.5-5.8-14.65.1-12.41,13.47C99.59,167.38,93.72,162,89,164c-6.45,2.78-3.83,13.25,8.25,15.19-5.75.66-11.92,2.41-12.92,6.86-1.54,6.87,8.53,10.89,17.2,2.16-2.16,5.32-3.55,11.5-.16,14.49,5.19,4.58,13.39-2,10.36-13.45,3.37,4.49,7.78,8.62,12,7.34,5.59-1.72,5.51-9.43-1.49-13.83,4,.08,7.73-.76,9.26-3.61C135.16,172.25,124.05,164.87,111.75,175Z"/><path class="cls-2" d="M100.5,181.26a6.19,6.19,0,1,0,6.19-6.19A6.19,6.19,0,0,0,100.5,181.26Z"/><path class="cls-1" d="M220.52,443.71c3.09-4.31,6.28-10.26,3.61-13.71-3.79-4.88-12.33.08-10.45,11.33-3.4-4.06-8.34-8.61-12.34-6.89-5.43,2.34-3.23,11.15,6.94,12.78-4.84.56-10,2-10.87,5.77-1.3,5.79,7.18,9.17,14.48,1.82-1.82,4.48-3,9.68-.15,12.2,4.37,3.86,11.27-1.68,8.72-11.32,2.84,3.77,6.56,7.26,10.09,6.17,4.72-1.44,4.61-7.94-1.3-11.64,3.42.08,6.55-.62,7.84-3C240.22,441.38,230.87,435.16,220.52,443.71Z"/><path class="cls-2" d="M211.05,449a5.21,5.21,0,1,0,5.2-5.21A5.2,5.2,0,0,0,211.05,449Z"/><path class="cls-5" d="M254.86,379.31c0-4.12-4.23-7.47-9.56-7.69,3.61-3.91,4.24-9.26,1.33-12.17S238,357.2,234,361.14a13.07,13.07,0,0,0-1.91,2.5,12.75,12.75,0,0,0,.64-4c0-5.57-3.45-10.1-7.71-10.1s-7.7,4.53-7.7,10.1a12.1,12.1,0,0,0,.06,1.21c-3.93-3.64-9.3-4.28-12.21-1.37s-2.27,8.4,1.46,12.33c-4.56.74-8,3.83-8,7.53,0,4.12,4.23,7.47,9.56,7.69-3.6,3.92-4.24,9.26-1.33,12.17,2.59,2.6,7.14,2.38,10.87-.26,1.05,3.94,3.91,6.77,7.27,6.77,3.7,0,6.79-3.42,7.54-8,3.92,3.73,9.38,4.41,12.32,1.46s2.27-8.29-1.36-12.21a11.76,11.76,0,0,0,1.2.06C250.34,387,254.86,383.57,254.86,379.31Zm-24.22,5.58a6.07,6.07,0,0,0-1.37,2.23,6.46,6.46,0,0,0-4.21-1.64,6.13,6.13,0,0,0-2.87.74,6.05,6.05,0,0,0-1-1.33,6.34,6.34,0,0,0-3.67-1.73,6.34,6.34,0,0,0,1.36-3.85,6.46,6.46,0,0,0-1.64-4.2,6.13,6.13,0,0,0,2.24-1.38,6.68,6.68,0,0,0,1.78-5.33,6.35,6.35,0,0,0,3.79,1.31,7.17,7.17,0,0,0,5.92-3.62c-.91,2.87-.5,5.77,1.37,7.64a6.34,6.34,0,0,0,3.67,1.73,6.13,6.13,0,0,0-.05,7.64A6.75,6.75,0,0,0,230.64,384.89Z"/><path class="cls-2" d="M237.91,378a12.85,12.85,0,1,1-12.85-12.85A12.85,12.85,0,0,1,237.91,378Z"/><path class="cls-4" d="M27.62,300.5S99.36,293.17,87,228.65C87,228.65,31.13,222.36,27.62,300.5Z"/><line class="cls-5" x1="27.63" y1="299.75" x2="86.58" y2="228.35"/><path class="cls-1" d="M27.63,300.6a.85.85,0,0,1-.66-1.4l58.94-71.4a.87.87,0,0,1,1.21-.11.86.86,0,0,1,.12,1.2l-58.95,71.4A.83.83,0,0,1,27.63,300.6Z"/><path class="cls-1" d="M40.57,298.68a.87.87,0,0,1-.85-.73l-1.59-10.11-9.33,1a.84.84,0,0,1-.95-.75.86.86,0,0,1,.76-.95l11-1.22,1.85,11.74a.87.87,0,0,1-.72,1Z"/><path class="cls-1" d="M48.8,296a.85.85,0,0,1-.85-.73l-2.36-16.55-15.07-.11a.92.92,0,0,1,0-1.84h0l16.55.19,2.57,18a.88.88,0,0,1-.73,1Z"/><path class="cls-1" d="M60.57,290.43a.85.85,0,0,1-.83-.65l-5.43-21.57-20.8-.12c-.47,0-.85.29-.85-.18s.38-.18.85-.18h0l22.13-.54L61.4,289.7c.12.46-.16.76-.62.87C60.71,290.59,60.64,290.43,60.57,290.43Z"/><path class="cls-1" d="M70.79,283a.85.85,0,0,1-.82-.62l-7-24.66-24.14-1.09a.87.87,0,0,1-.82-.9.79.79,0,0,1,.9-.81l25.37,1.14,7.35,25.85A.86.86,0,0,1,71,283Z"/><path class="cls-1" d="M80.76,271.91a.86.86,0,0,1-.81-.58l-8.32-24.07-25.3-1.4a.86.86,0,0,1-.81-.9.87.87,0,0,1,.9-.81l26.46,1.47,8.69,25.16a.86.86,0,0,1-.53,1.09A.9.9,0,0,1,80.76,271.91Z"/><path class="cls-1" d="M87,256.44a.85.85,0,0,1-.8-.57l-6.55-18.42-18.87-2.57a.86.86,0,0,1-.73-1,.85.85,0,0,1,1-.73L81,235.89l6.9,19.41a.86.86,0,0,1-.52,1.09A1,1,0,0,1,87,256.44Z"/><path class="cls-6" d="M95.32,331.22c3.2,5.28,0,13.09-7.18,17.44S72.56,352.25,69.36,347s0-13.09,7.17-17.44S92.11,325.94,95.32,331.22Z"/><path class="cls-2" d="M95.49,331.75c3.08,2.51,2.43,8.43-1.46,13.22s-9.55,6.67-12.63,4.16-2.43-8.41,1.46-13.22S92.4,329.25,95.49,331.75Z"/><path class="cls-6" d="M124.94,332.84c5.11,3.48,5.42,11.92.69,18.85s-12.69,9.72-17.79,6.24-5.42-11.92-.7-18.85S119.83,329.36,124.94,332.84Z"/><path class="cls-2" d="M125.32,333.26c3.85,1,5.7,6.66,4.15,12.64s-5.93,10-9.78,9-5.7-6.66-4.14-12.64S121.48,332.26,125.32,333.26Z"/><path class="cls-6" d="M112.32,312.12c-.61,4.78-6.37,8-12.87,7.18s-11.28-5.36-10.68-10.15,6.36-8,12.87-7.19S112.92,307.33,112.32,312.12Z"/><path class="cls-2" d="M112.16,312.53c.67,3-2.6,6.33-7.31,7.38s-9.08-.56-9.76-3.59,2.6-6.34,7.32-7.38S111.49,309.5,112.16,312.53Z"/><path class="cls-6" d="M118.22,303c-4.11,2.52-10.22,0-13.64-5.56s-2.85-12.17,1.27-14.69,10.23,0,13.65,5.57S122.35,300.46,118.22,303Z"/><path class="cls-2" d="M117.81,303.12c-2,2.41-6.58,1.92-10.34-1.11s-5.23-7.45-3.28-9.86,6.57-1.92,10.33,1.1S119.75,300.7,117.81,303.12Z"/><path class="cls-6" d="M141.61,314.74c-4.12,2.52-10.23,0-13.65-5.56s-2.85-12.17,1.27-14.69,10.23,0,13.65,5.57S145.73,312.22,141.61,314.74Z"/><path class="cls-2" d="M141.19,314.88c-1.95,2.41-6.57,1.92-10.33-1.11s-5.23-7.45-3.28-9.86,6.57-1.92,10.33,1.1S143.14,312.46,141.19,314.88Z"/><path class="cls-2" d="M95.8,332.55,95.17,331c.6-.24,60.23-23.19,127.4-.66l-.55,1.62C155.47,309.6,96.39,332.32,95.8,332.55Z"/><path class="cls-2" d="M123.83,324.37c-3.14-3.61-12-9.75-12.11-9.81l1-1.41c.37.26,9.15,6.32,12.43,10.09Z"/><path class="cls-2" d="M120.64,319.69l-1.68-.32c0-.1,1.76-9.39-1.9-15.83l1.49-.85C122.53,309.69,120.72,319.29,120.64,319.69Z"/><path class="cls-6" d="M188.89,308.12c-3.16,3.65-9.74,3.13-14.69-1.17s-6.4-10.73-3.24-14.37,9.75-3.13,14.69,1.16S192.06,304.47,188.89,308.12Z"/><path class="cls-2" d="M188.53,308.38c-1.12,2.89-5.68,3.82-10.18,2.07s-7.24-5.51-6.12-8.4,5.69-3.82,10.19-2.07S189.66,305.48,188.53,308.38Z"/><path class="cls-2" d="M194.56,323.51c0-.09-1.17-9.47-6.61-14.5l1.17-1.26c5.9,5.47,7.09,15.16,7.14,15.57Z"/><path class="cls-6" d="M189.15,337.78c4.78.67,7.91,6.48,7,13s-5.53,11.2-10.31,10.53-7.92-6.48-7-13S184.36,337.11,189.15,337.78Z"/><path class="cls-2" d="M189.56,337.94c3-.63,6.29,2.69,7.27,7.42s-.69,9.08-3.73,9.7-6.3-2.69-7.27-7.42S186.52,338.57,189.56,337.94Z"/><path class="cls-6" d="M179.33,332.68c2.46,4.15-.12,10.23-5.76,13.56s-12.2,2.67-14.66-1.48.12-10.23,5.76-13.57S176.88,328.52,179.33,332.68Z"/><path class="cls-2" d="M179.47,333.1c2.38,2,1.82,6.6-1.26,10.32s-7.52,5.12-9.91,3.14-1.83-6.61,1.26-10.32S177.08,331.12,179.47,333.1Z"/><path class="cls-2" d="M191.58,338.42l-1.39-1c.26-.37,6.45-9.07,10.27-12.29l1.11,1.31C197.91,329.53,191.65,338.33,191.58,338.42Z"/><path class="cls-2" d="M179.88,333.85l-.83-1.5c7.06-3.87,16.63-1.92,17-1.84l-.35,1.68C195.64,332.17,186.38,330.29,179.88,333.85Z"/><path class="cls-2" d="M126,333.76l-1.39-1c.29-.39,7.18-9.74,15.19-11.79l.43,1.66C132.84,324.51,126.08,333.67,126,333.76Z"/><path class="cls-6" d="M172.2,323.72c-3.66,4.81-11.93,4.68-18.46-.29s-8.86-12.9-5.19-17.72S160.48,301,167,306,175.87,318.91,172.2,323.72Z"/><path class="cls-2" d="M174.7,322.77c-.52,2.83-4.52,4.47-8.93,3.66s-7.55-3.77-7-6.6,4.51-4.47,8.93-3.66S175.22,319.93,174.7,322.77Z"/><path class="cls-2" d="M144.08,322.27c-1.42,0-2.68-2.42-3.73-7.21l1.68-.37c.62,2.82,1.63,5.58,2.18,5.9l0,1.68Z"/><path class="cls-5" d="M107.56,226.87c0-4.12-4.24-7.47-9.56-7.69,3.6-3.92,4.24-9.26,1.33-12.17s-8.65-2.26-12.59,1.69a12.53,12.53,0,0,0-1.92,2.5,12.56,12.56,0,0,0,.64-4c0-5.58-3.44-10.1-7.7-10.1s-7.71,4.52-7.71,10.1a11.76,11.76,0,0,0,.06,1.2c-3.92-3.63-9.29-4.28-12.21-1.36s-2.27,8.4,1.46,12.32c-4.56.75-8,3.84-8,7.54,0,4.12,4.23,7.47,9.55,7.69-3.6,3.91-4.24,9.26-1.33,12.17,2.6,2.59,7.14,2.37,10.88-.26,1.05,3.94,3.9,6.77,7.27,6.77,3.7,0,6.78-3.42,7.53-8,3.93,3.73,9.38,4.41,12.33,1.47s2.27-8.29-1.37-12.21c.4,0,.8.06,1.21.06C103,234.58,107.56,231.12,107.56,226.87Zm-24.22,5.57A6.13,6.13,0,0,0,82,234.68a6.46,6.46,0,0,0-4.2-1.64,6.13,6.13,0,0,0-2.88.73,5.75,5.75,0,0,0-1-1.33,6.33,6.33,0,0,0-3.66-1.72,6.36,6.36,0,0,0,1.36-3.85,6.44,6.44,0,0,0-1.65-4.21,5.9,5.9,0,0,0,2.24-1.37A6.75,6.75,0,0,0,74,216a6.33,6.33,0,0,0,3.79,1.31,7.15,7.15,0,0,0,5.91-3.62c-.91,2.87-.5,5.76,1.38,7.64A6.34,6.34,0,0,0,88.71,223a6.15,6.15,0,0,0,0,7.64A6.72,6.72,0,0,0,83.34,232.44Z"/><path class="cls-2" d="M90.6,225.52a12.85,12.85,0,1,1-12.84-12.85A12.84,12.84,0,0,1,90.6,225.52Z"/><path class="cls-7" d="M220.13,160.81c1.08,12.11,7.87,19.48,15.38,18.82s12.89-9.13,11.81-21.23-14.66-37.13-16.91-36C226.91,124.16,219.05,148.72,220.13,160.81Z"/><path class="cls-8" d="M209.12,168.93c4,12.39,14.94,18,22.11,15.74,10.42-3.37,9.72-14.27,5.7-26.65s-23.44-35.55-25.36-33.88C208.58,126.74,205.1,156.54,209.12,168.93Z"/><path class="cls-2" d="M231.82,159.28c-1.07,13-.06,24.09,11.65,24.63,7.53.36,16.87-7.39,18-20.38s-10.26-43.83-12.67-43C245,121.73,232.91,146.29,231.82,159.28Z"/><path class="cls-1" d="M225.77,236.31l-1.31-1.11c18.58-21.68,11.09-53,11-53.29l1.66-.42C237.21,181.81,244.91,214,225.77,236.31Z"/><path class="cls-4" d="M216.68,161.15s-38.63,60.9,19.74,91.06C236.42,252.21,275.89,212.25,216.68,161.15Z"/><path class="cls-1" d="M249.31,210.78a.85.85,0,0,0-1.28-1.13L232.4,227.38,230,216.19l15.53-18a.85.85,0,1,0-1.29-1.12l-14.69,17-2.43-11.22,12.74-16a.85.85,0,1,0-1.34-1.06l-11.87,14.89-2.41-11.1,9.24-11.56a.85.85,0,0,0-.13-1.2.88.88,0,0,0-1.21.13l-8.37,10.47L221.68,178l4.86-7.8a.86.86,0,0,0-1.46-.91l-3.92,6.31-3.06-14.13a.85.85,0,1,0-1.67.36l3.3,15.22-8.54-4.79a.86.86,0,0,0-.84,1.5l9.86,5.53,2,9.23-14-8.11a.86.86,0,0,0-1.17.31.85.85,0,0,0,.31,1.17l15.32,8.89,2.42,11.16-19.9-8.9a.85.85,0,1,0-.7,1.56l21,9.42L228,215.21l-23.31-9.59a.87.87,0,0,0-1.12.47.86.86,0,0,0,.47,1.12l24.4,10,2.45,11.3-23.69-8.23a.85.85,0,1,0-.56,1.61l24.67,8.58,2.26,10.42-18.11-6.11a.86.86,0,0,0-.55,1.62L234,242.87l2,9.42a.85.85,0,0,0,.83.67h.19a.87.87,0,0,0,.65-1l-2.17-10,13.33-12.88a.86.86,0,1,0-1.19-1.23L235.13,240l-2.28-10.51Z"/><path class="cls-3" d="M236,236.71S179.85,282,225.46,329.28C225.46,329.28,275.66,304.1,236,236.71Z"/><path class="cls-4" d="M251.69,279.87a.85.85,0,0,0-1.17-.3L231.15,291l1.29-11.4,17.2-11.06a.85.85,0,1,0-.92-1.44l-16,10.31L234,266.09l12.46-8a.86.86,0,0,0-.92-1.45l-11.29,7.23,1.1-9.65,7.1-5.83a.86.86,0,1,0-1.09-1.32l-5.73,4.71,1.63-14.37a.85.85,0,0,0-.76-.94.85.85,0,0,0-.94.75l-1.76,15.47-6.55-7.27a.86.86,0,0,0-1.27,1.15l7.56,8.4-1.07,9.38-10.63-12.16a.86.86,0,0,0-1.21-.08.86.86,0,0,0-.08,1.21l11.66,13.33L230.9,278l-16-14.81a.85.85,0,1,0-1.16,1.25l16.91,15.67-1.29,11.41-19-16.55a.85.85,0,1,0-1.12,1.29l19.88,17.33-1.3,11.48L208,289.7a.86.86,0,1,0-1.06,1.35l20.62,16-1.2,10.6-15.19-11.6a.86.86,0,0,0-1.2.17.85.85,0,0,0,.16,1.2l16,12.22-1.08,9.57a.85.85,0,0,0,.75.95h.1a.85.85,0,0,0,.85-.76l1.15-10.15,16.75-7.92a.86.86,0,1,0-.73-1.55l-15.79,7.47,1.21-10.68L251,294.18a.86.86,0,1,0-.86-1.48l-20.49,11.78,1.3-11.38L251.39,281A.85.85,0,0,0,251.69,279.87Z"/><path class="cls-2" d="M262.81,335.4A53,53,0,0,0,243,322.8c8.73-2.25,22.72-7.87,21.11-20.64,0,0-2.7-10-8.61-7.24,0,0-2.74-9.38-10.59-3.88a53.34,53.34,0,0,0-13.74,15.33c.51-8.55-.17-26-13.95-28.1,0,0-10.33-.15-9.33,6.28,0,0-9.77.06-6.65,9.12a46.73,46.73,0,0,0,4.42,8.88c-5.25-2.52-11.12-3.23-16.58.86,0,0-7.32,7.28-2,11,0,0-6.79,7,1.87,11.13a53,53,0,0,0,22.72,4.31c-7.89,4.32-19.8,13.1-15,25,0,0,5.12,8.82,10.15,4.68,0,0,5,9,11.23,1.74s14.49-25.55,9-33.55h-4.52c.67,0,1.31-1.37,1.86-2l-1.94-7.39a11.75,11.75,0,0,0,3.78.5l1.13-2a12.09,12.09,0,0,0,.35,5l2.32.59-1.07,8.84s7.59,29.4,25.54,24.6c0,0,9.51-4,6-9.5C260.39,346.43,269.32,342.44,262.81,335.4Z"/><path class="cls-5" d="M236.6,321.26A12.24,12.24,0,1,1,224.36,309,12.24,12.24,0,0,1,236.6,321.26Z"/><path class="cls-4" d="M232.49,318.86l0-.49a8.89,8.89,0,0,0-7-7.77c1.6-10.13-2.21-27.41-3.18-31.51a3.14,3.14,0,1,0-1.73.1c.79,3.39,4.8,21.28,3.21,31.21h-.19c0-9.63-8-28.18-10-32.54a2.57,2.57,0,1,0-1.77.23c1.4,3.12,10.16,23.06,10,32.52l-.46.09c-2.48-4.5-9.74-23.77-14.44-36.8a3.09,3.09,0,1,0-2.07.81,3,3,0,0,0,.52-.05c1.67,4.63,9.85,27.13,13.69,35.25-8-8.66-13.87-26.64-13.93-26.83l-.33.1a2.87,2.87,0,0,0,.73-1.91,2.93,2.93,0,1,0-2.92,2.93,2.89,2.89,0,0,0,1-.2c1,2.87,6.8,19.61,14.78,27.71-7.68-5.26-19.87-22.7-20-22.88l-.2.14a3.37,3.37,0,0,0,.35-1.49,3.44,3.44,0,1,0-3.44,3.44,3.4,3.4,0,0,0,2.13-.76c1.82,2.58,12.59,17.64,20,22.84-.23.24-.49.45-.7.71a8.91,8.91,0,0,0-1.93,6.55c0,.16,0,.32.08.55l.09.52.51.15a21.67,21.67,0,0,0,6.24.92,22.19,22.19,0,0,0,2.31-.12,21.53,21.53,0,0,0,8.09-2.52l.46-.36Z"/><path class="cls-4" d="M215.26,316l.53-1.63c-3.66-1.17-11.21-10.19-14.19-14a2.62,2.62,0,1,0-2,1,2.12,2.12,0,0,0,.57-.07C201.64,303.22,210.54,314.53,215.26,316Z"/><path class="cls-5" d="M42.34,313.87c0-3.11-3.2-5.62-7.22-5.78,2.73-3,3.21-7,1-9.19s-6.52-1.7-9.49,1.27a9.93,9.93,0,0,0-1.46,1.9,9.42,9.42,0,0,0,.5-3.05c0-4.21-2.6-7.61-5.81-7.61s-5.81,3.4-5.81,7.61c0,.32,0,.62.07.93-3-2.76-7-3.26-9.23-1.05S3.2,305.23,6,308.19c-3.43.56-6,2.89-6,5.68,0,3.1,3.2,5.62,7.22,5.77-2.73,3-3.22,7-1,9.19,2,2,5.4,1.8,8.21-.2.8,3,2.93,5.11,5.47,5.11,2.79,0,5.12-2.57,5.67-6,3,2.81,7.07,3.32,9.3,1.1s1.71-6.27-1.05-9.23a9.19,9.19,0,0,0,.93.08C38.93,319.68,42.34,317.07,42.34,313.87Zm-18.26,4.2a4.56,4.56,0,0,0-1,1.69,4.83,4.83,0,0,0-3.16-1.24,4.55,4.55,0,0,0-2.17.56,4.08,4.08,0,0,0-.75-1,4.79,4.79,0,0,0-2.79-1.31,4.68,4.68,0,0,0,1.05-2.89A4.86,4.86,0,0,0,14,310.7a4.48,4.48,0,0,0,1.69-1A5.08,5.08,0,0,0,17,305.61a4.78,4.78,0,0,0,2.86,1,5.43,5.43,0,0,0,4.51-2.86,5.61,5.61,0,0,0,1,5.89A4.82,4.82,0,0,0,28.16,311a4.51,4.51,0,0,0,0,5.75A5.08,5.08,0,0,0,24.08,318.07Z"/><path class="cls-2" d="M29.56,312.85a9.68,9.68,0,1,1-9.68-9.69A9.68,9.68,0,0,1,29.56,312.85Z"/><path class="cls-5" d="M204.94,42.19a10.9,10.9,0,0,1-1.42-2.08,11.18,11.18,0,1,1,20.79-2.67C219.86,39.9,213.56,42,204.94,42.19Z"/><path class="cls-2" d="M218.63,44.81a11.2,11.2,0,0,1-13.69-2.62c8.62-.22,14.92-2.29,19.37-4.75A11.18,11.18,0,0,1,218.63,44.81Z"/><path class="cls-5" d="M173,34.81a9.85,9.85,0,0,1-1.76-1.09,9.18,9.18,0,1,1,11.42-14.37,9.07,9.07,0,0,1,3.3,5.48A34.22,34.22,0,0,1,173,34.81Z"/><path class="cls-2" d="M184.14,32.24A9.18,9.18,0,0,1,173,34.81a34.22,34.22,0,0,0,13-10A9.11,9.11,0,0,1,184.14,32.24Z"/><path class="cls-5" d="M189.62,80.2a10.83,10.83,0,0,1-2.44.66,11.19,11.19,0,1,1,4.35-20.51C192.38,65.37,192.26,72,189.62,80.2Z"/><path class="cls-2" d="M196.61,68.15a11.18,11.18,0,0,1-7,12c2.64-8.21,2.76-14.83,1.91-19.85A11.22,11.22,0,0,1,196.61,68.15Z"/><path class="cls-2" d="M222.74,96.46C219.47,65,183.93,33.2,183.57,32.88l1.14-1.28a170.8,170.8,0,0,1,18.58,20.11c8.68,11,19.41,27.74,21.15,44.57Z"/><path class="cls-2" d="M214.08,68.19l-1.43-1a19.73,19.73,0,0,0,1-20.75l1.46-.9A21.82,21.82,0,0,1,214.08,68.19Z"/><path class="cls-2" d="M211.67,76.82c-8.57,0-15.18-5.67-15.52-6l1.13-1.29c.09.08,9.37,8,19.63,4.73l.52,1.63A18.88,18.88,0,0,1,211.67,76.82Z"/><path class="cls-1" d="M225.4,82.06c4.44-6.2,9-14.73,5.18-19.69-5.43-7-17.7.11-15,16.27-4.88-5.83-12-12.36-17.72-9.89-7.8,3.35-4.63,16,10,18.35-7,.8-14.42,2.92-15.63,8.3-1.86,8.3,10.32,13.16,20.79,2.62-2.61,6.43-4.28,13.89-.19,17.5,6.27,5.54,16.19-2.41,12.51-16.26,4.08,5.43,9.42,10.43,14.5,8.87,6.76-2.07,6.66-11.39-1.8-16.71,4.9.1,9.34-.92,11.2-4.36C253.69,78.71,240.27,69.78,225.4,82.06Z"/><path class="cls-2" d="M211.79,89.6a7.48,7.48,0,1,0,7.48-7.48A7.47,7.47,0,0,0,211.79,89.6Z"/></g></g></g></svg>