<?xml version="1.0" encoding="UTF-8" standalone="no"?>
<!DOCTYPE svg PUBLIC "-//W3C//DTD SVG 1.1//EN" "http://www.w3.org/Graphics/SVG/1.1/DTD/svg11.dtd">
<svg width="100%" height="100%" viewBox="0 0 1912 899" version="1.1" xmlns="http://www.w3.org/2000/svg" xmlns:xlink="http://www.w3.org/1999/xlink" xml:space="preserve" xmlns:serif="http://www.serif.com/" style="fill-rule:evenodd;clip-rule:evenodd;stroke-linejoin:round;stroke-miterlimit:2;">
    <g id="Layer2" transform="matrix(1,0,0,1,-7.55196,-25.5253)">
        <g>
            <g>
                <path d="M451.4,188.4L228.8,317L124,377.5L124,364.9L126.2,362.8C154.1,336.7 130.6,329.7 170.7,327.1C187.5,315 186.2,300.9 196.5,290C201.7,284.5 209.8,279.8 224.8,276.5C269.3,266.9 245.6,281.3 278.4,264.9C311.2,248.5 279,228.7 319,222.1C359,215.5 358.4,225 379.2,216.8C400,208.6 399.9,205.7 415.7,195.8C431.5,185.9 451.4,188.4 451.4,188.4Z" style="fill:rgb(238,244,212);fill-rule:nonzero;"/>
                <path d="M1785.8,82.3L1412.1,298C1412.1,298 1432.7,282.8 1460.6,256.6C1488.5,230.4 1464.9,223.5 1505.1,220.9C1530.4,202.6 1514.7,179.9 1559.2,170.3C1603.7,160.7 1580,175.1 1612.8,158.7C1645.6,142.3 1613.4,122.5 1653.4,115.9C1693.4,109.3 1692.8,118.8 1713.6,110.6C1734.4,102.4 1734.3,99.5 1750,89.6C1765.7,79.7 1785.8,82.3 1785.8,82.3Z" style="fill:rgb(238,244,212);fill-rule:nonzero;"/>
                <circle cx="812.5" cy="281.1" r="166.1" style="fill:rgb(255,235,179);"/>
                <path d="M792.9,271.6L419.2,487.4C419.2,487.4 439.8,472.2 467.7,446C495.6,419.8 472.1,412.9 512.2,410.2C537.5,391.9 521.8,369.2 566.2,359.6C610.6,350 587,364.4 619.8,348C652.6,331.6 620.4,311.8 660.4,305.2C700.4,298.6 699.8,308.1 720.6,299.9C741.4,291.7 741.3,288.8 757.1,278.9C772.9,269 792.9,271.6 792.9,271.6Z" style="fill:rgb(255,211,87);fill-rule:nonzero;"/>
                <path d="M1127.7,246.8L754,462.5C754,462.5 774.6,447.3 802.5,421.1C830.4,394.9 806.9,388 847,385.3C872.3,367 856.6,344.3 901.1,334.7C945.6,325.1 921.9,339.5 954.7,323.1C987.5,306.7 955.3,286.9 995.3,280.3C1035.3,273.7 1034.7,283.2 1055.5,275C1076.3,266.8 1076.2,263.9 1091.9,254C1107.6,244.1 1127.7,246.8 1127.7,246.8Z" style="fill:rgb(255,211,87);fill-rule:nonzero;"/>
                <path d="M326.7,398.7L256,484L243.3,499.3L242.4,500.4L238,505.7L234.2,510.3L229.1,516.5L223,523.8L215.8,532.5C210.7,532 198.7,531.2 182,530.1L151,528.2L145.4,527.8L134.5,527.1L127,526.6L122.2,526.3L109.2,525.4L105.9,525.2L89,524.1L87.4,524C71.2,522.9 54.4,521.6 37.6,520.3C24.1,519.2 10.5,518.1 -2.9,516.9L-2.9,229.5L114.8,290L167.4,317L261.5,365.3L326.7,398.7Z" style="fill:rgb(255,211,87);fill-rule:nonzero;"/>
                <path d="M1918,339.2L1918,727.5C1887.1,742.2 1858.6,753.6 1846.4,757.2C1817.7,765.7 1812.7,761.7 1740.2,751L1418.4,548.5L1567.9,481.8C1596.7,469 1632,461.6 1668.8,460.8L1740.2,459.2L1918,339.2Z" style="fill:rgb(225,221,143);fill-rule:nonzero;"/>
                <path d="M1918,447L1918,727.5C1884.4,742.2 1853.3,753.6 1840,757.2C1808.8,765.7 1803.3,761.7 1724.4,751L1465.1,601.2L1621.2,537.3C1652.5,524.5 1691,517.1 1731.1,516.3L1808.9,514.7L1918,447Z" style="fill:rgb(255,235,179);fill-rule:nonzero;"/>
                <path d="M771.5,498.1L984.1,428.6L1137.7,517.3L1306.2,448.6L1663,673.9L972.5,680.2C972.5,680.2 846.2,680.2 831.4,674.9L771.5,498.1Z" style="fill:rgb(255,211,87);fill-rule:nonzero;"/>
                <path d="M1321.1,667.9C1320.2,667.2 1314.2,662.4 1304.9,654.8L1295,646.7L1267.4,624.1C1253.6,612.8 1238.2,600.2 1222.9,587.6C1205.4,573.2 1187.9,558.8 1172.5,546.2L1155.7,532.4L1136,516.2L1070.6,478.4L1030,454.9L993.9,434L984.3,428.5L979.6,430L985.5,437.6L1010.8,470.1C1011.1,470.4 1011.3,470.7 1011.5,471.1C1013.1,474.2 1011.8,478 1008.7,479.6C1007.1,480.4 1005.3,480.5 1003.7,479.9C999.8,478.5 995.5,480.5 994.1,484.4C993.3,486.6 993.6,489 994.8,491L997.5,495.2L1009.3,513.7L1025.5,539.1C1028.1,543.1 1026.9,548.5 1022.9,551.1C1020.7,552.5 1018.1,552.9 1015.6,552.1C1009.3,550.2 1002.7,553.7 1000.8,560C1000.1,562.4 1000.1,565 1001,567.4L1015,606.8C1017.4,613.4 1019.5,619.4 1021.1,624L1023.4,630.4C1024,632.1 1024.3,633 1024.3,633C1024.3,633 1081.3,640.3 1145.3,648.2C1160.2,650 1175.6,651.9 1190.6,653.8L1207.7,655.9L1226.3,658.1C1245.8,660.4 1263.8,662.5 1278.8,664.2C1305.4,667.3 1322.5,668.9 1321.1,667.9ZM1636.8,657.3L1634.2,655.6L1628.1,651.8L1620,646.6L1614.6,643.2L1601.3,634.8L1594.1,630.2L1584.4,624.1L1501.7,571.9L1492.8,566.3L1485.1,561.5L1479.2,557.8L1438.8,532.3L1322.9,459.2L1346,498.7C1348,502.2 1346.9,506.7 1343.4,508.8C1341.6,509.9 1339.4,510.1 1337.4,509.4C1332,507.7 1326.2,509.2 1322.4,513.4C1322,513.9 1321.6,514.4 1321.2,514.9C1317.6,520.1 1317.8,527 1321.7,532L1343.1,559.3L1345.2,562C1360.9,582 1374.6,599.4 1376.7,602C1378,603.6 1393.9,612.3 1417.1,624.2C1429.2,630.4 1443.3,637.5 1458.3,645L1459.8,645.7L1463.5,647.5C1468,649.7 1472.6,652 1477.3,654.3L1481.1,656.2C1494.2,662.6 1507.6,669 1520.8,675.2L1530.6,675.1L1583.4,674.6L1609.4,674.4L1663.1,673.9L1636.8,657.3Z" style="fill:rgb(255,235,179);fill-rule:nonzero;"/>
                <path d="M139.3,454.1L216.5,378.9C229.8,366 248.6,360.6 266.7,364.5C286.2,368.8 306.4,362.4 320,347.8L465.2,191.8L487.5,191.8L534.6,306.7C539.2,317.8 550,325.1 562,325.1C574.2,325.1 585.4,331.9 590.9,342.8C602.4,365.4 622.3,404.4 634.2,427.7C640.2,439.4 652.2,446.7 665.3,446.7C675.3,446.7 684.8,451.3 691,459.1L818.4,619.6L353.5,619.6L139.3,454.1Z" style="fill:rgb(255,211,87);fill-rule:nonzero;"/>
                <path d="M548.5,306.7C554.1,317.8 567.3,325.1 581.9,325.1C596.8,325.1 610.4,331.9 617.2,342.8C631.3,365.4 655.6,404.4 670.1,427.7C677.4,439.4 692.1,446.7 708.1,446.7C720.3,446.7 731.9,451.3 739.5,459.1C777.1,497.8 890,614.1 890,614.1C883.7,615.9 875.8,617.8 866.9,619.5L633.8,619.5C577.1,609.4 526.3,597 526.3,597L477.4,549.5C474.4,546.8 473.6,542.5 475.5,538.9C477.3,535.4 481.4,533 486.1,532.7C490.7,532.4 494.8,530 496.6,526.5C498.4,523 497.5,518.7 494.5,516.1L475.4,498.3C472.8,496.1 472.1,492.4 473.5,489.4C475,486.4 478.4,484.3 482.4,484C486.4,483.7 489.9,481.6 491.5,478.6C493.1,475.6 492.4,471.8 489.9,469.5L475.7,455.4C471.2,450.9 470.6,444.6 474.2,439.7C477.8,434.8 484.8,432.1 491.8,433.2C496.7,434 501.7,432.3 504.5,428.9C507.4,425.7 507.6,421 505,417.6L475.4,377.1C473.1,374 473.3,369.6 476,366.8C479,363.7 483.5,362.3 487.8,363.2C494,364.3 500.3,362.3 503.8,358C507.3,353.9 507.2,347.9 503.6,343.9C494.7,333.6 484.6,321.8 475.8,311.4C471.6,306.9 471.2,300.1 474.8,295.1C478.4,290 485.2,287 492.4,287.4C496.5,287.7 500.5,286.3 503.5,283.5C506.2,281.1 507.2,277.3 506.1,273.9C497.3,246.9 479.5,191.9 479.5,191.9L491,191.9L548.5,306.7Z" style="fill:rgb(255,235,179);fill-rule:nonzero;"/>
                <path d="M764.9,588.3L700.1,494.2C699.7,493.6 699.1,493.3 698.4,493.3C692.8,493.3 688.3,497.8 688.3,503.4C688.3,505.5 688.9,507.5 690.1,509.2L751.5,596L764.9,588.3Z" style="fill:rgb(255,211,87);fill-rule:nonzero;"/>
                <path d="M697.2,599.5L575.5,411.9C571.8,406.2 565.4,402.7 558.6,402.7C555.5,402.7 552.9,405.2 552.9,408.4C552.9,409.6 553.3,410.7 553.9,411.6L596.7,474C600.9,480.1 599.3,488.5 593.2,492.8C591,494.3 588.3,495.2 585.6,495.2C571.4,495.2 559.8,506.7 559.8,521L559.8,578L697.2,599.5Z" style="fill:rgb(255,211,87);fill-rule:nonzero;"/>
                <path d="M1697,624.2L1697,1049.9C1697,1058 1689.3,1064.6 1679.8,1064.6L0,1064.6L0,624.2L1697,624.2Z" style="fill:rgb(76,134,168);fill-rule:nonzero;"/>
                <path d="M309.6,703.9L1105.5,712.7L309.6,718.6L309.6,703.9Z" style="fill:rgb(59,112,128);fill-rule:nonzero;"/>
                <g transform="matrix(1.0454,0,0,3.14355,-14.4811,-1928.12)">
                    <path d="M1114.9,899.5L319,908.4L1114.8,914.3L1114.9,899.5Z" style="fill:rgb(59,112,128);fill-rule:nonzero;"/>
                </g>
                <g transform="matrix(1,0,0,1,12.7344,-34.1979)">
                    <path d="M1367,879.8L571.1,888.6L1367,894.5L1367,879.8Z" style="fill:rgb(59,112,128);fill-rule:nonzero;"/>
                </g>
                <g transform="matrix(1.03607,0,0,1.99596,-11.3058,-763.802)">
                    <path d="M313.4,766.9L1109.2,775.7L313.4,781.6L313.4,766.9Z" style="fill:rgb(59,112,128);fill-rule:nonzero;"/>
                </g>
                <path d="M1471.2,677.6L675.4,686.4L1471.2,692.3L1471.2,677.6Z" style="fill:rgb(59,112,128);fill-rule:nonzero;"/>
                <path d="M1657.4,642.8L861.6,651.7L1657.4,657.6L1657.4,642.8Z" style="fill:rgb(59,112,128);fill-rule:nonzero;"/>
                <path d="M247.2,495.8L1046.6,630.5L373.6,630.5L247.2,495.8Z" style="fill:rgb(225,221,143);fill-rule:nonzero;"/>
                <path d="M467.8,560.5C467.8,560.5 514.1,564 542.9,573.2C536,567.3 534.8,566.8 531.2,557.6C527.6,548.4 527.3,547.9 527.3,547.9L529.5,564.5L521,542.5L521.8,559.7L514.2,534.8L511.7,556.7L508.6,529.9L505.2,554.7L499.9,538.2L499.1,552.9L493.4,541.5L490.3,552.9L488.4,544.9L484.7,555.9L483.2,549.8L479.8,557.3L476.8,551.9C475.8,555.4 473.2,558.2 469.9,559.6L467.8,560.5Z" style="fill:rgb(86,79,73);fill-rule:nonzero;"/>
                <path d="M588.3,588.9C588.3,588.9 634.6,592.4 663.4,601.6C656.5,595.7 655.3,595.2 651.7,586C648.1,576.8 647.8,576.3 647.8,576.3L650.1,592.9L641.6,570.9L642.4,588.1L634.8,563.2L632.3,585.1L629.2,558.3L625.8,583.1L620.5,566.6L619.7,581.3L614,569.9L610.9,581.3L609,573.3L605.3,584.3L603.8,578.2L600.4,585.7L597.4,580.3C596.4,583.8 593.8,586.6 590.5,588L588.3,588.9Z" style="fill:rgb(86,79,73);fill-rule:nonzero;"/>
                <path d="M697.4,581.9C697.4,581.9 743.7,585.4 772.5,594.6C765.6,588.7 764.4,588.2 760.8,579C757.2,569.8 756.9,569.3 756.9,569.3L759.1,585.9L750.6,563.9L751.4,581.1L743.8,556.2L741.3,578.1L738.2,551.3L734.8,576.1L729.5,559.6L728.7,574.3L723,562.9L719.9,574.3L718,566.3L714.3,577.3L712.8,571.2L709.4,578.7L706.4,573.3C705.4,576.8 702.8,579.6 699.5,581L697.4,581.9Z" style="fill:rgb(86,79,73);fill-rule:nonzero;"/>
                <path d="M682.9,607.3C682.9,607.3 729.2,610.8 758,620C751.1,614.1 749.9,613.6 746.3,604.4C742.7,595.2 742.4,594.7 742.4,594.7L744.6,611.3L736.1,589.3L736.9,606.5L729.3,581.6L726.8,603.5L723.7,576.7L720.3,601.5L715,585L714.2,599.7L708.5,588.3L705.4,599.7L703.5,591.7L699.8,602.7L698.3,596.5L694.9,604L691.9,598.6C690.9,602.1 688.3,604.9 685,606.3L682.9,607.3Z" style="fill:rgb(86,79,73);fill-rule:nonzero;"/>
                <path d="M810.4,601.8C810.4,601.8 856.7,605.3 885.5,614.5C878.6,608.6 877.4,608.1 873.8,598.9C870.2,589.7 869.9,589.2 869.9,589.2L872.1,605.8L863.6,583.8L864.4,601L856.8,576.1L854.3,598L851.2,571.2L847.8,596L842.5,579.5L841.7,594.2L836,582.8L832.9,594.2L831,586.2L827.3,597.2L825.8,591.1L822.4,598.6L819.4,593.2C818.4,596.7 815.8,599.5 812.5,600.9L810.4,601.8Z" style="fill:rgb(86,79,73);fill-rule:nonzero;"/>
                <path d="M702.3,656.9L-4,656.9L-4,418.3L702.3,656.9Z" style="fill:rgb(255,235,179);fill-rule:nonzero;"/>
                <path d="M168.4,486.3C168.4,486.3 245.2,511.1 290,538.3C280.7,525.5 278.9,524.3 276.5,507.2C274.1,490.1 273.8,489.3 273.8,489.3L270.8,518.3L265.4,477.6L259.7,506.9L257,461.8L243.8,497.8L249.5,451.4L233.6,491.9L231.3,461.9L224,486.4L219,464.9L209.1,482.8L209.1,468.5L198.4,485.6L198.4,474.7L189.6,486L186.8,475.7L185.7,477.6C183.2,481.8 179,484.7 174.2,485.5L168.4,486.3Z" style="fill:rgb(86,79,73);fill-rule:nonzero;"/>
                <path d="M348.5,572.3C348.5,572.3 425.3,597.1 470.1,624.3C460.8,611.5 459,610.3 456.6,593.2C454.2,576.1 453.9,575.3 453.9,575.3L450.9,604.3L445.5,563.6L439.9,592.9L437.2,547.8L424,583.8L429.7,537.4L413.8,577.9L411.5,547.9L404.2,572.4L399.2,550.9L389.3,568.8L389.3,554.5L378.5,571.6L378.5,560.7L369.7,572L366.9,561.7L365.8,563.6C363.3,567.8 359.1,570.7 354.3,571.5L348.5,572.3Z" style="fill:rgb(86,79,73);fill-rule:nonzero;"/>
                <path d="M129.4,544.3C129.4,544.3 206.2,569.1 251,596.3C241.7,583.5 239.9,582.3 237.6,565.2C235.3,548.1 234.9,547.3 234.9,547.3L231.9,576.3L226.5,535.6L220.8,564.9L218.1,519.8L204.9,555.8L210.6,509.4L194.7,549.9L192.4,519.9L185.1,544.4L180.1,522.9L170.2,540.8L170.2,526.5L159.5,543.6L159.5,532.7L150.7,544L147.9,533.7L146.9,535.6C144.4,539.8 140.2,542.7 135.4,543.5L129.4,544.3Z" style="fill:rgb(86,79,73);fill-rule:nonzero;"/>
                <path d="M-3,572.6L688,830.6L-3,830.6L-3,572.6Z" style="fill:rgb(225,221,143);fill-rule:nonzero;"/>
                <path d="M1074.6,998.6C1070.7,991.9 1066.6,984.7 1062.4,977.1C1095.8,982.2 1108.1,981.1 1108.1,981.1C1108.1,981.1 1075.7,959.8 1051.4,944.9C1048.4,943.1 1045.6,941.4 1042.9,939.8C1042.5,939.1 1042.2,938.3 1041.8,937.6L1056.7,940.8C1079.9,945.8 1085.6,947 1086.6,947.2L1086.1,947.1C1086.1,947.1 1083.3,943.1 1078.8,935.9C1076.9,932.9 1074.6,929.3 1072.2,925.3C1071.4,924.1 1070.6,922.8 1069.8,921.4L1069.4,920.7L1067.8,918.1L1087.7,922.4C1080.4,919.1 1073.4,915.2 1066.7,910.8C1065,909.7 1063.2,908.5 1061.4,907.3L1058,901.3L1056.3,898.4L1055.6,897.1L1053.4,893.2L1051.8,890.3L1056.4,891C1079.2,894.2 1087.7,893.5 1087.7,893.5C1087.7,893.5 1085.3,891.9 1081.3,889.3C1077.6,886.9 1072.5,883.6 1067,880L1066.5,879.7L1060.9,876.1C1056.9,873.6 1052.8,871 1048.8,868.5C1044.4,865.8 1040.2,863.2 1036.4,861L1035.5,859.2L1057.6,864C1067.6,866.2 1070.3,866.7 1070.8,866.8L1070.4,866.7C1070.4,866.7 1068.5,863.9 1065.3,858.8C1063.7,856.3 1061.8,853.2 1059.6,849.7C1058.9,848.6 1058.2,847.5 1057.5,846.3C1057,845.5 1056.5,844.7 1056,843.9L1058.8,844.5L1066.8,846.2L1071.6,847.2C1071.4,847.1 1070.1,846.6 1068.1,845.5C1066.2,844.6 1063.7,843.2 1060.7,841.5C1057.7,839.8 1054.5,837.7 1050.9,835.3C1048.5,831.2 1046,826.7 1043.4,822C1049.8,823 1055,823.6 1059,824C1061.2,824.2 1063.2,824.3 1064.8,824.4C1066.8,824.5 1068.4,824.5 1069.5,824.5C1071,824.5 1071.7,824.4 1071.7,824.4L1070,823.3L1069,822.6L1064.6,819.7C1057.1,814.8 1044.9,807 1035.3,801.1C1033.9,800.3 1032.6,799.5 1031.4,798.8L1030.7,797.4L1036.1,798.6L1054.1,802.5L1058.1,803.4L1058,803.4C1058,803.4 1057.6,802.8 1056.8,801.6C1055,798.9 1051.3,793.2 1046.6,785.4L1059,788C1054.3,785.8 1049.7,783.3 1045.4,780.4C1044.5,779.8 1043.6,779.2 1042.7,778.6C1041.6,776.8 1040.5,774.9 1039.4,772.9L1038.7,771.6L1036.8,768.1C1042.8,769.1 1048.9,769.8 1055,770.1C1056.4,770.2 1057.7,770.2 1059.1,770.1L1056.8,768.6C1051.2,764.9 1036.8,755.5 1027.3,750L1026.9,749.1L1026.8,748.9C1043.6,752.6 1047.8,753.4 1048.6,753.6L1048.4,753.6C1048.4,753.6 1044.7,748.2 1039.5,739.5L1049.2,741.6C1044.7,739.5 1040.4,737.1 1036.4,734.2C1034.9,731.6 1033.3,728.9 1031.7,726C1044.5,728 1049.2,727.5 1049.2,727.5C1049.2,727.5 1033.5,717.2 1024.2,711.7L1023.9,711L1023.8,710.8C1037.1,713.7 1040.3,714.4 1040.9,714.5L1040.8,714.5C1040.8,714.5 1039.7,712.9 1037.9,710L1037.1,708.7C1033.9,703.7 1029.2,695.8 1024.3,686.5C1022.9,683.8 1021.5,681 1020.1,678.1C1019.7,677.3 1019.3,676.4 1018.9,675.6C1015,667.4 1011.7,658.9 1009.1,650.3C1008.8,649.2 1008.5,648.1 1008.2,647C1007.8,645.4 1008,648.2 1007.6,650.3C1006.7,655.2 1004.9,665 1002.2,675.8C1002,676.7 1001.8,677.5 1001.5,678.4C1000.8,681.1 1000.1,683.7 999.3,686.4C997.2,693.9 994.6,701.2 991.4,708.3C991.1,709 990.7,709.7 990.4,710.4C988,715.1 985.3,718.7 982.5,720.6L997,713.6C996.7,714.8 996.3,716.1 996,717.3C992.7,721.2 986.6,726.6 975.8,729.5C975.5,732.9 985,731.6 992,730.2C991.4,731.9 990.8,733.6 990.2,735.2L975.8,745.9L988,740.8C984,750.3 979.5,757.9 974.5,761.1L993,752.2C992.6,753.8 992.1,755.4 991.7,756.9C988.1,761.2 981.8,766.9 971.2,770.8C969.6,771.4 967.8,772 966,772.5C966,772.8 966,773.1 966.2,773.4C967.6,776.5 978.5,775 986.6,773.3C985.9,775.5 985.1,777.6 984.4,779.6L966,793.7L981.4,787.5C976.3,799.6 970.6,809.2 964.3,813.3L987.8,802C987.3,804 986.7,806 986.1,808C981.8,813.2 974.3,820 962.1,824.8C958.6,822.9 955.1,820.7 951.8,818.5C949.9,815.2 947.9,811.7 945.9,808C962.1,810.5 968.1,810 968.1,810C968.1,810 948.2,796.9 936.3,789.9L935.8,789L935.7,788.8L957.4,793.5L957.3,793.5C957.3,793.5 953.6,788.1 948.4,779.4L958.1,781.5C953.6,779.4 949.3,777 945.3,774.1L945.3,774L943.5,771C942.6,769.4 941.6,767.7 940.6,765.9C953.4,767.9 958.1,767.4 958.1,767.4C958.1,767.4 942.4,757.1 933.1,751.6L932.7,750.9L932.6,750.7C945.9,753.6 949.1,754.3 949.7,754.4L949.6,754.4C940.5,740.6 932.5,726.2 925.7,711.2C925.2,710.1 924.7,709 924.3,707.9C921.4,701.1 918.9,694.1 917,686.9C917,686.9 915.5,695.9 912.9,707.7C912.6,708.9 912.4,710 912.1,711.3C907.6,730.4 900.4,754.6 891.4,760.4L905.9,753.4C905.6,754.6 905.2,755.9 904.9,757.1C901.7,761 895.5,766.4 884.7,769.3C884.7,769.7 884.8,770 885,770.3C886.5,772.1 892.7,771.4 898.3,770.4C899.2,770.2 900.1,770.1 900.9,769.9L900.7,770.4C900.2,771.7 899.8,773 899.3,774.3L899.1,774.9L884.6,785.7L896.7,780.9C892.7,790.4 888.2,798 883.2,801.2L901.7,792.3C901.3,793.9 900.8,795.4 900.4,797C896.3,802 888.4,808.8 874.7,812.5C874.3,816.8 886.4,815.2 895.3,813.4C894.6,815.5 893.8,817.7 893.1,819.7L874.8,833.3L890.2,827.1C885.1,839.2 879.4,848.8 873.1,852.9L896.6,841.6C896.1,843.6 895.5,845.6 894.9,847.6C889.6,853.9 879.7,862.6 862.3,867.3C862.2,867.9 862.4,868.6 862.9,869.1C855.1,864.1 845.9,858.3 838.9,854.2L838.2,852.8C858.9,857.3 864.5,858.5 865.7,858.7L865.6,858.7C865.6,858.7 860.9,851.8 854.3,840.8L866.7,843.4C861,840.8 855.5,837.6 850.4,834C848.5,830.7 846.5,827.2 844.5,823.5C860.8,826 866.8,825.5 866.8,825.5C866.8,825.5 846.9,812.4 835,805.4L834.6,804.5L834.5,804.3L856.2,809L856.1,809C856.1,809 852.4,803.6 847.2,794.9L856.9,797C852.4,794.9 848.1,792.5 844.1,789.6C842.6,787 841.1,784.3 839.4,781.4C852.2,783.4 856.9,782.9 856.9,782.9C856.9,782.9 851.1,779.1 844.4,774.8C841.8,773.1 839,771.4 836.4,769.8C834.8,768.8 833.2,767.9 831.8,767L831.5,766.3L831.4,766.1C844.7,769 847.9,769.7 848.5,769.8L848.4,769.8C848.4,769.8 828.7,740.8 818.7,711.9C818.1,710.1 817.5,708.3 817,706.6C816.6,705.2 816.2,703.7 815.8,702.3C815.8,702.3 815.6,703.9 815.1,706.6C814.8,708.1 814.5,709.9 814.1,712C811.2,727 804.7,755.6 796,769.4C794.7,771.6 793,773.6 791.1,775.2C790.8,775.4 790.5,775.7 790.2,775.9L791.6,775.2L803.5,769.5L804.7,768.9C804.6,769.1 804.6,769.3 804.5,769.5C804.2,770.5 803.9,771.6 803.6,772.6C802.9,773.5 802.1,774.3 801.2,775.1C796.2,779.8 790,783.1 783.4,784.8C783.1,788.2 792.6,786.9 799.6,785.5C799,787.2 798.4,788.8 797.8,790.5L783.4,801.2L795.5,796.4C791.5,805.9 787,813.5 782,816.7L800.5,807.8C800.1,809.4 799.6,811 799.2,812.5C795.1,817.5 787.2,824.3 773.5,828C773.1,832.3 785.2,830.6 794.1,828.9C793.4,831 792.6,833.1 791.9,835.2L773.6,848.8L789,842.6C783.9,854.7 778.2,864.3 771.9,868.4L795,857C794.5,859 793.9,861 793.3,863C788.1,869.3 778.1,878 760.7,882.7L760.7,883.4C761.6,887.9 776.1,885.9 786.8,883.8L785.7,887.1C785.1,888.7 784.6,890.3 784,891.8L772.7,900.2L761.6,908.5L760.8,909.1L762.3,908.5L780.4,901.3C779.3,903.8 778.2,906.3 777.1,908.7C773.2,916.9 769.1,923.8 764.7,928.7C763.1,930.5 761.4,932.1 759.4,933.5C759.1,933.7 758.9,933.9 758.6,934.1L759.8,933.5L770,928.6L788.5,919.7C787.8,922.2 787.1,924.8 786.4,927.3C786.1,927.7 785.8,928 785.5,928.4C783.9,930.2 782.2,932 780.4,933.6C773,940.4 761.7,947.8 745,952.4C744.4,959.4 763.9,956.7 778.2,953.8C777,957.3 775.8,960.7 774.6,964L760,974.7L746.9,984.5L744.7,986.1L748.7,984.5L769.5,976.2C768.3,979.1 767,981.9 765.7,984.7C762.1,992.6 757.8,1000.1 752.7,1007.2C737.7,1001 728.3,992.6 722.9,986.1C722.7,985.6 722.6,985 722.4,984.5C721.8,982.5 721.3,980.5 720.7,978.5L733.3,984.6L750.5,992.9C747.3,990.7 744.4,987.9 742.1,984.7C739.8,981.7 737.8,978.5 736,975.2C733.3,970.3 730.9,965.3 728.8,960.1L748.3,967.9L725,950.6C724,948 723.1,945.3 722.1,942.6C733.3,944.8 748.7,947 748.2,941.5C741.6,939.8 735.4,937.1 729.5,933.6C727.4,932.3 725.4,930.9 723.5,929.4C720.6,927.1 717.9,924.5 715.6,921.7C715,919.7 714.5,917.7 713.9,915.7L737.4,927C732.4,923.8 727.8,917.1 723.6,908.5C722.5,906.2 721.4,903.7 720.3,901.2L735.7,907.4L727.2,901.1L717.5,893.8C716.7,891.7 716,889.6 715.3,887.5C723.8,889.2 735.4,890.8 735.9,887.1L735.9,886.6C733.4,885.9 730.9,885.1 728.5,884.1C721.4,881.3 715.1,876.9 710.2,871.1C709.8,869.5 709.3,867.9 708.9,866.4L727.4,875.3C722.4,872.1 717.9,864.5 713.9,855L726,859.8L711.6,849.1C711,847.5 710.4,845.8 709.8,844.1C716.8,845.5 726.3,846.8 726,843.4C722.1,842.4 718.3,840.8 714.8,838.7C711.4,836.7 708.3,834.1 705.8,831.1C705.5,829.9 705.1,828.6 704.8,827.4L719.3,834.4C716.3,832.5 713.6,828.6 711.1,823.6C704.6,810.6 699.5,790 696.6,776C696,773.1 695.5,770.6 695.1,768.4C694.2,763.8 693.8,760.9 693.8,760.9C693.6,761.7 693.4,762.6 693.1,763.4C692.6,765 692.1,766.7 691.6,768.3C690.8,770.9 689.8,773.5 688.8,776C686.1,783.1 682.8,790.2 679.6,796.6C678.8,798.2 677.9,799.8 677.1,801.4C675.6,804.2 674.2,806.8 672.8,809.3C670.7,813.1 668.7,816.4 667,819.2C665.3,822 663.9,824.2 662.9,825.7C661.9,827.2 661.1,828.4 661.1,828.4L661,828.4C661.6,828.3 664.7,827.6 677.4,824.9L678,824.8L677.9,825L677.6,825.7L677.3,825.9C675.5,826.9 673.5,828.2 671.4,829.5C666.2,832.7 660.5,836.4 656.8,838.8L652.6,841.5C652.6,841.5 657.3,841.9 670.1,840C668.5,842.9 666.9,845.7 665.4,848.2C661.3,851 657,853.5 652.6,855.6L662.3,853.5C657.1,862.2 653.4,867.6 653.4,867.6L653.2,867.6C654,867.4 658.1,866.6 675,862.9L674.9,863.1L674.4,864C662.5,871 642.6,884.1 642.6,884.1C642.6,884.1 648.6,884.6 664.9,882.1C664.4,883 663.9,883.8 663.5,884.7L662.5,886.4C661.3,888.6 660.1,890.6 659,892.6C653.9,896.2 648.5,899.3 642.8,901.9L642.6,902L643,901.9L655,899.3C654.5,900.1 654,901 653.5,901.7C652.1,904 650.8,906 649.7,907.9C646,913.8 643.7,917.2 643.7,917.2L643.6,917.2C644.9,916.9 650.4,915.7 671.1,911.3L670.4,912.7C662.2,917.5 650.9,924.7 642.4,930.2L638.4,932.8C633.4,936 630,938.3 630,938.3C630,938.3 637.6,939 658.3,935.8C655.7,940.5 653.2,945 650.8,949.1C644.2,953.7 637.3,957.7 630,961.1L645.7,957.8C640.7,966 636.7,972.4 634.1,976.3C632.3,979.1 631.3,980.6 631.3,980.6L631.1,980.6C632.2,980.4 636.8,979.4 652,976.1L666.1,973.1L665.2,974.9C664.6,975.3 663.9,975.7 663.2,976.1C659.2,978.5 654.7,981.2 650.2,984.1C632.7,994.9 613.9,1007.4 613.9,1007.4C613.9,1007.4 623.6,1008.2 649.9,1004.2C646.6,1010.2 643.4,1015.8 640.3,1021.1C631.9,1026.9 623.1,1032 613.9,1036.2L633.8,1031.9C623,1049.8 615.5,1060.9 615.5,1060.9L614.9,1061.1C614.9,1061.1 620.3,1060 659.9,1051.4L658.8,1053.6C653.1,1056.9 646.5,1061 639.7,1065.2L731.3,1065.2C730.6,1062.9 730,1060.6 729.4,1058.3L743.8,1065.2L1091.7,1065.2C1077.8,1056.4 1062.9,1047.1 1051.1,1040.1L1050.9,1039.7C1050.5,1038.9 1050.1,1038.1 1049.7,1037.2L1052.6,1037.8C1096.7,1047.4 1105.5,1049.2 1106.6,1049.5L1105.9,1049.3C1105.9,1049.3 1096.3,1035.2 1082.7,1012.5L1108.1,1017.9C1096.4,1012.4 1085.2,1006 1074.6,998.6ZM947.4,904.9C950.2,904.9 952.9,904.7 955.7,904.3L968.8,907.1C968.2,908.8 967.6,910.4 967,912.1L965.6,913.1L963.5,914.7L960.9,913.1C956.1,910.2 951.5,907.3 947.4,904.9ZM964.5,866.4C962.7,869.6 960.6,872.6 958.3,875.4C956.4,872 954.4,868.5 952.3,864.7C957.1,865.5 961.1,866 964.5,866.4ZM960.6,854.3L972.9,849.4C971.4,852.9 969.9,856.2 968.4,859.3C966,857.7 963.3,856 960.6,854.3ZM965.5,887.6L964.9,886.6L966.4,886.9C966.1,887.2 965.8,887.4 965.5,887.6ZM880.9,891C879.2,895 877.4,898.8 875.5,902.3L874.9,903.5L872.7,902.4C870,901 866.6,899.1 862.9,896.6L876.9,891L881.8,889C881.5,889.6 881.2,890.2 880.9,891ZM978.8,875.5C976.1,878.7 973.2,881.6 969.9,884.3L969.7,884.4L969.5,884.3C966.6,882.6 963.3,880.6 959.8,878.2L959.7,878.1L980.8,867.9C980.2,870.4 979.5,872.9 978.8,875.5ZM959,829C958.2,829.3 957.4,829.6 956.5,829.8C956.2,829.3 955.9,828.8 955.6,828.3L959,829ZM967,846.2C966.9,846.2 963.9,841.7 959.2,834.2C964.6,834.5 972.7,833.2 979.4,831.9C978.5,834.6 977.5,837.3 976.5,839.9L958.7,853.1C952.3,849 945.5,844.8 940.1,841.6L939.4,840.2C960.2,844.8 965.8,846 967,846.2ZM853.8,885.5C852.8,883.8 851.9,882 850.9,880.3C871.6,883.5 879.2,882.8 879.2,882.8C879.2,882.8 872.7,878.5 864.3,873.1C868.8,874.9 879.8,873.2 888.4,871.5C887.5,874.2 886.5,876.9 885.5,879.5L877.7,885.3L870.2,890.9L862.7,896.4C861.3,895.5 859.9,894.6 858.4,893.6C857.9,892.7 857.3,891.7 856.8,890.8C855.8,889 854.8,887.3 853.8,885.5ZM863.5,902.1L864.5,902.3L874.3,904.4C872.8,907 871.3,909.5 869.5,911.9C867.7,909.1 865.7,905.9 863.6,902.3C863.5,902.3 863.5,902.2 863.5,902.1ZM889.8,907.3C889.3,909.1 888.8,910.8 888.3,912.5C888.1,913.3 887.9,914.1 887.6,914.9C884.6,918.5 881.3,921.7 877.6,924.6C877,923.7 875,920.7 871.9,915.9L879,912.5L889.8,907.3ZM843.8,919.1C843.5,918.5 843.2,917.9 842.9,917.3L860.6,921.1L859.9,921.6L860.8,921.1C871.4,923.4 875.7,924.3 877.4,924.7C874.7,926.8 871.9,928.8 868.9,930.5C867.8,931.1 866.7,931.8 865.5,932.4L862.6,930.6C856,926.5 849.4,922.4 843.8,919.1ZM972.4,947.5C972.1,948.6 971.8,949.6 971.5,950.7L970.3,949.9L969.7,948.8L972.4,947.5ZM865.4,959.4C863.4,955.9 861.4,952.3 859.3,948.5C866,949.5 871.6,950.2 876.2,950.7L875.8,951.7L865.4,959.4ZM871,963.7C870.7,964.5 870.3,965.4 869.9,966.2L868.7,965.4L868.3,964.7L871,963.7ZM740.1,1038.7C739.9,1038.3 739.8,1038 739.6,1037.6L741.2,1038.2L740.1,1038.7ZM761.9,1058.8L753.8,1064.8C750.5,1059.8 747.5,1054.6 744.9,1049.2C750.5,1048.7 756.6,1047.7 762.3,1046.6L764.4,1047.5L763.1,1046.5C764.3,1046.3 765.4,1046.1 766.5,1045.8C765.1,1050.3 763.5,1054.6 761.9,1058.8ZM777,1012.2C768.9,1021.7 758.9,1029.5 747.7,1035.1L734.8,1025.5C733.6,1022.2 732.3,1018.8 731.2,1015.3C735.8,1016.2 740.9,1017.1 745.7,1017.7C744.5,1018.8 743.2,1019.8 741.8,1020.7L747.6,1017.9C757,1018.8 764.8,1018.3 764.4,1013.9C762.6,1013.4 760.9,1012.9 759.2,1012.3L779.7,1002.4C778.8,1005.8 777.9,1009 777,1012.2ZM851.1,998.4L850.3,997.9L849.2,995.7L852.8,996.5C852.3,997.1 851.7,997.8 851.1,998.4ZM867,1008.1C862.5,1005.3 858.1,1002.6 854,1000.2L858.9,997.8L866.4,999.4L874.4,1001.1C872.2,1003.6 869.7,1005.9 867,1008.1Z" style="fill:rgb(57,79,73);fill-rule:nonzero;"/>
                <g transform="matrix(1,0,0,1,1.44792,-1.80729)">
                    <path d="M1018,1068L1072.6,1036.5L1075.3,1009.6C1077.7,985.5 1093.3,964.7 1115.8,955.6L1132.3,948.9C1132.3,948.9 1137.9,863.6 1140.8,818.4C1141.9,801 1150,784.7 1163.2,773.3L1283.6,669.1L1159.5,549.6C1158.7,548.9 1158.7,547.6 1159.4,546.9C1159.8,546.5 1160.3,546.3 1160.8,546.3L1299.4,546.3L1321.8,559.3L1396.8,559.3L1696.8,667.5L1696.8,1053.1C1696.8,1061.3 1690.1,1067.9 1682,1067.9L1018,1067.9L1018,1068Z" style="fill:rgb(57,79,73);fill-rule:nonzero;"/>
                </g>
                <path d="M1226.2,360.2C1226.2,360.2 1238.8,356.3 1244.2,365.7C1254.2,366.9 1254.2,374.7 1253.9,379.3C1253.6,383.9 1251.3,407.9 1251.3,407.9C1249.3,411.9 1247,415.7 1244.1,419.1C1240,423.9 1265,418.1 1269.1,427.6C1273.2,437.1 1284.9,494.1 1289,502.8C1293.1,511.5 1300.6,545.9 1300.6,545.9L1300.6,550.3L1283.6,550.3L1265.4,479.8L1269.2,527.7C1269.2,527.7 1273.4,544.7 1258.1,547.9C1242.8,551.1 1226.1,555.7 1226.1,555.7L1221,625.5C1221,625.5 1198.2,621.8 1196,619.2C1193.8,616.6 1204.7,607.8 1204.7,607.8L1207.2,577.3L1182.4,560.3L1190.1,622.6C1190.1,622.6 1171.3,622.2 1165.8,618.3C1160.3,614.4 1147.9,608.3 1153.2,604C1158.5,599.7 1165.4,601.4 1165.4,601.4L1156.6,531.8C1156.6,531.8 1163.1,510.2 1184,512.2C1187.1,489.2 1190.1,441.4 1194.6,431.5C1194.6,431.5 1200.8,419.7 1216.1,423.3C1210.2,417.3 1206.3,409.6 1204.8,401.3C1197.7,395 1195.2,389.1 1199.9,380.2C1204.6,371.3 1202.9,364.2 1226.2,360.2Z" style="fill:rgb(57,79,73);fill-rule:nonzero;"/>
                <path d="M1318.5,560.4C1318.5,560.4 1316,541.8 1314.2,528.3C1313.2,520.5 1318.6,513.3 1326.4,512.2C1340.5,510.1 1361.4,507.1 1370.8,506.4C1385.6,505.3 1400.9,521.2 1403.4,529.2C1408.9,530.3 1410.7,535 1411.2,539.6C1411.5,542.2 1410.6,544.8 1408.8,546.7L1403.5,546.5L1403.5,543.7L1408.8,541.1C1408.1,539.4 1407,537.8 1405.6,536.4C1403.7,534.8 1403.4,545.7 1403.5,548.7C1403.6,551.7 1402.5,563.2 1400.2,565L1318.5,560.4Z" style="fill:rgb(57,79,73);fill-rule:nonzero;"/>
                <path d="M-4,576C3.7,571 18.7,561.3 28.8,555.4L29.3,554.3L29.4,554.1C-1.7,560.8 3.8,559.6 3.8,559.6C3.8,559.6 8.2,553.2 14.4,542.9L2.9,545.4C8.2,542.9 13.3,540 18.1,536.7C19.9,533.7 21.7,530.4 23.6,526.9C8.4,529.2 2.8,528.7 2.8,528.7C2.8,528.7 21.3,516.5 32.4,509.9L32.9,508.9C8.4,514.2 12.8,513.2 12.8,513.2C12.8,513.2 41.7,470.8 51.4,433.2C51.4,433.2 63.5,508.4 81.8,520.3L64.6,512L65.8,516.4C69.7,521 77,527.4 89.7,530.9C90,534.9 78.8,533.4 70.5,531.7C71.2,533.7 71.9,535.7 72.6,537.6L89.7,550.3L75.4,544.6C80.1,555.9 85.5,564.8 91.4,568.6L69.6,558C70.1,559.9 70.6,561.7 71.2,563.6C76.1,569.5 85.4,577.6 101.6,582C102,587.1 87.7,585.1 77.2,583C78.1,585.6 78.9,588 79.9,590.5L101.6,606.6L83.4,599.3C89.4,613.6 96.2,625 103.7,629.9L75.9,616.5C76.6,618.9 77.2,621.2 77.9,623.6C84.1,631.1 96,641.4 116.5,647C117.1,653.5 98.8,651 85.5,648.3C86.6,651.5 87.7,654.7 88.9,657.8L116.5,678.3L93.3,669C101,687.2 109.6,701.7 119.1,707.8L83.8,690.8C84.6,693.8 85.5,696.8 86.3,699.8C94.2,709.3 109.2,722.4 135.4,729.5C136.1,737.7 113,734.6 96.1,731.2C97.5,735.3 98.9,739.3 100.4,743.3L135.4,769.3L106,757.6C115.7,780.7 126.7,799.1 138.7,806.9L94,785.3C95.1,789.1 96.1,793 97.2,796.8C107.2,808.9 126.3,825.5 159.5,834.5C160.4,845 131,840.9 109.5,836.6C111.3,841.8 113.1,846.9 115,851.9L159.5,884.9L122.2,869.9C134.6,899.3 148.5,922.6 163.8,932.6L106.9,905.1C108.2,910 109.6,914.8 111,919.7C123.8,935 148,956.2 190.2,967.6C191.3,980.9 154,975.8 126.7,970.3C129,976.9 131.3,983.4 133.6,989.8L190.1,1031.8L142.7,1012.8C151.1,1032.7 160,1050.4 169.5,1064.5L137.7,1064.5L112.9,1052.6C114.8,1056.8 117.1,1060.8 119.7,1064.5L-4,1064.5L-4,1044.2L-1.1,1042.6L-4,1043.2L-4,901L0.7,898.2C1.3,897.1 1.8,896 2.4,894.8L-3.9,896.2L-3.9,788.4C1.2,785.3 6.1,782.3 10.5,779.7L11.8,777L-4,780.5L-4,728.1C-2.7,725.9 -1.5,723.6 -0.2,721.3L-4,721.9L-4,700C3.8,695.1 11.5,690.3 18,686.5L19,684.4L-4,689.4L-4,659.4C-2.4,658.4 -0.9,657.3 0.8,656.2C3.6,651.3 6.6,646 9.7,640.4C4.4,641.2 -0.1,641.8 -4,642.2L-4,630.4C5.2,624.5 15.9,617.8 24.1,613L24.9,611.3L-4,617.7L-4,612.9C-1.6,609.2 1.8,603.9 5.8,597.2L-4,599.3L-4,598C1,595.4 5.8,592.5 10.5,589.3C12.7,585.4 15.1,581.3 17.5,576.9C10.4,578.1 3.2,578.8 -4,579.2L-4,576Z" style="fill:rgb(57,79,73);fill-rule:nonzero;"/>
                <path d="M394.6,1065C401,1061.4 408.8,1056.7 417.3,1050.9C421.9,1043 426.7,1034.5 431.7,1025.5C392.1,1031.5 377.6,1030.2 377.6,1030.2C377.6,1030.2 425.9,998.3 454.8,981.3C455.2,980.4 455.7,979.5 456.1,978.6C392.4,992.4 403.6,989.9 403.6,989.9C403.6,989.9 412.5,976.8 425.2,955.6L401.6,960.6C412.5,955.6 423,949.6 432.8,942.7C436.4,936.5 440.2,929.8 444.1,922.7C413,927.4 401.5,926.4 401.5,926.4C401.5,926.4 439.5,901.3 462.3,887.9C462.6,887.2 463,886.5 463.3,885.8C413.2,896.7 422,894.7 422,894.7C422,894.7 429,884.4 439,867.7L420.4,871.7C429,867.7 437.2,863 445,857.6C447.9,852.7 450.8,847.4 453.9,841.8C429.4,845.5 420.4,844.7 420.4,844.7C420.4,844.7 450.3,825 468.3,814.4C468.6,813.9 468.8,813.3 469.1,812.8C429.6,821.3 436.6,819.8 436.6,819.8C436.6,819.8 442.1,811.7 450,798.6L435.4,801.7C442.2,798.6 448.6,794.9 454.8,790.6C457,786.7 459.4,782.6 461.8,778.2C442.5,781.1 435.4,780.5 435.4,780.5C435.4,780.5 458.9,765 473.1,756.7L473.6,755.6L473.7,755.4C442.6,762.1 448.1,760.9 448.1,760.9C448.1,760.9 452.5,754.5 458.7,744.2L447.2,746.7C452.5,744.2 457.6,741.3 462.4,738C464.2,735 466,731.7 467.9,728.2C452.7,730.5 447.1,730 447.1,730C447.1,730 465.6,717.8 476.8,711.2L477.3,710.2C452.8,715.5 457.2,714.5 457.2,714.5C457.2,714.5 486.1,672.1 495.8,634.5C495.8,634.5 507.9,709.7 526.2,721.6L509,713.3C509.4,714.8 509.8,716.2 510.2,717.7C514.1,722.3 521.4,728.7 534.1,732.2C534.4,736.2 523.2,734.7 514.9,733C515.6,735 516.3,737 517,738.9L534.1,751.6L519.8,745.9C524.6,757.2 529.9,766.1 535.8,769.9L514,759.6C514.5,761.5 515,763.3 515.6,765.2C520.5,771.1 529.8,779.2 546,783.6C546.4,788.7 532.1,786.7 521.6,784.6C522.5,787.1 523.4,789.6 524.3,792.1L546,808.2L527.8,800.9C533.8,815.2 540.6,826.6 548.1,831.5L520.3,818.1C521,820.5 521.6,822.8 522.3,825.2C528.5,832.7 540.3,843 560.9,848.6C561.5,855.1 543.3,852.6 529.9,849.9C531,853.1 532.1,856.3 533.3,859.4L560.9,879.9L537.7,870.6C545.4,888.8 554,903.3 563.5,909.4L528.2,892.4C529,895.4 529.9,898.4 530.7,901.4C538.6,910.9 553.6,924 579.8,931.1C580.5,939.3 557.4,936.2 540.5,932.8C541.9,936.9 543.3,940.9 544.8,944.9L579.8,970.9L550.4,959.1C560.1,982.2 571.1,1000.6 583.2,1008.4L538.4,986.8C539.4,990.6 540.5,994.5 541.6,998.3C551.6,1010.4 570.7,1027 604,1036C604.9,1046.5 575.5,1042.4 554,1038.1C555.8,1043.3 557.6,1048.4 559.5,1053.4L574.9,1064.8L394.6,1065Z" style="fill:rgb(57,79,73);fill-rule:nonzero;"/>
                <g transform="matrix(1,0,0,1,1189.52,-205.75)">
                    <path d="M394.6,1065C401,1061.4 408.8,1056.7 417.3,1050.9C421.9,1043 426.7,1034.5 431.7,1025.5C392.1,1031.5 377.6,1030.2 377.6,1030.2C377.6,1030.2 425.9,998.3 454.8,981.3C455.2,980.4 455.7,979.5 456.1,978.6C392.4,992.4 403.6,989.9 403.6,989.9C403.6,989.9 412.5,976.8 425.2,955.6L401.6,960.6C412.5,955.6 423,949.6 432.8,942.7C436.4,936.5 440.2,929.8 444.1,922.7C413,927.4 401.5,926.4 401.5,926.4C401.5,926.4 439.5,901.3 462.3,887.9C462.6,887.2 463,886.5 463.3,885.8C413.2,896.7 422,894.7 422,894.7C422,894.7 429,884.4 439,867.7L420.4,871.7C429,867.7 437.2,863 445,857.6C447.9,852.7 450.8,847.4 453.9,841.8C429.4,845.5 420.4,844.7 420.4,844.7C420.4,844.7 450.3,825 468.3,814.4C468.6,813.9 468.8,813.3 469.1,812.8C429.6,821.3 436.6,819.8 436.6,819.8C436.6,819.8 442.1,811.7 450,798.6L435.4,801.7C442.2,798.6 448.6,794.9 454.8,790.6C457,786.7 459.4,782.6 461.8,778.2C442.5,781.1 435.4,780.5 435.4,780.5C435.4,780.5 458.9,765 473.1,756.7L473.6,755.6L473.7,755.4C442.6,762.1 448.1,760.9 448.1,760.9C448.1,760.9 452.5,754.5 458.7,744.2L447.2,746.7C452.5,744.2 457.6,741.3 462.4,738C464.2,735 466,731.7 467.9,728.2C452.7,730.5 447.1,730 447.1,730C447.1,730 465.6,717.8 476.8,711.2L477.3,710.2C452.8,715.5 457.2,714.5 457.2,714.5C457.2,714.5 486.1,672.1 495.8,634.5C495.8,634.5 507.9,709.7 526.2,721.6L509,713.3C509.4,714.8 509.8,716.2 510.2,717.7C514.1,722.3 521.4,728.7 534.1,732.2C534.4,736.2 523.2,734.7 514.9,733C515.6,735 516.3,737 517,738.9L534.1,751.6L519.8,745.9C524.6,757.2 529.9,766.1 535.8,769.9L514,759.6C514.5,761.5 515,763.3 515.6,765.2C520.5,771.1 529.8,779.2 546,783.6C546.4,788.7 532.1,786.7 521.6,784.6C522.5,787.1 523.4,789.6 524.3,792.1L546,808.2L527.8,800.9C533.8,815.2 540.6,826.6 548.1,831.5L520.3,818.1C521,820.5 521.6,822.8 522.3,825.2C528.5,832.7 540.3,843 560.9,848.6C561.5,855.1 543.3,852.6 529.9,849.9C531,853.1 532.1,856.3 533.3,859.4L560.9,879.9L537.7,870.6C545.4,888.8 554,903.3 563.5,909.4L528.2,892.4C529,895.4 529.9,898.4 530.7,901.4C538.6,910.9 553.6,924 579.8,931.1C580.5,939.3 557.4,936.2 540.5,932.8C541.9,936.9 543.3,940.9 544.8,944.9L579.8,970.9L550.4,959.1C560.1,982.2 571.1,1000.6 583.2,1008.4L538.4,986.8C539.4,990.6 540.5,994.5 541.6,998.3C551.6,1010.4 570.7,1027 604,1036C604.9,1046.5 575.5,1042.4 554,1038.1C555.8,1043.3 557.6,1048.4 559.5,1053.4L574.9,1064.8L394.6,1065Z" style="fill:rgb(57,79,73);fill-rule:nonzero;"/>
                </g>
                <path d="M198.6,1064.6C199.8,1061.3 200.9,1058 202,1054.7C174.7,1060.2 137.4,1065.3 138.5,1052C180.7,1040.5 204.9,1019.4 217.7,1004.1C219.1,999.2 220.4,994.4 221.8,989.5L164.9,1017C180.2,1007.1 194.1,983.7 206.5,954.3L169.2,969.3L213.7,936.3C215.6,931.3 217.4,926.2 219.2,920.9C197.7,925.2 168.3,929.2 169.2,918.8C202.4,909.8 221.5,893.2 231.5,881.1C232.6,877.3 233.7,873.4 234.7,869.6L189.9,891.2C201.9,883.4 212.9,865 222.6,841.9L193.2,853.6L228.2,827.6C229.7,823.6 231.1,819.6 232.5,815.5C215.6,818.9 192.5,822.1 193.2,813.8C219.4,806.7 234.4,793.6 242.3,784.1C243.2,781.1 244,778.1 244.8,775.1L209.5,792.1C219,786 227.6,771.5 235.3,753.3L212.2,762.6L239.8,742.1C240.9,739 242.1,735.8 243.2,732.6C229.9,735.3 211.7,737.8 212.2,731.3C232.8,725.7 244.6,715.4 250.8,707.9C251.5,705.5 252.1,703.1 252.8,700.8L225,714.2C232.4,709.4 239.3,698 245.3,683.7L227.1,691L248.8,674.9C249.7,672.4 250.6,669.9 251.5,667.4C241,669.5 226.7,671.5 227.1,666.4C243.3,662 252.6,653.9 257.5,648C258,646.1 258.5,644.3 259.1,642.4L237.2,652.9C243.1,649.1 248.4,640.1 253.2,628.8L238.9,634.5L256,621.8C256.7,619.9 257.4,617.9 258.1,615.9C249.9,617.6 238.6,619.1 238.9,615.1C251.7,611.6 259,605.3 262.8,600.6C263.2,599.1 263.6,597.7 264,596.2L246.8,604.5C265,592.7 277.2,517.4 277.2,517.4C286.9,555 315.8,597.4 315.8,597.4C315.8,597.4 320.1,598.4 295.7,593.1L296.2,594.1C307.3,600.6 325.8,612.9 325.8,612.9C325.8,612.9 320.2,613.4 305,611.1C306.9,614.6 308.8,617.8 310.5,620.9C315.3,624.2 320.4,627.2 325.7,629.6L314.2,627.1C320.4,637.4 324.8,643.8 324.8,643.8C324.8,643.8 330.3,645 299.2,638.3L299.3,638.5L299.8,639.6C313.9,647.9 337.5,663.4 337.5,663.4C337.5,663.4 330.4,664 311.1,661.1C313.5,665.5 315.9,669.6 318.1,673.5C324.2,677.7 330.7,681.4 337.5,684.6L322.9,681.5C330.8,694.6 336.3,702.7 336.3,702.7C336.3,702.7 343.3,704.2 303.8,695.7L304.6,697.3C322.5,707.8 352.5,727.5 352.5,727.5C352.5,727.5 343.5,728.3 319,724.6C322.1,730.2 325.1,735.5 327.9,740.4C335.7,745.8 343.9,750.5 352.5,754.5L333.9,750.5C343.9,767.2 350.9,777.5 350.9,777.5C350.9,777.5 359.7,779.5 309.6,768.6C309.9,769.3 310.3,770 310.6,770.7C333.4,784.1 371.4,809.2 371.4,809.2C371.4,809.2 360,810.2 328.8,805.5C332.7,812.6 336.5,819.3 340.1,825.5C350,832.4 360.4,838.4 371.3,843.4L347.7,838.4C360.4,859.6 369.3,872.7 369.3,872.7C369.3,872.7 380.5,875.2 316.8,861.4L318.1,864.1C347.1,881.1 395.3,913 395.3,913C395.3,913 380.8,914.3 341.2,908.3C346.2,917.3 351,925.8 355.6,933.7C377.8,948.9 395.3,956.5 395.3,956.5L365.3,950.1C381.5,977 392.8,993.7 392.8,993.7C392.8,993.7 407.1,996.9 326.1,979.3C326.7,980.4 327.2,981.5 327.8,982.7C364.6,1004.3 425.9,1044.8 425.9,1044.8C425.9,1044.8 407.4,1046.4 357.2,1038.8C362.2,1047.9 367.1,1056.6 371.9,1064.8L198.6,1064.6Z" style="fill:rgb(57,79,73);fill-rule:nonzero;"/>
                <g transform="matrix(1,0,0,1,1616.01,-336.609)">
                    <path d="M198.6,1064.6C199.8,1061.3 200.9,1058 202,1054.7C174.7,1060.2 137.4,1065.3 138.5,1052C180.7,1040.5 204.9,1019.4 217.7,1004.1C219.1,999.2 220.4,994.4 221.8,989.5L164.9,1017C180.2,1007.1 194.1,983.7 206.5,954.3L169.2,969.3L213.7,936.3C215.6,931.3 217.4,926.2 219.2,920.9C197.7,925.2 168.3,929.2 169.2,918.8C202.4,909.8 221.5,893.2 231.5,881.1C232.6,877.3 233.7,873.4 234.7,869.6L189.9,891.2C201.9,883.4 212.9,865 222.6,841.9L193.2,853.6L228.2,827.6C229.7,823.6 231.1,819.6 232.5,815.5C215.6,818.9 192.5,822.1 193.2,813.8C219.4,806.7 234.4,793.6 242.3,784.1C243.2,781.1 244,778.1 244.8,775.1L209.5,792.1C219,786 227.6,771.5 235.3,753.3L212.2,762.6L239.8,742.1C240.9,739 242.1,735.8 243.2,732.6C229.9,735.3 211.7,737.8 212.2,731.3C232.8,725.7 244.6,715.4 250.8,707.9C251.5,705.5 252.1,703.1 252.8,700.8L225,714.2C232.4,709.4 239.3,698 245.3,683.7L227.1,691L248.8,674.9C249.7,672.4 250.6,669.9 251.5,667.4C241,669.5 226.7,671.5 227.1,666.4C243.3,662 252.6,653.9 257.5,648C258,646.1 258.5,644.3 259.1,642.4L237.2,652.9C243.1,649.1 248.4,640.1 253.2,628.8L238.9,634.5L256,621.8C256.7,619.9 257.4,617.9 258.1,615.9C249.9,617.6 238.6,619.1 238.9,615.1C251.7,611.6 259,605.3 262.8,600.6C263.2,599.1 263.6,597.7 264,596.2L246.8,604.5C265,592.7 277.2,517.4 277.2,517.4C286.9,555 315.8,597.4 315.8,597.4C315.8,597.4 320.1,598.4 295.7,593.1L296.2,594.1C307.3,600.6 325.8,612.9 325.8,612.9C325.8,612.9 320.2,613.4 305,611.1C306.9,614.6 308.8,617.8 310.5,620.9C315.3,624.2 320.4,627.2 325.7,629.6L314.2,627.1C320.4,637.4 324.8,643.8 324.8,643.8C324.8,643.8 330.3,645 299.2,638.3L299.3,638.5L299.8,639.6C313.9,647.9 337.5,663.4 337.5,663.4C337.5,663.4 330.4,664 311.1,661.1C313.5,665.5 315.9,669.6 318.1,673.5C324.2,677.7 330.7,681.4 337.5,684.6L322.9,681.5C330.8,694.6 336.3,702.7 336.3,702.7C336.3,702.7 343.3,704.2 303.8,695.7L304.6,697.3C322.5,707.8 352.5,727.5 352.5,727.5C352.5,727.5 343.5,728.3 319,724.6C322.1,730.2 325.1,735.5 327.9,740.4C335.7,745.8 343.9,750.5 352.5,754.5L333.9,750.5C343.9,767.2 350.9,777.5 350.9,777.5C350.9,777.5 359.7,779.5 309.6,768.6C309.9,769.3 310.3,770 310.6,770.7C333.4,784.1 371.4,809.2 371.4,809.2C371.4,809.2 360,810.2 328.8,805.5C332.7,812.6 336.5,819.3 340.1,825.5C350,832.4 360.4,838.4 371.3,843.4L347.7,838.4C360.4,859.6 369.3,872.7 369.3,872.7C369.3,872.7 380.5,875.2 316.8,861.4L318.1,864.1C347.1,881.1 395.3,913 395.3,913C395.3,913 380.8,914.3 341.2,908.3C346.2,917.3 351,925.8 355.6,933.7C377.8,948.9 395.3,956.5 395.3,956.5L365.3,950.1C381.5,977 392.8,993.7 392.8,993.7C392.8,993.7 407.1,996.9 326.1,979.3C326.7,980.4 327.2,981.5 327.8,982.7C364.6,1004.3 425.9,1044.8 425.9,1044.8C425.9,1044.8 407.4,1046.4 357.2,1038.8C362.2,1047.9 367.1,1056.6 371.9,1064.8L198.6,1064.6Z" style="fill:rgb(57,79,73);fill-rule:nonzero;"/>
                </g>
                <path d="M790.4,323.5C788.4,323.4 786.3,323.8 784.5,324.7C783.8,325 783.1,325.5 782.5,325.9L772.3,328.1C770,327.9 767.7,328.2 765.4,328.9C760.8,330.4 763,330.3 763,330.3C768.1,328.5 773.4,330.1 778,332.1C779.2,332.6 779.8,333.5 780.5,331.7C782.6,326.3 792.4,323.8 792.4,323.8C791.8,323.7 791.1,323.6 790.4,323.5ZM894.5,325.6L894.2,325.6C891,326.9 889.6,330.4 888.8,333.7C888.7,334.3 888.5,335 888.5,335.6C888.5,335.8 888.5,336 888.4,336.2C885.1,334.3 881.4,333.2 877.6,333C873.2,333 875.1,333.6 875.1,333.6C879.7,333.5 883.9,336.3 887.8,338.9C890.8,340.9 890.8,338.4 890.8,338.4C890.5,332.2 894.5,325.6 894.5,325.6ZM839.7,326.4L839.4,326.4C836.2,327.7 834.8,331.2 834,334.5C833.9,335.1 833.7,335.8 833.7,336.4C833.7,336.6 833.6,336.8 833.6,337C830.3,335.1 826.6,334 822.8,333.8C818.4,333.8 820.3,334.4 820.3,334.4C824.9,334.3 829.1,337.1 833,339.8C835.9,341.8 836,339.3 836,339.3C835.7,333 839.7,326.5 839.7,326.4ZM732,338.8C730,338.7 727.9,339.1 726,340C723.4,341.2 720.2,344.9 720.2,344.9C716,343.2 711.3,343 706.9,344.3C702.3,345.8 704.5,345.7 704.5,345.7C708.166,344.406 711.935,344.869 715.473,345.974C716.857,346.407 718.206,346.937 719.5,347.5C720.7,348 721.3,348.9 722,347.1C722.713,345.267 724.313,343.768 726.116,342.587C729.624,340.291 733.9,339.2 733.9,339.2C733.4,338.9 732.7,338.8 732,338.8ZM809.5,348.5C809.3,348 809.1,347.4 808.9,346.9C808.1,344.8 806.9,341.5 804,341.4C802.7,341.5 801.6,342.1 800.8,343.1C800.7,343.2 800.6,343.4 800.5,343.5C800.2,344 799.9,344.5 799.6,345L799.4,345.5C798,344.8 796.4,344.4 794.8,344.4C789.2,344.9 792.1,352.6 795,357.4L795.3,357.2C794.3,354.7 793.7,351.9 793.5,349.2C793.5,346.3 795,346.4 796.4,346.9C800.9,348.3 801.4,347.5 801.4,347.5C801.875,346.04 802.341,345.007 802.794,344.312C804.917,341.058 806.764,345.228 808,347.7C808.2,348.2 808.5,348.6 808.7,349.1C809.4,350.5 809.9,351.9 810.5,353.3L810.8,353.1C810.4,351.6 810,350 809.5,348.5ZM781.4,354.3L781.1,354.3C777.9,355.6 776.5,359.1 775.7,362.4C775.6,363 775.4,363.7 775.4,364.3C775.4,364.5 775.4,364.7 775.3,364.9C772,363 768.3,361.9 764.5,361.7C760.1,361.7 762,362.3 762,362.3C766.6,362.2 770.8,365 774.7,367.6C777.7,369.6 777.7,367.1 777.7,367.1C777.3,360.8 781.4,354.3 781.4,354.3ZM874.7,359.7C874.5,359.2 874.3,358.6 874.1,358.1C873.8,357.1 873.3,356.2 872.9,355.3C872.2,353.8 870.9,352.8 869.2,352.6C867.9,352.7 866.8,353.3 866,354.3L865.7,354.7C865.4,355.2 865.1,355.6 864.8,356.2C864.7,356.4 864.6,356.5 864.6,356.7C863.2,356 861.6,355.6 860,355.7C854.4,356.2 857.3,363.9 860.2,368.7L860.5,368.5C859.5,366 858.9,363.2 858.7,360.5C858.7,357.6 860.2,357.8 861.6,358.2C866,359.6 866.6,358.8 866.6,358.8C868.7,352.4 870.6,354.2 872,356.7C872.4,357.5 872.8,358.3 873.2,358.9C873.4,359.4 873.7,359.8 873.9,360.3C874.6,361.7 875.1,363.1 875.7,364.5L876,364.3C875.6,362.8 875.2,361.2 874.7,359.7ZM736.8,374.9C736.6,374.4 736.4,373.8 736.2,373.3C735.4,371.2 734.2,367.9 731.3,367.8C729.9,368 728.6,368.8 727.8,369.9C727.5,370.4 727.2,370.9 726.9,371.4L726.7,371.9C725.3,371.2 723.7,370.8 722.1,370.8C716.5,371.3 719.4,379 722.3,383.8L722.6,383.6C721.6,381.1 721,378.3 720.8,375.6C720.8,372.7 722.3,372.8 723.7,373.3C728.1,374.8 728.7,373.9 728.7,373.9C731.4,365.6 733.8,371.1 735.3,374.1C735.5,374.6 735.8,375 736,375.5C736.7,376.9 737.2,378.3 737.8,379.7L738.1,379.5C737.6,378.1 737.2,376.5 736.8,374.9ZM839.5,379.4C837.5,379.3 835.4,379.7 833.6,380.6C831,381.8 827.8,385.5 827.8,385.5C823.6,383.8 818.9,383.6 814.5,384.9C809.9,386.4 812.1,386.3 812.1,386.3C817.2,384.5 822.5,386.1 827.1,388.1C828.3,388.6 828.9,389.5 829.6,387.7C831.7,382.3 841.5,379.8 841.5,379.8C840.8,379.5 840.1,379.4 839.5,379.4ZM778.7,392C776.7,391.9 774.6,392.3 772.7,393.2C770.1,394.4 766.9,398.1 766.9,398.1C762.7,396.4 758,396.2 753.7,397.5C749.1,399 751.3,398.9 751.3,398.9C756.4,397.1 761.7,398.7 766.3,400.7C767.5,401.2 768.1,402.1 768.8,400.3C770.9,394.9 780.7,392.4 780.7,392.4C780,392.1 779.3,392 778.7,392ZM720.1,388.3L719.8,388.3C716.6,389.6 715.2,393.1 714.4,396.4C714.3,397 714.2,397.7 714.1,398.3C714.1,398.5 714.1,398.7 714,398.9C710.7,397 707,395.9 703.2,395.7C698.8,395.7 700.7,396.3 700.7,396.3C705.3,396.2 709.5,399 713.4,401.6C716.4,403.6 716.4,401.1 716.4,401.1C716,394.9 720.1,388.3 720.1,388.3ZM866.7,395.4L866.4,395.4C863.2,396.7 861.8,400.2 861,403.5C860.9,404.1 860.8,404.6 860.7,405.2L860.7,405.4C860.7,405.6 860.7,405.8 860.6,406L859.9,405.6C856.8,403.9 853.3,402.9 849.8,402.8C845.4,402.8 847.3,403.4 847.3,403.4C850.9,403.3 854.3,405 857.5,407C858.4,407.5 859.2,408.1 860.1,408.7C863.1,410.7 863.1,408.2 863.1,408.2C863,406.7 863.1,405.1 863.5,403.6C864.2,400.8 865.2,398 866.7,395.4ZM801.4,415.5C801.2,415 801,414.4 800.8,413.9C800,411.8 798.8,408.5 795.9,408.4C794.6,408.5 793.5,409.1 792.7,410.1C792.6,410.2 792.5,410.4 792.4,410.5C792.1,411 791.8,411.5 791.5,412C791.4,412.2 791.3,412.3 791.3,412.5C789.9,411.8 788.3,411.4 786.7,411.4C781.1,411.9 784,419.6 786.9,424.4L787.2,424.2C786.2,421.7 785.6,418.9 785.4,416.2C785.4,413.3 786.9,413.4 788.3,413.9C792.7,415.3 793.3,414.5 793.3,414.5C796,406.2 798.4,411.7 799.9,414.7C800.1,415.2 800.4,415.6 800.6,416.1C801.3,417.5 801.8,418.9 802.4,420.3L802.7,420.1C802.2,418.7 801.9,417.1 801.4,415.5ZM844.7,421.9L844.4,421.9C841.2,423.2 839.8,426.7 839,430C838.8,430.6 838.7,431.3 838.7,431.9C838.7,432.1 838.7,432.3 838.6,432.5C835.3,430.6 831.6,429.5 827.8,429.3C823.4,429.3 825.3,429.9 825.3,429.9C829.9,429.8 834.1,432.6 838,435.3C841,437.3 841,434.8 841,434.8C840.6,428.4 844.7,421.9 844.7,421.9Z" style="fill:rgb(57,79,73);fill-rule:nonzero;"/>
                <g transform="matrix(1.18175,0,0,1,-299.108,-4.86458)">
                    <rect x="1587" y="666.6" width="333" height="400" style="fill:rgb(57,79,73);"/>
                </g>
                <path d="M1763.8,234.4L1390.1,450.1C1390.1,450.1 1410.7,434.9 1438.6,408.7C1466.5,382.5 1443,375.6 1483.1,373C1508.4,354.7 1492.7,332 1537.2,322.4C1581.7,312.8 1558,327.2 1590.8,310.8C1623.6,294.4 1591.4,274.6 1631.4,268C1671.4,261.4 1670.8,270.9 1691.6,262.7C1712.4,254.5 1712.3,251.6 1728,241.7C1743.7,231.8 1763.8,234.4 1763.8,234.4Z" style="fill:rgb(255,211,87);fill-rule:nonzero;"/>
            </g>
        </g>
    </g>
</svg>
