<?xml version="1.0" encoding="utf-8"?>
<!-- Generator: Adobe Illustrator 25.4.1, SVG Export Plug-In . SVG Version: 6.00 Build 0)  -->
<svg version="1.1" id="Layer_1" xmlns:v="https://vecta.io/nano"
	 xmlns="http://www.w3.org/2000/svg" xmlns:xlink="http://www.w3.org/1999/xlink" x="0px" y="0px" viewBox="0 0 2611 1400.1"
	 style="enable-background:new 0 0 2611 1400.1;" xml:space="preserve">
<style type="text/css">
	.st0{fill:url(#SVGID_1_);}
	.st1{fill:url(#SVGID_00000049199624332560437320000009876198048689157303_);}
	.st2{fill:url(#SVGID_00000091013835930502668650000007652454401640384908_);}
	.st3{fill:url(#SVGID_00000113341326060575845920000007531071729151680689_);}
	.st4{fill:url(#SVGID_00000003809592162879601830000005725392108538664581_);}
	.st5{fill:url(#SVGID_00000155831917142124115580000017977325586431897520_);}
	.st6{fill:url(#SVGID_00000062151967364507652910000006566303130926151603_);}
	.st7{fill:url(#SVGID_00000170270024238063649880000007751366781720196491_);}
	.st8{fill:url(#SVGID_00000053531068858476580360000005455388373130247856_);}
	.st9{fill:#151F3D;}
	.st10{fill:url(#SVGID_00000090260960111507110970000005034127370611936936_);}
	.st11{fill:#0C1227;}
	.st12{fill:url(#SVGID_00000052790290017797975180000018103720247190902970_);}
	.st13{fill:url(#SVGID_00000039839713317713985110000012724240637416914075_);}
	.st14{fill:#061B3B;}
	.st15{fill:#FF3B11;}
	.st16{fill:url(#SVGID_00000018219178340591333720000011003274551708042665_);}
	.st17{fill:url(#SVGID_00000027592221288913745940000015551347342054031294_);}
	.st18{fill:url(#SVGID_00000075851477043644853350000007445350632885677740_);}
	.st19{fill:url(#SVGID_00000039101026122195398010000001202117720195731632_);}
	.st20{fill:url(#SVGID_00000050652526517736366440000002933848651638132101_);}
	.st21{fill:url(#SVGID_00000111912405324510940230000013726478716632235711_);}
	.st22{fill:url(#SVGID_00000074440466365179060660000011969025429069668505_);}
	.st23{clip-path:url(#SVGID_00000160176152099468724530000013410309648585251754_);}
	.st24{fill:#381719;}
	.st25{fill:url(#SVGID_00000044878267480594434710000012881357552199903662_);}
	.st26{clip-path:url(#SVGID_00000085215957822501088730000002956909029329099175_);}
	.st27{fill:#F4EC1F;}
	.st28{fill:url(#SVGID_00000048474981938738653190000006803959974394152872_);}
	.st29{fill:url(#SVGID_00000164473499206752310040000004305018775387880349_);}
	.st30{clip-path:url(#SVGID_00000165936242339531890150000010959619771259356828_);}
	.st31{fill:url(#SVGID_00000035488856194482857100000009248200281448258209_);}
	.st32{clip-path:url(#SVGID_00000118379478944697201960000006766476067046160788_);}
	.st33{fill:#F3EC1F;}
	.st34{fill:#371619;}
	.st35{fill:#C4AE27;}
	.st36{fill:#673034;}
	.st37{fill:url(#SVGID_00000092421062617101716420000011029699861078529197_);}
	.st38{clip-path:url(#SVGID_00000090294160989908313680000009217240633128640161_);}
	.st39{fill:url(#SVGID_00000005238813430093052720000005673319382467197058_);}
	.st40{fill:url(#Y_00000031891758769701668180000014034170501638794919_);}
	.st41{fill:url(#SVGID_00000108269572504465114620000001039439000590901163_);}
	.st42{fill:url(#SVGID_00000150810577564673682910000007069858377648966551_);}
	.st43{fill:url(#SVGID_00000162343120281107941060000008415308114338891660_);}
	.st44{fill:url(#Y_00000127727974806405029530000008592203352992021433_);}
	.st45{fill:url(#Y_00000002378340642304170580000003629658956390457238_);}
	.st46{fill:url(#Y_00000165937324977328462030000011330417684554876323_);}
	.st47{fill:url(#Y_00000103250494551366109510000011132973934839473826_);}
	.st48{fill:url(#SVGID_00000006667294529898974710000004249637068233252512_);}
	.st49{fill:url(#SVGID_00000003105605503330711910000006362175982465375624_);}
	.st50{fill:url(#SVGID_00000064346194875644294960000009842806185649194660_);}
	.st51{fill:url(#SVGID_00000163758062531721412870000012053592424531102866_);}
	.st52{fill:url(#SVGID_00000085221875213578629850000002928560079311060101_);}
	.st53{fill:url(#SVGID_00000088827690831417026550000015045686612768753583_);}
	.st54{fill:url(#SVGID_00000053536360531838545910000009022310706826478730_);}
	.st55{fill:url(#SVGID_00000066483899252073145450000011848159099153277327_);}
	.st56{fill:url(#SVGID_00000157296211145319670710000011460273020808751752_);}
	.st57{fill:url(#SVGID_00000124129296853844505920000003120826059660570262_);}
	.st58{fill:url(#SVGID_00000026129522557230292630000008558471428892046481_);}
	.st59{fill:url(#SVGID_00000018227088023060632060000012652310053256780941_);}
	.st60{fill:url(#SVGID_00000095301374860906788690000006205826821986424500_);}
	.st61{fill:url(#SVGID_00000137831698737255809210000002308132114697126308_);}
	.st62{fill:url(#SVGID_00000177468045632436333370000013687363946478479003_);}
	.st63{fill:#FDDE0A;}
	.st64{fill:url(#SVGID_00000002348775842053492010000002416452981845600395_);}
	.st65{fill:url(#SVGID_00000026850421702337997240000011375554788007461779_);}
	.st66{fill:url(#SVGID_00000171707454675274537530000017945923019881647507_);}
	.st67{fill:url(#SVGID_00000001621996244625592750000018198155139182487710_);}
	.st68{fill:url(#SVGID_00000173875884124635585740000000349915303141048764_);}
	.st69{fill:#041C30;}
	.st70{fill:url(#SVGID_00000048472330172476359450000015216824806869117851_);}
	.st71{fill:url(#SVGID_00000062192851938010355540000006288590196290382485_);}
	.st72{fill:url(#SVGID_00000135648464832216502260000018170383590599508663_);}
	.st73{fill:#030E24;}
	.st74{fill:#010410;}
	.st75{fill:url(#SVGID_00000103975641857604832420000005794308097899144638_);}
	.st76{fill:#F8F8F8;}
</style>
<g transform="translate(539 556.709)">
	<g transform="matrix(.590258 0 0 .590258 -505.741 -400.119)">
		
			<linearGradient id="SVGID_1_" gradientUnits="userSpaceOnUse" x1="3982.7539" y1="-1893.9799" x2="3983.929" y2="-1893.9799" gradientTransform="matrix(5.902580e-15 99.55 -99.55 5.902580e-15 -187157.9844 -396117.4062)">
			<stop  offset="0" style="stop-color:#323C63"/>
			<stop  offset="1" style="stop-color:#CB6B62"/>
		</linearGradient>
		<path class="st0" d="M535.1,469l592.3-173c92.3-27,190.2-28.8,283.5-5.4l829.3,208.5c0,0-659.3,376.8-706.2,378.3
			c-46.8,1.5-282.8,19.9-473.5,16.6c-190.8-3.3-341.3-11.4-363.1-16.6"/>
	</g>
	<g transform="matrix(.590258 0 0 .590258 272.2 -362.133)">
		
			<linearGradient id="SVGID_00000007421955038626780110000005622066007869194928_" gradientUnits="userSpaceOnUse" x1="426.2234" y1="-1840.463" x2="427.3984" y2="-1840.463" gradientTransform="matrix(4.131806e-15 70.8509 -70.8509 4.131806e-15 -128780.5234 -29903.3633)">
			<stop  offset="0" style="stop-color:#323C63"/>
			<stop  offset="1" style="stop-color:#CB6B62"/>
		</linearGradient>
		<path style="fill:url(#SVGID_00000007421955038626780110000005622066007869194928_);" d="M765.3,480.2l592.3-173
			c92.3-27,190.2-28.8,283.5-5.4l829.3,208.5c0,0-659.3,376.8-706.1,378.3s-282.8,19.9-473.5,16.6c-190.8-3.3-341.3-11.4-363.1-16.6
			"/>
	</g>
	<g transform="translate(-539 -556.709)">
		
			<linearGradient id="SVGID_00000077290747634165292870000011678279045378526605_" gradientUnits="userSpaceOnUse" x1="1914.035" y1="-378.7441" x2="1915.2091" y2="-378.7441" gradientTransform="matrix(1.700000e-14 276.937 -276.937 1.700000e-14 -103463.0703 -529673.875)">
			<stop  offset="0" style="stop-color:#323C63"/>
			<stop  offset="1" style="stop-color:#CB6B62"/>
		</linearGradient>
		<path style="fill:url(#SVGID_00000077290747634165292870000011678279045378526605_);" d="M572.7,565l650-189.9
			c54.5-15.9,112.3-17,167.3-3.2l887.7,223.2c0,0-659.2,376.9-706,378.4s-282.8,19.9-473.5,16.6c-190.8-3.3-341.3-11.4-363.1-16.6"
			/>
		
			<linearGradient id="SVGID_00000082353392400443086960000008774087437203062187_" gradientUnits="userSpaceOnUse" x1="1918.2145" y1="-378.3241" x2="1919.3894" y2="-378.3241" gradientTransform="matrix(-149.916 237.029 -237.029 -149.916 198554.5312 -511076.5625)">
			<stop  offset="0" style="stop-color:#000D29"/>
			<stop  offset="1" style="stop-color:#92555B"/>
		</linearGradient>
		<path style="fill:url(#SVGID_00000082353392400443086960000008774087437203062187_);" d="M921.8,986l12.6-6.4
			c0,0,23.8-42.3,27.8-51.6s-17.8-3.3-17.8-3.3s23.7-50,23.3-56.1c-0.4-6.2-19.3-3.5-19.3-3.5s30.8-34.2,28.3-46.1
			c-2.4-11.9-21.2,6.8-21.2,6.8s26.8-33.4,27.8-43.1c1-9.8-20.7,4.6-20.7,4.6s24-34.7,15.3-46.2c-7.9-10.6-13.8-4-14.7-2.9
			c-0.1,0.1-0.1,0.2-0.1,0.2s0-0.1,0.1-0.2c1.1-1.5,9.5-13.4,4.5-25c-5.4-12.5-10.8-11.9-10.8-11.9s32-49.3,21.7-47.3
			c-10.3,1.9-25.4,21.4-25.4,21.4s15.9-40.7,15.3-83.7c-13.2,22.1-29,87.3-29,87.3s-2.1-1.1-13-8.5s1.2,35.4,1.2,35.4
			s-12.4-16-23.4-14.2c-2,0.3-3.2,2.1-3.8,4.9c0.9-15.7-9.8-17.6-9.8-17.6s29.5-39.8,19.8-45.4s-26.9,5-26.9,5s26.4-35.7,13.6-32.7
			s-15.2,3.3-15.2,3.3s8.4-66.6,3.8-91.9c-15.7,40-15.3,83.7-15.3,83.7s-7.2-23.5-16.1-29c-9-5.5,3.5,51.9,3.5,51.9
			s-4.9-2.4-14.4,7.3c-8.8,9.1-5.2,23.2-4.7,25c0,0.1,0.1,0.2,0.1,0.2s0-0.1-0.1-0.2c-0.4-1.4-3.6-9.7-14.8-2.5
			c-8.3,5.3-6.2,26-4,38.6c-2.4-0.9-4.5-0.2-5.9,0.7l-0.6-0.6c2.6-4.4,6.7-13.5,2.8-22.5c-5.4-12.5-10.8-11.9-10.8-11.9
			s32-49.3,21.7-47.3c-10.3,1.9-25.4,21.4-25.4,21.4s15.9-40.7,15.3-83.7c-13.2,22.1-29,87.3-29,87.3s-1.9-1-11.3-7.4
			c3.4-13.2,7.9-35.3,2.5-40.2c8.9-31.8,1.5-33.2,1.5-33.2s16.1-39,12.5-43.2c-3.5-4.2-11.8,7.1-11.8,7.1s14.4-35,8.8-31.1
			s-6.7,4.5-6.7,4.5s9.7-61.5,10.2-84.2c-10.3,37.9-14.2,77.7-14.2,77.7s-0.8-20.8-4.1-24.9c-3.2-4.1-3.4,47-3.4,47s-1.8-1.8-6.7,8
			c-4.6,9.2-4.3,21.8-4.3,23.2v-0.2c-0.1-1-0.4-4.3-2.1-4.1c2.9-6.7,4.1-12.4,0.8-14.2c-9.7-5.6-26.9,5-26.9,5s26.4-35.7,13.6-32.7
			s-15.2,3.3-15.2,3.3s8.4-66.6,3.8-91.9c-15.7,40-15.3,83.7-15.3,83.7s-7.2-23.5-16.1-29c-9-5.5,3.5,51.9,3.5,51.9
			s-4.9-2.4-14.4,7.3c-8.8,9.1-5.2,23.2-4.7,25c0,0.1,0.1,0.2,0.1,0.2s0-0.1-0.1-0.2c-0.4-1.4-3.6-9.7-14.8-2.5
			c-1.5,1-2.7,2.4-3.6,4.3c-7.6-9.6-13.3-3.2-14.1-2.1c-0.1,0.1-0.1,0.2-0.1,0.2s0-0.1,0.1-0.2c1.1-1.5,9.5-13.4,4.5-25
			c-5.4-12.5-10.8-11.9-10.8-11.9s32-49.3,21.7-47.3c-10.3,1.9-25.4,21.4-25.4,21.4s15.9-40.7,15.3-83.7c-13.2,22.1-29,87.3-29,87.3
			s-2.1-1.1-13-8.5c-1.5-1-2.6-1.1-3.3-0.4c-2.8-6.1-8.2-7.1-8.2-7.1s29.5-39.8,19.8-45.4s-26.9,5-26.9,5s26.4-35.7,13.6-32.7
			s-15.2,3.3-15.2,3.3s8.4-66.6,3.8-91.9c-15.7,40-15.3,83.7-15.3,83.7s-7.2-23.5-16.1-29c-3.7-2.3-3.7,6.3-2.5,17.1
			c-7.3-8.3-12.6-2.3-13.4-1.3c-0.1,0.1-0.1,0.2-0.1,0.2s0-0.1,0.1-0.2c1.1-1.5,9.5-13.4,4.5-25c-5.4-12.5-10.8-11.9-10.8-11.9
			s32-49.3,21.7-47.3c-10.3,1.9-25.4,21.4-25.4,21.4s15.9-40.7,15.3-83.7c-13.2,22.1-29,87.3-29,87.3s-1.6-0.9-9-5.8
			c6.9-27.3,0.2-28.5,0.2-28.5s16.1-39,12.5-43.2c-3.5-4.2-11.8,7.1-11.8,7.1s14.4-35,8.8-31.1s-6.7,4.5-6.7,4.5s6.4-40.5,9.1-67.9
			l-2.8-0.5c-7.4,32.4-10.3,61.9-10.3,61.9s-0.8-20.8-4.1-24.9c-3.2-4.1-3.4,47-3.4,47s-1.8-1.8-6.7,8c-4.6,9.2-4.3,21.8-4.3,23.2
			v-0.1c-0.1-1.5-0.7-8.1-5.9-0.8c-1.1,1.6-2,4.2-2.7,7.4c-7.5,0.9-15.3,5.2-17.2,6.3H477h-0.1c2.1-2.9,25.7-35.4,13.5-32.5
			c-7.1,1.7-11,2.5-13.1,2.9c0.3-3,0-5.6-1.1-7.7c2.1-18.5,6.5-63.9,2.9-83.8c-4.1,10.5-7.2,21.3-9.4,31.5
			c-3.1,0.5-7.2,2.5-10.6,4.3c8.4-13.6,25-41.6,17.2-40.1c-1.9,0.4-3.9,1.3-6,2.6c-0.2-1.9-0.8-3.7-1.8-5c-3.3-4.5-6.3-5.9-8.7-5.9
			l1.6-7.1l-2.4-0.4c1.2-4.3,1.5-9.3-0.7-14.4c-5.4-12.5-10.8-11.9-10.8-11.9s32-49.3,21.7-47.3c-10.3,1.9-25.4,21.4-25.4,21.4
			s8.3-21.2,12.7-49.1c-3.6-0.7-7.2-1.3-10.9-1.7C437.1,61.4,430.1,90,430.1,90s-2.1-1.1-13-8.5s1.2,35.4,1.2,35.4
			s-12.4-16-23.4-14.2c-2,0.3-3.2,2.1-3.8,4.9c0.9-15.7-9.8-17.6-9.8-17.6s29.5-39.8,19.8-45.4s-26.9,5-26.9,5s2.5-3.3,5.5-7.9
			c-2.9,0.3-5.8,0.4-8.8,1c-0.7,0.1-1.3,0.2-1.9,0.1l-1.9,7.3c-1.8,6.2-11.4,3.5-9.6-2.7c0.8-2.7,1.5-5.4,2.1-8.2
			c-1.7,1.1-3.4,2.3-5.5,3c-3.4,1.1-6.8,0.5-10.2,0.8c-0.7,0-2.1,0.6-3.3,0.9c0.4,0.4,0.7,0.8,1.1,1.2c1.6,1.5,3.2,2.9,4.8,4.3
			c2.9,2.6,6,5.5,7,9.3c1.6,6.2-8,8.9-9.6,2.7c-1-3.7-7.2-7.1-9.9-9.9c-1.3-1.3-2.5-2.8-3.4-4.4c-4.2,8.6-1.6,18.6-1.2,20
			c0,0.1,0.1,0.2,0.1,0.2s0-0.1-0.1-0.2c-0.4-1.3-3.1-8.5-12.5-3.8c-0.9,1.8-2.5,2.7-4.1,2.9c-6.1,7-4.2,25.4-2.2,37
			c-2.4-0.9-4.5-0.2-5.9,0.7l-0.6-0.6c2.6-4.4,6.7-13.5,2.8-22.5c-5.4-12.5-10.8-11.9-10.8-11.9s4.7-7.2,9.9-16.1
			c0-0.4-0.1-0.8-0.3-1.1c-0.9-1.9-5.6-1.5-7.7-1.2c-3.8,0.5-5.8,3.3-8.3,5.8c-3.2,3.1-6.8,5.3-10.6,7.6c-8,4.8-18.3,9.1-26.5,2.2
			c-2.4-2.1-4.2-4.7-5.4-7.6c-0.6-0.2-1.2-0.5-1.8-1c-2.7-2.3-4.8-5.2-7.4-7.5c-2.3-2.1-5-1.9-8-1.5c0.1,3.2-0.2,6.3-0.7,9.5
			c-0.8,4.8-8.8,4.8-9.6,0c-0.1-0.4-0.1-0.8-0.2-1.2c-5.1,4.3-12.5,1-17.9-2.6c-2.5,0.7-5.1,1.3-7.7,1.6c-4,0.5-7.9,0.4-11.7-0.1
			c-2.2,3.3-4.5,6.5-7.5,9c-6.1,4.9-14.5,6-19.5-0.8l-1.2-1.8c2.6,8.5,7.4,18.1,8.7,21c2.7,5.8-5.9,10.9-8.6,5
			c-1.9-4.2-5.3-11.3-7.9-18.9c-0.7,5.6-9.8,5.4-10-0.8c-0.1-5.7,2.2-10.6,3.5-16c0.2-0.9,0.4-1.7,0.5-2.6c-1.9-0.1-3.8-0.2-5.8-0.4
			c-2.4,2.4-4.6,4.9-6.2,8.1c-2.6,5.2-3.1,12.1-8.7,15.2c-4.7,2.6-11.8,1.9-17,1.5C91,73.4,86.8,63.9,80.7,54.6
			c-3.9-5.9-8.1-11.8-15.1-14.1c-5.7-1.8-12.5-3-18.5-2.9c-9.4,0.3-11.2,12.5-14,19.4c-2.7,6.8-7.3,15.8-15.8,16.3
			c-4.5,0.2-8-1.8-10.8-5v848l399.1,82.2c33.9,6.8,84,22.6,134.7,40.1l286.6,52.5l163.7-32L921.8,986L921.8,986z M386.7,126.6
			c0.3-0.5,0.5-0.9,0.8-1.4l-0.3-0.1c2.1-5.2,3.3-9.6,4-13.4c-0.2,6,0.9,14.1,2.3,21.5C392,130.4,389.8,128.1,386.7,126.6z
			 M466.3,214.3c-0.1-0.2-0.2-0.5-0.3-0.7c-0.3-0.7-0.6-1.4-0.9-2c0.7-1,1.3-2,1.9-3C466.8,210.6,466.5,212.5,466.3,214.3z
			 M484.6,320.3c0,0,0.2-0.2,0.5-0.7l0,0v0.8C484.8,320.4,484.6,320.3,484.6,320.3L484.6,320.3z M492.1,309.5l0.2-0.3l0.1-0.2v1.5
			C492.4,310.5,492.2,310.2,492.1,309.5L492.1,309.5z M560.8,419.8c-1.1,1.2-2.1,2.5-2.9,3.9l-2.8,1.7c0,0,12.7-18.3,16.3-32.7
			c1.8,10.6,3.8,19.7,3.8,19.7S570.3,410.1,560.8,419.8L560.8,419.8z M613.3,502.9c1.4-3.6,2.5-6.8,3.2-9.8
			c1.7,8.8,4.1,17.3,4.1,17.3S617.6,506.6,613.3,502.9z M750.1,579.9c-0.8-12.4-9.8-14-9.8-14s6.2-8.4,12-18
			C750.4,558.6,750.1,573.8,750.1,579.9z M895.7,715.7c2.4-5.8,3.8-10.7,4.5-14.8c-0.2,6,0.9,14.1,2.3,21.5
			C901,719.5,898.8,717.2,895.7,715.7z"/>
		
			<linearGradient id="SVGID_00000041259898853874928860000011387256980871461301_" gradientUnits="userSpaceOnUse" x1="1916.7598" y1="-381.5236" x2="1917.9348" y2="-381.5236" gradientTransform="matrix(-173.416 493.23 -493.23 -173.416 144974.625 -1011146.125)">
			<stop  offset="0" style="stop-color:#000D29"/>
			<stop  offset="1" style="stop-color:#92555B"/>
		</linearGradient>
		<path style="fill:url(#SVGID_00000041259898853874928860000011387256980871461301_);" d="M1259.2,1205.4l11.2-8.6
			c0,0,15.8-45.9,18.1-55.8c2.3-9.8-18.1,0-18.1,0s14.3-53.4,12.8-59.4s-19.6,0-19.6,0s24.1-39.2,19.6-50.5s-19.6,10.5-19.6,10.5
			s20.3-37.6,19.6-47.4c-0.8-9.8-19.6,8.3-19.6,8.3s17.3-38.4,6.8-48.2c-9.7-9-14.3-1.4-15-0.2c-0.1,0.1-0.1,0.2-0.1,0.2
			s0-0.1,0.1-0.2c0.8-1.6,7-14.9-0.1-25.4c-7.5-11.3-12.8-9.8-12.8-9.8s22.6-54.2,12.8-50.4s-21.1,25.6-21.1,25.6s8.3-42.9,0-85.1
			c-9,24.1-12.8,91.1-12.8,91.1s-2.3-0.8-14.3-6c-12.1-5.3,7.5,34.6,7.5,34.6s-15.1-13.6-25.6-9.8c-1.9,0.7-2.7,2.7-2.9,5.5
			c-1.9-15.6-12.8-15.6-12.8-15.6s21.8-44.4,11.3-48.2s-25.6,9.8-25.6,9.8s19.6-39.9,7.5-34.6c-12,5.3-14.3,6-14.3,6
			s-3.8-67-12.8-91.1c-8.3,42.2,0,85.1,0,85.1s-11.3-21.8-21.1-25.6s12.8,50.4,12.8,50.4s-5.3-1.5-12.8,9.8
			c-7,10.6-0.9,23.8-0.1,25.4c0.1,0.1,0.1,0.2,0.1,0.2s0-0.1-0.1-0.2c-0.7-1.3-5.3-8.8-15,0.2c-7.2,6.7-1.4,26.7,3,38.7
			c-2.5-0.4-4.4,0.6-5.7,1.7c-0.2-0.2-0.4-0.3-0.7-0.5c1.8-4.8,4.1-14.5-1.3-22.6c-7.5-11.3-12.8-9.8-12.8-9.8s22.6-54.2,12.8-50.4
			s-21.1,25.6-21.1,25.6s8.3-42.9,0-85.1c-9,24.1-12.8,91.1-12.8,91.1s-2-0.7-12.5-5.2c0.9-13.6,1.4-36.2-4.8-40
			c3-32.9-4.5-32.9-4.5-32.9s8.8-41.3,4.5-44.8c-4.2-3.5-10.3,9.1-10.3,9.1s7.9-37.1,3-32.2s-5.8,5.6-5.8,5.6s-1.5-62.2-5.1-84.6
			c-3.3,39.2,0,79,0,79s-4.5-20.3-8.5-23.8c-3.9-3.5,5.1,46.9,5.1,46.9s-2.1-1.4-5.1,9.1c-2.8,9.9-0.3,22.2,0,23.6v-0.2
			c-0.3-1-1.2-4.1-2.9-3.7c1.7-7.1,1.8-12.9-1.8-14.2c-10.5-3.8-25.6,9.8-25.6,9.8s19.6-39.9,7.5-34.6c-12,5.3-14.3,6-14.3,6
			s-3.8-67-12.8-91.1c-8.3,42.2,0,85.1,0,85.1S959.8,730,950,726.2s12.8,50.4,12.8,50.4s-5.3-1.5-12.8,9.8
			c-7.1,10.6-0.9,23.8-0.1,25.4c0.1,0.1,0.1,0.2,0.1,0.2s0-0.1-0.1-0.2c-0.7-1.3-5.3-8.8-15,0.2c-1.3,1.2-2.2,2.9-2.7,4.8
			c-9.2-8-13.6-0.8-14.3,0.4c-0.1,0.1-0.1,0.2-0.1,0.2s0-0.1,0.1-0.2c0.8-1.6,7-14.9-0.1-25.4c-7.5-11.3-12.8-9.8-12.8-9.8
			s22.6-54.2,12.8-50.4s-21.1,25.6-21.1,25.6s8.3-42.9,0-85.1c-9,24.1-12.8,91.1-12.8,91.1s-2.3-0.8-14.3-6
			c-1.6-0.7-2.7-0.6-3.3,0.2c-3.9-5.5-9.3-5.5-9.3-5.5s21.8-44.4,11.3-48.2s-25.6,9.8-25.6,9.8s19.6-39.9,7.5-34.6
			c-12,5.3-14.3,6-14.3,6s-3.8-67-12.8-91.1c-8.3,42.2,0,85.1,0,85.1s-11.3-21.8-21.1-25.6c-4.1-1.6-2.5,6.9,0.6,17.3
			c-8.6-6.9-12.8,0-13.4,1.2c-0.1,0.1-0.1,0.2-0.1,0.2s0-0.1,0.1-0.2c0.8-1.6,7-14.9-0.1-25.4c-7.5-11.3-12.8-9.8-12.8-9.8
			s22.6-54.2,12.8-50.4S768,611.8,768,611.8s8.3-42.9,0-85.1c-9,24.1-12.8,91.1-12.8,91.1s-1.7-0.6-9.9-4.1
			c1.9-28.1-4.9-28.1-4.9-28.1s8.8-41.3,4.5-44.8c-4.2-3.5-10.3,9.1-10.3,9.1s7.9-37.1,3-32.2c-4.8,4.9-5.8,5.6-5.8,5.6
			s-1-41-3.3-68.4h-2.9c-1.4,33.2,1,62.8,1,62.8s-4.5-20.3-8.5-23.8c-3.9-3.5,5.1,46.9,5.1,46.9s-2.1-1.4-5.1,9.1
			c-2.8,9.9-0.3,22.2,0,23.6v-0.1c-0.3-1.4-2.2-7.9-6,0.3c-0.8,1.8-1.2,4.5-1.3,7.8c-7.3,2.2-14.2,7.9-15.8,9.3h-0.2h-0.1
			c1.6-3.3,18.9-39.4,7.4-34.4l-12.3,5.3c-0.3-3-1-5.5-2.5-7.4c-1.3-18.6-5.2-64-12.3-83c-2.2,11.1-3.2,22.2-3.5,32.7
			c-2.9,1-6.7,3.7-9.7,6.2c5.8-14.9,17.1-45.4,9.6-42.6c-1.8,0.7-3.6,2-5.4,3.6c-0.5-1.9-1.4-3.5-2.7-4.6c-4.1-3.8-7.3-4.7-9.7-4.3
			l0.3-7.3h-2.4c0.4-4.4-0.2-9.5-3.2-14c-7.5-11.3-12.8-9.8-12.8-9.8s22.6-54.2,12.8-50.4s-21.1,25.6-21.1,25.6s8.3-42.9,0-85.1
			c-9,24.1-12.8,91.1-12.8,91.1s-2.3-0.8-14.3-6c-12-5.3,7.5,34.6,7.5,34.6s-15.1-13.6-25.6-9.8c-1.9,0.7-2.7,2.7-2.9,5.5
			c-1.9-15.6-12.8-15.6-12.8-15.6s21.8-44.4,11.3-48.2s-25.6,9.8-25.6,9.8s19.6-39.9,7.5-34.6c-12,5.3-14.3,6-14.3,6
			s-3.8-67-12.8-91.1c-8.3,42.2,0,85.1,0,85.1s-11.3-21.8-21.1-25.6s12.8,50.4,12.8,50.4s-5.3-1.5-12.8,9.8
			c-7.1,10.6-0.9,23.8-0.1,25.4c0.1,0.1,0.1,0.2,0.1,0.2s0-0.1-0.1-0.2c-0.7-1.3-5.3-8.8-15,0.2c-7.2,6.7-1.4,26.7,3,38.7
			c-2.6-0.4-4.4,0.6-5.7,1.7c-0.2-0.2-0.4-0.3-0.7-0.5c1.8-4.8,4.1-14.5-1.3-22.6c-7.5-11.3-12.8-9.8-12.8-9.8s22.6-54.2,12.8-50.4
			S470.4,391,470.4,391s8.3-42.9,0-85.1c-9,24.1-12.8,91.1-12.8,91.1s-2-0.7-12.5-5.2c0.9-13.6,1.4-36.2-4.8-40
			c3-32.9-4.5-32.9-4.5-32.9s8.8-41.3,4.5-44.8c-4.2-3.5-10.3,9.1-10.3,9.1s7.9-37.1,3-32.2c-4.8,4.9-5.8,5.6-5.8,5.6
			s-1.5-62.2-5.1-84.6c-3.3,39.2,0,79,0,79s-4.5-20.3-8.5-23.8c-3.9-3.5,5.1,46.9,5.1,46.9s-2.1-1.4-5.1,9.1
			c-2.8,9.9-0.3,22.2,0,23.6v-0.2c-0.3-1-1.2-4.1-2.9-3.7c1.7-7.1,1.8-12.9-1.8-14.2c-10.5-3.8-25.6,9.8-25.6,9.8
			s19.6-39.9,7.5-34.6s-14.3,6-14.3,6s-3.8-67-12.8-91.1c-8.3,42.2,0,85.1,0,85.1s-11.3-21.8-21.1-25.6s12.8,50.4,12.8,50.4
			s-5.3-1.5-12.8,9.8c-7.1,10.6-0.9,23.8-0.1,25.4c0.1,0.1,0.1,0.2,0.1,0.2s0-0.1-0.1-0.2c-0.7-1.3-5.3-8.8-15,0.2
			c-1.3,1.2-2.2,2.9-2.7,4.8c-9.2-8-13.6-0.8-14.3,0.4c-0.1,0.1-0.1,0.2-0.1,0.2s0-0.1,0.1-0.2c0.8-1.6,7-14.9-0.1-25.4
			c-7.5-11.3-12.8-9.8-12.8-9.8s22.6-54.2,12.8-50.4s-21.1,25.6-21.1,25.6s8.3-42.9,0-85.1c-9,24.1-12.8,91.1-12.8,91.1
			s-2.3-0.8-14.3-6c-1.6-0.7-2.7-0.6-3.3,0.2c-3.9-5.5-9.3-5.5-9.3-5.5s21.8-44.4,11.3-48.2s-25.6,9.8-25.6,9.8s19.6-39.9,7.5-34.6
			c-12,5.3-14.3,6-14.3,6s-3.8-67-12.8-91.1c-8.3,42.2,0,85.1,0,85.1s-11.3-21.8-21.1-25.6c-4.1-1.6-2.5,6.9,0.6,17.3
			c-8.6-6.9-12.8,0-13.4,1.2c-0.1,0.1-0.1,0.2-0.1,0.2s0-0.1,0.1-0.2c0.8-1.6,7-14.9-0.1-25.4c-7.5-11.3-12.8-9.8-12.8-9.8
			s22.6-54.2,12.8-50.4s-21.1,25.6-21.1,25.6s8.3-42.9,0-85.1c-9,24.1-12.8,91.1-12.8,91.1s-1.7-0.6-9.9-4.1
			c1.9-28.1-4.9-28.1-4.9-28.1s8.8-41.3,4.5-44.8c-1.4-1.2-3-0.6-4.5,0.8c-0.4,1.7-0.7,3.5-0.8,5.2c-0.6,6.3-10.1,6.5-10,0
			c0.1-6.8-2.5-13.1-3.8-19.8l-4.7-0.3l2.4,14c0,0-2.1-1.4-5.1,9.1c-2.8,9.9-0.3,22.2,0,23.6v-0.1c-0.3-1.4-2.2-7.9-6,0.3
			c-0.8,1.8-1.2,4.5-1.3,7.8c-7.3,2.2-14.2,7.9-15.8,9.3h-0.2h-0.1c1.6-3.3,18.9-39.4,7.4-34.4l-12.3,5.3c-0.3-3-1-5.5-2.5-7.4
			l-1.3-16.4c-0.9,0.6-1.9,1.1-3,1.3c-4.7,1-8.2-2.4-10.6-5.9c-2.2-3.2-3.3-7.2-5.6-10.2c-0.4-0.5-0.9-1-1.4-1.5
			c-1,0.9-2.1,1.7-3.3,2.5c-5.9,4.1-5.6,9.6-5.5,16.4c0,5-6.8,6.8-9.3,2.5c-2.7-4.7-3.9-9.7-4.4-14.9c-1.2,0.1-2.4,0.2-3.6,0.4
			c-0.7,2.8-0.7,6-1.4,8.8c-1.2,5-8.2,4.5-9.6,0c-0.7-2.4-1.3-5.1-2.3-7.4l-2.1,0.9c-0.7,0.3-1.5,0.5-2.2,0.5
			c-0.6,0.6-1.2,1.2-1.7,1.9c-1.5,1.8-3.5,2-5.2,1.2c-0.3,1.5-0.5,3-0.5,4.7v22.2c1.4,3.1,2.4,5.1,2.4,5.1s-1,0-2.4,0.4v1205.3
			c224.1,20.4,703.3,25.9,746.2,26.7c34.6,0.6,86.6,7.1,139.7,15.2h291.4l155.2-61L1259.2,1205.4L1259.2,1205.4z M65.9,64l-0.1-0.2
			l-0.1-0.1c0.4-1,0.9-2.4,1.4-4c0.1,1,0.3,2,0.4,2.9C66.8,62.9,66.3,63.5,65.9,64z M102.3,141.6c0,0,0.1-0.3,0.4-0.8l0,0l0.1,0.8
			H102.3z M107.8,129.6l0.1-0.3l0.1-0.2l0.3,1.5L107.8,129.6z M195.3,225.7c-1,1.4-1.7,2.9-2.2,4.4c-1.5,1.3-2.4,2.2-2.4,2.2
			s9.1-20.3,10.1-35.1c3.7,10.1,7.3,18.7,7.3,18.7S202.8,214.4,195.3,225.7L195.3,225.7z M261.9,298c0.7-3.8,1.2-7.2,1.4-10.2
			c3.2,8.3,7.1,16.3,7.1,16.3S266.8,300.8,261.9,298L261.9,298z M398.2,337c0,0,4.6-9.4,8.6-19.8c0,10.8,2.5,25.9,3.6,31.9
			C407.4,337,398.2,337,398.2,337z M578,456.5c0.2-0.5,0.4-1,0.5-1.5h-0.3c1.1-5.5,1.5-10.1,1.5-13.9c0.9,6,3.5,13.7,6.2,20.7
			C583.9,459.2,581.4,457.4,578,456.5L578,456.5z M671.7,527.8c-0.4-0.6-0.8-1.2-1.3-1.8c0.5-1.1,0.9-2.2,1.4-3.3l0.3,5.7
			C672,528.2,671.9,528,671.7,527.8L671.7,527.8z M709.2,629.4c0,0,0.1-0.3,0.4-0.8l0,0l0.1,0.8H709.2z M714.6,617.4l0.1-0.3
			l0.1-0.2l0.3,1.5L714.6,617.4L714.6,617.4z M802.1,713.6c-1,1.4-1.7,2.9-2.2,4.4c-1.5,1.3-2.4,2.2-2.4,2.2s9.1-20.3,10.1-35.1
			c3.7,10.1,7.3,18.7,7.3,18.7S809.7,702.3,802.1,713.6L802.1,713.6z M868.7,785.8c0.7-3.8,1.2-7.2,1.4-10.2
			c3.2,8.3,7.1,16.3,7.1,16.3S873.6,788.7,868.7,785.8z M1005,824.9c0,0,4.6-9.4,8.6-19.8c0,10.8,2.5,25.9,3.6,31.9
			C1014.2,824.9,1005,824.9,1005,824.9L1005,824.9z M1184.8,944.3c1.3-6.1,1.8-11.2,1.8-15.4c0.9,6,3.5,13.7,6.2,20.7
			C1190.8,947,1188.2,945.2,1184.8,944.3z"/>
		
			<linearGradient id="SVGID_00000170252300700540447190000000440318400474856629_" gradientUnits="userSpaceOnUse" x1="1916.2454" y1="-379.0954" x2="1917.4204" y2="-379.0954" gradientTransform="matrix(-84.5941 355.134 -355.134 -84.5941 27930.2266 -711875.625)">
			<stop  offset="0" style="stop-color:#152137"/>
			<stop  offset="1" style="stop-color:#B85F60"/>
		</linearGradient>
		<path style="fill:url(#SVGID_00000170252300700540447190000000440318400474856629_);" d="M7.8,531.9
			c254.7-18.4,516.3,65.1,609,163.3c97.5,178.8,247.7,381.7,247.7,381.7l-633.6,118c-40.3-8.9-141.3-44.8-223.1-75.8L7.8,531.9
			L7.8,531.9z"/>
		
			<linearGradient id="SVGID_00000079458551373005596210000015891091533471982220_" gradientUnits="userSpaceOnUse" x1="1912.5072" y1="-382.6458" x2="1913.6823" y2="-382.6458" gradientTransform="matrix(119.748 291.728 -291.728 119.748 -338200.625 -512185.2188)">
			<stop  offset="0" style="stop-color:#000D29"/>
			<stop  offset="1" style="stop-color:#92555B"/>
		</linearGradient>
		<path style="fill:url(#SVGID_00000079458551373005596210000015891091533471982220_);" d="M2492.1,36.6l-0.5-3.1
			c0,0.5,0,0.9-0.1,1.4c0.1,0.5,0.1,0.9,0.2,1.4c0.1,0.1,0.1,0.2,0.2,0.3C2491.9,36.7,2492,36.7,2492.1,36.6L2492.1,36.6z"/>
		
			<linearGradient id="SVGID_00000151504558439867992150000005994427908626642358_" gradientUnits="userSpaceOnUse" x1="1912.5072" y1="-380.7818" x2="1913.6823" y2="-380.7818" gradientTransform="matrix(119.748 291.728 -291.728 119.748 -338200.625 -512185.2188)">
			<stop  offset="0" style="stop-color:#000D29"/>
			<stop  offset="1" style="stop-color:#92555B"/>
		</linearGradient>
		<path style="fill:url(#SVGID_00000151504558439867992150000005994427908626642358_);" d="M2597,39.7l-3.8,5.6
			c-3.1,4-6.5,7.4-11.5,9c-2.8,0.9-5.1-1.1-6.2-3.5c-2-4.9-3.6-10-4.9-15.2c-0.8-3-1.7-6.3-2-9.5c-0.7-0.1-1.4-0.3-2.1-0.4
			c-4.4,1.7-8.6,3.6-12.5,6.4c-6.5,4.6-16,11.4-17.8,19.6c-1.3,5.8-9.5,4-9.8-1.3c-0.5-6.6,1.1-12.5,4-17.4
			c-3.5,0.7-7.8,0.4-11.7-0.1c0.8,5.1,0.5,10.5,0.5,15.2s-7.1,7.2-9.3,2.5c-1.3-2.7-2.4-5.7-3.2-8.8c-1.1,0.9-2.4,1.1-3.6,0.9
			c-0.1,0-0.1,0.1-0.2,0.1V45c-0.1,3.5-3,5-5.6,4.8c0.4,4.1-4.6,7.2-7.7,5c-0.3,0.1-0.7,0.3-1,0.4c0.2,0.7,0.4,1.4,0.5,2.1
			c1.3,6.3-8.3,9-9.6,2.7c-0.6-3-2-5.4-3.7-7.6c-5.8,0.9-11.6,1-16.8-0.6c-0.6-0.2-1.1-0.5-1.6-0.8c-2.6,0.4-5.2-0.4-7.4-3.1
			c-3.5-4.4-4.2-11-4.7-16.4c-0.1-0.7-0.1-1.3-0.2-2c-0.9-0.1-1.7-0.2-2.6-0.1c-2.2,0.2-3.6-0.8-4.3-2.2l-12.8-0.4
			c1.5,2.7,0.7,6.7-2.8,7.4c-1.9,0.3-0.7-0.4-1.2,1.2c-0.4,1.1-0.2,2.6-0.5,3.8c-0.5,2.6-1.5,5-3.4,7c-4.4,4.4-10.5,4.2-14.7-0.3
			c-4.8-5.2-7.7-12.9-12.6-17.5c-9.7,1.3-19.2,3.6-28.4,7.3c-0.3,0.4-0.5,0.9-0.8,1.3c-2.5,4.8-1.4,10.1-2.5,15.2
			c-0.9,4.7-5.4,7.9-9.7,4.5c-4.4-3.5-7.1-10.8-9.4-15.7c-2.2-4.9-4.3-9.9-5.7-15.1c-4.3,10.4-5.4,21.3-6.2,32.6
			c-0.4,6.4-9.8,6.5-10,0c-0.2-6.3-5.2-13.2-8.5-18.3c-2.5-3.7-6.3-10-10.3-13.1c-2.1,0.7-4.1,1.4-6,2.4c-1.3,0.6-2.5,1.4-3.7,2.2
			c-1.3,6.6,2.2,18.7-8.5,19.4c-4.7,0.3-9.1-2-12-5.6s-4.2-8.7-7.8-11.6c-1.6-1.3-2-2.9-1.5-4.4c-2.2-0.1-4.4,0-6.5,0.1h-0.2
			l-5.4,3.5c0.8,1.7,1.5,3.5,2,5.3c1.4,6.3-8.1,8.9-9.6,2.7c-1-4-5.2-9.6-9.7-11.5c0.4,1.1,0.7,1.8,0.7,1.8s-0.6-0.8-1.7-2.1
			c-0.7-0.2-1.4-0.3-2.1-0.3c-6.2,0.1-5.3,10.7-6,14.9c-0.2,0.9-0.5,1.6-0.9,2.1l7.1,11.4c0,0-5.5-0.5-10.8,11.9
			c-3.9,9,0.2,18.1,2.8,22.5l-0.6,0.6c-1.4-0.9-3.4-1.5-5.9-0.7c2.1-12.6,4.2-33.3-4.1-38.6c-11.2-7.1-14.3,1.2-14.8,2.5
			c0,0.1-0.1,0.2-0.1,0.2s0-0.1,0.1-0.2c0.4-1.4,2.8-10.6-0.7-18.9c-1.7,1-4,1.1-5.9-0.6c-5.1-4.4-9.3-10.8-16.5-11.6
			c-0.5-0.1-0.9-0.1-1.4-0.1c4.1,5.3,6,12.4,7.3,19.1c1.1,6.3-8.5,9-9.6,2.7c-1.1-6-2.5-16.2-9.2-18.7c-1.5-0.6-2.5-1.6-3-2.8
			l-4.7,0.3c-3.1,0.1-6.2,0.4-9.2,0.9c4.2,6.6,8.3,12.1,8.3,12.1s-17.3-10.6-26.9-5c-9.7,5.6,19.8,45.4,19.8,45.4s-10.7,2-9.8,17.6
			c-0.6-2.7-1.8-4.5-3.8-4.9c-11-1.8-23.4,14.2-23.4,14.2s12.1-42.8,1.2-35.4s-13,8.5-13,8.5s-3.4-14.2-8.5-31.7
			c-0.3,0-0.6-0.1-0.8-0.2c-5.4-2-7.8-6.5-11.3-10.8c-0.4-0.5-0.7-1-0.9-1.6c-1.2-0.1-2.3-0.2-3.5-0.4c4.5,23.8,11.2,41,11.2,41
			s-15-19.4-25.3-21.4c-10.3-1.9,21.7,47.3,21.7,47.3s-5.5-0.5-10.8,11.9c-2.2,5-1.8,10.1-0.7,14.4l-2.4,0.4c0.5,2.5,1,4.9,1.6,7.1
			c-2.4,0-5.4,1.5-8.7,5.9c-1,1.4-1.6,3.1-1.8,5c-2.1-1.3-4.1-2.2-6-2.6c-7.8-1.5,8.7,26.6,17.2,40.1c-3.4-1.9-7.6-3.9-10.6-4.3
			c-2.2-10.2-5.2-21-9.4-31.5c-3.6,19.9,0.8,65.3,2.9,83.8c-1.1,2.1-1.4,4.7-1.1,7.7c-2-0.4-5.9-1.3-13.1-2.9
			c-12.2-2.9,11.4,29.6,13.5,32.5h-0.1h-0.2c-1.9-1.1-9.6-5.4-17.2-6.3c-0.7-3.2-1.6-5.8-2.7-7.4c-5.2-7.3-5.9-0.7-5.9,0.8v0.1
			c0-1.5,0.3-14.1-4.3-23.2c-4.9-9.8-6.7-8-6.7-8s-0.1-51.2-3.4-47c-3.2,4.1-4.1,24.9-4.1,24.9s-2.9-29.5-10.3-61.9l-2.8,0.5
			c2.7,27.4,9.1,67.9,9.1,67.9s-1-0.5-6.7-4.5c-5.7-3.9,8.8,31.1,8.8,31.1s-8.2-11.3-11.8-7.1c-3.5,4.2,12.5,43.2,12.5,43.2
			s-6.7,1.2,0.2,28.5c-7.5,5-9,5.8-9,5.8s-15.8-65.2-29-87.3c-0.6,43,15.3,83.7,15.3,83.7s-15-19.4-25.3-21.4
			c-10.3-1.9,21.7,47.3,21.7,47.3s-5.5-0.5-10.8,11.9c-5,11.7,3.4,23.6,4.5,25c0.1,0.1,0.1,0.2,0.1,0.2s0-0.1-0.1-0.2
			c-0.8-1.1-6.1-7-13.4,1.3c1.2-10.8,1.2-19.4-2.5-17.1c-9,5.5-16.1,29-16.1,29s0.4-43.7-15.3-83.7c-4.5,25.3,3.8,91.9,3.8,91.9
			s-2.4-0.3-15.2-3.3s13.6,32.7,13.6,32.7s-17.3-10.6-26.9-5c-9.7,5.6,19.8,45.4,19.8,45.4s-5.3,1-8.2,7.1c-0.7-0.6-1.8-0.6-3.3,0.4
			c-10.9,7.4-13,8.5-13,8.5s-15.8-65.2-29-87.3c-0.6,43,15.3,83.7,15.3,83.7s-15-19.4-25.3-21.4c-10.3-1.9,21.7,47.3,21.7,47.3
			s-5.5-0.5-10.8,11.9c-5,11.7,3.4,23.6,4.5,25c0.1,0.1,0.1,0.2,0.1,0.2s0-0.1-0.1-0.2c-0.9-1.1-6.5-7.4-14.1,2.1
			c-0.9-1.8-2-3.3-3.5-4.3c-11.2-7.1-14.3,1.2-14.8,2.5c0,0.1-0.1,0.2-0.1,0.2s0-0.1,0.1-0.2c0.5-1.8,4.2-15.9-4.7-25
			c-9.4-9.8-14.4-7.3-14.4-7.3s12.5-57.4,3.5-51.9s-16.1,29-16.1,29s0.4-43.7-15.3-83.7c-4.6,25.3,3.8,91.9,3.8,91.9
			s-2.4-0.3-15.2-3.3s13.6,32.7,13.6,32.7s-17.2-10.6-26.9-5c-3.2,1.9-2.1,7.5,0.8,14.2c-1.8-0.1-2.1,3.1-2.1,4.1v0.2
			c0-1.5,0.3-14.1-4.3-23.2c-4.9-9.8-6.7-8-6.7-8s-0.1-51.2-3.4-47c-3.2,4.1-4.1,24.9-4.1,24.9s-3.9-39.8-14.2-77.7
			c0.5,22.7,10.2,84.2,10.2,84.2s-1-0.5-6.7-4.5c-5.7-3.9,8.8,31.1,8.8,31.1s-8.2-11.3-11.8-7.1c-3.5,4.2,12.5,43.2,12.5,43.2
			s-7.4,1.4,1.5,33.2c-5.5,4.9-0.9,27,2.4,40.2l-11.3,7.4c0,0-15.8-65.2-29-87.3c-0.6,43,15.3,83.7,15.3,83.7s-15-19.4-25.3-21.4
			c-10.3-1.9,21.7,47.3,21.7,47.3s-5.5-0.5-10.8,11.9c-3.9,9,0.2,18.1,2.8,22.5l-0.6,0.6c-1.4-0.9-3.5-1.5-5.9-0.7
			c2.1-12.6,4.2-33.3-4-38.6c-11.2-7.1-14.3,1.2-14.8,2.5v0.2v-0.2c0.5-1.8,4.2-15.9-4.7-25c-9.4-9.8-14.4-7.3-14.4-7.3
			s12.5-57.4,3.5-51.9s-16.1,29-16.1,29s0.4-43.7-15.3-83.7c-4.5,25.3,3.8,91.9,3.8,91.9s-2.4-0.3-15.2-3.3s13.6,32.7,13.6,32.7
			s-17.3-10.6-26.9-5c-9.7,5.6,19.8,45.4,19.8,45.4s-10.7,2-9.8,17.6c-0.6-2.7-1.8-4.5-3.8-4.9c-11-1.8-23.4,14.2-23.4,14.2
			s12.1-42.8,1.2-35.4s-13,8.5-13,8.5s-15.8-65.2-29-87.3c-0.6,43,15.3,83.7,15.3,83.7s-15-19.4-25.3-21.4
			c-10.3-1.9,21.7,47.3,21.7,47.3s-5.5-0.5-10.8,11.9c-5,11.7,3.4,23.6,4.5,25c0.1,0.1,0.1,0.2,0.1,0.2s0-0.1-0.1-0.2
			c-0.9-1.1-6.8-7.8-14.7,2.9c-8.6,11.5,15.4,46.2,15.4,46.2s-21.8-14.4-20.7-4.6c1,9.8,27.8,43.1,27.8,43.1s-18.7-18.8-21.2-6.8
			c-2.4,11.9,28.3,46.1,28.3,46.1s-18.9-2.7-19.3,3.5s23.3,56.1,23.3,56.1s-21.8-6-17.8,3.3s27.8,51.6,27.8,51.6l12.6,6.4
			l-68.9,73.1l163.7,32l286.6-52.5c50.7-17.6,100.8-33.3,134.7-40.1l479.2-99.8V39.7C2597.2,39.7,2597.1,39.7,2597,39.7L2597,39.7z"
			/>
		
			<linearGradient id="SVGID_00000168111320928167454600000016529523180919399073_" gradientUnits="userSpaceOnUse" x1="1915.7943" y1="-381.67" x2="1916.9692" y2="-381.67" gradientTransform="matrix(-92.3557 411.24 -468.138 -81.1307 320.4609 -818214.0625)">
			<stop  offset="0" style="stop-color:#000D29"/>
			<stop  offset="1" style="stop-color:#92555B"/>
		</linearGradient>
		<path style="fill:url(#SVGID_00000168111320928167454600000016529523180919399073_);" d="M2600.9,41.1c0-8.1-4.5-15-10.9-17.8
			c-8.9,15.2-0.5,46.9-0.5,46.9s-5.3-0.8-15.8,0c-1.4,0.1-2.5,0.8-3.2,2c-3.7-3.9-8-3.9-8-3.9s6.5-13.3,10.7-25.9
			c-2.7,2.1-7.7,0.7-8.2-3.9c-0.2-2.1-0.5-4.2-1-6.3c-0.2-1-1-2.5-1.1-3.5c-3.3,0.5-5.2-2.7-4.8-5.7c-5.6,3-10,6.9-10,6.9s1-2,2.3-5
			c-4.9,0-8.9,0.2-10.8,5.7c-1.8,5.3-2.3,10.8-7.9,13.5c-2.6,1.3-6.7,0.4-7.3-3c-0.9-5.1,1.5-14.6-1.6-19.3h-7.9l-1.2,0.9l-0.6,2.2
			c-1.1,3.7-2.7,6.4-5.8,8.8c-0.5,0.4-1.1,0.6-1.7,0.7c-0.4,0.7-0.8,1.4-1.4,2.2c-1.6,2-5.5,1.9-7.1,0c-1.2-1.4-2.4-2.9-3.5-4.5
			c-1,9.7-1.6,18.3-2.1,24.2c-1.5,1.8-2.3,4.4-2.5,7.4c-1.9-0.8-5.6-2.3-12.3-5.3c-11.5-5,5.8,31.1,7.4,34.4h-0.1h-0.1
			c-1.6-1.4-8.5-7-15.8-9.3c-0.1-3.3-0.5-6-1.3-7.8c-3.8-8.1-5.6-1.8-6-0.3c0.4-2.1,2.7-13.9-0.1-23.5c-3-10.5-5.1-9.1-5.1-9.1
			s0.2-1,0.5-2.8c-0.2,0.3-0.3,0.6-0.5,0.9c-1.7,2.6-5.6,3.4-7.9,1c-2.6-2.8-4.6-6-6.9-9.1c1.4,9,3.5,19,3.5,19s-6.1-12.6-10.3-9.1
			s4.5,44.8,4.5,44.8s-6.8,0-4.9,28.1c-8.2,3.6-9.9,4.1-9.9,4.1s-3.8-67-12.8-91.1c-8.3,42.2,0,85.1,0,85.1s-11.3-21.8-21.1-25.6
			s12.8,50.4,12.8,50.4s-5.3-1.5-12.8,9.8c-7.1,10.6-0.9,23.8-0.1,25.4c0.1,0.1,0.1,0.2,0.1,0.2s0-0.1-0.1-0.2
			c-0.6-1.2-4.8-8-13.4-1.2c3.2-10.4,4.7-18.9,0.6-17.3c-9.8,3.8-21.1,25.6-21.1,25.6s8.3-42.9,0-85.1c-9,24.1-12.8,91.1-12.8,91.1
			s-2.3-0.8-14.3-6c-12.1-5.3,7.5,34.6,7.5,34.6s-15.1-13.6-25.6-9.8s11.3,48.2,11.3,48.2s-5.4,0-9.3,5.5c-0.6-0.8-1.7-0.9-3.3-0.2
			c-12.1,5.3-14.3,6-14.3,6s-3.8-67-12.8-91.1c-8.3,42.2,0,85.1,0,85.1s-11.3-21.8-21.1-25.6s12.8,50.4,12.8,50.4s-5.3-1.5-12.8,9.8
			c-7,10.6-0.9,23.8-0.1,25.4c0.1,0.1,0.1,0.2,0.1,0.2s0-0.1-0.1-0.2c-0.6-1.2-5.1-8.5-14.3-0.4c-0.5-2-1.4-3.6-2.7-4.8
			c-9.7-9-14.3-1.4-15-0.2c-0.1,0.1-0.1,0.2-0.1,0.2s0-0.1,0.1-0.2c0.8-1.6,7-14.9-0.1-25.4c-7.5-11.3-12.8-9.8-12.8-9.8
			s22.6-54.2,12.8-50.4s-21.1,25.6-21.1,25.6s8.3-42.9,0-85.1c-9,24.1-12.8,91.1-12.8,91.1s-2.3-0.8-14.3-6
			c-12.1-5.3,7.5,34.6,7.5,34.6s-15.1-13.6-25.6-9.8c-3.5,1.3-3.4,7-1.8,14.2c-1.7-0.4-2.6,2.7-2.9,3.7v0.2c0.3-1.5,2.8-13.8,0-23.6
			c-3-10.5-5.1-9.1-5.1-9.1s9.1-50.4,5.1-46.9c-3.9,3.5-8.5,23.8-8.5,23.8s3.3-39.9,0-79c-3.6,22.4-5.2,84.6-5.2,84.6
			s-0.9-0.7-5.7-5.6c-4.9-4.9,3,32.2,3,32.2s-6-12.6-10.3-9.1c-4.2,3.5,4.5,44.8,4.5,44.8s-7.6,0-4.5,32.9c-6.3,3.9-5.8,26.4-4.8,40
			l-12.5,5.2c0,0-3.8-67-12.8-91.1c-8.3,42.2,0,85.1,0,85.1s-11.3-21.8-21.1-25.6s12.8,50.4,12.8,50.4s-5.3-1.5-12.8,9.8
			c-5.4,8.1-3,17.8-1.3,22.6c-0.2,0.1-0.4,0.3-0.7,0.5c-1.3-1.1-3.1-2.1-5.7-1.7c4.4-12,10.2-32,3-38.7c-9.7-9-14.3-1.4-15-0.2
			c-0.1,0.1-0.1,0.2-0.1,0.2s0-0.1,0.1-0.2c0.8-1.6,7-14.9-0.1-25.4c-7.5-11.3-12.8-9.8-12.8-9.8s22.6-54.2,12.8-50.4
			s-21.1,25.6-21.1,25.6s8.3-42.9,0-85.1c-9,24.1-12.8,91.1-12.8,91.1s-2.3-0.8-14.3-6c-12.1-5.3,7.5,34.6,7.5,34.6
			s-15.1-13.6-25.6-9.8s11.3,48.2,11.3,48.2s-10.9,0-12.8,15.6c-0.1-2.8-1-4.8-2.9-5.5c-10.5-3.8-25.6,9.8-25.6,9.8
			s19.6-39.9,7.5-34.6c-12,5.3-14.3,6-14.3,6s-3.8-67-12.8-91.1c-8.3,42.2,0,85.1,0,85.1s-11.3-21.8-21.1-25.6S1936,421,1936,421
			s-5.3-1.5-12.8,9.8c-3,4.6-3.6,9.6-3.2,14h-2.4l0.3,7.3c-2.4-0.4-5.6,0.5-9.7,4.3c-1.3,1.2-2.1,2.8-2.7,4.6
			c-1.8-1.6-3.6-2.9-5.4-3.6c-7.4-2.9,3.8,27.7,9.6,42.6c-3-2.5-6.8-5.2-9.7-6.2c-0.3-10.4-1.4-21.6-3.5-32.7
			c-7.1,18.9-10.9,64.4-12.3,83c-1.5,1.8-2.3,4.4-2.5,7.4c-1.9-0.8-5.6-2.3-12.3-5.3c-11.5-5,5.8,31.1,7.4,34.4h-0.1h-0.2
			c-1.6-1.4-8.5-7-15.8-9.3c-0.1-3.3-0.5-6-1.3-7.8c-3.8-8.1-5.6-1.8-6-0.3c0.4-2.1,2.7-13.9-0.1-23.5c-3-10.5-5.1-9.1-5.1-9.1
			s9.1-50.4,5.1-46.9c-3.9,3.5-8.5,23.8-8.5,23.8s2.5-29.6,1-62.8h-2.9c-2.3,27.4-3.3,68.4-3.3,68.4s-0.9-0.7-5.8-5.6
			c-4.8-4.9,3,32.2,3,32.2s-6.1-12.6-10.3-9.1s4.5,44.8,4.5,44.8s-6.8,0-4.9,28.1c-8.2,3.6-9.9,4.1-9.9,4.1s-3.8-67-12.8-91.1
			c-8.3,42.2,0,85.1,0,85.1s-11.3-21.8-21.1-25.6s12.8,50.4,12.8,50.4s-5.3-1.5-12.8,9.8c-7,10.6-0.9,23.8-0.1,25.4
			c0.1,0.1,0.1,0.2,0.1,0.2s0-0.1-0.1-0.2c-0.6-1.2-4.8-8-13.4-1.2c3.2-10.4,4.7-18.9,0.6-17.3c-9.8,3.8-21.1,25.6-21.1,25.6
			s8.3-42.9,0-85.1c-9,24.1-12.8,91.1-12.8,91.1s-2.3-0.8-14.3-6c-12-5.3,7.5,34.6,7.5,34.6s-15.1-13.6-25.6-9.8
			s11.3,48.2,11.3,48.2s-5.4,0-9.3,5.5c-0.6-0.8-1.7-0.9-3.3-0.2c-12.1,5.3-14.3,6-14.3,6s-3.8-67-12.8-91.1
			c-8.3,42.2,0,85.1,0,85.1s-11.3-21.8-21.1-25.6s12.8,50.4,12.8,50.4s-5.3-1.5-12.8,9.8c-7,10.6-0.9,23.8-0.1,25.4
			c0.1,0.1,0.1,0.2,0.1,0.2s0-0.1-0.1-0.2c-0.6-1.2-5.1-8.5-14.3-0.4c-0.5-2-1.4-3.6-2.7-4.8c-9.7-9-14.3-1.4-15-0.2
			c0,0.1-0.1,0.2-0.1,0.2s0-0.1,0.1-0.2c0.8-1.6,7-14.9-0.1-25.4c-7.5-11.3-12.8-9.8-12.8-9.8s22.6-54.2,12.8-50.4
			s-21.1,25.6-21.1,25.6s8.3-42.9,0-85.1c-9,24.1-12.8,91.1-12.8,91.1s-2.3-0.8-14.3-6c-12.1-5.3,7.5,34.6,7.5,34.6
			s-15.1-13.6-25.6-9.8c-3.5,1.3-3.4,7-1.8,14.2c-1.7-0.4-2.6,2.6-2.9,3.6c0.5-2.2,2.7-13.9-0.1-23.4c-3-10.5-5.1-9.1-5.1-9.1
			s9.1-50.4,5.1-46.9c-3.9,3.5-8.5,23.8-8.5,23.8s3.3-39.9,0-79c-3.6,22.4-5.1,84.6-5.1,84.6s-0.9-0.7-5.8-5.6
			c-4.8-4.9,3,32.2,3,32.2s-6-12.6-10.3-9.1c-4.2,3.5,4.5,44.8,4.5,44.8s-7.6,0-4.5,32.9c-6.3,3.9-5.8,26.4-4.8,40l-12.5,5.2
			c0,0-3.8-67-12.8-91.1c-8.3,42.2,0,85.1,0,85.1s-11.3-21.8-21.1-25.6s12.8,50.4,12.8,50.4s-5.3-1.5-12.8,9.8
			c-5.4,8.1-3,17.8-1.3,22.6c-0.3,0.1-0.5,0.3-0.7,0.5c-1.2-1.1-3.1-2.1-5.7-1.7c4.4-12,10.2-32,3-38.7c-9.7-9-14.3-1.4-15-0.2
			c-0.1,0.1-0.1,0.2-0.1,0.2s0-0.1,0.1-0.2c0.8-1.6,7-14.9-0.1-25.4c-7.5-11.3-12.8-9.8-12.8-9.8s22.6-54.2,12.8-50.4
			s-21.1,25.6-21.1,25.6s8.3-42.9,0-85.1c-9,24.1-12.8,91.1-12.8,91.1s-2.3-0.8-14.3-6c-12.1-5.3,7.5,34.6,7.5,34.6
			s-15.1-13.6-25.6-9.8s11.3,48.2,11.3,48.2s-10.9,0-12.8,15.6c-0.1-2.8-1-4.8-2.9-5.5c-10.5-3.8-25.6,9.8-25.6,9.8
			s19.6-39.9,7.5-34.6c-12,5.3-14.3,6-14.3,6s-3.8-67-12.8-91.1c-8.3,42.2,0,85.1,0,85.1s-11.3-21.8-21.1-25.6s12.8,50.4,12.8,50.4
			s-5.3-1.5-12.8,9.8c-7,10.6-0.9,23.8-0.1,25.4c0,0.1,0.1,0.2,0.1,0.2s0-0.1-0.1-0.2c-0.7-1.3-5.3-8.8-15,0.2
			c-10.5,9.8,6.8,48.2,6.8,48.2s-18.8-18.1-19.6-8.3s19.6,47.4,19.6,47.4s-15.1-21.8-19.6-10.5c-4.5,11.3,19.6,50.5,19.6,50.5
			s-18.1-6-19.6,0s12.8,59.4,12.8,59.4s-20.3-9.8-18.1,0c2.3,9.8,18.1,55.8,18.1,55.8l11.2,8.6l-80.9,59.5l155.2,61h291.4
			c53.1-8.1,105.2-14.6,139.7-15.2c45.4-0.8,578.7-6.9,782.2-30.3V858.1c-3.4-37.1-3.9-68.7,0-89.7V41.1H2600.9z M1986.5,451.7
			c2.7-7,5.3-14.7,6.2-20.7c0,3.9,0.4,8.4,1.5,13.9h-0.3c0.2,0.5,0.4,1,0.5,1.5C1991,447.4,1988.4,449.3,1986.5,451.7L1986.5,451.7z
			"/>
	</g>
	<path class="st9" d="M-532.4,544.6H66.2l-76.4-43.3c-22.2-12.7-36-36.2-36-61.8v-2.9c0-18.8-7.5-37-20.8-50.3s-31.5-20.8-50.3-20.8
		h-31c-26,0-50-14.3-62.5-37L-232,290c-17.2-31.5-55.2-45.3-88.6-32l-34.2,13.5c-23.5,9.3-50.1,5.4-70.1-10.2l-27.8-21.7
		c-23.2-18.2-55.3-19.3-79.8-3.1l0,0"/>
	<g transform="translate(-539 -556.709)">
		
			<linearGradient id="SVGID_00000143576332212781216370000000729162779256618663_" gradientUnits="userSpaceOnUse" x1="1914.5552" y1="-378.8996" x2="1915.7292" y2="-378.8996" gradientTransform="matrix(1.800000e-14 298.665 -298.665 1.800000e-14 -111899.0391 -570805.9375)">
			<stop  offset="0" style="stop-color:#80302E"/>
			<stop  offset="1" style="stop-color:#061B3B"/>
		</linearGradient>
		<path style="fill:url(#SVGID_00000143576332212781216370000000729162779256618663_);" d="M2524.8,1039.4v339.9
			c0,9.6-8.1,17.4-18,17.4H23.2c-9.9,0-18-7.8-18-17.4v-339.9H2524.8z"/>
	</g>
	<g>
		<path class="st11" d="M-530.2,493.9h368.8l-57.5-32.7c-7.2-4.1-11.7-11.8-11.7-20.1l0,0c0-31.8-25.8-57.7-57.7-57.7h-1.9
			c-18.1,0-34.8-9.9-43.5-25.8l-3.8-6.9c-14.9-27.3-47.9-39.2-76.8-27.8l0,0c-18.5,7.3-39.4,4.3-55-8l-13.1-10.3
			c-13.4-10.6-32.2-11.3-46.4-1.8l0,0 M1018.2,497.6H587.8l54.9-31.2c16.1-9.1,26-26.1,26-44.5v-2.1c0-13.6,5.4-26.6,14.9-36.2
			s22.6-14.9,36.2-14.9H742c18.7,0,35.9-10.2,45-26.6l15.1-27.6c12.3-22.7,39.8-32.5,63.6-23l24.7,9.7c16.9,6.7,36,3.9,50.3-7.3
			l20-15.7c16.7-13,39.8-14,57.5-2.1l0,0 M2063.6,492.1h-598.5l76.4-43.3c22.2-12.7,36-36.2,36-61.8V384c0-18.8,7.5-37,20.8-50.3
			s31.5-20.8,50.3-20.8h31c26,0,50-14.3,62.5-37l21.1-38.5c17.2-31.5,55.2-45.3,88.6-32l34.2,13.5c23.5,9.3,50.1,5.4,70.1-10.2
			l27.8-21.7c23.2-18.2,55.3-19.3,79.8-3.1l0,0"/>
		<g>
			<path id="U" class="st11" d="M565.3,715.5h-35.6l7.5-41.7l5.2,28.6l5.2-28.6l5.2,28.6l5.2-28.6L565.3,715.5L565.3,715.5z"/>
		</g>
		<g>
			<path id="U_00000126314238974308381880000012576300403032884156_" class="st11" d="M-37.6,569.4h-35.6l7.5-41.7l5.2,28.6
				l5.2-28.6l5.2,28.6l5.2-28.6L-37.6,569.4L-37.6,569.4z"/>
		</g>
	</g>
	<g transform="translate(-539 -556.709)">
		
			<linearGradient id="SVGID_00000158731722420375910000000005140229314997616036_" gradientUnits="userSpaceOnUse" x1="1920.3719" y1="-394.8317" x2="1921.5469" y2="-394.8317" gradientTransform="matrix(6.2256 -182 182 6.2256 61910.7422 353389.3438)">
			<stop  offset="0" style="stop-color:#80302E"/>
			<stop  offset="1" style="stop-color:#061B3B"/>
		</linearGradient>
		<path style="fill:url(#SVGID_00000158731722420375910000000005140229314997616036_);" d="M2602.7,1342.7
			c-213,14.3-849.3,53.1-950.1,14.2c-121.4-46.8,74.6-38,255.9-54.1c181.4-16.1-73.1-32.1-326.2-40.2c-253-8.1-177-28.6,0-32.9
			c177-4.4-16.1-32.2-138.9-38c-122.9-5.8,370-33.6,703.5-45.3c220.2-7.7,230.6-68.4,212.2-108.7h243.5v305H2602.7z"/>
		
			<linearGradient id="SVGID_00000018946119247180540230000003960696474093823363_" gradientUnits="userSpaceOnUse" x1="1913.5522" y1="-374.5932" x2="1914.7273" y2="-374.5932" gradientTransform="matrix(1.100000e-14 208.913 -186.343 1.300000e-14 -69479.7656 -398750.7188)">
			<stop  offset="0" style="stop-color:#80302E"/>
			<stop  offset="1" style="stop-color:#061B3B"/>
		</linearGradient>
		<path style="fill:url(#SVGID_00000018946119247180540230000003960696474093823363_);" d="M11.2,1089.8H376
			c0,0,27.8,43.9-156.5,43.9s-7.3,61.4,203.3,61.4s128.7,55.6-55.6,55.6s-8.8,23.7,198.9,23.7c198,0-44,68.9-555,75.3v-259.9H11.2z"
			/>
	</g>
	<g>
		<g>
			<path id="U_00000078012349631432251520000016147069976575638454_" class="st11" d="M55.3,713.2H19.7l7.5-41.7l5.2,28.6l5.2-28.6
				l5.2,28.6l5.2-28.6L55.3,713.2L55.3,713.2z"/>
		</g>
		<g>
			<path id="U_00000046332624952794763130000016261845095557152898_" class="st11" d="M722.2,772.9h-35.6l7.5-41.7l5.2,28.6
				l5.2-28.6l5.2,28.6l5.2-28.6L722.2,772.9L722.2,772.9z"/>
		</g>
		<g>
			<path id="U_00000156569136750179851780000015241178732571012287_" class="st11" d="M1085,709.7h-35.6l7.5-41.7l5.2,28.6l5.2-28.6
				l5.2,28.6l5.2-28.6L1085,709.7L1085,709.7z"/>
		</g>
		<g>
			<path id="U_00000054978669323939950840000009488303211385361557_" class="st11" d="M1612.7,684h-35.6l7.5-41.7l5.2,28.6l5.2-28.6
				l5.2,28.6l5.2-28.6L1612.7,684L1612.7,684z"/>
		</g>
		<g>
			<path id="U_00000179629634206159966140000002255421711954431640_" class="st11" d="M1414.9,742.5h-35.6l7.5-41.7l5.2,28.6
				l5.2-28.6l5.2,28.6l5.2-28.6L1414.9,742.5L1414.9,742.5z"/>
		</g>
		<path class="st11" d="M890.8,788.1h-35.7l7.5-41.7l5.2,28.6l5.2-28.6l5.2,28.6l5.2-28.6L890.8,788.1L890.8,788.1z"/>
		<g>
			<path id="U_00000132056280154600983030000010151282581569289354_" class="st11" d="M517.5,786.9h-35.6l7.5-41.7l5.2,28.6
				l5.2-28.6l5.2,28.6l5.2-28.6L517.5,786.9L517.5,786.9z"/>
		</g>
		<path class="st11" d="M-327.4,611.1H-363l7.5-41.7l5.2,28.6l5.2-28.6l5.2,28.6l5.2-28.6L-327.4,611.1L-327.4,611.1z"/>
	</g>
	<g transform="matrix(.897074 0 0 .897074 138.301 66.1221)">
		<ellipse class="st14" cx="402.6" cy="624.2" rx="209.3" ry="23"/>
		<path class="st15" d="M206.7,624.2h377.9l-155.2-50.1c0,0-136.9,5.8-146.5,10.6s-65.6,17.4-65.6,17.4"/>
		<g transform="translate(-539 -556.709)">
			
				<linearGradient id="SVGID_00000123414877382060974440000001578543959761387162_" gradientUnits="userSpaceOnUse" x1="1789.3621" y1="-591.3637" x2="1790.5371" y2="-591.3637" gradientTransform="matrix(-9.8422 -84.6492 99.9175 -8.3382 77467.9922 147680.625)">
				<stop  offset="0" style="stop-color:#FFFFFF"/>
				<stop  offset="0.25" style="stop-color:#F7E619"/>
				<stop  offset="0.5" style="stop-color:#FFB700"/>
				<stop  offset="1" style="stop-color:#FF7700"/>
			</linearGradient>
			<path style="fill:url(#SVGID_00000123414877382060974440000001578543959761387162_);" d="M749.2,1150.7c0,0-49.4-35.7-36.3-91.9
				c13-56.2-22.6-85.7-22.6-85.7s50.7,24.7,53.5,56.9c16.5-23.3,53.5-23.3,53.5-23.3l31.5,144"/>
		</g>
		<g transform="matrix(-1 0 0 1 1126.06 -568.382)">
			
				<linearGradient id="SVGID_00000175283800361876321330000007031294462457960579_" gradientUnits="userSpaceOnUse" x1="-539.7171" y1="-552.458" x2="-538.5422" y2="-552.458" gradientTransform="matrix(-9.8422 -84.6492 99.9175 -8.3382 50443.3477 -49151.6289)">
				<stop  offset="0" style="stop-color:#FFFFFF"/>
				<stop  offset="0.25" style="stop-color:#F7E619"/>
				<stop  offset="0.5" style="stop-color:#FFB700"/>
				<stop  offset="1" style="stop-color:#FF7700"/>
			</linearGradient>
			<path style="fill:url(#SVGID_00000175283800361876321330000007031294462457960579_);" d="M535.3,1148.7c0,0-49.4-35.7-36.3-91.9
				c13-56.2-22.6-85.7-22.6-85.7s50.7,24.7,53.5,56.9c16.5-23.3,53.5-23.3,53.5-23.3l31.5,144"/>
		</g>
		<g transform="translate(138.545 14.862)">
			<g transform="translate(-564.189 -551.471)">
				
					<linearGradient id="SVGID_00000085210260469606912740000008764180011765775776_" gradientUnits="userSpaceOnUse" x1="1541.1434" y1="-579.8701" x2="1542.3184" y2="-579.8701" gradientTransform="matrix(26.8615 -205.1665 205.1665 26.8615 78504.2891 332571.7812)">
					<stop  offset="0" style="stop-color:#FFFFFF"/>
					<stop  offset="0.25" style="stop-color:#F7E619"/>
					<stop  offset="0.5" style="stop-color:#FFB700"/>
					<stop  offset="1" style="stop-color:#FF7700"/>
				</linearGradient>
				<path style="fill:url(#SVGID_00000085210260469606912740000008764180011765775776_);" d="M872.7,830.2c0,0-12.3-26.8,48.6-101.6
					c60.9-74.9-46.3-85.5,0-149c0,0-18.5,33.1,27.8,62.2s70.8,86.1,28.1,153.6s-13.6,132.4-13.6,132.4"/>
			</g>
			<g transform="translate(-539 -556.709)">
				
					<linearGradient id="SVGID_00000023975625821397569440000002617008776730684086_" gradientUnits="userSpaceOnUse" x1="1490.377" y1="-578.8695" x2="1491.552" y2="-578.8695" gradientTransform="matrix(-35.2472 -214.9739 214.9739 -35.2472 177684.7188 300887.875)">
					<stop  offset="0" style="stop-color:#FFFFFF"/>
					<stop  offset="0.25" style="stop-color:#F7E619"/>
					<stop  offset="0.5" style="stop-color:#FFB700"/>
					<stop  offset="1" style="stop-color:#FF7700"/>
				</linearGradient>
				<path style="fill:url(#SVGID_00000023975625821397569440000002617008776730684086_);" d="M767.1,971.6
					c0,0-166.8-21.2-133.7-284.7c0,0-6.6,66.2,41,91.4c47.7,25.2,88.7,21.2,92.7,78.1"/>
				
					<linearGradient id="SVGID_00000013162699415142205630000003643877702216342666_" gradientUnits="userSpaceOnUse" x1="1488.4645" y1="-577.5319" x2="1489.6395" y2="-577.5319" gradientTransform="matrix(-13.6259 -275.554 275.554 -13.6259 180226.2812 403196.9688)">
					<stop  offset="0" style="stop-color:#FFFFFF"/>
					<stop  offset="0.25" style="stop-color:#F7E619"/>
					<stop  offset="0.5" style="stop-color:#FFB700"/>
					<stop  offset="1" style="stop-color:#FF7700"/>
				</linearGradient>
				<path style="fill:url(#SVGID_00000013162699415142205630000003643877702216342666_);" d="M703.7,1006.9c0,0,18-130-12.7-203
					c37.1,9.5,40.2,50.8,40.2,50.8s41.3-56.1,23.3-107l-9.4,21.4c0,0-81.2-123.2,22.1-258.3c0,0-31.4,107.7,13.4,162.4
					s70-24.2,70-24.2s10.6,51.2,0,89.6s0,128.4,45,150.9s-28,117.4-28,117.4"/>
				
					<linearGradient id="SVGID_00000044154424887243092400000001491397559616668330_" gradientUnits="userSpaceOnUse" x1="1488.4005" y1="-580.1996" x2="1489.5745" y2="-580.1996" gradientTransform="matrix(13.1967 -208.2616 208.2616 13.1967 102064.0391 318610.2812)">
					<stop  offset="0" style="stop-color:#FFFFFF"/>
					<stop  offset="0.25" style="stop-color:#F7E619"/>
					<stop  offset="0.5" style="stop-color:#FFB700"/>
					<stop  offset="1" style="stop-color:#FF7700"/>
				</linearGradient>
				<path style="fill:url(#SVGID_00000044154424887243092400000001491397559616668330_);" d="M780.6,960.1c0,0,84-86.6,69.2-133.2
					s-74.1-80.5-25.4-153.6c0,0-27.8,80.9,43.3,119.3c71.1,38.5,131.5,119,82.7,214.3"/>
			</g>
			<g transform="matrix(2.31235 0 0 1.87014 -1140.78 -1512.54)">
				
					<linearGradient id="SVGID_00000003790577956228053200000006342499080155634067_" gradientUnits="userSpaceOnUse" x1="902.4716" y1="261.2715" x2="903.6466" y2="261.2715" gradientTransform="matrix(-78.2853 0.2132 -0.3115 -22.9267 71346.2734 6899.2148)">
					<stop  offset="0" style="stop-color:#673034"/>
					<stop  offset="1" style="stop-color:#E2A91A"/>
				</linearGradient>
				<path style="fill:url(#SVGID_00000003790577956228053200000006342499080155634067_);" d="M616.8,1076.2c0-3.1-1-6.1-2.8-8.3
					s-4.2-3.4-6.7-3.4s-4.9,1.2-6.7,3.4s-2.8,5.2-2.8,8.3v50.8c0,3.1,1,6.1,2.8,8.3s4.2,3.4,6.7,3.4s4.9-1.2,6.7-3.4
					s2.8-5.2,2.8-8.3V1076.2z"/>
				<g>
					<defs>
						<path id="SVGID_00000106148295509486962790000016368379400209902465_" d="M616.8,1076.2c0-3.1-1-6.1-2.8-8.3s-4.2-3.4-6.7-3.4
							s-4.9,1.2-6.7,3.4s-2.8,5.2-2.8,8.3v50.8c0,3.1,1,6.1,2.8,8.3s4.2,3.4,6.7,3.4s4.9-1.2,6.7-3.4s2.8-5.2,2.8-8.3V1076.2z"/>
					</defs>
					<clipPath id="SVGID_00000173858152478717736750000004582618610107609753_">
						<use xlink:href="#SVGID_00000106148295509486962790000016368379400209902465_"  style="overflow:visible;"/>
					</clipPath>
					<g style="clip-path:url(#SVGID_00000173858152478717736750000004582618610107609753_);">
						<path class="st24" d="M596,1126.1c0,0,9.3-11.9,26.2-1.3s0.9-16.7-4.4-18.8c-5.2-2.1-18.5-3.6-20.1-2.4"/>
					</g>
				</g>
			</g>
			<g transform="matrix(3.54974 0 -3.71287 2.51814 2293.06 -2249.54)">
				
					<linearGradient id="SVGID_00000166655785200443573160000008916043063210187181_" gradientUnits="userSpaceOnUse" x1="139.7626" y1="470.0598" x2="140.9367" y2="470.0598" gradientTransform="matrix(-190.3269 -123.4336 56.4918 -5.9094 642.2422 21140.3223)">
					<stop  offset="0" style="stop-color:#673034"/>
					<stop  offset="1" style="stop-color:#E2A91A"/>
				</linearGradient>
				<path style="fill:url(#SVGID_00000166655785200443573160000008916043063210187181_);" d="M598.9,1086.6c0-1-1.5-3-3.8-4.9
					c-2.3-1.8-4.8-3.1-6.2-3.1h-3.6c-3.3,0-5,1.3-5.1,3.9l-1.5,41.7c-0.1,1.9,2.7,5.4,6.8,8.6c4.1,3.3,8.6,5.5,11,5.5
					c0.4,0,0.6-0.2,0.6-0.5L598.9,1086.6z"/>
				<g>
					<defs>
						<path id="SVGID_00000121982238343336826260000009307629535528045720_" d="M598.9,1086.6c0-1-1.5-3-3.8-4.9
							c-2.3-1.8-4.8-3.1-6.2-3.1h-3.6c-3.3,0-5,1.3-5.1,3.9l-1.5,41.7c-0.1,1.9,2.7,5.4,6.8,8.6c4.1,3.3,8.6,5.5,11,5.5
							c0.4,0,0.6-0.2,0.6-0.5L598.9,1086.6z"/>
					</defs>
					<clipPath id="SVGID_00000049903908593700172050000005979913130481779880_">
						<use xlink:href="#SVGID_00000121982238343336826260000009307629535528045720_"  style="overflow:visible;"/>
					</clipPath>
					<g style="clip-path:url(#SVGID_00000049903908593700172050000005979913130481779880_);">
						<path class="st24" d="M600.5,1124.2l-19.2,6.7c0,0-11.6-8.9-10.4-10s18.7-5.2,18.7-5.2l6.3,2.3"/>
						<g>
							<path id="V" class="st27" d="M582.2,1075.8l1.1,25h-6.2c0,0-6.1-1.8-4.8-7.8s2-15.6,1.9-17.2"/>
						</g>
					</g>
				</g>
			</g>
			<g transform="translate(-539 -556.709)">
				
					<linearGradient id="SVGID_00000058556525465661208150000013702428838580037257_" gradientUnits="userSpaceOnUse" x1="1487.3947" y1="-583.5547" x2="1488.5686" y2="-583.5547" gradientTransform="matrix(32.9735 -161.152 161.152 32.9735 45863.0938 260040.6406)">
					<stop  offset="0" style="stop-color:#FFFFFF"/>
					<stop  offset="0.25" style="stop-color:#F7E619"/>
					<stop  offset="0.5" style="stop-color:#FFB700"/>
					<stop  offset="1" style="stop-color:#FF7700"/>
				</linearGradient>
				<path style="fill:url(#SVGID_00000058556525465661208150000013702428838580037257_);" d="M745.1,1073.3
					c0,0,1.7-110.5,139.3-136.3s81.3-144.4,81.3-144.4S1020,836,1007.1,937s-68.5,150.5-16.9,190.5L745.1,1073.3z"/>
			</g>
			<g transform="matrix(-3.54974 0 3.71287 2.51814 -1974.92 -2249.54)">
				
					<linearGradient id="SVGID_00000119808882719201808260000002419119334038223031_" gradientUnits="userSpaceOnUse" x1="-359.3564" y1="487.4882" x2="-358.1813" y2="487.4882" gradientTransform="matrix(-190.3269 -123.4336 338.9321 177.2627 -233084.75 -129658.7656)">
					<stop  offset="0" style="stop-color:#673034"/>
					<stop  offset="1" style="stop-color:#E2A91A"/>
				</linearGradient>
				<path style="fill:url(#SVGID_00000119808882719201808260000002419119334038223031_);" d="M538.2,1086.6c0-1-1.5-3-3.8-4.9
					c-2.3-1.8-4.8-3.1-6.2-3.1h-3.6c-3.3,0-5,1.3-5.1,3.9l-1.5,41.7c-0.1,1.9,2.7,5.4,6.8,8.6c4.1,3.3,8.6,5.5,11,5.5
					c0.4,0,0.6-0.2,0.6-0.5L538.2,1086.6z"/>
				<g>
					<defs>
						<path id="SVGID_00000044870519015463038140000017079720630302400926_" d="M538.2,1086.6c0-1-1.5-3-3.8-4.9
							c-2.3-1.8-4.8-3.1-6.2-3.1h-3.6c-3.3,0-5,1.3-5.1,3.9l-1.5,41.7c-0.1,1.9,2.7,5.4,6.8,8.6c4.1,3.3,8.6,5.5,11,5.5
							c0.4,0,0.6-0.2,0.6-0.5L538.2,1086.6z"/>
					</defs>
					<clipPath id="SVGID_00000183959928551486511240000017423912864503733949_">
						<use xlink:href="#SVGID_00000044870519015463038140000017079720630302400926_"  style="overflow:visible;"/>
					</clipPath>
					<g style="clip-path:url(#SVGID_00000183959928551486511240000017423912864503733949_);">
						<g transform="matrix(-.519544 0 .766042 .732385 11.8262 304.369)">
							<path class="st24" d="M643.1,1124l47.3,6.9c0,0-10.4-16.3-18.1-17.5s-45.2-5.7-45.2-5.7"/>
						</g>
						<path class="st27" d="M522.7,1075.8l1.1,25h-6.2c0,0-6.1-1.8-4.8-7.8c1.3-6,2-15.6,1.9-17.2"/>
					</g>
				</g>
			</g>
			<g transform="matrix(1.84425 0 0 1.84425 107.232 -456.384)">
				<g transform="matrix(.118866 .585214 -1.64952 .335042 1735.36 -119.674)">
					
						<linearGradient id="SVGID_00000038408869530393356210000006586259043417232808_" gradientUnits="userSpaceOnUse" x1="-706.5564" y1="673.6158" x2="-705.3813" y2="673.6158" gradientTransform="matrix(-112.9141 -4.9266 -41.8315 -43.9496 -51061.9375 27169.1738)">
						<stop  offset="0" style="stop-color:#673034"/>
						<stop  offset="1" style="stop-color:#E2A91A"/>
					</linearGradient>
					<path style="fill:url(#SVGID_00000038408869530393356210000006586259043417232808_);" d="M561.2,985.9c0-2.1-2.3-4-6.4-5.5
						s-9.7-2.3-15.5-2.3l0,0c-5.8,0-11.4,0.8-15.5,2.3c-4.1,1.4-6.4,3.4-6.4,5.5v120.4c0,2.1,2.3,4,6.4,5.5s9.7,2.3,15.5,2.3l0,0
						c5.8,0,11.4-0.8,15.5-2.3s6.4-3.4,6.4-5.5V985.9z"/>
					<g>
						<defs>
							<path id="SVGID_00000091010984221486507170000014893071675698690958_" d="M561.2,985.9c0-2.1-2.3-4-6.4-5.5
								s-9.7-2.3-15.5-2.3l0,0c-5.8,0-11.4,0.8-15.5,2.3c-4.1,1.4-6.4,3.4-6.4,5.5v120.4c0,2.1,2.3,4,6.4,5.5s9.7,2.3,15.5,2.3l0,0
								c5.8,0,11.4-0.8,15.5-2.3s6.4-3.4,6.4-5.5V985.9z"/>
						</defs>
						<clipPath id="SVGID_00000166652253476964538040000006784804257769388438_">
							<use xlink:href="#SVGID_00000091010984221486507170000014893071675698690958_"  style="overflow:visible;"/>
						</clipPath>
						<g style="clip-path:url(#SVGID_00000166652253476964538040000006784804257769388438_);">
							<g transform="matrix(.333327 -.582218 1.64107 .118257 -1475.31 1272.49)">
								<g>
									<path id="W" class="st33" d="M496.1,1120.2l231.5-50.7c0,0-45.6-9-54.4-8s-175.1,38.7-175.1,38.7"/>
								</g>
							</g>
							<g transform="matrix(.920758 .138412 1.09966 -.920758 -1140.21 2000.85)">
								<path class="st34" d="M524.4,1051.8c0-2.1-2.3-4-6.4-5.5s-9.7-2.3-15.5-2.3l0,0c-5.8,0-11.4,0.8-15.5,2.3
									c-4.1,1.4-6.4,3.4-6.4,5.5l0,120.4c0,2.1,2.3,4,6.4,5.5s9.7,2.3,15.5,2.3l0,0c5.8,0,11.4-0.8,15.5-2.3s6.4-3.4,6.4-5.5
									L524.4,1051.8z"/>
							</g>
						</g>
					</g>
				</g>
				<circle class="st35" cx="-26.9" cy="566.4" r="13.8"/>
				<g>
					<g>
						<path id="X" class="st36" d="M-26.8,556.8c6.4,0.2,11.6,7.9,8.3,14.1c-2.2,4.1-7.7,6.1-12,4.3c-4.7-1.9-7.2-7.9-5.2-12.7
							c1.4-3.3,4.9-5.6,8.6-5.7C-26.9,556.8-26.9,556.8-26.8,556.8L-26.8,556.8z M-27,557.7c-5.9,0.1-10.5,7.3-7.4,12.9
							c2.6,4.5,9.5,5.6,13.3,2c2.7-2.4,3.5-6.7,2-9.9C-20.5,559.7-23.6,557.7-27,557.7L-27,557.7z"/>
					</g>
					<path class="st36" d="M-26.7,560.7c3.4,0.1,6.2,3.7,5.4,7.1c-0.8,3.1-4.7,5.1-7.7,3.8c-3.9-1.6-4.6-8.1-0.4-10.3
						c0.7-0.4,1.6-0.6,2.4-0.6C-26.9,560.7-26.9,560.7-26.7,560.7L-26.7,560.7z M-27,561.6c-3.2,0.1-5.7,4-4,7.1
						c1.4,2.5,5.3,3.1,7.4,1.1C-20.9,567.2-22.3,561.6-27,561.6z M-26.8,563.5c2.5,0.1,4,4.2,1.1,5.5c-2.2,1-5.4-2-3.4-4.5
						C-28.5,563.8-27.7,563.5-26.8,563.5L-26.8,563.5z M-26.9,564.4c-1.7,0.1-2.7,2.8-0.7,3.7c1.6,0.7,4.2-2.1,1.8-3.5
						C-26.2,564.5-26.6,564.4-26.9,564.4z"/>
				</g>
			</g>
			<g transform="matrix(-1.84425 0 0 1.84425 202.145 -456.384)">
				<g transform="matrix(.118866 .585214 -1.64952 .335042 1735.36 -119.674)">
					
						<linearGradient id="SVGID_00000085243331254153166580000006521844681699045249_" gradientUnits="userSpaceOnUse" x1="-929.3521" y1="1273.4937" x2="-928.178" y2="1273.4937" gradientTransform="matrix(109.3841 -11.0924 86.8461 34.677 -8440.2646 -53354.957)">
						<stop  offset="0" style="stop-color:#673034"/>
						<stop  offset="1" style="stop-color:#E2A91A"/>
					</linearGradient>
					<path style="fill:url(#SVGID_00000085243331254153166580000006521844681699045249_);" d="M522.5,1053.4c0-2.1-2.3-4-6.4-5.5
						c-4.1-1.5-9.7-2.3-15.5-2.3l0,0c-5.8,0-11.4,0.8-15.5,2.3c-4.1,1.4-6.4,3.4-6.4,5.5v120.4c0,2.1,2.3,4,6.4,5.5
						s9.7,2.3,15.5,2.3l0,0c5.8,0,11.4-0.8,15.5-2.3c4.1-1.5,6.4-3.4,6.4-5.5V1053.4z"/>
					<g>
						<defs>
							<path id="SVGID_00000031893117925810183210000008782470234650662569_" d="M522.5,1053.4c0-2.1-2.3-4-6.4-5.5
								c-4.1-1.5-9.7-2.3-15.5-2.3l0,0c-5.8,0-11.4,0.8-15.5,2.3c-4.1,1.4-6.4,3.4-6.4,5.5v120.4c0,2.1,2.3,4,6.4,5.5
								s9.7,2.3,15.5,2.3l0,0c5.8,0,11.4-0.8,15.5-2.3c4.1-1.5,6.4-3.4,6.4-5.5V1053.4z"/>
						</defs>
						<clipPath id="SVGID_00000168097375193139451730000003651551451543746460_">
							<use xlink:href="#SVGID_00000031893117925810183210000008782470234650662569_"  style="overflow:visible;"/>
						</clipPath>
						<g style="clip-path:url(#SVGID_00000168097375193139451730000003651551451543746460_);">
							<g transform="matrix(.333327 -.582218 1.64107 .118257 -1475.31 1272.49)">
								<path class="st33" d="M380.2,1120.2l231.5-50.7c0,0-45.6-9-54.4-8s-175.1,38.7-175.1,38.7"/>
							</g>
						</g>
					</g>
				</g>
				<circle class="st35" cx="-142.8" cy="566.4" r="13.8"/>
				<g>
					<g>
						<path id="X_00000079454675140233769040000014912131330525274267_" class="st36" d="M-142.7,556.8c6.4,0.2,11.6,7.9,8.3,14.1
							c-2.2,4.1-7.7,6.1-12,4.3c-4.7-1.9-7.2-7.9-5.2-12.7c1.4-3.3,4.9-5.6,8.6-5.7C-142.8,556.8-142.8,556.8-142.7,556.8
							L-142.7,556.8z M-142.9,557.7c-5.9,0.1-10.5,7.3-7.4,12.9c2.6,4.5,9.5,5.6,13.3,2c2.7-2.4,3.5-6.7,2-9.9
							C-136.4,559.7-139.5,557.7-142.9,557.7L-142.9,557.7z"/>
					</g>
					<path class="st36" d="M-142.7,560.7c3.4,0.1,6.2,3.7,5.4,7.1c-0.8,3.1-4.7,5.1-7.7,3.8c-3.9-1.6-4.6-8.1-0.4-10.3
						c0.7-0.4,1.6-0.6,2.4-0.6C-142.8,560.7-142.8,560.7-142.7,560.7L-142.7,560.7z M-142.9,561.6c-3.2,0.1-5.7,4-4,7.1
						c1.4,2.5,5.3,3.1,7.4,1.1C-136.9,567.2-138.2,561.6-142.9,561.6z M-142.7,563.5c2.5,0.1,4,4.2,1.1,5.5c-2.2,1-5.4-2-3.4-4.5
						C-144.5,563.8-143.6,563.5-142.7,563.5L-142.7,563.5z M-142.8,564.4c-1.7,0.1-2.7,2.8-0.7,3.7c1.6,0.7,4.2-2.1,1.8-3.5
						C-142.1,564.5-142.5,564.4-142.8,564.4z"/>
				</g>
			</g>
			<g transform="translate(-539 -556.709)">
				
					<linearGradient id="SVGID_00000160874855486900632900000013763302948846868875_" gradientUnits="userSpaceOnUse" x1="1490.7118" y1="-581.2318" x2="1491.8868" y2="-581.2318" gradientTransform="matrix(-17.4156 -176.8026 176.8026 -17.4156 129474.375 254524.2344)">
					<stop  offset="0" style="stop-color:#FFFFFF"/>
					<stop  offset="0.25" style="stop-color:#F7E619"/>
					<stop  offset="0.5" style="stop-color:#FFB700"/>
					<stop  offset="1" style="stop-color:#FF7700"/>
				</linearGradient>
				<path style="fill:url(#SVGID_00000160874855486900632900000013763302948846868875_);" d="M630.9,1052.2c0,0-25.4-16.1,12.7-62.7
					s-12.7-110.2-12.7-110.2s39-7.6,56.8,70.3c17.8,78,76.3,19.5,39.8-18.6c-36.4-38.1-106.8-124.6-48.3-203.4
					c0,0-30.5,105.1,39,139.8s174.6,108.8,144.1,231.1"/>
				<g>
					
						<linearGradient id="Y_00000179619839311514541820000013899344060287926202_" gradientUnits="userSpaceOnUse" x1="1532.2954" y1="-657.2531" x2="1533.4703" y2="-657.2531" gradientTransform="matrix(3.2937 -13.9058 25.157 1.8206 12275.2812 23470.582)">
						<stop  offset="0" style="stop-color:#FFFFFF"/>
						<stop  offset="0.25" style="stop-color:#F7E619"/>
						<stop  offset="0.5" style="stop-color:#FFB700"/>
						<stop  offset="1" style="stop-color:#FF7700"/>
					</linearGradient>
					<path id="Y" style="fill:url(#Y_00000179619839311514541820000013899344060287926202_);" d="M796.3,974.5
						c0,0-15.3-0.3-15.6-23.6L796.3,974.5z"/>
				</g>
			</g>
			<g transform="translate(-687.068 -591.315)">
				
					<linearGradient id="SVGID_00000170261283462443539500000015880265772851286657_" gradientUnits="userSpaceOnUse" x1="1691.068" y1="-467.1792" x2="1692.2429" y2="-467.1792" gradientTransform="matrix(5.7828 13.4433 -13.4433 5.7828 -15302.1045 -19083.5117)">
					<stop  offset="0" style="stop-color:#FFFFFF"/>
					<stop  offset="0.25" style="stop-color:#F7E619"/>
					<stop  offset="0.5" style="stop-color:#FFB700"/>
					<stop  offset="1" style="stop-color:#FF7700"/>
				</linearGradient>
				<path style="fill:url(#SVGID_00000170261283462443539500000015880265772851286657_);" d="M770.4,968.4c0,0-15.3-0.3-15.6-23.6
					L770.4,968.4z"/>
			</g>
			<g transform="matrix(.911645 .410978 -.410978 .911645 -208.037 -857.363)">
				
					<linearGradient id="SVGID_00000098903753806312819340000000326434699206974362_" gradientUnits="userSpaceOnUse" x1="1130.5435" y1="-805.8921" x2="1131.7174" y2="-805.8921" gradientTransform="matrix(5.7829 13.4433 -13.4433 5.7829 -16641.7734 -9628.3711)">
					<stop  offset="0" style="stop-color:#FFFFFF"/>
					<stop  offset="0.25" style="stop-color:#F7E619"/>
					<stop  offset="0.5" style="stop-color:#FFB700"/>
					<stop  offset="1" style="stop-color:#FF7700"/>
				</linearGradient>
				<path style="fill:url(#SVGID_00000098903753806312819340000000326434699206974362_);" d="M745.6,926.5c0,0-15.3-0.3-15.6-23.6
					L745.6,926.5z"/>
			</g>
			<g transform="matrix(.911645 .410978 -.410978 .911645 -118.97 -907.097)">
				
					<linearGradient id="SVGID_00000140695337158021552110000006277602710009885859_" gradientUnits="userSpaceOnUse" x1="969.8871" y1="-780.4394" x2="971.0621" y2="-780.4394" gradientTransform="matrix(5.7829 13.4433 -13.4433 5.7829 -15359.9629 -7630.127)">
					<stop  offset="0" style="stop-color:#FFFFFF"/>
					<stop  offset="0.25" style="stop-color:#F7E619"/>
					<stop  offset="0.5" style="stop-color:#FFB700"/>
					<stop  offset="1" style="stop-color:#FF7700"/>
				</linearGradient>
				<path style="fill:url(#SVGID_00000140695337158021552110000006277602710009885859_);" d="M756.2,912.2c0,0-15.3-0.3-15.6-23.6
					L756.2,912.2z"/>
			</g>
			<g transform="matrix(-.911645 .410978 .410978 .911645 494.707 -919.655)">
				<g>
					
						<linearGradient id="Y_00000152973649316654486750000004025733115483429792_" gradientUnits="userSpaceOnUse" x1="-1104.2684" y1="1929.0442" x2="-1103.9374" y2="1948.2052" gradientTransform="matrix(-0.8178 -0.3687 0.3687 -0.8178 -1072.0392 2153.3977)">
						<stop  offset="0" style="stop-color:#FFFFFF"/>
						<stop  offset="0.25" style="stop-color:#F7E619"/>
						<stop  offset="0.5" style="stop-color:#FFB700"/>
						<stop  offset="1" style="stop-color:#FF7700"/>
					</linearGradient>
					
						<path id="Y_00000178887011079657495450000016737776544943557006_" style="fill:url(#Y_00000152973649316654486750000004025733115483429792_);" d="
						M549.9,1002.9c0,0-15.3-0.3-15.6-23.6L549.9,1002.9z"/>
				</g>
			</g>
			<g transform="matrix(-.911645 .410978 .410978 .911645 503.571 -849.849)">
				<g>
					
						<linearGradient id="Y_00000142170005650168842740000011183619720877004721_" gradientUnits="userSpaceOnUse" x1="-1124.8983" y1="1861.7118" x2="-1124.5674" y2="1880.8688" gradientTransform="matrix(-0.8178 -0.3687 0.3687 -0.8178 -1060.4875 2102.4763)">
						<stop  offset="0" style="stop-color:#FFFFFF"/>
						<stop  offset="0.25" style="stop-color:#F7E619"/>
						<stop  offset="0.5" style="stop-color:#FFB700"/>
						<stop  offset="1" style="stop-color:#FF7700"/>
					</linearGradient>
					
						<path id="Y_00000146480364304835694710000014469450573448682904_" style="fill:url(#Y_00000142170005650168842740000011183619720877004721_);" d="
						M553.5,1014.6c0,0-15.3-0.3-15.6-23.6L553.5,1014.6z"/>
				</g>
			</g>
			<g transform="matrix(-.911645 .410978 .410978 .911645 561.558 -935.906)">
				<g>
					
						<linearGradient id="Y_00000134959654268930925490000014363867526275972748_" gradientUnits="userSpaceOnUse" x1="-1036.652" y1="1916.3694" x2="-1036.3209" y2="1935.5293" gradientTransform="matrix(-0.8178 -0.3687 0.3687 -0.8178 -1023.869 2170.176)">
						<stop  offset="0" style="stop-color:#FFFFFF"/>
						<stop  offset="0.25" style="stop-color:#F7E619"/>
						<stop  offset="0.5" style="stop-color:#FFB700"/>
						<stop  offset="1" style="stop-color:#FF7700"/>
					</linearGradient>
					
						<path id="Y_00000008861339550332685560000006646985951423815861_" style="fill:url(#Y_00000134959654268930925490000014363867526275972748_);" d="
						M538.1,1005.1c0,0-15.3-0.3-15.6-23.6L538.1,1005.1z"/>
				</g>
			</g>
			<g transform="matrix(-.911645 .410978 .410978 .911645 385.381 -1041.17)">
				<g>
					
						<linearGradient id="Y_00000101801347120222328660000013756749704110870932_" gradientUnits="userSpaceOnUse" x1="-1153.9929" y1="2084.7581" x2="-1153.6619" y2="2103.9192" gradientTransform="matrix(-0.8178 -0.3687 0.3687 -0.8178 -1161.4127 2235.2056)">
						<stop  offset="0" style="stop-color:#FFFFFF"/>
						<stop  offset="0.25" style="stop-color:#F7E619"/>
						<stop  offset="0.5" style="stop-color:#FFB700"/>
						<stop  offset="1" style="stop-color:#FF7700"/>
					</linearGradient>
					
						<path id="Y_00000109713806118120387160000017903955249402246322_" style="fill:url(#Y_00000101801347120222328660000013756749704110870932_);" d="
						M558.6,975.7c0,0-15.3-0.3-15.6-23.6L558.6,975.7z"/>
				</g>
			</g>
			<g transform="matrix(.911645 .410978 -.410978 .911645 -142.977 -1052.99)">
				
					<linearGradient id="SVGID_00000069383415087171303890000016494935859051332279_" gradientUnits="userSpaceOnUse" x1="1076.7584" y1="-819.6181" x2="1077.9325" y2="-819.6181" gradientTransform="matrix(5.7829 13.4433 -13.4433 5.7829 -16518.9746 -8861.7578)">
					<stop  offset="0" style="stop-color:#FFFFFF"/>
					<stop  offset="0.25" style="stop-color:#F7E619"/>
					<stop  offset="0.5" style="stop-color:#FFB700"/>
					<stop  offset="1" style="stop-color:#FF7700"/>
				</linearGradient>
				<path style="fill:url(#SVGID_00000069383415087171303890000016494935859051332279_);" d="M741.9,890.7c0,0-15.3-0.3-15.6-23.6
					L741.9,890.7z"/>
			</g>
			<g transform="matrix(.663279 .748372 -.748372 .663279 405.975 -1120.76)">
				
					<linearGradient id="SVGID_00000042738138840076469890000007872836472739446677_" gradientUnits="userSpaceOnUse" x1="518.4716" y1="-930.2428" x2="519.6465" y2="-930.2428" gradientTransform="matrix(5.7828 13.4433 -13.4433 5.7828 -14833.0508 -740.2068)">
					<stop  offset="0" style="stop-color:#FFFFFF"/>
					<stop  offset="0.25" style="stop-color:#F7E619"/>
					<stop  offset="0.5" style="stop-color:#FFB700"/>
					<stop  offset="1" style="stop-color:#FF7700"/>
				</linearGradient>
				<path style="fill:url(#SVGID_00000042738138840076469890000007872836472739446677_);" d="M685.6,864.3c0,0-15.3-0.3-15.6-23.6
					L685.6,864.3z"/>
			</g>
			<g transform="translate(-539 -556.709)">
				
					<linearGradient id="SVGID_00000052792188595110690140000015025193092835870089_" gradientUnits="userSpaceOnUse" x1="643.6988" y1="470.6707" x2="645.9678" y2="470.6707" gradientTransform="matrix(0.8971 0 0 -0.8971 450.1235 1325.7765)">
					<stop  offset="0" style="stop-color:#FFFFFF"/>
					<stop  offset="0.25" style="stop-color:#F7E619"/>
					<stop  offset="0.5" style="stop-color:#FFB700"/>
					<stop  offset="1" style="stop-color:#FF7700"/>
				</linearGradient>
				<path style="fill:url(#SVGID_00000052792188595110690140000015025193092835870089_);" d="M1030.9,899.9c0.8,2.1,0.6,3,0.6,3
					l-0.3,2c-0.7,0.8,0.1-0.8-2.7,2.4l-0.8,0.8l-0.9-0.9c-0.8-1.4-1-3-1-3c-0.1-1.8-0.4-0.8,0.3-2.1l1.9-1.7l1.5-0.9l1-0.5
					C1030.5,899.2,1030.7,899.6,1030.9,899.9z"/>
				
					<linearGradient id="SVGID_00000180368796718415363250000006214297331352748946_" gradientUnits="userSpaceOnUse" x1="623.9089" y1="552.9382" x2="628.5029" y2="552.9382" gradientTransform="matrix(0.8971 0 0 -0.8971 450.1235 1325.7765)">
					<stop  offset="0" style="stop-color:#FFFFFF"/>
					<stop  offset="0.25" style="stop-color:#F7E619"/>
					<stop  offset="0.5" style="stop-color:#FFB700"/>
					<stop  offset="1" style="stop-color:#FF7700"/>
				</linearGradient>
				<path style="fill:url(#SVGID_00000180368796718415363250000006214297331352748946_);" d="M1009.9,821.3c1.9,0.1,3.6,3.3,3.6,3.3
					c3.5,4.6,1.8,2.5,2.3,4.1c0.1,0.2,0.4,2.5,0.4,2.5v2.8l-0.4,3.2l-0.6,1c0,0-2.6-3.3-3.8-5.5l-0.6-1.3c-0.5-1.3-0.2-0.2-0.6-1.9
					l-0.2-1.2l-0.2-1.5l-0.2-3.8c-0.3-1.5,0.3-0.2,0.3-0.2l-0.8-0.8C1009,822.1,1009.6,821.3,1009.9,821.3L1009.9,821.3z"/>
				
					<linearGradient id="SVGID_00000126324609491352367190000010443766555232689846_" gradientUnits="userSpaceOnUse" x1="586.8027" y1="413.429" x2="592.7537" y2="413.429" gradientTransform="matrix(0.8971 0 0 -0.8971 450.1235 1325.7765)">
					<stop  offset="0" style="stop-color:#FFFFFF"/>
					<stop  offset="0.25" style="stop-color:#F7E619"/>
					<stop  offset="0.5" style="stop-color:#FFB700"/>
					<stop  offset="1" style="stop-color:#FF7700"/>
				</linearGradient>
				<path style="fill:url(#SVGID_00000126324609491352367190000010443766555232689846_);" d="M983.9,944.5c0.1,2.7,0.1,4.2-0.1,6.4
					l-0.6,4.3l-0.4,1.4l-1.1,2.4c-1.4,2.4-2.8,4.6-4.4,6.6l-1.1,0.5c0,0,0.1-5.8,0.9-10.3c0,0,0.6-2.3,1.4-4.1l0.7-1.5l2.1-3.9
					l1.2-2l1-0.6C983.5,943.8,983.7,944.2,983.9,944.5L983.9,944.5z"/>
				
					<linearGradient id="SVGID_00000050649620537058611590000018007907568485806002_" gradientUnits="userSpaceOnUse" x1="563.7645" y1="358.194" x2="566.6425" y2="358.194" gradientTransform="matrix(0.8971 0 0 -0.8971 450.1235 1325.7765)">
					<stop  offset="0" style="stop-color:#FFFFFF"/>
					<stop  offset="0.25" style="stop-color:#F7E619"/>
					<stop  offset="0.5" style="stop-color:#FFB700"/>
					<stop  offset="1" style="stop-color:#FF7700"/>
				</linearGradient>
				<path style="fill:url(#SVGID_00000050649620537058611590000018007907568485806002_);" d="M959.8,999c0.2,2.3,0.1,0.6,0.3,2.8
					l-0.4,4.1c-2.2,4-2.3,3.4-3,4.4l-0.9,0.7c0,0-1-2.1-1.4-4.2l-0.1-1.3c0-0.5-0.1-0.1,0.1-1.5c0-0.3-0.3,0,0.8-1.9l1.1-1.5
					l2.2-2.2l1.1-0.5C959.5,998.3,959.7,998.7,959.8,999L959.8,999z"/>
				
					<linearGradient id="SVGID_00000031180623766454979380000015970730849362451642_" gradientUnits="userSpaceOnUse" x1="187.946" y1="386.3183" x2="191.378" y2="386.3183" gradientTransform="matrix(0.8971 0 0 -0.8971 450.1235 1325.7765)">
					<stop  offset="0" style="stop-color:#FFFFFF"/>
					<stop  offset="0.25" style="stop-color:#F7E619"/>
					<stop  offset="0.5" style="stop-color:#FFB700"/>
					<stop  offset="1" style="stop-color:#FF7700"/>
				</linearGradient>
				<path style="fill:url(#SVGID_00000031180623766454979380000015970730849362451642_);" d="M619.5,974c1.7,1.6,1.6,1.8,1.6,1.8
					l1.2,1.6c0.1,0.1,0.1,0.2,0.2,0.4c0.9,1.6,0.5,0.8,0.6,2.3l-0.2,3.2c0.1,0.7,0,0.5,0,0.5l0.3,1.1c0,0-2.4,0.5-4.5-2
					c-0.3-0.4-1.2-1.8-1.2-1.8c-0.5-1.3-0.3-0.7-0.4-1.5l0.1-2c0.2-1.3,0.7-3.1,0.7-3.1l0.5-1C618.8,973.6,619.1,973.8,619.5,974
					L619.5,974z"/>
				
					<linearGradient id="SVGID_00000157300457180975148620000000295652097084312731_" gradientUnits="userSpaceOnUse" x1="272.3939" y1="347.3365" x2="281.6109" y2="347.3365" gradientTransform="matrix(0.8971 0 0 -0.8971 450.1235 1325.7765)">
					<stop  offset="0" style="stop-color:#FFFFFF"/>
					<stop  offset="0.25" style="stop-color:#F7E619"/>
					<stop  offset="0.5" style="stop-color:#FFB700"/>
					<stop  offset="1" style="stop-color:#FF7700"/>
				</linearGradient>
				<path style="fill:url(#SVGID_00000157300457180975148620000000295652097084312731_);" d="M695.1,1007.7c1.1,0.8,2.5,2.1,2.5,2.1
					c1.7,1.6,0.9,0.4,3.1,3c2.6,3-0.2,1.4,3.5,6.4c0.7,1,0.3,0.4,0.5,0.5l0.8,0.8c0,0-2.6,1.7-6.6-1.3c-0.9-0.7-1.8-1.7-1.8-1.7
					c-0.6-0.7-0.2-0.2-1-1.3l-0.9-1.9c-1.1-3.2-1.1-4.1-1.5-5.8l0.2-1.1L695.1,1007.7z"/>
				
					<linearGradient id="SVGID_00000165924021634694844950000004307691202296826556_" gradientUnits="userSpaceOnUse" x1="287.4083" y1="411.2554" x2="292.8333" y2="411.2554" gradientTransform="matrix(0.8971 0 0 -0.8971 450.1235 1325.7765)">
					<stop  offset="0" style="stop-color:#FFFFFF"/>
					<stop  offset="0.25" style="stop-color:#F7E619"/>
					<stop  offset="0.5" style="stop-color:#FFB700"/>
					<stop  offset="1" style="stop-color:#FF7700"/>
				</linearGradient>
				<path style="fill:url(#SVGID_00000165924021634694844950000004307691202296826556_);" d="M708.6,947.2c2,1.9,3.6,3.6,5.2,6.5
					c0,0,1.5,4.4,1.6,5.6c0.2,2.6-0.1,4.8-0.7,6.8l-0.8,0.8l-3.5-6.6l-0.8-1.7l-0.5-1.2c-0.8-2.4-0.1,0.9-1.5-6.9
					c-0.1-0.3-0.1-0.6-0.2-0.9l-0.3-1.7l0.3-1.1C707.9,947,708.3,947.1,708.6,947.2L708.6,947.2z"/>
				
					<linearGradient id="SVGID_00000170989230258414546110000014370531692224804506_" gradientUnits="userSpaceOnUse" x1="228.7531" y1="491.0148" x2="239.5201" y2="491.0148" gradientTransform="matrix(0.8971 0 0 -0.8971 450.1235 1325.7765)">
					<stop  offset="0" style="stop-color:#FFFFFF"/>
					<stop  offset="0.25" style="stop-color:#F7E619"/>
					<stop  offset="0.5" style="stop-color:#FFB700"/>
					<stop  offset="1" style="stop-color:#FF7700"/>
				</linearGradient>
				<path style="fill:url(#SVGID_00000170989230258414546110000014370531692224804506_);" d="M655.9,879l4.3,1.6l2.5,1.3
					c1.6,1.1,3.2,3.5,3.2,3.5c0.9,1.6,1.6,3.3,2.1,5.1l-0.2,1.1l-4.4-2.2l-2.8-1.8c-1.7-1.3-0.2,0.3-2.4-2.4c-3.7-4.5-3-4.3-3.3-5
					l-0.1-1.2C654.7,879.1,655.8,879,655.9,879L655.9,879z"/>
				
					<linearGradient id="SVGID_00000045618826566685243740000013759378866836774799_" gradientUnits="userSpaceOnUse" x1="188.6996" y1="597.6949" x2="193.1826" y2="597.6949" gradientTransform="matrix(0.8971 0 0 -0.8971 450.1235 1325.7765)">
					<stop  offset="0" style="stop-color:#FFFFFF"/>
					<stop  offset="0.25" style="stop-color:#F7E619"/>
					<stop  offset="0.5" style="stop-color:#FFB700"/>
					<stop  offset="1" style="stop-color:#FF7700"/>
				</linearGradient>
				<path style="fill:url(#SVGID_00000045618826566685243740000013759378866836774799_);" d="M620.2,782.3c3.1,4.8,1,1.3,3.2,5.8
					l0.5,1.5c0.4,1.8,0.1,0.4,0.5,4.1c0.1,1.1,0.5,2.7,0.5,2.7v1.1c0,0-2.5-0.6-4.4-2.6l-0.8-1c-2.9-4.4-1.6-2.9-1.7-4.1l-0.1-1.4
					c0-1.5,0.2-2.7,0.2-2.7l0.5-3.1l0.6-0.9C619.6,781.8,619.9,782,620.2,782.3L620.2,782.3z"/>
				
					<linearGradient id="SVGID_00000157300273951846779260000001342913570905006217_" gradientUnits="userSpaceOnUse" x1="232.2902" y1="681.2443" x2="233.5862" y2="681.2443" gradientTransform="matrix(0.8971 0 0 -0.8971 450.1235 1325.7765)">
					<stop  offset="0" style="stop-color:#FFFFFF"/>
					<stop  offset="0.25" style="stop-color:#F7E619"/>
					<stop  offset="0.5" style="stop-color:#FFB700"/>
					<stop  offset="1" style="stop-color:#FF7700"/>
				</linearGradient>
				<path style="fill:url(#SVGID_00000157300273951846779260000001342913570905006217_);" d="M659.3,700.6c0.2,0.7,0.3,1.5,0.4,2.2
					l1.9,9.1l0.4,2.6l0.1,1.8l-0.1,3.8l-0.7,5.7l-0.6,3l-0.8,0.8l-2.7-9l-0.7-3.9c0,0,0,0.2-0.2-1.8l0.5-9.1
					c0.2-1.6,0.7-3.8,0.7-3.8c0.1-0.6,0.4-1.5,0.4-1.5l0.8-0.8C658.8,700.1,659.1,700.4,659.3,700.6L659.3,700.6z"/>
				
					<linearGradient id="SVGID_00000074440886985967651910000012785190725220418475_" gradientUnits="userSpaceOnUse" x1="291.7535" y1="651.035" x2="297.3435" y2="651.035" gradientTransform="matrix(0.8971 0 0 -0.8971 450.1235 1325.7765)">
					<stop  offset="0" style="stop-color:#FFFFFF"/>
					<stop  offset="0.25" style="stop-color:#F7E619"/>
					<stop  offset="0.5" style="stop-color:#FFB700"/>
					<stop  offset="1" style="stop-color:#FF7700"/>
				</linearGradient>
				<path style="fill:url(#SVGID_00000074440886985967651910000012785190725220418475_);" d="M712.6,734.4l1.8,2.6l2,3.3
					c0.7,1.5,0.7,1.5,1.1,3.8l1.1,4.5v1.1c0,0-2.2-0.3-4.3-2.2c-0.1-0.1-1.9-2.3-1.9-2.3c-1.5-2.4-0.9-1.5-1.2-2.5l-0.3-2
					c-0.3-5.1-0.3-1.7,0.2-5.9l0.6-1C712,734.1,712.3,734.2,712.6,734.4L712.6,734.4z"/>
				
					<linearGradient id="SVGID_00000105409588306178286140000013890267832809793716_" gradientUnits="userSpaceOnUse" x1="356.047" y1="839.1465" x2="362.883" y2="839.1465" gradientTransform="matrix(0.8971 0 0 -0.8971 450.1235 1325.7765)">
					<stop  offset="0" style="stop-color:#FFFFFF"/>
					<stop  offset="0.25" style="stop-color:#F7E619"/>
					<stop  offset="0.5" style="stop-color:#FFB700"/>
					<stop  offset="1" style="stop-color:#FF7700"/>
				</linearGradient>
				<path style="fill:url(#SVGID_00000105409588306178286140000013890267832809793716_);" d="M777.8,568.3c0,0.4,0,0.8-0.1,1.3v0.4
					c-0.1,1.4-0.6,3.1-0.6,3.1c-0.8,2.2,0.7,0.7-2,3.1l-1,0.8c-1.6,0.9-4.2,1.6-4.2,1.6l-1.1-0.2l2.3-6l2.4-2.6
					c1.1-0.9,2.9-2.1,2.9-2.1l1.1-0.3C777.6,567.5,777.7,567.9,777.8,568.3L777.8,568.3z"/>
				
					<linearGradient id="SVGID_00000160192058196308082090000002644193840908212353_" gradientUnits="userSpaceOnUse" x1="365.7151" y1="896.1095" x2="366.5731" y2="896.1095" gradientTransform="matrix(0.8971 0 0 -0.8971 450.1235 1325.7765)">
					<stop  offset="0" style="stop-color:#FFFFFF"/>
					<stop  offset="0.25" style="stop-color:#F7E619"/>
					<stop  offset="0.5" style="stop-color:#FFB700"/>
					<stop  offset="1" style="stop-color:#FF7700"/>
				</linearGradient>
				<path style="fill:url(#SVGID_00000160192058196308082090000002644193840908212353_);" d="M779,516.6l0.6,0.9
					c0.1,0.1,0.1,0.2,0.2,0.3c1.4,2.2,1,1.5,1.7,3l-0.1,3c-0.7,2.3-0.9,2.3-0.9,2.3c-0.2,0.5-0.6,1.2-0.6,1.2l-0.8,0.8l-1.4-1.9
					c-0.9-1.5-0.5-0.8-1-1.8l-0.8-2.3v-0.7l0.7-2.7c1-2.8,0.9-2.1,0.9-2.1l0.7-0.9C778.4,516.1,778.7,516.4,779,516.6L779,516.6z"/>
			</g>
		</g>
		<g>
			<circle class="st63" cx="476.6" cy="49.8" r="3"/>
			<circle class="st63" cx="389.3" cy="109.3" r="3"/>
			<circle class="st63" cx="414.6" cy="26.7" r="3"/>
			<circle class="st63" cx="400.1" cy="-52.5" r="3"/>
			<circle class="st63" cx="399.4" cy="-29.7" r="1.6"/>
			<circle class="st63" cx="432.8" cy="-44.4" r="1.6"/>
			<circle class="st63" cx="370.9" cy="-64.7" r="1.6"/>
			<circle class="st63" cx="407.4" cy="-71.8" r="1.6"/>
			<circle class="st63" cx="384.9" cy="-91.3" r="1.6"/>
			<circle class="st63" cx="399.3" cy="-112.2" r="1.6"/>
			<circle class="st63" cx="295.4" cy="14.3" r="3"/>
			<circle class="st63" cx="431.5" cy="50.6" r="3"/>
			<circle class="st63" cx="453.6" cy="104.1" r="3"/>
			<circle class="st63" cx="253.5" cy="121.2" r="3"/>
			<circle class="st63" cx="287.7" cy="171.5" r="3"/>
			<circle class="st63" cx="478.4" cy="173.4" r="3"/>
		</g>
	</g>
	<g transform="translate(18.681)">
		<path d="M919.4,100.1h-20.5l-64.1,531.2h123.6L919.4,100.1z"/>
		<g transform="matrix(1 0 -.05818 1.15269 -378.915 -478.871)">
			
				<linearGradient id="SVGID_00000047759361328914345740000010664643558064986297_" gradientUnits="userSpaceOnUse" x1="1626.4258" y1="-195.5519" x2="1627.6007" y2="-195.5519" gradientTransform="matrix(-92.2235 -12.1522 11.6551 -105.5984 153583.4688 -144.1776)">
				<stop  offset="0" style="stop-color:#082845"/>
				<stop  offset="1" style="stop-color:#2A651D"/>
			</linearGradient>
			<path style="fill:url(#SVGID_00000047759361328914345740000010664643558064986297_);" d="M1319.6,502.3L1307,963.1h-135.6
				L1319.6,502.3z"/>
		</g>
		<g transform="matrix(-1 0 .05818 1.15269 1881.33 -478.871)">
			
				<linearGradient id="SVGID_00000038371447113013369480000007695773884829250958_" gradientUnits="userSpaceOnUse" x1="-438.9837" y1="-197.3325" x2="-437.8087" y2="-197.3325" gradientTransform="matrix(112.335 -20.4049 -52.934 -128.3005 39734.7812 -33519.75)">
				<stop  offset="0" style="stop-color:#082845"/>
				<stop  offset="1" style="stop-color:#2A651D"/>
			</linearGradient>
			<path style="fill:url(#SVGID_00000038371447113013369480000007695773884829250958_);" d="M999.1,502.3l-12.6,460.8H850.9
				L999.1,502.3L999.1,502.3z"/>
		</g>
		<g transform="matrix(-.648085 0 -.321673 1.04955 2392.66 -379.714)">
			
				<linearGradient id="SVGID_00000041985021522760865900000013221963180562612621_" gradientUnits="userSpaceOnUse" x1="-1605.6266" y1="-313.5799" x2="-1604.4515" y2="-313.5799" gradientTransform="matrix(-26.4288 3.8491 -31.0017 -34.7022 -51387.7383 -4036.1677)">
				<stop  offset="0" style="stop-color:#673034"/>
				<stop  offset="1" style="stop-color:#E2A91A"/>
			</linearGradient>
			<path style="fill:url(#SVGID_00000041985021522760865900000013221963180562612621_);" d="M770.6,383.7c0-7.7-9-13-22.1-13l0,0
				c-5.2,0-10.8,1.5-15.1,4.1s-6.9,5.9-6.9,8.9v579.6h44.1V383.7z"/>
		</g>
		<g transform="matrix(1 0 .362007 1.15269 -603.714 -478.871)">
			
				<linearGradient id="SVGID_00000103977717468581234440000012145760685465574017_" gradientUnits="userSpaceOnUse" x1="1719.3374" y1="-200.6871" x2="1720.5123" y2="-200.6871" gradientTransform="matrix(-433.733 -314.171 733.5955 -613.6937 894902 417841.8438)">
				<stop  offset="0" style="stop-color:#082845"/>
				<stop  offset="1" style="stop-color:#2A651D"/>
			</linearGradient>
			<path style="fill:url(#SVGID_00000103977717468581234440000012145760685465574017_);" d="M2203.1,455.8l-15.4,3.6
				c-266.7,62.3-527.6,68.2-756.8,17.2l-93.3-20.8v507.3h865.5V455.8"/>
		</g>
		<g transform="translate(-539 -556.709)">
			
				<linearGradient id="SVGID_00000066496498456799289410000017380944281484903352_" gradientUnits="userSpaceOnUse" x1="1882.0201" y1="-384.6619" x2="1883.1952" y2="-384.6619" gradientTransform="matrix(-710.596 -259.725 259.725 -710.596 1439427.875 216438.3906)">
				<stop  offset="0" style="stop-color:#062039"/>
				<stop  offset="1" style="stop-color:#2A651D"/>
			</linearGradient>
			<path style="fill:url(#SVGID_00000066496498456799289410000017380944281484903352_);" d="M2253.9,617.3l35.4-9.9l14.1-4.1
				L2487,1188h-865.5l-95.4-303.6l217.5,59.2l-41.1-64.1c0,0,171.4,86.4,282.8,96.7C2096.7,986.5,2215,823,2215,823l-77.1,56.5
				C2137.9,879.6,2241.5,715.3,2253.9,617.3z"/>
		</g>
		<path class="st69" d="M1859,347.7l89.1,283.6h-865.5l-34.3-109.4l136.5,74.1l617.9-42.9L1548.8,596H1895L1859,347.7L1859,347.7z
			 M978.5,131.7c0,0,379.5,192.8,445,191.1s334.7-191.1,334.7-191.1s-274.9,124-317.1,129.1s-176-98.9-176-98.9l55.3,73.8
			L978.5,131.7L978.5,131.7z"/>
		<g transform="matrix(.648085 0 .321673 1.04955 -162.454 -379.714)">
			
				<linearGradient id="SVGID_00000155862086758431074770000003643339309371629730_" gradientUnits="userSpaceOnUse" x1="1531.0437" y1="-294.1759" x2="1532.2178" y2="-294.1759" gradientTransform="matrix(-26.4288 3.8491 11.4859 -40.8902 45301.9766 -17256.5352)">
				<stop  offset="0" style="stop-color:#673034"/>
				<stop  offset="1" style="stop-color:#E2A91A"/>
			</linearGradient>
			<path style="fill:url(#SVGID_00000155862086758431074770000003643339309371629730_);" d="M1461.3,383.7c0-7.7-9-13-22.1-13l0,0
				c-5.2,0-10.8,1.5-15.1,4.1s-6.9,5.9-6.9,8.9v579.6h44.1V383.7z"/>
		</g>
		<path class="st24" d="M934.4,109.1l-14.3,46.6l-14.3-46.6l14.3-46.6C920.1,62.5,934.4,109.1,934.4,109.1z"/>
		<g transform="matrix(-.648085 0 -.321673 1.04955 1666.02 -379.714)">
			
				<linearGradient id="SVGID_00000127731856550953204840000000031677023200773519_" gradientUnits="userSpaceOnUse" x1="-730.0219" y1="-309.8589" x2="-728.848" y2="-309.8589" gradientTransform="matrix(18.8964 -3.7773 22.2072 -32.4769 21589.7871 -12145.7607)">
				<stop  offset="0" style="stop-color:#673034"/>
				<stop  offset="1" style="stop-color:#E2A91A"/>
			</linearGradient>
			<path style="fill:url(#SVGID_00000127731856550953204840000000031677023200773519_);" d="M966.4,383.7c0-7.7-9-13-22.1-13l0,0
				c-5.2,0-10.8,1.5-15.1,4.1s-6.9,5.9-6.9,8.9v579.6h44.1V383.7z"/>
		</g>
		<g transform="matrix(.648085 0 .321673 1.04955 569.061 -379.714)">
			
				<linearGradient id="SVGID_00000078756055198343798890000005989499149400738445_" gradientUnits="userSpaceOnUse" x1="-1347.1119" y1="-294.9078" x2="-1345.9369" y2="-294.9078" gradientTransform="matrix(-26.4288 3.8491 11.4859 -40.8902 -30558.7578 -6208.1313)">
				<stop  offset="0" style="stop-color:#673034"/>
				<stop  offset="1" style="stop-color:#E2A91A"/>
			</linearGradient>
			<path style="fill:url(#SVGID_00000078756055198343798890000005989499149400738445_);" d="M1658.5,383.7c0-7.7-9-13-22.1-13l0,0
				c-5.2,0-10.8,1.5-15.1,4.1s-6.9,5.9-6.9,8.9v579.6h44.1V383.7z"/>
		</g>
	</g>
	<path class="st73" d="M651.2,631.3H1973l-744.8,13.8L651.2,631.3L651.2,631.3z"/>
	<path class="st74" d="M-530.2,688.5c4.9,19.5,8,37.8,9.7,54.7c17.9-53.6,54.4-120,128.4-171.7c-9.3,84.4-33,143.3-58.5,183.8
		c31-13.9,69.1-24.6,115.4-28.9c-32.9,54.1-70.9,89.1-107.1,111.7h-69.4c-4.9,0-9.6-2.2-13-6c-3.5-3.9-5.4-9.1-5.4-14.6
		L-530.2,688.5z M-434.1,838.2c29.2-13,56.9-29.6,82.5-49c19.9-15.1,38.6-32.5,55.1-52.2c-7.1-17.2-22.3-66.8,5.5-125.8
		c18.8,49.2,15.4,85.3,8.9,107.3c14.7-20.5,27.1-43.2,36.2-68.1c-8.2-17.5-25.1-65.3-1.2-125c18.6,41.3,20.1,74,16.8,96.5
		c14.8-16,43-35.9,92.7-36.9c-32.4,46.6-72.7,55.7-93.2,57.1c-4.4,14-9.8,27.4-16,40.4c16.2-13.9,42.8-28,84.4-28.8
		c-36.6,52.6-83.2,57.4-100.1,57.3c-5.8,9.2-12,18.1-18.7,26.6c-34,43.3-77.5,76.6-123.9,100.6L-434.1,838.2L-434.1,838.2z
		 M-297.9,838.2c12.8-23.6,45-62,116.7-53.2c35-67.7,81.8-54.6,118.3-15.3c23.4-58.9,99.3-92.2,163.5-18.3
		c10.8-1.1,23.1-1.8,35.7-1.2c2.9-20.5,7.5-41.9,14.3-64.2c15,26.6,26.4,51.9,35.1,75.8c18.6,9.5,33.5,26.1,39.5,54
		c21.3-43.8,55.7-90.9,111.3-129.8c-7.1,64.6-22.7,114.3-41.1,152.3L-297.9,838.2L-297.9,838.2z M1073.9,838.2
		c-18.6-13.6-42.6-39.1-53.8-84.5c54.1,26.3,71.2,64.3,76.6,84.5H1073.9z M1108.5,838.2c-15.2-35.6-27.7-80.4-33.8-136.4
		c58.5,40.8,93.5,90.8,114.5,136.4H1108.5z M1204,838.2l2.9-2.2c1.4-20.8,7-36.6,15.2-48.6c9-26.7,21.5-55.3,38.5-85.6
		c5.4,17.7,9.7,35.7,12.7,53.9c20.6-4.4,42.7-3.6,60.6-1.8c64.3-73.9,140.2-40.7,163.5,18.3c36.5-39.3,83.2-52.4,118.3,15.3
		c69.2-8.5,101.6,26.9,115.3,50.7L1204,838.2L1204,838.2z M1758.4,838.2c-7.5-2.7-15.2-6.3-23.1-11c43.9-20.9,76.2-16.9,95.7-9.6
		c-18.3-16.5-38.5-30.5-60.7-40.8c-15.7,9.2-58.3,27.9-111.5,0.9c36.9-20.7,66.1-22.3,86.2-18.5c-14.2-16.6-31.9-48.3-32.6-104.1
		c41.5,36.5,49.5,81.7,50.6,104.7c12.4,4.9,24.5,11,36,18.1c-12.4-18.2-24.8-48.1-25.5-94.6c46.8,41.2,51,93.4,50.8,112.4
		c8.2,6.5,16.1,13.5,23.6,21c6.9,6.9,13.6,14.1,20,21.7h-16.3l-4.2-4.5c-2.6,1.3-6.1,2.9-10.3,4.5h-78.7V838.2z M1906.9,838.2
		c-21.1-19.8-41.9-44.7-60.9-76c46.3,4.3,84.3,15,115.4,28.9c-25.6-40.5-49.2-99.4-58.6-183.8c74.1,51.7,110.5,118.1,128.5,171.7
		c3.5-36,13.4-78.1,34.2-125.3v162.6c0,5.8-2.1,11.4-5.7,15.5c-3.7,4.1-8.7,6.4-13.8,6.4L1906.9,838.2L1906.9,838.2z M312.1,836
		c0,0,59.4-18.3,79.1-98.3C314.4,775.2,312.1,836,312.1,836z M1188.6,812.6c0,0,31.4-59.3-3.9-132.3
		C1152.7,766.9,1188.6,812.6,1188.6,812.6z M222.7,796.7c0,0-31.5-59.3,3.9-132.3C258.6,751,222.7,796.7,222.7,796.7z M1927.4,757.3
		c0,0-59.4-18.3-79.1-98.3C1925,696.5,1927.4,757.3,1927.4,757.3z M1718,743.5c0,0-31.2-40.8-88.1-29.8
		C1679,761.9,1718,743.5,1718,743.5z M-416.6,721.7c0,0,59.4-18.3,79.1-98.3C-414.3,660.8-416.6,721.7-416.6,721.7z M2016.8,718
		c0,0,31.4-59.3-3.9-132.3C1980.8,672.3,2016.8,718,2016.8,718z M-506.1,682.3c0,0-31.5-59.3,3.9-132.3
		C-470.1,636.6-506.1,682.3-506.1,682.3z M2065.5,624l-3.5-15.5c-6.2-26-14.8-51.5-26-75.4c-16.9,1.9-63.6,1.8-104.3-46.8
		c47.6-3.9,77,11.6,93.4,25.6c-12.5-22.3-27.6-42.8-45.6-60.6c-17.5,3-63.3,5.3-105.8-39.5c40.9-6.3,68.9,2.8,86.9,13.7
		c-8.7-20.8-16.2-57.3-0.9-110.3c28.7,49.5,23.3,95.2,17.7,117.4c10.3,9.2,20,19.3,28.8,30.1c-6.5-21.7-9.6-54.5,3.2-98.8
		c32.4,55.9,21.3,106.9,15.7,124.7c5.9,9.1,11.3,18.6,16.3,28.4c9.6,19,17.6,38.9,24,59.4V624L2065.5,624z M-216.5,591.5
		c0,0,36.3-35.1,26.3-98.9C-233,547.8-216.5,591.5-216.5,591.5z M-530.2,519.3c4.7-12.2,9.9-24.2,15.8-35.8
		c5-9.8,10.4-19.3,16.3-28.4c-5.6-17.9-16.8-68.8,15.7-124.7c12.9,44.3,9.7,77.1,3.2,98.8c8.9-10.8,18.5-20.9,28.8-30.1
		c-5.5-22.2-11-67.8,17.7-117.4c15.4,53,7.8,89.4-0.9,110.3c18-10.9,46-20,86.9-13.7c-42.5,44.8-88.3,42.5-105.8,39.6
		c-18,17.8-33.1,38.3-45.6,60.6c16.4-14,45.8-29.5,93.4-25.6c-40.7,48.6-87.5,48.7-104.3,46.8c-8.6,18.3-15.6,37.6-21.3,57.3
		L-530.2,519.3L-530.2,519.3z M1939.4,400.9c0,0-17.8-49.9-74.8-60.1C1897.1,404.1,1939.4,400.9,1939.4,400.9z M-412.4,367.3
		c0,0,17.8-49.9,74.8-60.1C-370.1,370.6-412.4,367.3-412.4,367.3z"/>
	<g>
		<g>
			<path id="U_00000062883456420240961000000016372611372527047311_" class="st11" d="M217.1,658.5h-35.6l7.5-41.7l5.2,28.6
				l5.2-28.6l5.2,28.6l5.2-28.6L217.1,658.5L217.1,658.5z"/>
		</g>
		<g>
			<path id="U_00000108992610246895143390000010325514249984771741_" class="st11" d="M680.2,643h-35.6l7.5-41.7l5.2,28.6l5.2-28.6
				l5.2,28.6l5.2-28.6L680.2,643L680.2,643z"/>
		</g>
	</g>
	<g transform="translate(-539 -556.709)">
		
			<linearGradient id="SVGID_00000064316417876100348850000013259614200027978163_" gradientUnits="userSpaceOnUse" x1="1912.5211" y1="-385.0656" x2="1913.6951" y2="-385.0656" gradientTransform="matrix(453.747 174.074 -174.074 453.747 -934763 -157657.6562)">
			<stop  offset="0" style="stop-color:#335797"/>
			<stop  offset="1" style="stop-color:#162948"/>
		</linearGradient>
		<path style="fill:url(#SVGID_00000064316417876100348850000013259614200027978163_);" d="M8.3,609.4v-77.7
			c254.7-18.4,516.3,65.1,609,163.3l0,0C402.3,711.8,132.8,645,8.3,609.4L8.3,609.4z"/>
	</g>
	<g>
		<circle class="st76" cx="212.2" cy="-456.8" r="1.2"/>
		
			<ellipse transform="matrix(0.1602 -0.9871 0.9871 0.1602 666.2331 -106.8178)" class="st76" cx="270.3" cy="-444.9" rx="1.4" ry="1.4"/>
		<circle class="st76" cx="444.5" cy="-398.3" r="1.2"/>
		<circle class="st76" cx="288.4" cy="-338" r="1.2"/>
		<circle class="st76" cx="561.2" cy="-333.3" r="1.2"/>
		<circle class="st76" cx="723.9" cy="-329.3" r="1.2"/>
		<circle class="st76" cx="822.8" cy="-291.4" r="1.2"/>
		<circle class="st76" cx="989" cy="-251.2" r="1.2"/>
		<circle class="st76" cx="989.9" cy="-304.4" r="1.2"/>
		<circle class="st76" cx="722.1" cy="-399" r="1.2"/>
		<circle class="st76" cx="640.7" cy="-339.4" r="1.2"/>
		<circle class="st76" cx="777.1" cy="-413.7" r="1.2"/>
		<circle class="st76" cx="946.6" cy="-363.7" r="1.2"/>
		<circle class="st76" cx="1124.2" cy="-422.2" r="1.2"/>
		<circle class="st76" cx="1172.8" cy="-304.1" r="1.2"/>
		<circle class="st76" cx="1267.1" cy="-369.5" r="1.2"/>
		<circle class="st76" cx="1346.6" cy="-467.1" r="1.2"/>
		<circle class="st76" cx="1172.6" cy="-499.3" r="1.2"/>
		<circle class="st76" cx="1247.7" cy="-268.9" r="1.2"/>
		<circle class="st76" cx="1034.9" cy="-497.9" r="1.2"/>
		<circle class="st76" cx="1099.8" cy="-257" r="1.2"/>
		<circle class="st76" cx="660.2" cy="-467.3" r="1.2"/>
		<circle class="st76" cx="956.2" cy="-450.3" r="1.2"/>
		<circle class="st76" cx="1040.2" cy="-398.3" r="2.9"/>
		<circle class="st76" cx="1194.4" cy="-390.3" r="2.9"/>
		<circle class="st76" cx="1383.5" cy="-440.6" r="2.9"/>
		<circle class="st76" cx="885.7" cy="-431.6" r="2.1"/>
		<circle class="st76" cx="567.3" cy="-436.1" r="2.1"/>
		<circle class="st76" cx="425.5" cy="-301.1" r="2.1"/>
		<circle class="st76" cx="198.4" cy="-357.5" r="2.1"/>
		<circle class="st76" cx="406" cy="-491.7" r="2.1"/>
		<circle class="st76" cx="683.3" cy="-233.2" r="2.1"/>
	</g>
	<g>
		<circle class="st76" cx="33.1" cy="-378" r="1.2"/>
		<circle class="st76" cx="132" cy="-340.1" r="1.2"/>
		<circle class="st76" cx="325.2" cy="-256.9" r="1.2"/>
		<circle class="st76" cx="326.1" cy="-310.1" r="1.2"/>
		<circle class="st76" cx="31.3" cy="-447.7" r="1.2"/>
		<circle class="st76" cx="-50.1" cy="-388.1" r="1.2"/>
		<circle class="st76" cx="86.3" cy="-462.4" r="1.2"/>
		<circle class="st76" cx="282.8" cy="-369.4" r="1.2"/>
		<circle class="st76" cx="460.4" cy="-427.9" r="1.2"/>
		<circle class="st76" cx="509" cy="-309.8" r="1.2"/>
		<circle class="st76" cx="603.3" cy="-375.2" r="1.2"/>
		<circle class="st76" cx="682.8" cy="-472.8" r="1.2"/>
		<circle class="st76" cx="508.8" cy="-505" r="1.2"/>
		<circle class="st76" cx="583.9" cy="-274.6" r="1.2"/>
		<circle class="st76" cx="371.1" cy="-503.6" r="1.2"/>
		<circle class="st76" cx="436" cy="-262.7" r="1.2"/>
		<circle class="st76" cx="-30.6" cy="-516" r="1.2"/>
		<circle class="st76" cx="292.4" cy="-456" r="1.2"/>
		<circle class="st76" cx="376.4" cy="-404" r="2.9"/>
		<circle class="st76" cx="530.6" cy="-396" r="2.9"/>
		<circle class="st76" cx="719.7" cy="-446.2" r="2.9"/>
		<circle class="st76" cx="221.9" cy="-437.3" r="2.1"/>
		<circle class="st76" cx="-123.5" cy="-484.8" r="2.1"/>
		<circle class="st76" cx="-284.8" cy="-540.4" r="2.1"/>
	</g>
	<g>
		<circle class="st76" cx="842.5" cy="-457.2" r="1.2"/>
		
			<ellipse transform="matrix(0.1602 -0.9871 0.9871 0.1602 1196.0297 515.0405)" class="st76" cx="900.7" cy="-445.4" rx="1.4" ry="1.4"/>
		<circle class="st76" cx="1074.8" cy="-398.8" r="1.2"/>
		<circle class="st76" cx="918.8" cy="-338.4" r="1.2"/>
		<circle class="st76" cx="1191.5" cy="-333.7" r="1.2"/>
		<circle class="st76" cx="1354.3" cy="-329.7" r="1.2"/>
		<circle class="st76" cx="1352.4" cy="-399.4" r="1.2"/>
		<circle class="st76" cx="1271.1" cy="-339.8" r="1.2"/>
		<circle class="st76" cx="1407.4" cy="-414.1" r="1.2"/>
		<circle class="st76" cx="1665.3" cy="-498.4" r="1.2"/>
		<circle class="st76" cx="1290.5" cy="-467.7" r="1.2"/>
		<circle class="st76" cx="1516.1" cy="-432" r="2.1"/>
		<circle class="st76" cx="1197.6" cy="-436.5" r="2.1"/>
		<circle class="st76" cx="1055.8" cy="-301.5" r="2.1"/>
		<circle class="st76" cx="828.7" cy="-358" r="2.1"/>
		<circle class="st76" cx="1036.3" cy="-492.1" r="2.1"/>
		<circle class="st76" cx="1313.6" cy="-233.6" r="2.1"/>
	</g>
</g>
</svg>
