<svg xmlns="http://www.w3.org/2000/svg" xmlns:xlink="http://www.w3.org/1999/xlink" viewBox="0 0 515.81 434.51" xmlns:v="https://vecta.io/nano"><style><![CDATA[.P{fill:#312113}.Q{fill:#e6a19b}.R{fill:#fff}.S{fill:#904823}.T{fill:#ede3dd}.U{fill:#ff8376}.V{fill:#c1defe}.W{fill:#f2cd5d}]]></style><defs><clipPath id="A" transform="translate(20.42 7.61)"><path d="M354.67 275.73C224.24 316 225.58 396.47 151.43 409.67 43.68 428.86-10.65 311.05 1.74 215.64 18.15 89.29 112.22 26.44 229.55 26.44c190.72 0 264.91 206.12 125.12 249.29z" fill="none"/></clipPath><clipPath id="B" transform="translate(20.42 7.61)"><rect x="26.15" y="146.14" width="136.93" height="193.36" rx="10.85" transform="matrix(-1 0 0 -1 189.24 485.64)" fill="none"/></clipPath><path id="C" d="M112.74 364.91c0 6.683-5.417 12.1-12.1 12.1s-12.1-5.417-12.1-12.1 5.417-12.1 12.1-12.1a12.1 12.1 0 0 1 12.1 12.1z"/></defs><path d="M387.79 294.55c-29 9.65-126.11 84.69-70.77 120.25s156.4-148.73 70.77-120.25zm-12.7-11.21C244.66 323.61 246 404.08 171.85 417.28 64.1 436.47 9.77 318.66 22.16 223.25 38.57 96.9 132.64 34.05 249.97 34.05c190.72 0 264.91 206.12 125.12 249.29z" class="U"/><g clip-path="url(#A)"><path d="M234.99 23.28h266.55v271.15H234.99z" opacity=".4" class="R"/><g class="S"><path d="M293.43 291.02h1v143.49h-1zm-73.35-270h1v413.49h-1zm110.03 270h1v143.49h-1zm-73.36 0h1v143.49h-1zm146.72 0h1v143.49h-1zm-36.68 0h1v143.49h-1zm73.32 0h1v143.49h-1zm73.36 0h1v143.49h-1zm-36.68 0h1v143.49h-1zm-293.39-270h1v413.49h-1zm-36.68 0h1v413.49h-1zm-36.68 0h1v413.49h-1zm-36.68 0h1v413.49h-1zM0 21.02h1v413.49H0zm36.68 0h1v413.49h-1z"/></g><path d="M429.6 289.34v-77.63h79.88c.27-3.48.45-6.93.54-10.33H429.6v-81.64h62.82q-1.75-5.34-3.86-10.33h-59V42.46h-12.59v66.95H339.5V.25a64.68 64.68 0 0 0-12.81.15v109h-87.22V11.18c-3.74.59-7.47 1.1-11.16 1.58v289.67h280.65a125.1 125.1 0 0 0 6.85-13.09zm-102.91 0h-87.22v-77.63h87.22zm0-88h-87.22v-81.6h87.22zm12.81-81.64h77.47v81.64H339.5zm0 92h77.47v77.63H339.5z" class="T"/><g class="P"><path d="M255.16 211.42h71.23v1h-71.23zm0-92h154.21v1H255.16z"/><path d="M338.5 93.56h1v146.72h-1z"/></g></g><path d="M346.42 347.03s-94 14.07-140.23-9c0 0 .25-49.72 14.55-106.69-.05.02 116.44 101.18 125.68 115.69z" class="S"/><path d="M322.31 177.75l-83-1.28c-.67-10.22 1.71-85.24 1.71-90 0-49.51 10-69.06 35-66.08 28.53 3.4 35.15 36.88 34.79 72.06-.5 49.81 11.49 75.97 11.5 85.3z" class="P"/><path d="M332.25 264.51s9.23 104.71 14.71 121.91h-19.47s-5-13.39-8.22-18.86-24.47-36.75-22.85-64.37-11.46-41.36-11.46-41.36z" class="Q"/><path d="M354.52 398.1c-6-6.7-7.3-21.57-7.3-21.57-.85-.55-2 3.68-2 3.68-6-7.26-26-4.78-26-4.78 4.39 1.51-6.07 23.77-1.84 28.08 1.67 1.69 4.85 10.26 7.76 15.88h5.55c.65-4.89 1.26-11.63 3.94-11.8 10.39-.66 19.22 11.36 29.48 11.36a106.68 106.68 0 0 0 18-1.46c.16-7.95-19.64-10.44-27.59-19.39z" class="V"/><g class="P"><path d="M330.75 419.89h-5.55a.49.49 0 0 1-.44-.27c-2.89-5.56-7.72-15.8-7.77-15.9a.49.49 0 0 1 .16-.62.5.5 0 0 1 .64.05 14.78 14.78 0 0 0 9.89 3.45v1a16.53 16.53 0 0 1-8.91-2.46l6.74 13.75h4.8l.12-.93c.64-5 1.37-10.69 4.23-10.87 5.49-.36 10.57 2.75 15.48 5.75 4.51 2.75 9.18 5.61 14 5.61a104.69 104.69 0 0 0 17.86-1.46l.22 1a105.5 105.5 0 0 1-18.08 1.48c-5.13 0-9.92-2.93-14.55-5.76s-9.73-5.93-14.89-5.6c-2 .13-2.77 5.83-3.31 10l-.18 1.37a.49.49 0 0 1-.46.41zm-6.2-36.44a1.79 1.79 0 0 1-1.3-.54 1.83 1.83 0 0 1-.52-1.31 1.87 1.87 0 0 1 1.86-1.83 1.81 1.81 0 0 1 1.83 1.84 1.88 1.88 0 0 1-1.87 1.84zm0-2.68a.86.86 0 0 0-.63 1.44.85.85 0 0 0 .59.24.87.87 0 0 0 .91-.84h0a.82.82 0 0 0-.82-.83z"/><path d="M361.86 404.66c-.31-.08-7.75-2.17-12.21-8.38s-4.76-15.31-4.78-15.69h1c0 .09.32 9.2 4.59 15.14s11.6 8 11.67 8zm3.84 12.19a96.43 96.43 0 0 1-13.28-1.24l.17-1a95.08 95.08 0 0 0 13.1 1.27 49 49 0 0 0 14.17-2.35l.33.95a50.71 50.71 0 0 1-14.49 2.37z"/></g><path d="M212.6 214.45s7.1 150.3 4.63 167.5h19.47s2.63-13.39 4.93-18.86 18-36.75 11.58-64.37 5-87 5-87z" class="Q"/><path d="M263.42 88.14c-1-5.79-10.43-16.19-24.3-12.55s-48.15 12.18-55.91 19.47c-11.2 10.55-9.73 43.34 14.58 46.55 15.67 2.07 44.63-22.43 55-31.17s11.86-14.83 10.63-22.3zm22.84-13.31c-5.53 2-14 13.2-7.92 26.17s20.73 45.13 29.31 51.44c12.4 9.11 44.39 1.7 43.12-22.78-.81-15.79-30.17-39.82-40.65-48.41s-16.76-8.97-23.86-6.42z" class="S"/><path d="M334.63 112.01c-8.35-9.79-27.26-18.89-27.45-19l.43-.9c.19.09 19.29 9.28 27.78 19.23zm-10.08 12.18c0-5.49-3.58-13.44-3.62-13.52l.91-.41c.15.33 3.71 8.22 3.71 13.93z" class="T"/><path d="M239.83 338.92l-18.07-102.31-10.78 102.22s-4.68-.17-7-1.19c-2.6-37.81 6.78-113.47 6.78-139.57 0-45.1 18.58-53.72 18.58-53.72l77.63 3.53c-.5 22.51 39.57 127.68 39.57 199-3.88.48-62.2 1.06-106.71-7.96z" class="W"/><path d="M251.26 73.32c4.57 0 25.18-1.27 31.15-1.27 12.41 0 15.13 5.8 21.21 23.69 4.61 13.55 12.24 52.34-.62 58.76-17.87 8.93-64.69 10-79.81-3.72-8.77-7.95 2.89-77.46 28.07-77.46z" class="S"/><path d="M260.09 56.49v16.55c.91 1.35 5.84 7.19 18.29-1V49.61a165.31 165.31 0 0 1-18.29 6.88z" class="Q"/><path d="M274.05 52.61s-.43 11.41-14 15v-6.08c1.21.13 5.67-3.62 14-8.92z" class="P"/><path d="M257.23 61.92c5.14 1.14 16.1-3.69 19.25-7.9a25.25 25.25 0 0 0 3.41-7.26c1.63-7.1 3-10.12-1.59-16.21-1.95-2.56-9.14-5.73-11.67-5.65-6.22.2-12.35 4-14 10.78-1.76 7.63-4.45 24.23 4.6 26.24z" class="Q"/><path d="M273.42 21.07c-9.91-2.27-14.39 1.29-18.3 5.26a13.88 13.88 0 0 0-3.7 6.85c-1.08 4.68.41 6.37.41 6.37l1.94-7.58c1.61-5.8 18.61-.61 17.92 2.38-.48 2.11 2.28 3.37 1.57 6.32s-4.52 13.85-2.52 14.34 3.44-11.53 4.68-12.4 4.67.94 6.47.41c4.96-7.76-1.05-20.23-8.47-21.95zm-16.86 26.06c-.47-.25-2.79-1.55-2.91-2.83a1.18 1.18 0 0 1 .47-1 8.44 8.44 0 0 0 2.74-5.73 3.58 3.58 0 0 0-3.51-1.68l-.1-1a4.52 4.52 0 0 1 4.56 2.35l.06.11v.12c0 .17-.13 4.23-3.11 6.61-.11.09-.11.14-.1.17.05.52 1.41 1.52 2.38 2z" class="P"/><path d="M274.42 44.61a4.92 4.92 0 0 0 9.589 2.209 4.92 4.92 0 0 0-7.403-5.276 4.92 4.92 0 0 0-2.186 3.067z" class="Q"/><path d="M278.96 49.21a2.19 2.19 0 0 1-1.18-.3 1.33 1.33 0 0 1-.59-.9 1.26 1.26 0 0 1 .81-1.42 1.13 1.13 0 0 0 .73-.93 3.19 3.19 0 0 0-.18-1.36c-.2-.67-.5-1.68 1-2.14 2-.61 3.44 2.38 3.6 2.72l-.91.42c-.31-.66-1.41-2.49-2.39-2.18-.53.16-.53.18-.32.89a4 4 0 0 1 .22 1.79 2.08 2.08 0 0 1-1.23 1.66c-.34.19-.34.2-.31.38a.29.29 0 0 0 .15.23 1.92 1.92 0 0 0 1.2.08l.22 1a3.26 3.26 0 0 1-.82.06zm-10.33-10.3c-2.56-2.43-4.23-2.81-5.19-2.71a2 2 0 0 0-1.37.71l-.84-.55a2.92 2.92 0 0 1 2.07-1.15c1.71-.21 3.72.8 6 3zm-5.82 11.37a28 28 0 0 1-8.23-.86 5.15 5.15 0 0 0-.93 1.65 5.03 5.03 0 0 0 3.185 6.355 5.03 5.03 0 0 0 6.355-3.185 4.94 4.94 0 0 0-.38-3.96z" class="P"/><path d="M261.96 51.54a5.64 5.64 0 0 0-7 4.52v.17a5.08 5.08 0 0 0 1.9 1.15 5 5 0 0 0 6.46-5.77 4.9 4.9 0 0 1-1.36-.07z" class="U"/><path d="M262.6 40.35a1.39 1.39 0 1 0 1.38-1.38 1.38 1.38 0 0 0-1.38 1.38zm-8.81-1.05a1.39 1.39 0 1 0 1.38-1.39 1.38 1.38 0 0 0-1.38 1.39z" class="P"/><path d="M266.49 121.73c-7.5-7.34-5.35-17.91-5.33-18l1 .21c0 .1-2.05 10.14 5.05 17.08z" class="T"/><path d="M209.42 49.61l-14.45-1.46a3 3 0 0 1-3-2.67l-5-33.95a3.88 3.88 0 0 1 3.62-3.92h15.91a3 3 0 0 1 3 2.68l3.68 35.17a3.89 3.89 0 0 1-3.76 4.15z" class="S"/><path d="M209.42 49.61h-15.73a3 3 0 0 1-3-2.68l-3.63-35.19a2.36 2.36 0 0 1 2.23-2.67h15.91a3 3 0 0 1 3 2.67l3.68 35.17a2.37 2.37 0 0 1-2.46 2.7z" class="P"/><path d="M192.25 12.79a1.16 1.16 0 0 1-2.32-.033 1.16 1.16 0 0 1 1.991-.796 1.16 1.16 0 0 1 .329.83z" class="R"/><path d="M191.97 15.61a.63.63 0 0 1-.63.63.63.63 0 0 1-.611-.963.63.63 0 0 1 .611-.287.63.63 0 0 1 .63.62z" class="W"/><g class="Q"><path d="M196.31 61.24s4.87-8.66-.44-12.28c-5.7-3.89-9.16-17.41-9.16-17.41s-6.12 4-3.44 15.72S185.15 65 185.15 65z"/><path d="M186.71 31.55s10.51-8.94 15.93-8.82c1.18 0 2.37.78 1.62 1.69-3 3.54-13.93 9.08-13.93 9.08s10.8-3.83 11.59-2.62c.45.69 1.26 4.53 1.87 7.69.44 2.27-1.33 3.74-3.43 4.68-2.55 1.14-4.35 2.22-4.72 2.84-.71 1.24.53 3.73.53 3.73l-9.07-8.8z"/></g><path d="M203.5 37.87l-10.43 4.3s6.35-3.72 10.43-4.3zm-.59-3.74l-12.57 3.81s8.47-3.63 12.57-3.81z" class="P"/><path d="M185.36 62.06l11.28-1.53c-1.65 10 18.75 46.61 10.26 65.13-5.47 11.94-27.68 13-28.88-9.17-.41-7.64 7.34-54.43 7.34-54.43z" class="Q"/><path d="M264.8 90.4a5.58 5.58 0 0 1-4.41-2c-3.79-4.46-2.17-14.89-2.1-15.33l1 .16c0 .1-1.61 10.42 1.89 14.52a4.5 4.5 0 0 0 3.64 1.63c8.27 0 15.13-17.43 15.19-17.61l.94.36c-.31.77-7.21 18.27-16.15 18.27z" class="W"/><path d="M278.33 252.61c-11-4.22-33-30.51-34-31.62l.77-.64c.23.27 22.76 27.2 33.54 31.32zm-8.38-23.47c-5.56-1.49-16.6-10.74-17.07-11.13l.65-.77c.11.1 11.33 9.5 16.68 10.93z" fill="#eedfd0"/><path d="M256.25 152.42a49.45 49.45 0 0 1-8.19-.6l.19-1c.3.05 30.54 5.47 47.35-17.94l.81.59c-11.7 16.32-29.74 18.95-40.16 18.95zm-44.49 55.63h-1c0-29.74 16.59-55.26 16.76-55.52l.83.55c-.16.26-16.59 25.53-16.59 54.97z"/><path d="M240.88 399.05s-3.17 16.12-3.17 20.41H231l-1.86-17.24z" class="V"/><g class="P"><path d="M238.21 419.96h-7.66l-1.95-18.12 12.93-3.49-.16.79c0 .16-3.16 16.13-3.16 20.32zm-6.76-1h5.78c.17-4.3 2.39-16 3-19.22l-10.55 2.87z"/><path d="M230.66 417.28l-1.52-15.06 11.74-3.17-10.22 18.23z"/></g><path d="M206.04 397.14c6.83-5 9-15.55 7.83-21.76 5.52-2.67 8.84 3.73 8.84 3.73 6.13-7.25 19-3.68 19-3.68-4.42 1.51 7.07 20.19-3.15 26.64-11.05 7-13.18 16.88-23.44 16.88s-22.7-1.46-22.7-1.46c0-7.95 4.36-13.58 13.62-20.35z" class="V"/><g class="P"><path d="M215.09 419.45c-10.18 0-22.63-1.45-22.76-1.47l-.44-.05v-.44a18.24 18.24 0 0 1 2-8.55l.89.46a17.13 17.13 0 0 0-1.9 7.64c2.31.26 13.16 1.41 22.19 1.41 5.9 0 9-3.4 12.94-7.7a49 49 0 0 1 10.23-9.1 8.06 8.06 0 0 0 3.17-3.62l.91.41a9.14 9.14 0 0 1-3.54 4.05 48 48 0 0 0-10 8.94c-3.95 4.3-7.36 8.02-13.69 8.02zm23.1-36a1.84 1.84 0 1 1 1.83-1.84 1.84 1.84 0 0 1-1.83 1.84zm0-2.68a.84.84 0 1 0 .83.84.84.84 0 0 0-.83-.84z"/><path d="M200.42 411.95l-.95-.29c0-.18 1.4-4.5 6.59-8.29 4-3 14.81-10.81 15.94-23.41l1 .09c-1.18 13.05-12.2 21.1-16.35 24.13a17.09 17.09 0 0 0-6.23 7.77zm12.89 3.18c-6.9 0-19.51-2-20.12-2.1l.15-1c.18 0 17.22 2.73 22.52 1.95s9.41-2.35 12.46-4.77l.62.79c-3.19 2.52-7.42 4.15-12.93 5a18.89 18.89 0 0 1-2.7.13z"/></g><path d="M210.77 91.2a26.62 26.62 0 0 1-6.12-.63l.23-1c7.88 1.89 20.57-1.38 20.69-1.41l.26 1a67.81 67.81 0 0 1-15.06 2.04z" class="T"/><g class="Q"><path d="M277.9 161.24s-7.43.85-11.09 6.64c-3.94 6.22-7.1 19.13-7.1 19.13s6.87 2.52 14.66-6.63 11.2-9.4 11.2-9.4z"/><path d="M275.29 170.61c-5.66 1.89-5.24-2.15-7.72-3.37s-6.33-2.93-6.92-4.79 1.17-1.12 2.39-.9a49.14 49.14 0 0 0 5.7.56c1.55 0 6.9-2.21 9.12-.88s3.1 7.53-2.57 9.38zm-15.58 16.4s-5.75-2.61-7.28-4.84c-1.09-1.59 1.42-10.32 3.59-12.7 1.55-1.7 4.27-2.6 4.92-.39s2.31 1.82 3 1.74c1.41-.16 2.67-2.65 2.67-2.65s1.77 9.95.43 12.88c-.95 2.15-7.33 5.96-7.33 5.96z"/></g><path d="M255.06 171.45l7.66 5s-5.45-2.35-7.66-5zm-2.98 6.67l7.11 5.75s-5.18-2.89-7.11-5.75zm1.11-3.82l8.27 6.89s-6.33-3.97-8.27-6.89z" class="P"/><path d="M282.47 172.03l-5.14-10.66c15.42-3.53 32.15-29.18 37.91-32.64 16.43-9.88 29.5 19 20.7 23.61-7.95 4.16-53.47 19.69-53.47 19.69z" class="Q"/><path d="M217.603 216.532l.985-.175 21.748 122.464-.985.175z"/><path d="M31.84 418.78h414.64v1H31.84z" class="P"/><path d="M173.82 86.71H56.94a19.87 19.87 0 0 0-19.84 19.9v261c.012 10.495 8.184 19.171 18.66 19.81h65.86 0 52.2c10.957-.006 19.839-8.883 19.85-19.84V106.61a19.87 19.87 0 0 0-19.85-19.9z" class="S"/><path d="M173.82 387.86h-52.7 0-65.36c-10.752-.64-19.147-9.539-19.16-20.31V106.61a20.37 20.37 0 0 1 20.34-20.4h116.88a20.37 20.37 0 0 1 20.35 20.4v261c-.066 11.195-9.154 20.239-20.35 20.25zm-51.7-1h51.7c10.681-.006 19.339-8.659 19.35-19.34V106.61a19.37 19.37 0 0 0-19.35-19.4H56.94a19.37 19.37 0 0 0-19.34 19.4v261c.013 10.23 7.979 18.687 18.19 19.31h66.33z" class="P"/><rect x="41.51" y="91.12" width="147.75" height="291.83" rx="15.44" class="T"/><path d="M133.79 93.7H97.42a1.47 1.47 0 0 0 0 2.91h36.39a1.47 1.47 0 0 0 0-2.94z" class="P"/><rect x="26.15" y="146.14" width="136.93" height="193.36" rx="10.85" transform="matrix(-1 0 0 -1 209.66 493.25)" fill="#6987d0"/><g class="P"><path d="M54.914 109.677l4.879-4.879.707.707-4.879 4.879z"/><path d="M54.921 105.503l.707-.707 4.879 4.879-.707.707z"/></g><path d="M67.47 147.01h1.05c6.252 0 11.32-5.068 11.32-11.32h0a11.32 11.32 0 0 0-11.32-11.32h-1.05a11.32 11.32 0 0 0-11.32 11.32h0c0 6.252 5.068 11.32 11.32 11.32z" class="R"/><g class="P"><path d="M68.52 147.51h-1.05c-6.528 0-11.82-5.292-11.82-11.82s5.292-11.82 11.82-11.82h1.05c6.528 0 11.82 5.292 11.82 11.82s-5.292 11.82-11.82 11.82zm-1.05-22.64c-5.976 0-10.82 4.844-10.82 10.82s4.844 10.82 10.82 10.82h1.05c5.976 0 10.82-4.844 10.82-10.82s-4.844-10.82-10.82-10.82z"/><path d="M67.33 138.24a6.61 6.61 0 0 0-5.91 6.65h0a1.34 1.34 0 0 0 1.35 1.34 48.94 48.94 0 0 0 5.35.77 42.72 42.72 0 0 0 4.86-.77 1.34 1.34 0 0 0 1.34-1.34v-.22a6.46 6.46 0 0 0-6.99-6.43zm4.24-4.19a3.66 3.66 0 0 0-7.32 0 3.66 3.66 0 1 0 7.32 0zm67.98 1.54H83.9v-3.3h55.65zm-27.26 4.87H83.9v-3.29h28.39zm55.29-31.77h7.82v1h-7.82z"/></g><use xlink:href="#C" fill="#b6c172"/><use xlink:href="#C" x="29.48" class="U"/><g clip-path="url(#B)"><path d="M84.91 245.31c-7.94-.72-22 7-29.16 22.95-7.27 16.12-45.77 117.15-47.74 129.85 0 0 25.8 22.55 60.54 16l40.76-127.22c6.44-25.21-1.61-39.52-24.4-41.58z" class="R"/><path d="M10.58 390.81l-1.2-.94.64-.76 1.16.9zm48.05 15.38c-1.06 0-2.11 0-3.14-.06v-1l3.1.06zm4.18-.1v-1l3.09-.2.09 1-3.18.2zm-11.49-.23l-3.12-.34.12-1 3.09.34zm-7.26-1l-3.07-.62.21-1 3 .6zm-7.14-1.62l-3-.88.3-.95 3 .87zm-7-2.22L27 399.88l.38-.92 2.89 1.12zm-6.75-2.82l-2.82-1.38.46-.89 2.78 1.37zm-6.49-3.4L14 393.17l.54-.85 2.65 1.62zm53.43 10.62l-.14-1 1.45-.21.15 1z"/><path d="M121.08 250.37c5.79-5.29 22.44-7 39.55 2.31s118.12 71.08 128.49 80.42c0 0-3.42 34.1-34.24 49.66l-123-82.51c-23.46-17.57-27.46-34.64-10.8-49.88z" class="R"/><path d="M110.01 216.93a5.55 5.55 0 0 1-4.41 6.61 5.78 5.78 0 0 1-7-4 5.56 5.56 0 0 1 4.42-6.59 5.77 5.77 0 0 1 6.99 3.98z" class="Q"/><path d="M104.08 222.34a3.59 3.59 0 0 1-1.82-.61l.55-.84s1.35.85 1.78.2c.13-.19.13-.2-.18-.55a2.21 2.21 0 0 1-.59-2.2 5.48 5.48 0 0 1 .7-1.53c.44-.72.51-.83-.17-1.35-1.16-.88-3.15 1.27-3.17 1.29l-.74-.67c.1-.12 2.6-2.86 4.51-1.41 1.4 1.05.88 1.9.43 2.66a4.55 4.55 0 0 0-.6 1.27 1.22 1.22 0 0 0 .39 1.28 1.3 1.3 0 0 1 .25 1.73 1.51 1.51 0 0 1-1.34.73z" class="P"/><path d="M132.62 216.93a5.44 5.44 0 0 0 4.28 6.61 5.9 5.9 0 0 0 7.07-4 5.44 5.44 0 0 0-4.28-6.59 5.91 5.91 0 0 0-7.07 3.98z" class="Q"/><path d="M138.42 222.34a1.51 1.51 0 0 1-1.33-.7 1.31 1.31 0 0 1 .28-1.76 1.22 1.22 0 0 0 .41-1.29 4.27 4.27 0 0 0-.56-1.27c-.44-.75-.94-1.6.47-2.65 1.93-1.45 4.39 1.29 4.49 1.41l-.75.66s-2-2.15-3.14-1.27c-.7.51-.63.62-.21 1.34a5.71 5.71 0 0 1 .68 1.54 2.2 2.2 0 0 1-.64 2.19c-.32.36-.31.37-.19.56.41.63 1.77-.2 1.78-.21l.54.84a3.59 3.59 0 0 1-1.83.61z" class="P"/><path d="M143.77 245.91h-54c-11.15 0-22.36 9.45-24.51 43.76-1.58 25.23-16.52 76.27-.57 85.22 0 0 55.39 18.6 110.47.48 13.78-4.53 2.48-56-5.53-96.25-4.21-21.12-15.3-33.21-25.86-33.21z" class="R"/><path d="M120.56 253.18l6.52 8.68s8-8.32 8.07-16.11l-1.92-2.53h-24.57l-1.8 2.59s1 12.37 4.78 16.05z" class="T"/><path d="M132.05 228.68l-.11 17.57c-1.4 2-11.43 5.43-11.43 5.43s-7.61-2-10.5-5.49l.34-25.19a203.45 203.45 0 0 0 21.7 7.68z" class="Q"/><path d="M127.74 239.51c1.37-1.26 2.79-6.19 4.29-6.65v-4.18a203.45 203.45 0 0 1-21.7-7.68l-.19 14.23c1 .77 2.71 5.06 4.83 6.54 3.6 2.49 8.36 1.77 12.77-2.26z" class="P"/><path d="M136.7 214.21c1.3-8.26-.93-12.5-9.57-15.23-9.23-2.92-17.45.81-20.72 9.46a19.48 19.48 0 0 0-.59 9.87h0l.77 9.87a7.6 7.6 0 0 0 2.92 4.16l6.87 5a6.16 6.16 0 0 0 3.59 1.14h2.45a6.24 6.24 0 0 0 3.68-1.19l6.71-4.95a7.88 7.88 0 0 0 2.91-4.09c0 0 .6-11.59.98-14.04z" class="Q"/><path d="M111.7 202.94c12.14 2.3 20.86-.07 21.81 0s1.44 5.46 1.64 7.9a8.69 8.69 0 0 0 1.51 4.18s-.75 5.15.4 4.63a6.79 6.79 0 0 0 3.16-4.3c.65-2.23.92-12.09-.58-15.18s-10.54-8.29-12.08-10.8-4.2-4.39-4.56-3a8.14 8.14 0 0 0-.17 2.73c0 0-2.15-2-3.9-.05s-10.81 4.75-13 7.49-2.8 9.83-2.78 12.22.76 4.69 1.22 8.25 2 1.68 2.43.41a30.63 30.63 0 0 0-.2-4c0 0 2.75-6.73 3-8 .4-2.02.01-2.88 2.1-2.48z"/><g class="P"><path d="M162.8 377.85l-2.44-1.75c8.82-12.29 4.29-37.32-.09-61.52-1.82-10.06-3.7-20.45-4.63-29.93-3-30.54-14-38.91-14.15-39l1.75-2.44c.49.35 12.24 9 15.39 41.14.92 9.35 2.79 19.69 4.59 29.69 4.7 25.96 9.13 50.48-.42 63.81zm-85.27 3.08c-8.7-13.67-4-38.82.91-65.44 1.91-10.26 3.87-20.88 4.98-30.48 3.6-32.88 14.8-41.76 15.27-42.12l1.73 2.39-.91-1.2.92 1.19c-.11.08-10.68 8.69-14.12 40.06-1.07 9.72-3 20.39-5 30.71-4.62 24.88-9.39 50.61-1.32 63.28z"/></g><path d="M113.97 378.52c-3-13.87-3.47-48.16-.83-64.38 2.58-15.82 3.12-55.18 3.12-55.58h1c0 .4-.54 39.83-3.13 55.73s-2.13 50.5.82 64zm9.34-78.22h-1c.52-23.18-.52-41.49-.53-41.67l1-.06c.01.15 1.05 18.5.53 41.73z"/><g class="P"><path d="M121.18 221.8l-.24-1c1.49-.38 3.2-1.12 3.38-1.67 0 0 0-.09-.08-.23-2.78-3.32-1.81-7.72-1.76-7.9l1 .22s-.9 4.11 1.56 7a1.2 1.2 0 0 1 .26 1.18c-.46 1.41-3.51 2.21-4.12 2.4zm-8.85-9.65l-.52-.85c4.53-2.83 7.76-.32 7.89-.21l-.62.78c-.12-.09-2.83-2.16-6.75.28zm16.92 13.19s-6.06-3.16-14.71-.08c0 0 5.88 11.16 14.71.08z"/></g><path d="M116.55 227.9c2.14 2.13 5.89 4.1 10.68-.37-7.39-.92-10.18.33-10.68.37z" class="U"/><path d="M128.26 226.49l1-1.15s-6.06-3.16-14.71-.08a9.79 9.79 0 0 0 .54.87c.99-.23 8.71-1.17 13.17.36z" class="R"/><g class="P"><path d="M117.24 214.27a1.42 1.42 0 0 0 .07-.22 1.45 1.45 0 0 0-1.25-1.67 1.56 1.56 0 0 0-1.8 1.18 1.32 1.32 0 0 0 .16.94 11.16 11.16 0 0 1 2.82-.23zm14.93-1.93c-.1-.1-2.46-2.53-6.7-.66l-.4-.91c4.92-2.18 7.72.76 7.83.89l-.73.68.37-.34zm-2.19 2.12a.75.75 0 0 0 .1-.2 1.41 1.41 0 0 0-1-1.83 1.58 1.58 0 0 0-2 .92 1.35 1.35 0 0 0 0 .95 11.07 11.07 0 0 1 2.9.16z"/></g><path d="M178.6 321.28h-1c.24-14.77-8.25-46.09-8.33-46.41l1-.26c.05.3 8.57 31.75 8.33 46.67z"/></g><g class="R"><rect x="55.4" y="161.22" width="11.52" height="9.96" rx=".83"/><path d="M72.2 169.35l-4.29-1.31a.89.89 0 0 1-.62-.84v-2a.87.87 0 0 1 .61-.84l4.31-1.32a.87.87 0 0 1 1.13.84v4.63a.88.88 0 0 1-1.14.84z"/></g></svg>