<?xml version="1.0" encoding="UTF-8"?>
<svg enable-background="new 0 0 2611 1400.1" version="1.1" viewBox="0 0 2611 1400.1" xml:space="preserve" xmlns="http://www.w3.org/2000/svg" xmlns:xlink="http://www.w3.org/1999/xlink">
<style type="text/css">
	.st0{clip-path:url(#SVGID_00000026128228284047178870000016265673954941458343_);}
	.st1{fill:url(#SVGID_00000057859410928314555390000012838912623112610969_);}
	.st2{opacity:0.75;}
	.st3{fill:url(#SVGID_00000113323368940014226500000010939747921401169837_);}
	.st4{fill:#8C30CD;}
	.st5{fill:url(#SVGID_00000105410520818827339830000001945805052580969908_);}
	.st6{fill:url(#SVGID_00000110461016533339378290000007489462410211337654_);}
	.st7{fill:url(#SVGID_00000148628913825394824160000000432654824650013603_);}
	.st8{fill:url(#SVGID_00000067953111664228735960000018208894915992481672_);}
	.st9{fill:url(#SVGID_00000162324450261584627830000009110807392181412243_);}
	.st10{fill:#F9C0F6;}
	.st11{fill:#EC96E4;}
	.st12{fill:url(#SVGID_00000101100873467639085960000004882483370001086364_);}
	.st13{fill:url(#SVGID_00000160888504119625204880000010389763720568207520_);}
	.st14{fill:url(#SVGID_00000069382560948346475360000010520501263112210592_);}
	.st15{fill:url(#SVGID_00000056407652103601107550000014712168511026806954_);}
	.st16{fill:url(#SVGID_00000006703825023623648970000004414901167746452117_);}
	.st17{fill:url(#SVGID_00000088853387443432550810000002264428717244102587_);}
	.st18{fill:#250A3C;}
	.st19{fill:url(#SVGID_00000176747876037489860600000017678587523710453638_);}
	.st20{fill:url(#SVGID_00000080185564717872122380000006275307910796828815_);}
	.st21{fill:#2F1147;}
	.st22{fill:url(#SVGID_00000162332246276102088860000011999865685476298116_);}
	.st23{fill:url(#SVGID_00000101104386164089539470000011678566873992208787_);}
	.st24{fill:url(#SVGID_00000078038857363053246880000017326005070377206177_);}
	.st25{fill:url(#SVGID_00000141448273494235523890000003430406961967228039_);}
	.st26{fill:url(#SVGID_00000025429307467465930990000003488309915169930387_);}
	.st27{fill:#7F328A;}
	.st28{fill:#5D2B8B;}
	.st29{fill:url(#SVGID_00000084522381899931147200000013141939029222909840_);}
	.st30{fill:url(#SVGID_00000091694041862188854300000002739521820664464040_);}
	.st31{fill:url(#SVGID_00000028289809441696646570000007093747406224995482_);}
	.st32{fill:#5A2A86;}
	.st33{fill:url(#SVGID_00000039830208485108768530000007341620406796695207_);}
	.st34{fill:#19073D;}
	.st35{fill:url(#SVGID_00000008108023400545330600000005895178219938495923_);}
	.st36{fill:url(#SVGID_00000033331732244734291810000003558293677909044881_);}
	.st37{fill:url(#SVGID_00000119798380426839441940000013811237582932626871_);}
	.st38{fill:url(#SVGID_00000114772607155774491680000004450220141714544045_);}
	.st39{fill:url(#SVGID_00000127040240537875336030000014665980784369145518_);}
	.st40{fill:url(#SVGID_00000127022209364872147400000006019993721811123641_);}
	.st41{fill:url(#SVGID_00000035505439706225393290000016389191365792495806_);}
	.st42{fill:url(#SVGID_00000095328218841602605660000015960595714256305301_);}
	.st43{fill:#8665CA;}
	.st44{fill:#140D24;}
	.st45{fill:url(#SVGID_00000036233949938297620500000003211350994257039787_);}
	.st46{fill:url(#SVGID_00000181055899797278247350000011554399197694176684_);}
	.st47{fill:url(#SVGID_00000141427111067702814530000008783324291948368256_);}
	.st48{fill:#FFFFFF;}
	.st49{fill:#0C0318;}
</style>

	
		
			
				<defs>
					<rect id="b" x="1483" y="-2" width="1128.5" height="1404.8"/>
				</defs>
				<clipPath id="h">
					<use xlink:href="#b"/>
				</clipPath>
				<g clip-path="url(#h)">
					
						
							<linearGradient id="s" x1="2930.3" x2="2931.5" y1="1174.8" y2="1174.8" gradientTransform="matrix(0 355.04 355.04 0 -414665 -1.04e6)" gradientUnits="userSpaceOnUse">
							<stop stop-color="#392464" offset="0"/>
							<stop stop-color="#5E2489" offset=".43"/>
							<stop stop-color="#B325DC" offset="1"/>
						</linearGradient>
						<path d="m2216.9 1423.5 12.9-135.3s2.9-37.9 48.5-67.7 50.5-41.3 35.9-65-103.4-173.1-103.4-173.1-29.1-44.8-70.7-40.7c-40.4 4.8-111.3 13.8-128.8-14.6s0.8-62.2-3.1-69.2-20.7-25-15.2-37.3c5.6-12.3 7.6-17.1 7.6-17.1s-13-9.4-10.6-18.7c2.4-9.4 21.3-34.2 21.3-34.2l-27.2-23.7s-18.8-18.8 5.9-46.2c24.7-27.3 75-72.8 75-72.8s0.5-57.7 2.4-71.5 9.6-28.1 9.6-28.1-34.8-28.6-31.4-57.8c0 0-11.7 23.9 5.6 47.5 0 0-60.8-79.4 5.3-125.8 0 0-34.3 15.7-37.2 43.8 0 0-20.6-110 265.6-121.4 286.2-11.3 431.4 191.5 437.9 392.7s0.7 260.8-105.5 293.5l14.5-34s-16.9 35.7-55.1 46.6c2.6-23.3 0-23.3 0-23.3s-14.8 25.3-35 28.7c18.7 26.6 85.5 93.1 141.1 138.9 54.8 45.2 153.2 124.3 200.8 285.7l-666.7 0.1z" fill="url(#s)"/>
						<g class="st2">
							
								<linearGradient id="y" x1="2873.2" x2="2874.3" y1="1174.3" y2="1174.3" gradientTransform="matrix(32.07 23.57 23.57 -32.07 -117587 -29682)" gradientUnits="userSpaceOnUse">
								<stop stop-color="#B133DA" offset="0"/>
								<stop stop-color="#FB7FD2" offset="1"/>
							</linearGradient>
							
								<ellipse cx="2255.1" cy="395.2" rx="25.9" ry="25.8" fill="url(#y)"/>
							<path class="st4" d="m2280.9 393.1 0.1 1-19.5 26.1c-2.1 0.5-4.3 0.8-6.5 0.8l25.9-27.9zm-34.6 26.4c-1.4-0.5-2.7-1.1-4-1.9l27.8-29.9-23.8 31.8zm26.7-43c1.1 1 2 2.1 2.9 3.3l-30.9 26.7 28-30zm-11-6.2c3.2 0.9 6.3 2.4 8.9 4.4l-35.1 37.6c-2.2-2.5-4-5.4-5.1-8.6l31.3-33.4zm-9.9-0.7c1.6-0.2 3.3-0.2 5-0.1l-25.4 22 20.4-21.9z"/>
						</g>
						
							<linearGradient id="ab" x1="2886.7" x2="2887.8" y1="1157.3" y2="1157.3" gradientTransform="matrix(24.88 37.82 37.82 -24.88 -113179 -79728)" gradientUnits="userSpaceOnUse">
							<stop stop-color="#EC96E4" offset="0"/>
							<stop stop-color="#EC96E4" stop-opacity="0" offset="1"/>
						</linearGradient>
						<path d="m2243.1 810 375.9-258.2s-87.8 53.9-108 62.3-55 11.2-61.2 35.3c-6.1 24.1-63.4-2.8-75.4 30.4s-33.8 24-37.8 42.9-48.7 22.9-54.4 44.6-39.1 42.7-39.1 42.7z" fill="url(#ab)"/>
						
							<linearGradient id="ae" x1="2886.3" x2="2887.4" y1="1157.1" y2="1157.1" gradientTransform="matrix(24.88 37.82 37.82 -24.88 -113288 -79783)" gradientUnits="userSpaceOnUse">
							<stop stop-color="#EC96E4" offset="0"/>
							<stop stop-color="#EC96E4" stop-opacity="0" offset="1"/>
						</linearGradient>
						<path d="m2118 746.2 376-258.3s-87.8 53.9-108 62.3c-20.3 8.4-55 11.2-61.2 35.2-6.1 24.1-63.4-2.8-75.4 30.4s-33.9 24-37.9 42.9-48.7 22.9-54.4 44.6-39.1 42.9-39.1 42.9z" fill="url(#ae)"/>
						
							<linearGradient id="z" x1="2885.7" x2="2886.8" y1="1156.8" y2="1156.8" gradientTransform="matrix(24.88 37.82 37.82 -24.88 -113463 -79888)" gradientUnits="userSpaceOnUse">
							<stop stop-color="#EC96E4" offset="0"/>
							<stop stop-color="#EC96E4" stop-opacity="0" offset="1"/>
						</linearGradient>
						<path d="m1916.6 626.1 375.9-258.2s-87.8 53.9-108 62.3-55 11.2-61.2 35.3c-6.1 24.1-63.4-2.8-75.4 30.4s-33.8 24-37.8 42.9-48.7 22.9-54.4 44.6c-5.8 21.5-39.1 42.7-39.1 42.7z" fill="url(#z)"/>
						
							<linearGradient id="af" x1="2881.4" x2="2882.6" y1="1155.2" y2="1155.2" gradientTransform="matrix(24.88 37.82 37.82 -24.88 -112927 -79948)" gradientUnits="userSpaceOnUse">
							<stop stop-color="#EC96E4" offset="0"/>
							<stop stop-color="#EC96E4" stop-opacity="0" offset="1"/>
						</linearGradient>
						<path d="m2285 446 375.9-258.2s-87.7 53.9-108 62.3-55 11.2-61.2 35.3c-6.1 24.1-63.4-2.8-75.4 30.4s-33.8 24.1-37.8 42.9-48.7 22.9-54.4 44.6c-5.8 21.5-39.1 42.7-39.1 42.7z" fill="url(#af)"/>
						
							<linearGradient id="c" x1="2888.1" x2="2889.2" y1="1158.1" y2="1158.1" gradientTransform="matrix(24.88 37.82 37.82 -24.88 -113493 -79454)" gradientUnits="userSpaceOnUse">
							<stop stop-color="#EC96E4" offset="0"/>
							<stop stop-color="#EC96E4" stop-opacity="0" offset="1"/>
						</linearGradient>
						<path d="m1991.8 1119.9 375.9-258.2s-87.7 53.9-108 62.3-55 11.2-61.2 35.3c-6.1 24.1-63.4-2.8-75.4 30.4s-33.8 24-37.8 42.9-48.7 22.9-54.4 44.6c-5.8 21.5-39.1 42.7-39.1 42.7z" fill="url(#c)"/>
						<path class="st10" d="m1615.8 949.8 2.2 18.4c0.2 2.1 1.9 3.7 4 4l18.4 2.2-18.4 2.1c-1 0.1-1.9 0.6-2.6 1.3s-1.2 1.6-1.3 2.6l-2.2 18.4-2.2-18.4c-0.1-1-0.6-1.9-1.3-2.6s-1.6-1.2-2.6-1.3l-18.4-2.2 18.4-2.2c1-0.1 1.9-0.6 2.6-1.3s1.2-1.6 1.3-2.6l2.1-18.4z"/>
						<path class="st10" d="m1625.7 964.4-6.6 8.3c-0.4 0.5-0.6 1-0.6 1.6s0.2 1.1 0.5 1.6l6.6 8.3-8.3-6.6c-0.5-0.4-1-0.6-1.6-0.6s-1.1 0.2-1.6 0.6l-8.3 6.6 6.6-8.3c0.4-0.5 0.5-1 0.5-1.6s-0.2-1.1-0.5-1.6l-6.6-8.3 8.3 6.5c0.9 0.7 2.3 0.7 3.2 0l8.4-6.5z"/>
						<path class="st10" d="m1934.3 302.1 2.2 18.4c0.2 2.1 1.9 3.7 4 4l18.4 2.2-18.4 2.1c-2.1 0.2-3.7 1.9-4 4l-2.2 18.4-2.2-18.5c-0.2-2.1-1.9-3.7-4-4l-18.4-2.1 18.4-2.2c2.1-0.2 3.7-1.9 4-4l2.2-18.3z"/>
						<path class="st10" d="m2000.4 399.1-6.6 8.3c-0.4 0.4-0.6 1-0.6 1.6s0.2 1.1 0.6 1.6l6.6 8.3-8.3-6.5c-0.5-0.4-1-0.6-1.6-0.6s-1.1 0.2-1.6 0.6l-8.3 6.5 6.6-8.3c0.4-0.5 0.5-1 0.5-1.6s-0.2-1.1-0.5-1.6l-6.6-8.3 8.3 6.6c0.9 0.7 2.2 0.7 3.2 0l8.3-6.6z"/>
						<path class="st10" d="m1891.5 706.8 2.2 18.4c0.1 1 0.6 1.9 1.3 2.6s1.6 1.2 2.6 1.3l18.4 2.2-18.4 2.1c-1 0.1-1.9 0.6-2.6 1.3s-1.2 1.6-1.3 2.6l-2.2 18.4-2.2-18.4c-0.1-1-0.6-1.9-1.3-2.6s-1.6-1.2-2.6-1.3l-18.4-2.1 18.4-2.2c2.1-0.2 3.7-1.9 4-4l2.1-18.3z"/>
						<path class="st10" d="m1901.4 721.4-6.6 8.3c-0.4 0.4-0.6 1-0.6 1.6s0.2 1.1 0.6 1.6l6.6 8.3-8.3-6.5c-0.4-0.4-1-0.6-1.6-0.6s-1.1 0.2-1.6 0.6l-8.3 6.5 6.6-8.3c0.7-0.9 0.7-2.2 0-3.2l-6.6-8.3 8.3 6.6c0.5 0.4 1 0.5 1.6 0.5s1.1-0.2 1.6-0.5l8.3-6.6z"/>
						<path class="st10" d="m2087.7 130.6 2.2 18.4c0.2 2.1 1.9 3.7 4 4l18.4 2.2-18.4 2.1c-2.1 0.2-3.7 1.9-4 4l-2.2 18.4-2.2-18.4c-0.2-2.1-1.9-3.7-4-4l-18.4-2.1 18.4-2.2c2.1-0.2 3.7-1.9 4-4l2.2-18.4z"/>
						<path class="st10" d="m2097.6 145.1-6.6 8.3c-0.7 0.9-0.7 2.2 0 3.2l6.6 8.3-8.3-6.6c-0.9-0.7-2.2-0.7-3.2 0l-8.3 6.5 6.6-8.3c0.7-0.9 0.7-2.2 0-3.2l-6.6-8.3 8.3 6.5c0.9 0.7 2.2 0.7 3.2 0l8.3-6.4z"/>
						<path class="st10" d="m2293.8 44.5 2.2 18.4c0.1 1 0.6 1.9 1.3 2.6s1.6 1.2 2.6 1.3l18.4 2.2-18.4 2.1c-1 0.1-1.9 0.6-2.6 1.3s-1.2 1.6-1.3 2.6l-2.2 18.4-2.2-18.4c-0.2-2.1-1.9-3.7-4-4l-18.4-2.1 18.4-2.2c2.1-0.2 3.7-1.9 4-4l2.2-18.2z"/>
						<path class="st10" d="m2303.7 59.1-6.6 8.3c-0.4 0.5-0.6 1-0.5 1.6 0 0.6 0.2 1.1 0.5 1.6l6.6 8.3-8.3-6.5c-0.9-0.7-2.2-0.7-3.2 0l-8.3 6.5 6.6-8.3c0.7-0.9 0.7-2.2 0-3.2l-6.6-8.3 8.3 6.6c0.5 0.4 1 0.5 1.6 0.5s1.1-0.2 1.6-0.5l8.3-6.6z"/>
						<path class="st10" d="m1687.7 862.5 2.2 18.4c0.2 2.1 1.9 3.7 4 4l18.4 2.1-18.4 2.2c-1 0.1-1.9 0.6-2.6 1.3s-1.2 1.6-1.3 2.6l-2.2 18.4-2.2-18.4c-0.1-1-0.6-1.9-1.3-2.6s-1.6-1.2-2.6-1.3l-18.4-2.2 18.4-2.2c1-0.1 1.9-0.6 2.6-1.3s1.2-1.6 1.3-2.6l2.1-18.4z"/>
						<path class="st10" d="m1697.6 877-6.6 8.3c-0.7 0.9-0.7 2.2 0 3.2l6.6 8.3-8.3-6.6c-0.9-0.7-2.2-0.7-3.2 0l-8.3 6.6 6.6-8.3c0.7-0.9 0.7-2.2 0-3.2l-6.6-8.3 8.3 6.5c0.9 0.7 2.2 0.7 3.2 0l8.3-6.5z"/>
						<path class="st10" d="m1916.4 503.7 2.2 18.4c0.1 1 0.6 1.9 1.3 2.6s1.6 1.2 2.6 1.3l18.4 2.2-18.4 2.1c-1 0.1-1.9 0.6-2.6 1.3s-1.2 1.6-1.3 2.6l-2.2 18.4-2.2-18.4c-0.2-2.1-1.9-3.7-4-4l-18.4-2.1 18.4-2.2c1-0.1 1.9-0.6 2.6-1.3s1.2-1.6 1.3-2.6l2.3-18.3z"/>
						<path class="st10" d="m1926.3 518.3-6.6 8.3c-0.7 0.9-0.7 2.2 0 3.2l6.6 8.3-8.3-6.5c-0.9-0.7-2.2-0.7-3.2 0l-8.3 6.5 6.6-8.3c0.7-0.9 0.7-2.2 0-3.2l-6.6-8.3 8.3 6.6c0.9 0.7 2.2 0.7 3.2 0l8.3-6.6z"/>
						<path class="st11" d="m2124.1 1101.7 2.2 18.4c0.2 2.1 1.9 3.7 4 4l18.4 2.1-18.4 2.2c-2.1 0.2-3.7 1.9-4 4l-2.2 18.4-2.2-18.4c-0.1-1-0.6-1.9-1.3-2.6s-1.6-1.2-2.6-1.3l-18.4-2.2 18.4-2.1c1-0.1 1.9-0.6 2.6-1.3s1.2-1.6 1.3-2.6l2.2-18.6z"/>
						<path class="st11" d="m2134 1116.3-6.6 8.3c-0.4 0.5-0.6 1-0.6 1.6s0.2 1.1 0.5 1.6l6.6 8.3-8.3-6.6c-0.5-0.4-1-0.5-1.6-0.5s-1.1 0.2-1.6 0.6l-8.3 6.5 6.6-8.3c0.4-0.5 0.5-1 0.5-1.6s-0.2-1.1-0.5-1.6l-6.6-8.3 8.3 6.5c0.5 0.4 1 0.6 1.6 0.6s1.1-0.2 1.6-0.5l8.4-6.6z"/>
						
							<linearGradient id="n" x1="2931" x2="2932.2" y1="1169.3" y2="1169.3" gradientTransform="matrix(-57.81 203 203 57.81 -65731 -662068)" gradientUnits="userSpaceOnUse">
							<stop stop-color="#B133DA" offset="0"/>
							<stop stop-color="#FB7FD2" offset="1"/>
						</linearGradient>
						<path d="m2061.7 492.9c68.3-47.3 162.1-30.3 209.4 37.9s30.3 161.8-38 209.1-162.1 30.3-209.4-37.9c-8.1-11.7-14.5-24.4-19-37.8 25.8-26.1 59.6-56.7 59.6-56.7s0.5-57.7 2.4-71.5 9.6-28.1 9.6-28.1c-5.3-4.5-10.1-9.6-14.6-15z" fill="url(#n)"/>
						
							<linearGradient id="aa" x1="2930.9" x2="2932" y1="1167.7" y2="1167.7" gradientTransform="matrix(-50.77 185.01 178.28 52.69 -57197 -603249)" gradientUnits="userSpaceOnUse">
							<stop stop-color="#8925D0" offset="0"/>
							<stop stop-color="#FB7FD2" offset="1"/>
						</linearGradient>
						<path d="m2206.4 740.1-141.9-139.5c0.1-6.8 0.3-17.7 0.5-28.7l141.4 168.2zm-64.4-20.3-108.4-83.7c6.3-5.9 12.1-11.4 17-15.8l91.4 99.5zm-2.1-253.5c2.5-0.1 5.1-0.2 7.6-0.2 9.2 0 18.5 0.8 27.5 2.5l113.6 95.3c0.9 2.5 1.8 5 2.6 7.5l-151.3-105.1zm18.1 39.9-46.7-35.7c4.3-1.1 8.7-2 13.2-2.6l33.5 38.3z" fill="url(#aa)"/>
						
							<linearGradient id="i" x1="2918.6" x2="2919.7" y1="1165.7" y2="1165.7" gradientTransform="matrix(29.5 105.19 111.87 -27.74 -214325 -274018)" gradientUnits="userSpaceOnUse">
							<stop stop-color="#8925D0" offset="0"/>
							<stop stop-color="#FB7FD2" offset="1"/>
						</linearGradient>
						<path d="m2255.2 721.4c-3 3.1-6.2 6-9.4 8.8l-148.1-151.6 157.5 142.8z" fill="url(#i)"/>
						
							<linearGradient id="q" x1="2926.2" x2="2927.3" y1="1173.8" y2="1173.8" gradientTransform="matrix(78.08 226.44 226.44 -78.08 -492110 -570404)" gradientUnits="userSpaceOnUse">
							<stop stop-color="#8925D0" offset="0"/>
							<stop stop-color="#FB7FD2" offset="1"/>
						</linearGradient>
						<path d="m2087 478.8c1.9-0.8 3.8-1.6 5.7-2.3 34.4 22.2 92.7 60.9 76.9 58.5-19.8-3 97.7 104.7 121.6 126.5-0.7 2.1-1.4 4.3-2.2 6.4l-0.3 0.7v0.1l-0.3 0.7v0.1l-0.3 0.7v0.1l-0.3 0.7v0.1l-0.3 0.7c-0.7 1.8-1.5 3.6-2.2 5.3v0.1l-0.3 0.7-0.1 0.1-0.3 0.6-0.1 0.1-0.3 0.6-0.1 0.1-0.3 0.6-0.1 0.1-0.3 0.6v0.1l-0.3 0.7c-0.6 1.2-1.2 2.5-1.9 3.7l-0.3 0.7-0.1 0.1-2.3 4.6-0.1 0.1c-0.7 1.2-1.3 2.3-2 3.5l-0.4 0.6-0.1 0.1-0.3 0.5-0.1 0.2-0.3 0.5-0.1 0.2-0.3 0.5-0.1 0.2-0.3 0.5-0.1 0.2-0.3 0.5-0.1 0.2-0.3 0.5-0.1 0.2-0.4 0.6-0.1 0.1c-0.6 0.9-1.2 1.8-1.8 2.6v0.1l-0.4 0.5-0.1 0.2-0.4 0.5-0.2 0.2-0.3 0.5-0.2 0.2-0.3 0.5-0.2 0.2-0.3 0.5-0.2 0.2-0.3 0.5-0.2 0.2-0.4 0.5-0.1 0.2-0.4 0.5-0.1 0.1-0.4 0.5-197.9-181.5c1.9-6.6 4.5-12.9 7.6-19-5.3-4.6-10.2-9.6-14.6-15l0.4-0.3 0.2-0.2 0.4-0.3 0.2-0.2 0.4-0.3 0.1-0.1 0.5-0.3 0.4-0.2 0.3-0.2 0.4-0.2 0.3-0.2 0.4-0.2 0.3-0.2 0.4-0.2 0.5-0.3 0.1-0.1 1.5-1 0.4-0.2 1.2-0.8 0.4-0.2 0.3-0.2 0.4-0.2 0.3-0.2 0.6-0.3 0.7-0.4 0.2-0.1 0.5-0.3 0.3-0.1 0.4-0.3 0.3-0.1 0.5-0.3 0.2-0.1 0.7-0.4 0.1-0.1 0.8-0.4 0.5-0.3 0.8-0.4 0.1-0.1 0.7-0.4 0.7-0.3 1-0.5 0.7-0.3 1.6-0.8h0.1l0.7-0.3h0.1c0.8-0.4 1.5-0.7 2.3-1.1l0.8-0.3v-0.2z" fill="url(#q)"/>
						
							<linearGradient id="o" x1="2930.9" x2="2932" y1="1234.7" y2="1234.7" gradientTransform="matrix(23.51 -36.34 -36.34 -23.51 -21606 136248)" gradientUnits="userSpaceOnUse">
							<stop stop-color="#ED50EC" offset="0"/>
							<stop stop-color="#2A0A3D" offset="1"/>
						</linearGradient>
						<path d="m2268.5 548.9 90.9 80.9 27.9 40.5 83.3 41.3 32 31s87.8 57.5 93.2 61.1 50.4 0.9 52.2-17.1-8.6-65.6-14-68.8c-5.4-3.1-45.1-35.5-45.1-35.5" fill="url(#o)"/>
						
							<linearGradient id="t" x1="2926.3" x2="2927.4" y1="1182.2" y2="1182.2" gradientTransform="matrix(298.89 82.06 82.06 -298.89 -969441 113807)" gradientUnits="userSpaceOnUse">
							<stop stop-color="#9832A2" offset="0"/>
							<stop stop-color="#270A45" offset="1"/>
						</linearGradient>
						<path d="m2619.7 767.8-108.1-44 47.4 9.1-106.3-61.2s41.3 15.7 43.5 9.9-159.5-76.8-159.5-76.8l18.6 0.8-101.3-63.7 451.1 168.4" fill="url(#t)"/>
						<path class="st18" d="M2651.8,735.1L2379.6,599l308,134.3"/>
						<path class="st18" d="m2651.8 735.1-267.3-116.4 303.1 114.7"/>
						
							<linearGradient id="g" x1="2903.3" x2="2904.5" y1="1281.3" y2="1281.3" gradientTransform="matrix(16.43 -15.64 -15.64 -16.43 -25335 67190)" gradientUnits="userSpaceOnUse">
							<stop stop-color="#ED50EC" offset="0"/>
							<stop stop-color="#2A0A3D" offset="1"/>
						</linearGradient>
						<path d="m2254.3 641.3 57.4 55c1.1 1 1.1 2.7 0.1 3.8-0.4 0.4-0.9 0.7-1.4 0.8-1.5 0.3-2.6 1.8-2.3 3.3 0.1 0.5 0.3 1 0.7 1.4l32.1 34.7c1.6 1.7 1.5 4.4-0.2 6-0.6 0.5-1.3 0.9-2 1-0.9 0.2-1.7 0.8-2.1 1.6-0.4 0.9-0.4 1.8 0.1 2.7l21.6 38.6s65.3-1.5 69.5-5 17.5 0.8 9.1-19c-8.4-19.7-22.8-39.1-33.8-49.3s-49-28.3-49-28.3" fill="url(#g)"/>
						
							<linearGradient id="r" x1="2920.5" x2="2921.6" y1="1181.8" y2="1181.8" gradientTransform="matrix(164.36 69.61 69.61 -164.36 -559956 -8340.2)" gradientUnits="userSpaceOnUse">
							<stop stop-color="#8332A2" offset="0"/>
							<stop stop-color="#321169" offset="1"/>
						</linearGradient>
						<path d="m2598 772.9-346.6-132.3 74.9 43.2c1.9 1.1 2.5 3.5 1.4 5.4-0.7 1.1-1.9 1.9-3.2 1.9-2 0.1-3.5 1.8-3.4 3.7 0.1 1.3 0.8 2.4 1.9 3l45.4 23.4c1.7 0.9 2.4 3 1.5 4.7-0.7 1.3-2.1 2-3.5 1.9-2.1-0.2-4.1 1.3-4.3 3.5-0.2 1.5 0.6 3 1.9 3.8l26.7 15.4c1.3 0.8 1.8 2.5 1 3.8-0.5 0.8-1.3 1.3-2.2 1.4-1.8 0.1-3.4 1.2-4.1 2.9-0.7 1.6-0.5 3.5 0.6 5 13.5 17.5 46.8 60.8 46.8 60.8l123.5 4.4" fill="url(#r)"/>
						<path class="st21" d="m2532.2 784.1-176-93.2 176 106.3-97.5-39.7 101.7 54.2-123.1-46.3s65.4 43.8 76.4 51.4 59.5 21 59.5 21l29.4-33.1"/>
						
							<linearGradient id="e" x1="2919" x2="2920.1" y1="1182.6" y2="1182.6" gradientTransform="matrix(148.69 57.97 57.97 -148.69 -500218 7315.3)" gradientUnits="userSpaceOnUse">
							<stop stop-color="#2F1147" offset="0"/>
							<stop stop-color="#2F1147" stop-opacity="0" offset="1"/>
						</linearGradient>
						<path d="m2567.1 765.8-203.6-77.9 198.5 92.4" fill="url(#e)"/>
						
							<linearGradient id="ai" x1="2941.2" x2="2942.3" y1="1187.9" y2="1187.9" gradientTransform="matrix(-61.94 -219.55 -219.55 61.94 445565 573017)" gradientUnits="userSpaceOnUse">
							<stop stop-color="#AE39DA" offset="0"/>
							<stop stop-color="#11052A" offset="1"/>
						</linearGradient>
						<path d="m2684.7 523.6 1.1 2.4 4.7 117.3 3.6-94.1 4.7 119.5 3.8-98.1c2.6 8.4 5 16.9 7.1 25.5l0.6 15.3 0.4-11c6.7 28.4 10.5 57.3 11.4 86.5 1 31.1 1.7 58.8 1.8 83.6l-0.8 0.3 0.7 18.5c-0.1 6.7-0.2 13.2-0.4 19.5l-18.9 7.9 0.6 13.9-18 7.5 0.3 6.4-9.7 4 0.5 12.9-16.6 6.9 0.7 16.6-22.3 9.4 0.9-22.1-18 7.5 0.4 11.2-20.7 8.7-16.4 19.8 0.3-9.1-3 3.5 0.4 9.3-22.3 27 0.4-12-18 21.7 0.9 20.7-22.3 27 0.7-17.7-16.6 20.1 0.5-13.7-9.7 11.7 0.3-6.8-18 21.7 0.6-14.9-20.1 24.2 1.5-39.9-11.6 14 11.2-299.4 5.8 140.7 4.3-114.8 3.2 79.2 4.7-126.9 6.8 165.5 4.7-127.2 3.6 88.2 5.3-140.8 5.4 131.2 3.5-93.5 4.8 118 4.3-116 3.2 78 3.6-96.6 5.1 124.7 4-108.6 3.4 83.8 4.8-129.8 6.8 165.4 6.2-166.9 4.2 102.9 5.2-140.5 4.9 118.9 3.4-91.3 3.7 89.1 4-108.1 3.4 83.5 3.7-96.3 0.7 18.2 0.7-19.5 3.2 78.8 3.6-93.5 1.1 27.2 0.4-10 3.3 81.5 3.8-98.4 4 101.6 3.7-95 3.4 85.7 4.9-126.8 5.2 131.9 4.2-109.8 6.2 156.8 6.8-176.4 4.8 121.8 3.4-89.4 4 102 5.1-133 3.6 90.7 3.2-83.2 4.3 109 4.8-125.9 3.5 87.8 5.4-127.1zm-203.5 445.5 0.3 8.6 0.4-9.4-0.7 0.8zm62.4-22.7 0.4 11 0.5-12.1-0.9 1.1zm96.9-88.3 0.9-0.4-0.4 11.7-0.5-11.3zm62.7-79 0.7-0.3-0.3 9.1-0.4-8.8z" fill="url(#ai)"/>
						
							<linearGradient id="x" x1="2933.8" x2="2935" y1="1199" y2="1199" gradientTransform="matrix(66.36 -103.38 -111.03 -61.78 -59444 378183)" gradientUnits="userSpaceOnUse">
							<stop stop-color="#AE39DA" offset="0"/>
							<stop stop-color="#11052A" offset="1"/>
						</linearGradient>
						<path d="m2061.5 610.2 5.4 139.2 6.2-159.4 4.2 108 5.2-134.1 4.9 124.7 3.4-87.2 3.6 93.5 4-103.3 3.8 96.8 3.3-82.9 0.4 9.8 1.1-27.6 3.6 92 3.2-80.2 0.7 19.2 0.7-18.5 3.7 94.7 3.4-84.9 4 106.5 3.7-90.6 3.4 89.9 4.9-120.8 5.2 138.3 4.2-104.7 6.2 164.3 6.8-168.2 4.8 127.8 3.4-85.3 4 106.9 5.1-126.9 3.6 95 3.2-79.3 4.3 114.2 4.9-120.1 3.5 92 5.4-133.5 5.3 138.6 3.6-89.7 4.7 125.2 6.8-168.4 4.7 125 3.2-80.6 4.3 113 5.8-143.2 11.2 294.7-11.5-9.1 1.5 39.3-20.1-15.8 0.6 14.6-18-14.2 0.3 6.7-9.7-7.6 0.5 13.5-16.6-13.1 0.3 7.9c-6.7-4.5-14.1-7.7-21.9-9.7l0.8-19.5-18-14.2 0.4 11.8-22.3-17.6 0.4-9.5-3-2.3 0.3 9-16.4-13h-20.7l0.4-11.4h-17.9l0.9 21.8h-22.3l0.7-16.8h-16.6l0.5-13.1h-9.7l0.2-6.5h-7.8c0.1-1.2 0-2.5-0.5-3.6-3.9-7-20.7-25-15.2-37.3 5.6-12.3 7.6-17.1 7.6-17.1s-13-9.4-10.6-18.7c2.4-9.4 21.3-34.2 21.3-34.2l-27.2-23.7s-18.8-18.8 5.9-46.2c4-4.4 8.7-9.4 13.7-14.5l1.2 30.8 1.3-33.3 6.6-6.6 0.4 11.1 0.5-11.9c3-3 6.1-6 9.2-9l1 24.2 1-26.1 4.8-4.6 2.5 65.2 2.7-70.2 3.1-2.9 1.7 44.2 1.9-47.5 0.9-0.8 2.5-2.3 3.5 89.4 3.8-96.1 0.4-0.3 0.2-0.2 3.2 80.9 3.4-87 2.9-2.8zm98 299.2-0.5 11.2-0.5-11.9 1 0.7zm62.4-3.5-0.3 8.7-0.4-9.3 0.7 0.6zm-159.3-44.2h-0.9l0.4 11.5 0.5-11.5zm-62.7-52.8h-0.7l0.4 9 0.3-9z" fill="url(#x)"/>
						
							<linearGradient id="w" x1="2945.3" x2="2946.4" y1="1201.2" y2="1201.2" gradientTransform="matrix(0 -101.77 -101.77 0 124620 300605)" gradientUnits="userSpaceOnUse">
							<stop stop-color="#472D7D" offset="0"/>
							<stop stop-color="#A044E1" offset="1"/>
						</linearGradient>
						<path d="m2218.4 798.5c62.1-15.9 177-34 310.3-0.6-50.5 36.2-98.8 75.5-144.5 117.7-52.7-42.5-108.1-81.6-165.8-117.1z" fill="url(#w)"/>
						
							<linearGradient id="u" x1="2949.7" x2="2950.8" y1="1207.6" y2="1207.6" gradientTransform="matrix(-1.41 -75.65 -75.65 1.41 97893 222328)" gradientUnits="userSpaceOnUse">
							<stop stop-color="#D24BD1" offset="0"/>
							<stop stop-color="#D24BD1" stop-opacity="0" offset="1"/>
						</linearGradient>
						<path d="m2218.4 798.5c62.1-15.9 177-34 310.3-0.6-50.5 36.2-98.8 75.5-144.5 117.7-52.7-42.5-108.1-81.6-165.8-117.1z" fill="url(#u)"/>
						<path class="st27" d="m2279.2 885s48.6-14.2 87.9-8.7c-18.6-5.5-20-13.6-20-13.6l-0.6 7.5-5-12.2-1.1 11-3.9-16.8-3.1 16.4-1.8-20.3v16.7l-6.3-19.6-2 20.2-3.1-13.5v15.7l-3.9-13-2.2 13.1-1.7-9-1.6 11.4-2.5-11.6-0.8 11.7-1-11.7-3.4 12-2.6-9.1-1.7 12.1-2.8-6.3-1.6 7.1-1.2-3.4-0.8 7-1.7-5.3c-0.2 2.8-1.6 5.3-3.9 6.9l-7.6 5.3z"/>
						<path class="st28" d="m2198.5 833.2s48.6-14.2 87.9-8.7c-18.6-5.5-20-13.6-20-13.6l-0.6 7.5-5-12.2-1.1 11-3.9-16.8-3 16.4-1.8-20.2v16.7l-6.3-19.7-2 20.2-3.2-13.5v15.7l-3.9-13-2.2 13.1-1.7-9-1.6 11.4-2.5-11.6-0.8 11.7-1.1-11.7-3.3 12-2.7-9.1-1.6 12.1-2.8-6.3-1.6 7.1-1.2-3.3-0.8 7-1.7-5.3c-0.2 2.8-1.7 5.3-4 6.9l-7.5 5.2z"/>
						
							<linearGradient id="ad" x1="2933.4" x2="2934.6" y1="1193.7" y2="1193.7" gradientTransform="matrix(87.79 -149.16 -149.16 -87.79 -77254 543272)" gradientUnits="userSpaceOnUse">
							<stop stop-color="#472D7D" offset="0"/>
							<stop stop-color="#A044E1" offset="1"/>
						</linearGradient>
						<path d="m2338.4 956.4-2.4 0.6 2.4-0.6zm-50.9 7c2.7 0.2 5.3 0.2 8 0.1-2.8 0.2-5.6 0.1-8.4-0.1h0.4zm18.1-0.8c-3.4 0.4-6.6 0.7-9.5 0.9 2.6-0.1 5.5-0.4 8.5-0.7l1-0.2zm-21 0.4 0.7 0.1-0.7-0.1zm-0.9-0.2 0.5 0.1c-0.3-0.1-0.5-0.1-0.8-0.2l0.3 0.1zm-1.3-0.3c0.2 0.1 0.5 0.1 0.8 0.2-0.4-0.1-0.7-0.2-1-0.3l0.2 0.1zm38.3-2.4c-3.8 0.7-7.5 1.3-11 1.9l1-0.2c2.8-0.4 5.8-0.9 8.8-1.5l1.2-0.2zm-46.5-0.2 1.4 0.4-1.9-0.5 0.5 0.1zm56.6-1.8c-1.4 0.3-2.8 0.6-4.3 0.9l1.2-0.2 3.1-0.7zm-65.5-0.3 2.3 0.5-1.5-0.3-0.8-0.2zm67 0-0.9 0.2 0.9-0.2 0.7-0.1-0.7 0.1zm-75.6-2 1.1 0.3-1.1-0.3zm-2.9-0.9c0.9 0.4 1.8 0.7 2.7 1-0.9-0.3-1.8-0.6-2.7-1zm-0.9-0.5c0.2 0.1 0.5 0.3 0.7 0.4-0.3-0.2-0.6-0.3-0.9-0.5l0.2 0.1zm-0.9-0.6 0.4 0.3-0.4-0.3zm-0.9-0.7 0.6 0.5-0.6-0.5zm-2.4-7.3c0 2.9 0.6 5 1.7 6.4-1.1-1.5-1.7-3.5-1.7-6.4zm58.9 16.6-1 0.1 2-0.2-1 0.1zm-46.6-5.4 1.3 0.3-0.7-0.1-0.6-0.2zm81.2-0.6c-165.7 177.4 135.3 154.7 135.3 154.7l9.4 8.2c-51.8 5.8-135.6-7.9-208-21.7-30.4-51-68.8-115.5-68.8-115.5s-29.1-44.8-70.7-40.7c-40.4 4.8-111.3 13.8-128.8-14.6s0.8-62.2-3.1-69.2-20.7-25-15.2-37.3c5.6-12.3 7.6-17.1 7.6-17.1s-13-9.4-10.6-18.7c2.4-9.4 21.3-34.2 21.3-34.2l-27.2-23.7s-15.9-15.8 0.6-39.6c48.2 15.7 131 48.4 234.2 111.6l2.4 1.5c56.9 35.1 111.4 73.7 163.4 115.6-6.8 6.2-13.6 12.6-20.5 19.1-7.5 7.2-14.3 14-20.5 20.6l-0.8 1zm-91.6-4c0.1 0.2 0.3 0.3 0.4 0.5l-0.1-0.1-0.3-0.4zm-1.9-7.2c0-0.4 0-0.9 0.1-1.4v0.4c0 0.5-0.1 1-0.1 1.4v-0.4z" fill="url(#ad)"/>
						
							<linearGradient id="a" x1="2937.3" x2="2938.4" y1="1190.9" y2="1190.9" gradientTransform="matrix(40.3 -202.2 -202.2 -40.3 124637 642935)" gradientUnits="userSpaceOnUse">
							<stop stop-color="#BF48BE" offset="0"/>
							<stop stop-color="#BF48BE" stop-opacity="0" offset="1"/>
						</linearGradient>
						<path d="m2338.4 956.4-2.4 0.6 2.4-0.6zm-50.9 7c2.7 0.2 5.3 0.2 8 0.1-2.8 0.2-5.6 0.1-8.4-0.1h0.4zm18.1-0.8c-3.4 0.4-6.6 0.7-9.5 0.9 2.6-0.1 5.5-0.4 8.5-0.7l1-0.2zm-21 0.4 0.7 0.1-0.7-0.1zm-0.9-0.2 0.5 0.1c-0.3-0.1-0.5-0.1-0.8-0.2l0.3 0.1zm-1.3-0.3c0.2 0.1 0.5 0.1 0.8 0.2-0.4-0.1-0.7-0.2-1-0.3l0.2 0.1zm38.3-2.4c-3.8 0.7-7.5 1.3-11 1.9l1-0.2c2.8-0.4 5.8-0.9 8.8-1.5l1.2-0.2zm-46.5-0.2 1.4 0.4-1.9-0.5 0.5 0.1zm56.6-1.8c-1.4 0.3-2.8 0.6-4.3 0.9l1.2-0.2 3.1-0.7zm-65.5-0.3 2.3 0.5-1.5-0.3-0.8-0.2zm67 0-0.9 0.2 0.9-0.2 0.7-0.1-0.7 0.1zm-75.6-2 1.1 0.3-1.1-0.3zm-2.9-0.9c0.9 0.4 1.8 0.7 2.7 1-0.9-0.3-1.8-0.6-2.7-1zm-0.9-0.5c0.2 0.1 0.5 0.3 0.7 0.4-0.3-0.2-0.6-0.3-0.9-0.5l0.2 0.1zm-0.9-0.6 0.4 0.3-0.4-0.3zm-0.9-0.7 0.6 0.5-0.6-0.5zm-2.4-7.3c0 2.9 0.6 5 1.7 6.4-1.1-1.5-1.7-3.5-1.7-6.4zm58.9 16.6-1 0.1 2-0.2-1 0.1zm-46.6-5.4 1.3 0.3-0.7-0.1-0.6-0.2zm81.2-0.6c-165.7 177.4 135.3 154.7 135.3 154.7l9.4 8.2c-51.8 5.8-135.6-7.9-208-21.7-30.4-51-68.8-115.5-68.8-115.5s-29.1-44.8-70.7-40.7c-40.4 4.8-111.3 13.8-128.8-14.6s0.8-62.2-3.1-69.2-20.7-25-15.2-37.3c5.6-12.3 7.6-17.1 7.6-17.1s-13-9.4-10.6-18.7c2.4-9.4 21.3-34.2 21.3-34.2l-27.2-23.7s-15.9-15.8 0.6-39.6c48.2 15.7 131 48.4 234.2 111.6l2.4 1.5c56.9 35.1 111.4 73.7 163.4 115.6-6.8 6.2-13.6 12.6-20.5 19.1-7.5 7.2-14.3 14-20.5 20.6l-0.8 1zm-91.6-4c0.1 0.2 0.3 0.3 0.4 0.5l-0.1-0.1-0.3-0.4zm-1.9-7.2c0-0.4 0-0.9 0.1-1.4v0.4c0 0.5-0.1 1-0.1 1.4v-0.4z" fill="url(#a)"/>
						
							
						<path d="m2338.4 956.4-2.4 0.6 2.4-0.6zm-50.9 7c2.7 0.2 5.3 0.2 8 0.1-2.8 0.2-5.6 0.1-8.4-0.1h0.4zm18.1-0.8c-3.4 0.4-6.6 0.7-9.5 0.9 2.6-0.1 5.5-0.4 8.5-0.7l1-0.2zm-21 0.4 0.7 0.1-0.7-0.1zm-0.9-0.2 0.5 0.1c-0.3-0.1-0.5-0.1-0.8-0.2l0.3 0.1zm-1.3-0.3c0.2 0.1 0.5 0.1 0.8 0.2-0.4-0.1-0.7-0.2-1-0.3l0.2 0.1zm38.3-2.4c-3.8 0.7-7.5 1.3-11 1.9l1-0.2c2.8-0.4 5.8-0.9 8.8-1.5l1.2-0.2zm-46.5-0.2 1.4 0.4-1.9-0.5 0.5 0.1zm56.6-1.8c-1.4 0.3-2.8 0.6-4.3 0.9l1.2-0.2 3.1-0.7zm-65.5-0.3 2.3 0.5-1.5-0.3-0.8-0.2zm67 0-0.9 0.2 0.9-0.2 0.7-0.1-0.7 0.1zm-75.6-2 1.1 0.3-1.1-0.3zm-2.9-0.9c0.9 0.4 1.8 0.7 2.7 1-0.9-0.3-1.8-0.6-2.7-1zm-0.9-0.5c0.2 0.1 0.5 0.3 0.7 0.4-0.3-0.2-0.6-0.3-0.9-0.5l0.2 0.1zm-0.9-0.6 0.4 0.3-0.4-0.3zm-0.9-0.7 0.6 0.5-0.6-0.5zm-2.4-7.3c0 2.9 0.6 5 1.7 6.4-1.1-1.5-1.7-3.5-1.7-6.4zm58.9 16.6-1 0.1 2-0.2-1 0.1zm-46.6-5.4 1.3 0.3-0.7-0.1-0.6-0.2zm81.2-0.6c-165.7 177.4 135.3 154.7 135.3 154.7l9.4 8.2c-51.8 5.8-135.6-7.9-208-21.7-30.4-51-68.8-115.5-68.8-115.5s-29.1-44.8-70.7-40.7c-40.4 4.8-111.3 13.8-128.8-14.6s0.8-62.2-3.1-69.2-20.7-25-15.2-37.3c5.6-12.3 7.6-17.1 7.6-17.1s-13-9.4-10.6-18.7c2.4-9.4 21.3-34.2 21.3-34.2l-27.2-23.7s-15.9-15.8 0.6-39.6c48.2 15.7 131 48.4 234.2 111.6l2.4 1.5c56.9 35.1 111.4 73.7 163.4 115.6-6.8 6.2-13.6 12.6-20.5 19.1-7.5 7.2-14.3 14-20.5 20.6l-0.8 1zm-91.6-4c0.1 0.2 0.3 0.3 0.4 0.5l-0.1-0.1-0.3-0.4zm-1.9-7.2c0-0.4 0-0.9 0.1-1.4v0.4c0 0.5-0.1 1-0.1 1.4v-0.4z" fill="url(#a)"/>
						<path class="st32" d="m2129.9 845.9s-66.7-69.2-120.2-89.4c12.2-5.9 11.7-6.8 11.7-6.8l5.4-22.6 7.9 30.3 4.9-22.9 11.3 32.2v-21.4l13.3 24.8v-29.6l10.2 43.8-1.2-30.3 14.4 29.6v-24l5.8 35.7v-13.2l9.2 28.1v-22.8l5.1 19.9 4-14.6 6.3 26.4 4.9-15.1 7 41.9z"/>
						<path class="st32" d="m2269.8 953.6s-47.8-60.5-88.9-80.8c10.2-3.8 9.9-4.5 9.9-4.5l6.1-17.6 3.9 24.8 5.7-17.9 6.5 26.6 1.7-17.1 8.6 20.8 2.3-23.6 4.7 35.7 1.4-24.3 9.1 24.8 1.9-19.2 1.8 28.9 1-10.5 5.1 23.2 1.8-18.2 2.5 16.3 4.4-11.3 2.9 21.6 5.1-11.6 2.5 33.9z"/>
						<path class="st32" d="m2213.3 859.6s-47.8-60.5-88.9-80.8c10.2-3.8 9.9-4.5 9.9-4.5l6.1-17.6 3.9 24.8 5.7-17.9 6.5 26.6 1.7-17.1 8.7 20.8 2.3-23.6 4.7 35.7 1.4-24.3 9.1 24.8 1.9-19.2 1.8 28.9 1-10.5 5.1 23.2 1.8-18.2 2.5 16.3 4.4-11.3 2.9 21.6 5.1-11.6 2.4 33.9z"/>
						
							<linearGradient id="p" x1="2943.4" x2="2944.5" y1="1184.1" y2="1184.1" gradientTransform="matrix(-137.89 -167.81 -190.92 121.19 634587 351399)" gradientUnits="userSpaceOnUse">
							<stop stop-color="#4F328B" offset="0"/>
							<stop stop-color="#A044E1" offset="1"/>
						</linearGradient>
						<path d="m2530.7 796.5c84.6-60.3 153.4-95.3 191.5-112.6 0 1 0.1 2 0.1 2.9 6.5 201.2 0.7 260.8-105.5 293.5l14.5-34s-16.9 35.7-55.1 46.6c2.6-23.3 0-23.3 0-23.3s-14.8 25.3-35 28.7c18.7 26.6 85.5 93.1 141.1 138.9 19.9 16.4 45.6 37.3 72.5 65.1-16.3-5-33.5-13.8-46.5-14.5-31.4-1.7-136.2 5.2-136.2 5.2l-84.9-73.8c65.4-7.3 80.1-45.4-42.7-153.2-11.2-9.8-22.2-19.3-33.2-28.4-9-7.5-18-14.9-26.9-22l-20.5 19.1c51.7-49.4 106.8-95.1 164.9-136.8l1.9-1.4zm-75.8 137.8c-5.4 0.4-10.4 0.8-15 1.1 4.6-0.4 9.6-0.7 15-1.1zm8.9-0.7 4.8-0.4-3.3 0.3-1.5 0.1zm51.9-4.9c-12.9 1.4-25.4 2.6-37 3.6l3.5-0.3c10-0.9 20.6-1.9 31.6-3.1l1.9-0.2zm31.5-3.8c-6 0.8-11.9 1.5-17.8 2.2 5.2-0.6 10.5-1.3 15.8-2l2-0.2zm13.8-2-2 0.3 4-0.6-2 0.3zm19.5-3.1c-4.4 0.8-8.8 1.5-13.3 2.1 3.8-0.6 7.6-1.2 11.3-1.8l2-0.3zm40.1-8.2-1.3 0.3 2.1-0.5-0.8 0.2zm12.2-3.3 0.7-0.2-0.7 0.2zm4.9-1.4-1 0.3 1-0.3zm1.2-0.4-0.7 0.2 0.7-0.2 0.2-0.1-0.2 0.1zm7.2-2.4-0.6 0.2 0.6-0.2 0.7-0.2-0.7 0.2zm4.6-1.8 0.1-0.1-0.1 0.1zm7.6-3.2-2.2 1 2.2-1zm18.3-12.4-0.3 0.3 0.1-0.2 0.2-0.1zm2-2.6c-0.1 0.1-0.1 0.2-0.2 0.3 0.1-0.1 0.2-0.2 0.2-0.3zm1.8-3.5c0-0.1 0-0.1 0.1-0.2l-0.1 0.2zm1-5zm-0.2-2.1c0 0.1 0 0.3 0.1 0.4-0.1-0.1-0.1-0.3-0.1-0.4zm-0.1-0.6c0-0.1 0-0.3-0.1-0.4v0.2l0.1 0.2zm-0.5-2.1c0.1 0.2 0.1 0.4 0.2 0.6 0-0.1-0.1-0.3-0.1-0.4l-0.1-0.2zm-0.5-1.4c0.1 0.2 0.1 0.4 0.2 0.6-0.1-0.1-0.1-0.3-0.2-0.6zm-1.6-3.2c0.2 0.3 0.4 0.7 0.6 1-0.2-0.4-0.4-0.8-0.7-1.2l0.1 0.2zm-2.1-3c0.6 0.8 1.2 1.7 1.8 2.5-0.6-0.8-1.2-1.7-1.8-2.5zm-1.9-2.1c0.4 0.4 0.7 0.9 1.1 1.3l-0.2-0.2-0.7-0.9-0.2-0.2zm-1.2-1.3 0.1 0.1-0.1-0.1zm-1.7-1.8 1.1 1.1-1.1-1.1zm-9.2-7.3c1 0.7 2 1.4 2.9 2.1-0.9-0.7-1.9-1.4-2.9-2.1zm-9-5.8c2.6 1.5 5 3 7.1 4.5l-0.7-0.5c-1.9-1.3-4.1-2.6-6.4-4zm-18.6-9.8c1.8 0.9 3.6 1.7 5.2 2.6l-1-0.5c-1.7-0.9-3.5-1.7-5.3-2.6l1.1 0.5zm-17.3-7.7c2.2 0.9 4.2 1.8 6.3 2.7-2-0.9-4.1-1.8-6.3-2.7zm-5.8-2.4-2.7-1.1 1.4 0.6 1.3 0.5zm-20.6-8c4.3 1.6 8.6 3.2 13 4.9-4.4-1.7-8.7-3.3-13-4.9zm-5.1-1.8 1.7 0.6-1.7-0.6zm-6.3-2.2 4.5 1.6-4.5-1.6zm-13.9-4.6 0.2 0.1-0.2-0.1-0.5-0.2 0.5 0.2zm-23.2-6.8c6.9 1.9 13.8 3.9 20.7 6.1l-1.2-0.4c-6.5-2.1-13-4-19.5-5.7zm-5-1.4 4.1 1.1-4.1-1.1zm-2.3-0.6-1.7-0.4 1.2 0.3 0.5 0.1zm-15.7 128.7 8.6-1c-3.5 0.4-7 0.8-10.5 1.2l1.9-0.2zm35.4-4.5-4 0.5 2-0.3 2-0.2zm29.3-4.6c11.4-2 22.5-4.2 32.8-6.7-10.9 2.6-22.6 5-34.7 7.1l1.9-0.4zm75.6-20.9 0.6-0.3-1.1 0.6 0.5-0.3zm17-11.9 0.7-0.9c-0.3 0.3-0.5 0.7-0.8 1l0.1-0.1zm2-2.6 0.2-0.3-0.3 0.5 0.1-0.2zm0.5-1-0.2 0.3 0.2-0.3zm1.5-10.8c0 0.1 0 0.2 0.1 0.3v-0.2l-0.1-0.1zm-1.1-3.2c-0.1-0.2-0.2-0.4-0.3-0.5l0.3 0.7v-0.2zm-9.7-12.1c-0.8-0.7-1.7-1.5-2.7-2.2 1.1 0.9 2.2 1.8 3.2 2.7l-0.5-0.5zm-92.9-44.6c-2.1-0.7-4.2-1.4-6.3-2.1l1.3 0.4 6.3 2.1-1.3-0.4z" fill="url(#p)"/>
						<path class="st34" d="m2778.5 1313.5c-27.7 43.5-75.3 75.1-149.9 116.8-82.3 46-240.8-11.3-261.6-18.4l24.3-327.3s9.6-7.1 70.3-37.8c26.4-13.3 43.8-18.1 61-17.6 35.7 45.4 90.9 107.3 139.2 154.2 31.2 30.4 74 71.3 116.7 130.1z"/>
						
							<linearGradient id="k" x1="2944.1" x2="2945.2" y1="1186.2" y2="1186.2" gradientTransform="matrix(-121.19 -167.81 -167.81 121.19 558329 351399)" gradientUnits="userSpaceOnUse">
							<stop stop-color="#4F328B" offset="0"/>
							<stop stop-color="#A044E1" offset="1"/>
						</linearGradient>
						<path d="m2353.4 944.8-1.9 2 1.4-1.5 0.5-0.5z" fill="url(#k)"/>
						
							<linearGradient id="j" x1="2944.1" x2="2945.2" y1="1186.3" y2="1186.3" gradientTransform="matrix(-121.19 -167.81 -167.81 121.19 558329 351399)" gradientUnits="userSpaceOnUse">
							<stop stop-color="#4F328B" offset="0"/>
							<stop stop-color="#A044E1" offset="1"/>
						</linearGradient>
						<path d="m2411 937.6c11 9.2 22 18.6 33.2 28.4 122.8 107.7 108.1 145.9 42.7 153.2l-9.4-8.2s-302.2 22.8-134.4-155.8c29.4-6.8 59-15.9 67.9-17.6z" fill="url(#j)"/>
						
							<linearGradient id="l" x1="2944.1" x2="2945.2" y1="1186.3" y2="1186.3" gradientTransform="matrix(-121.19 -167.81 -167.81 121.19 558329 351399)" gradientUnits="userSpaceOnUse">
							<stop stop-color="#4F328B" offset="0"/>
							<stop stop-color="#A044E1" offset="1"/>
						</linearGradient>
						<path d="m2351.5 946.7-8.3 8.6 2.2-2.4 6.1-6.2z" fill="url(#l)"/>
						
							<linearGradient id="ag" x1="2944.1" x2="2945.2" y1="1186.2" y2="1186.2" gradientTransform="matrix(-121.19 -167.81 -167.81 121.19 558329 351399)" gradientUnits="userSpaceOnUse">
							<stop stop-color="#4F328B" offset="0"/>
							<stop stop-color="#A044E1" offset="1"/>
						</linearGradient>
						<path d="m2353.4 944.8c3.3-3.3 6.7-6.6 10.3-10l-10.3 10z" fill="url(#ag)"/>
						
							<linearGradient id="aj" x1="2944.1" x2="2945.2" y1="1186.1" y2="1186.1" gradientTransform="matrix(-121.19 -167.81 -167.81 121.19 558329 351399)" gradientUnits="userSpaceOnUse">
							<stop stop-color="#4F328B" offset="0"/>
							<stop stop-color="#A044E1" offset="1"/>
						</linearGradient>
						<path d="m2363.7 934.7 20.5-19.1c8.9 7.1 17.9 14.5 26.9 22-9 1.7-38.6 10.7-67.8 17.7l8.3-8.6 1.9-2 10.2-10z" fill="url(#aj)"/>
						
							<linearGradient id="f" x1="2931.9" x2="2933.1" y1="1174.3" y2="1174.3" gradientTransform="matrix(-76.16 376.04 376.04 76.16 -215857 -1191064)" gradientUnits="userSpaceOnUse">
							<stop stop-color="#08050E" offset="0"/>
							<stop stop-color="#1D1037" offset=".43"/>
							<stop stop-color="#5D1AA2" offset="1"/>
						</linearGradient>
						<path d="m2221.7 1001.5 366.7-143.4-14.9 97.6-31.2 28.3 11.6 9.1c-3.9 2.6-8.4 4.4-13 5.2 5.6 8 15.6 19.6 28.3 33.2l-26.9 143.9-71.8 50-8.5 130.2-45.3 26.1-8.8 41.3h-191.8l12.9-135.3s2.9-37.9 48.5-67.7 50.5-41.3 35.9-65c-11.2-18.3-67.2-112.2-91.7-153.5z" fill="url(#f)"/>
						
							<linearGradient id="m" x1="2942.2" x2="2943.3" y1="1203.8" y2="1203.8" gradientTransform="matrix(15.25 -94.04 -94.04 -15.25 70411 296021)" gradientUnits="userSpaceOnUse">
							<stop stop-color="#A351C1" offset="0"/>
							<stop stop-color="#19073D" offset="1"/>
						</linearGradient>
						<path d="m2185.3 956c-2.4-1.8-4.9-3.5-7.5-5.1l3.8-93.6 3.7 98.7zm-11.5-7.3c-1.5-0.8-3.1-1.6-4.7-2.3l2.4-58.9 2.3 61.2zm-165.1-25.4 4.4-111.7 4.2 108 5.2-134.2 4.9 124.7 3.4-87.2 3.6 93.5 4-103.3 3.8 96.8 3.3-82.9 0.4 9.8 1.1-27.6 3.6 92 3.2-80.2 0.7 19.2 0.7-18.5 3.7 94.7 3.4-84.9 4 106.5 3.7-90.6 3.4 89.9 4.9-120.8 4.9 129.7c-22.8 0.8-45.2-0.8-59.8-8.4l0.2-5h-0.9l0.2 4.7c-5-2.5-9.3-6.3-12.3-11-0.6-0.9-1.3-2.1-1.9-3.2zm82.8 22.6c-2.5 0.2-5 0.3-7.5 0.4l3.9-96.1 3.6 95.7zm75.9-0.3c-2.6-1.1-5.2-2-7.9-2.7l4-99.9 3.9 102.6zm-62.8-0.6c-2.6 0.2-5.1 0.4-7.7 0.6l4-99.3 3.7 98.7zm6.7-0.6-4.4 0.4 2.3-56 2.1 55.6zm9.9-1c-1.9 0.2-3.9 0.4-5.9 0.6l3-75.2 2.9 74.6zm6.2-0.7-4.6 0.5 2.4-58.7 2.2 58.2zm9.3-1.1-5 0.6 2.6-63.5 2.4 62.9zm17.5 0.2c-1.4-0.2-2.9-0.4-4.3-0.6l2.2-55 2.1 55.6zm-7.1-0.7c-2.5-0.1-5.1 0-7.6 0.2l-0.5 0.1 4.2-104 3.9 103.7zm-143.5-54.1 1 25.1c-2.1-8.7-2-17.3-1-25.1zm-1.4-37.4c-1.3-1.8-2.6-3.7-3.8-5.7l1.6-40.7 0.1-0.1h-0.1l0.2-4.8 0.1-0.1 1.9 51.4z" fill="url(#m)"/>
						
							<linearGradient id="ac" x1="2936.9" x2="2938.1" y1="1172.1" y2="1172.1" gradientTransform="matrix(-200.15 192.57 177.03 217.73 382850 -819936)" gradientUnits="userSpaceOnUse">
							<stop stop-color="#C567C9" offset="0"/>
							<stop stop-color="#210C4C" offset="1"/>
						</linearGradient>
						<path d="m2167.3 945.6 66.6-33.7 110.7-1.5 138-53.8 107 0.7-235.4 159.2 138-44.2 61.7 20.7c-3.9 2.6-8.3 4.3-12.9 5.2 2.6 3.7 6.2 8.3 10.6 13.4l-233.5 151.9c-1.3-2.9-2.9-5.8-4.6-8.5-14.6-23.7-103.4-173.1-103.4-173.1s-16.7-25.6-42.8-36.3z" fill="url(#ac)"/>
						<path class="st43" d="m2311.7 1152.2c-1-1.7-2.2-3.6-3.6-5.9l223.7-137.3-220.1 143.2zm-13.7-22.8-3-5.1-2.5-4.2 197.4-127.3-191.9 136.6zm-16-26.7-3.2-5.4-1.1-1.9 190.3-103.1-186 110.4zm-33.9-56.9-0.6-1-4.1-6.8 230.6-144.2-225.9 152zm-22.2-37.2-1.7-2.8-3.2-5.3 239.5-114.5-234.6 122.6z"/>
						<path class="st44" d="m2311 1151c-1.1-1.7-2.3-3.7-3.6-5.9l225.6-138.4-222 144.3zm-13.6-22.6-2.4-4.1-3.2-5.3 199.2-128.4-193.6 137.8zm-16.1-26.9-2.5-4.2-1.9-3.1 192.2-104.2-187.8 111.5zm-33.9-56.8-4.7-7.9 232.5-145.3-227.8 153.2zm-22.3-37.5-0.9-1.5-4-6.7 241.4-115.4-236.5 123.6z"/>
						<path class="st28" d="m2303.3 833.9s68.7-13.7 122.2-1.2c-25-9.8-25.9-21.2-25.9-21.2l-1.7 10.3-5.3-17.5-2.8 15-3.3-23.8-6.3 22.2v-28.2l-2.1 23-6.3-27.8-5.2 27.7-2.7-19-1.9 21.6-3.8-18.4-4.7 17.7-1.3-12.7-3.7 15.5-2-16.3-2.6 16v-16.3l-6 16.1-2.6-12.8-3.8 16.5-3-9.1-3.1 9.6-1.2-4.8-1.9 9.5-1.6-7.5c-0.6 3.8-2.9 7.1-6.3 9.1l-11.1 6.8z"/>
						
							<linearGradient id="v" x1="2927.9" x2="2929.1" y1="1176.3" y2="1176.3" gradientTransform="matrix(142.95 306.33 306.33 -142.95 -776697 -728269)" gradientUnits="userSpaceOnUse">
							<stop stop-color="#8925D0" offset="0"/>
							<stop stop-color="#FB7FD2" offset="1"/>
						</linearGradient>
						<path d="m2298 613.8v2.6c0 3.8-0.1 7.6-0.4 11.3l-144-131.2 144.4 117.3z" fill="url(#v)"/>
						
							<linearGradient id="d" x1="2914.5" x2="2915.7" y1="1165.9" y2="1165.9" gradientTransform="matrix(37.37 91.89 91.89 -37.37 -213625 -223838)" gradientUnits="userSpaceOnUse">
							<stop stop-color="#B133DA" offset="0"/>
							<stop stop-color="#FB7FD2" offset="1"/>
						</linearGradient>
						
							<ellipse cx="2442.1" cy="462" rx="64.4" ry="64.3" fill="url(#d)"/>
						<path class="st4" d="m2499.5 491.2c-0.4 0.8-0.8 1.5-1.2 2.3l-75.5 29.9c-5.2-1.6-10.2-3.9-14.8-6.8l91.5-25.4zm-107.9 10.9c-2.3-2.9-4.4-6-6.1-9.2l98.1-27.2-92 36.4zm112.8-56.4c0.9 3.5 1.6 7.1 1.9 10.7l-100.5 16.6 98.6-27.3zm-15.3-27.6c5.7 6.1 10.2 13.2 13.2 21l-123.6 34.2c-1.5-8.2-1.3-16.6 0.4-24.8l110-30.4zm-19.9-14.4c3.8 1.7 7.4 3.8 10.7 6.3l-82.6 13.6 71.9-19.9z"/>
						
							<linearGradient id="ah" x1="2976" x2="2977.2" y1="1216" y2="1216" gradientTransform="matrix(-14.45 -40.92 -40.92 14.45 95223 104695)" gradientUnits="userSpaceOnUse">
							<stop stop-color="#EC96E4" offset="0"/>
							<stop stop-color="#EC96E4" stop-opacity="0" offset="1"/>
						</linearGradient>
						<path d="m2492.1 421.5c27-7.1 54.5-13.4 81.4-15.7 8.5-0.7 17.4-1.6 25.3 1 5.6 1.8 10.2 7.3 7.9 13.8-2.7 7.9-11.3 12.4-19 16.8-42.5 24.3-91.6 38-133.7 49.3-21.4 5.7-43.3 10.8-65.1 15.2-25.7 5.1-51.3 10.3-77.9 9.3-8.4-0.3-19-0.9-20.7-9.7-1.3-6.5 5.2-12 10.9-15.7 15.9-10.4 34.1-16.8 52.2-23.3 8.2-3 16.5-5.8 24.9-8.4-0.4 2.9-0.5 5.8-0.5 8.8-15.2 5.6-30.2 11.8-44.8 18.6-10.1 4.7-20.6 9.3-28.9 16.7 4.7 0.4 9.5 0.6 14.3 0.4 39.3-2.5 78.2-13 115.9-23.3 30.9-8.5 60.7-17.3 92.5-28.4 19.9-6.9 40-13.9 58.3-24.5 1.8-1 3.6-2.2 5.3-3.4-3.1-0.3-6.3-0.5-9.4-0.5-14.3 0-28.7 1.8-42.9 3.9-13.6 2-27.1 4.3-40.5 6.9-1.8-2.9-3.6-5.4-5.5-7.8z" fill="url(#ah)"/>
						<path class="st10" d="m1601.5 895.3c5.7 0 5.8-8.9 0-8.9s-5.8 8.9 0 8.9z"/>
						<path class="st10" d="m2471.3 253c5.7 0 5.8-8.9 0-8.9-5.7 0-5.7 8.9 0 8.9z"/>
						<path class="st10" d="m1903.8 248.4c5.7 0 5.8-8.9 0-8.9-5.7 0-5.7 8.9 0 8.9z"/>
						<path class="st10" d="m1787.6 595.5c5.7 0 5.8-8.9 0-8.9s-5.8 8.9 0 8.9z"/>
						<path class="st10" d="m1862.4 858.7c5.7 0 5.8-8.9 0-8.9s-5.8 8.9 0 8.9z"/>
						<path class="st10" d="m1703.4 1059.7c5.7 0 5.8-8.9 0-8.9s-5.8 8.9 0 8.9z"/>
						<path class="st10" d="m1769 1131.2c4.5 0 4.5-6.9 0-6.9-4.5-0.1-4.5 6.9 0 6.9z"/>
						<path class="st10" d="m2593.3 256.1c3.8 0 3.8-5.9 0-5.9s-3.8 5.9 0 5.9z"/>
						<path class="st10" d="m2260.7 228.5c3.8 0 3.8-5.9 0-5.9-3.9 0-3.9 5.9 0 5.9z"/>
						<path class="st10" d="m2442.5 289.5c3.8 0 3.8-5.9 0-5.9s-3.8 5.9 0 5.9z"/>
						<path class="st10" d="m2170.9 254c2.5 0 2.6-4 0-4s-2.6 4 0 4z"/>
						<path class="st10" d="m2312.5 259.7c2.5 0 2.5-4 0-4-2.6 0.1-2.6 4 0 4z"/>
						<path class="st10" d="m2385 205.7c2.5 0 2.6-4 0-4-2.6 0.1-2.6 4 0 4z"/>
						<path class="st10" d="m2272.2 116.1c2.5 0 2.6-4 0-4s-2.6 4 0 4z"/>
						<path class="st10" d="m2383.8 140.2c2.5 0 2.6-4 0-4-2.5 0-2.5 4 0 4z"/>
						<path class="st10" d="m2460.9 190.8c2.5 0 2.5-4 0-4s-2.5 4 0 4z"/>
						<path class="st10" d="m2497.5 94.6v-1.1c0-0.3 0-0.5-0.2-0.8-0.1-0.2-0.2-0.5-0.4-0.6-0.2-0.2-0.4-0.3-0.6-0.4s-0.5-0.2-0.8-0.2l-0.5 0.1c-0.3 0.1-0.6 0.3-0.9 0.5l-0.3 0.4c-0.2 0.3-0.3 0.6-0.3 1v1.1c0 0.3 0 0.5 0.2 0.8 0.2 0.5 0.6 0.9 1.1 1 0.2 0.1 0.5 0.2 0.8 0.2l0.5-0.1c0.3-0.1 0.6-0.3 0.9-0.5l0.3-0.4c0.1-0.4 0.2-0.7 0.2-1z"/>
						<path class="st10" d="m2429.9 54c2.5 0 2.6-4 0-4-2.6 0.1-2.6 4 0 4z"/>
						<path class="st10" d="m2226.1 77c2.5 0 2.6-4 0-4s-2.6 4 0 4z"/>
						<path class="st10" d="m2175.5 120.8c5.7 0 5.8-8.9 0-8.9s-5.8 8.9 0 8.9z"/>
						<path class="st10" d="m2294 148.4c5.7 0 5.8-8.9 0-8.9-5.7 0-5.7 8.9 0 8.9z"/>
						<path class="st10" d="m2349.3 45c5.7 0 5.8-8.9 0-8.9s-5.8 8.9 0 8.9z"/>
						<path class="st10" d="m2531.2 65.7c5.7 0 5.8-8.9 0-8.9s-5.8 8.9 0 8.9z"/>
						<path class="st10" d="m2481.7 200.1c5.7 0 5.8-8.9 0-8.9s-5.8 8.9 0 8.9z"/>
						<path class="st10" d="m2216.9 166.8c5.7 0 5.8-8.9 0-8.9-5.7 0-5.7 8.9 0 8.9z"/>
						<path class="st48" d="m2461.1 551.1c0.8 0 1.5-0.7 1.5-1.5s-0.7-1.5-1.5-1.5-1.5 0.7-1.5 1.5 0.7 1.5 1.5 1.5z"/>
						<path class="st48" d="m2482.6 569.2c0.3 0 0.5-0.2 0.5-0.5s-0.2-0.5-0.5-0.5-0.5 0.2-0.5 0.5 0.2 0.5 0.5 0.5z"/>
						<path class="st48" d="m2447.3 577.4c0.5 0 1-0.4 1-1s-0.4-1-1-1-1 0.4-1 1 0.5 1 1 1z"/>
						<path class="st48" d="m2515.6 546c0.5 0 1-0.4 1-1s-0.4-1-1-1c-0.5 0-1 0.4-1 1s0.4 1 1 1z"/>
						<path class="st48" d="m2317.2 523.7c0.5 0 1-0.4 1-1 0-0.5-0.4-1-1-1-0.5 0-1 0.4-1 1s0.5 1 1 1z"/>
						<path class="st48" d="m2248.9 454.8c0.5 0 1-0.4 1-1 0-0.5-0.4-1-1-1s-1 0.4-1 1 0.5 1 1 1z"/>
						<path class="st48" d="m2319.9 421.9c0.5 0 1-0.4 1-1 0-0.5-0.4-1-1-1s-1 0.4-1 1c0 0.5 0.5 1 1 1z"/>
						<path class="st48" d="m2336.8 370.1c0.5 0 1-0.4 1-1 0-0.5-0.4-1-1-1s-1 0.4-1 1 0.4 1 1 1z"/>
						<path class="st48" d="m2413.9 360.5c0.5 0 1-0.4 1-1 0-0.5-0.4-1-1-1-0.5 0-1 0.4-1 1s0.5 1 1 1z"/>
						<path class="st48" d="m2452.7 359.8c0.5 0 1-0.4 1-1 0-0.5-0.4-1-1-1-0.5 0-1 0.4-1 1s0.4 1 1 1z"/>
						<path class="st48" d="m2339.5 349.1c0.5 0 1-0.4 1-1 0-0.5-0.4-1-1-1s-1 0.4-1 1c0 0.5 0.4 1 1 1z"/>
						<path class="st48" d="m2247.4 341.4c0.5 0 1-0.4 1-1 0-0.5-0.4-1-1-1s-1 0.4-1 1 0.4 1 1 1z"/>
						<path class="st48" d="m2113.9 336.4c0.5 0 1-0.4 1-1 0-0.5-0.4-1-1-1s-1 0.4-1 1 0.4 1 1 1z"/>
						<path class="st48" d="m2122.7 393.5c0.5 0 1-0.4 1-1 0-0.5-0.4-1-1-1s-1 0.4-1 1 0.4 1 1 1z"/>
						<path class="st48" d="m2083.5 410c0.5 0 1-0.4 1-1 0-0.5-0.4-1-1-1s-1 0.4-1 1c0.1 0.5 0.5 1 1 1z"/>
						<path class="st48" d="m2168.3 410.4c0.5 0 1-0.4 1-1 0-0.5-0.4-1-1-1s-1 0.4-1 1c0 0.5 0.5 1 1 1z"/>
						<path class="st48" d="m2192.9 371.3c0.5 0 1-0.4 1-1 0-0.5-0.4-1-1-1-0.5 0-1 0.4-1 1 0 0.5 0.5 1 1 1z"/>
						<path class="st48" d="m2330.6 363.2c0.5 0 1-0.4 1-1 0-0.5-0.4-1-1-1s-1 0.4-1 1c0.1 0.6 0.5 1 1 1z"/>
						<path class="st48" d="m2362.1 423.8c0.5 0 1-0.4 1-1 0-0.5-0.4-1-1-1s-1 0.4-1 1c0 0.5 0.5 1 1 1z"/>
						<path class="st48" d="m2332.6 449.8c0.5 0 1-0.4 1-1 0-0.5-0.4-1-1-1s-1 0.4-1 1 0.4 1 1 1z"/>
						<path class="st48" d="m2268.9 474.7c0.5 0 1-0.4 1-1 0-0.5-0.4-1-1-1s-1 0.4-1 1 0.4 1 1 1z"/>
						<path class="st48" d="m2223.6 455.9c0.5 0 1-0.4 1-1 0-0.5-0.4-1-1-1-0.5 0-1 0.4-1 1s0.4 1 1 1z"/>
						<path class="st48" d="m2084.3 444.8c0.5 0 1-0.4 1-1 0-0.5-0.4-1-1-1s-1 0.4-1 1 0.5 1 1 1z"/>
						<path class="st48" d="m2110 398.1c0.5 0 1-0.4 1-1 0-0.5-0.4-1-1-1s-1 0.4-1 1 0.5 1 1 1z"/>
						<path class="st48" d="m2089.3 359.4c0.5 0 1-0.4 1-1 0-0.5-0.4-1-1-1s-1 0.4-1 1 0.4 1 1 1z"/>
						<path class="st48" d="m2163 358.3c0.5 0 1-0.4 1-1 0-0.5-0.4-1-1-1s-1 0.4-1 1c0 0.5 0.4 1 1 1z"/>
						<path class="st48" d="m2050.2 393.9c0.5 0 1-0.4 1-1 0-0.5-0.4-1-1-1-0.5 0-1 0.4-1 1 0 0.5 0.4 1 1 1z"/>
						<path class="st48" d="m2049.4 434.9c0.5 0 1-0.4 1-1 0-0.5-0.4-1-1-1s-1 0.4-1 1c0 0.5 0.4 1 1 1z"/>
						<path class="st48" d="m2343.3 434.1c0.5 0 1-0.4 1-1 0-0.5-0.4-1-1-1-0.5 0-1 0.4-1 1s0.5 1 1 1z"/>
						<path class="st48" d="m2422.7 393.1c0.5 0 1-0.4 1-1 0-0.5-0.4-1-1-1s-1 0.4-1 1 0.5 1 1 1z"/>
						<path class="st48" d="m2453.4 393.5c0.5 0 1-0.4 1-1 0-0.5-0.4-1-1-1-0.5 0-1 0.4-1 1s0.5 1 1 1z"/>
						<path class="st48" d="m2514 388.5c0.5 0 1-0.4 1-1 0-0.5-0.4-1-1-1-0.5 0-1 0.4-1 1 0.1 0.6 0.5 1 1 1z"/>
						<path class="st48" d="m2519.8 393.1c0.5 0 1-0.4 1-1 0-0.5-0.4-1-1-1s-1 0.4-1 1 0.4 1 1 1z"/>
						<path class="st48" d="m2521.7 450.2c0.5 0 1-0.4 1-1 0-0.5-0.4-1-1-1s-1 0.4-1 1c0.1 0.6 0.5 1 1 1z"/>
						<path class="st48" d="m2467.1 363v-1.1c0-0.1 0-0.3-0.1-0.4 0-0.1-0.1-0.2-0.2-0.3s-0.2-0.2-0.3-0.2c-0.1-0.1-0.2-0.1-0.4-0.1-0.3 0-0.5 0.1-0.7 0.3s-0.3 0.4-0.3 0.7v1.1c0 0.3 0.1 0.5 0.3 0.7 0.1 0.1 0.2 0.2 0.3 0.2 0.1 0.1 0.3 0.1 0.4 0.1 0.3 0 0.5-0.1 0.7-0.3s0.3-0.4 0.3-0.7z"/>
						<path class="st48" d="m2355.8 334.2c0.5 0 1-0.4 1-1 0-0.5-0.4-1-1-1s-1 0.4-1 1 0.5 1 1 1z"/>
						<path class="st48" d="m2275.2 318.9c0.5 0 1-0.4 1-1 0-0.5-0.4-1-1-1s-1 0.4-1 1c0 0.5 0.5 1 1 1z"/>
						<path class="st48" d="m2358.1 307.8c0.5 0 1-0.4 1-1 0-0.5-0.4-1-1-1s-1 0.4-1 1c0 0.5 0.5 1 1 1z"/>
						<path class="st48" d="m2426.4 326.2c0.5 0 1-0.4 1-1 0-0.5-0.4-1-1-1s-1 0.4-1 1c0 0.5 0.5 1 1 1z"/>
						<path class="st48" d="m2389.3 346.8c0.5 0 1-0.4 1-1 0-0.5-0.4-1-1-1s-1 0.4-1 1c0.1 0.5 0.5 1 1 1z"/>
						<path class="st48" d="m2299.2 421.5c0.5 0 1-0.4 1-1 0-0.5-0.4-1-1-1s-1 0.4-1 1c0 0.5 0.4 1 1 1z"/>
						<path class="st48" d="m2230.9 447.5c0.5 0 1-0.4 1-1 0-0.5-0.4-1-1-1s-1 0.4-1 1 0.4 1 1 1z"/>
						<path class="st48" d="m2282.3 487c0.5 0 1-0.4 1-1 0-0.5-0.4-1-1-1-0.5 0-1 0.4-1 1 0 0.5 0.5 1 1 1z"/>
						<path class="st48" d="m2343.3 551.7c0.5 0 1-0.4 1-1 0-0.5-0.4-1-1-1-0.5 0-1 0.4-1 1s0.5 1 1 1z"/>
						<path class="st48" d="m2355.2 480c0.3 0 0.5-0.2 0.5-0.5s-0.2-0.5-0.5-0.5-0.5 0.2-0.5 0.5 0.2 0.5 0.5 0.5z"/>
						<path class="st48" d="m2342.2 462.3c0.3 0 0.5-0.2 0.5-0.5s-0.2-0.5-0.5-0.5-0.5 0.2-0.5 0.5 0.2 0.5 0.5 0.5z"/>
						<path class="st48" d="m2284.6 463.1c0.3 0 0.5-0.2 0.5-0.5s-0.2-0.5-0.5-0.5-0.5 0.2-0.5 0.5 0.3 0.5 0.5 0.5z"/>
						<path class="st48" d="m2268.9 428.3c0.3 0 0.5-0.2 0.5-0.5s-0.2-0.5-0.5-0.5-0.5 0.2-0.5 0.5 0.2 0.5 0.5 0.5z"/>
						<path class="st48" d="m2336.8 396.5c0.3 0 0.5-0.2 0.5-0.5s-0.2-0.5-0.5-0.5-0.5 0.2-0.5 0.5 0.2 0.5 0.5 0.5z"/>
						<path class="st48" d="m2271.6 351.6c0.3 0 0.5-0.2 0.5-0.5s-0.2-0.5-0.5-0.5-0.5 0.2-0.5 0.5 0.2 0.5 0.5 0.5z"/>
						<path class="st48" d="m2164.5 343.6c0.3 0 0.5-0.2 0.5-0.5s-0.2-0.5-0.5-0.5-0.5 0.2-0.5 0.5 0.2 0.5 0.5 0.5z"/>
						<path class="st48" d="m2249.1 331.4c0.3 0 0.5-0.2 0.5-0.5s-0.2-0.5-0.5-0.5-0.5 0.2-0.5 0.5 0.3 0.5 0.5 0.5z"/>
						<path class="st48" d="m2187 333.3c0.3 0 0.5-0.2 0.5-0.5s-0.2-0.5-0.5-0.5-0.5 0.2-0.5 0.5 0.2 0.5 0.5 0.5z"/>
						<path class="st48" d="m2129.2 382.3c0.3 0 0.5-0.2 0.5-0.5s-0.2-0.5-0.5-0.5-0.5 0.2-0.5 0.5 0.2 0.5 0.5 0.5z"/>
						<path class="st48" d="m2136.1 410.6-1.2 1.1c-0.1 0.1-0.1 0.2-0.1 0.3s0.1 0.3 0.1 0.4c0.2 0.2 0.5 0.2 0.7 0l1.2-1.1c0.1-0.1 0.1-0.2 0.1-0.4 0-0.1 0-0.3-0.1-0.3-0.1-0.2-0.5-0.2-0.7 0z"/>
						<path class="st48" d="m2083.9 436.3c0.3 0 0.5-0.2 0.5-0.5s-0.2-0.5-0.5-0.5-0.5 0.2-0.5 0.5 0.3 0.5 0.5 0.5z"/>
						<path class="st48" d="m2104.6 443.2c0.3 0 0.5-0.2 0.5-0.5s-0.2-0.5-0.5-0.5-0.5 0.2-0.5 0.5 0.3 0.5 0.5 0.5z"/>
						<path class="st48" d="m2366.3 398.8c0.3 0 0.5-0.2 0.5-0.5s-0.2-0.5-0.5-0.5-0.5 0.2-0.5 0.5c0 0.2 0.2 0.5 0.5 0.5z"/>
						<path class="st48" d="m2367.5 371.6c0.3 0 0.5-0.2 0.5-0.5s-0.2-0.5-0.5-0.5-0.5 0.2-0.5 0.5c0 0.2 0.2 0.5 0.5 0.5z"/>
						<path class="st48" d="m2431.6 375c0.3 0 0.5-0.2 0.5-0.5s-0.2-0.5-0.5-0.5-0.5 0.2-0.5 0.5 0.2 0.5 0.5 0.5z"/>
						<path class="st48" d="m2476.1 378.4c0.3 0 0.5-0.2 0.5-0.5s-0.2-0.5-0.5-0.5-0.5 0.2-0.5 0.5 0.2 0.5 0.5 0.5z"/>
						<path class="st48" d="m2506 374.2c0.3 0 0.5-0.2 0.5-0.5s-0.2-0.5-0.5-0.5-0.5 0.2-0.5 0.5 0.2 0.5 0.5 0.5z"/>
						<path class="st48" d="m2449.1 329.8c0.3 0 0.5-0.2 0.5-0.5s-0.2-0.5-0.5-0.5-0.5 0.2-0.5 0.5 0.2 0.5 0.5 0.5z"/>
						<path class="st48" d="m2487.2 344.4c0.3 0 0.5-0.2 0.5-0.5s-0.2-0.5-0.5-0.5-0.5 0.2-0.5 0.5c0 0.2 0.2 0.5 0.5 0.5z"/>
						<path class="st48" d="m2651.4 525.2c0.3 0 0.5-0.2 0.5-0.5s-0.2-0.5-0.5-0.5-0.5 0.2-0.5 0.5 0.2 0.5 0.5 0.5z"/>
						<path class="st48" d="m2568.5 470.8c0.3 0 0.5-0.2 0.5-0.5s-0.2-0.5-0.5-0.5-0.5 0.2-0.5 0.5 0.3 0.5 0.5 0.5z"/>
						<path class="st48" d="m2530.2 540.5c0.3 0 0.5-0.2 0.5-0.5s-0.2-0.5-0.5-0.5-0.5 0.2-0.5 0.5 0.2 0.5 0.5 0.5z"/>
						<path class="st48" d="m2544.7 592.6c0.3 0 0.5-0.2 0.5-0.5s-0.2-0.5-0.5-0.5-0.5 0.2-0.5 0.5 0.3 0.5 0.5 0.5z"/>
						<path class="st48" d="m2507.1 522.1c0.3 0 0.5-0.2 0.5-0.5s-0.2-0.5-0.5-0.5-0.5 0.2-0.5 0.5 0.3 0.5 0.5 0.5z"/>
						<path class="st48" d="m2311.4 407.2c0.3 0 0.5-0.2 0.5-0.5s-0.2-0.5-0.5-0.5-0.5 0.2-0.5 0.5 0.2 0.5 0.5 0.5z"/>
						<path class="st48" d="m2266.5 361.1-1.5-1.5c-0.2-0.2-0.5-0.2-0.7 0s-0.2 0.5 0 0.7l1.5 1.5c0.2 0.2 0.5 0.2 0.7 0s0.2-0.5 0-0.7z"/>
						<path class="st48" d="m2144.9 361.2c0.3 0 0.5-0.2 0.5-0.5s-0.2-0.5-0.5-0.5-0.5 0.2-0.5 0.5 0.3 0.5 0.5 0.5z"/>
						<path class="st48" d="m2246.2 473.1c0.3 0 0.5-0.2 0.5-0.5s-0.2-0.5-0.5-0.5-0.5 0.2-0.5 0.5 0.3 0.5 0.5 0.5z"/>
						<path class="st48" d="m2531.7 509.9c0.3 0 0.5-0.2 0.5-0.5s-0.2-0.5-0.5-0.5-0.5 0.2-0.5 0.5c0 0.2 0.2 0.5 0.5 0.5z"/>
						<path class="st48" d="m2417.4 563.5c0.3 0 0.5-0.2 0.5-0.5s-0.2-0.5-0.5-0.5-0.5 0.2-0.5 0.5 0.2 0.5 0.5 0.5z"/>
						<path class="st48" d="m2320.7 629.4c0.3 0 0.5-0.2 0.5-0.5s-0.2-0.5-0.5-0.5-0.5 0.2-0.5 0.5 0.2 0.5 0.5 0.5z"/>
						<path class="st48" d="m2343.7 654.6c0.3 0 0.5-0.2 0.5-0.5s-0.2-0.5-0.5-0.5-0.5 0.2-0.5 0.5 0.2 0.5 0.5 0.5z"/>
						<path class="st48" d="m2473.4 558.9c0.3 0 0.5-0.2 0.5-0.5s-0.2-0.5-0.5-0.5-0.5 0.2-0.5 0.5 0.2 0.5 0.5 0.5z"/>
						<path class="st48" d="m2594.6 464.6c0.3 0 0.5-0.2 0.5-0.5s-0.2-0.5-0.5-0.5-0.5 0.2-0.5 0.5 0.2 0.5 0.5 0.5z"/>
						<path class="st48" d="m2615.3 442.4c0.3 0 0.5-0.2 0.5-0.5s-0.2-0.5-0.5-0.5-0.5 0.2-0.5 0.5 0.3 0.5 0.5 0.5z"/>
						<path class="st48" d="m2583.1 472.8c0.5 0 1-0.4 1-1 0-0.5-0.4-1-1-1s-1 0.4-1 1 0.5 1 1 1z"/>
						<path class="st48" d="m2555.5 499.6c0.5 0 1-0.4 1-1 0-0.5-0.4-1-1-1s-1 0.4-1 1 0.4 1 1 1z"/>
						<path class="st48" d="m2177.2 451.4c0.5 0 1-0.4 1-1 0-0.5-0.4-1-1-1s-1 0.4-1 1c0 0.5 0.4 1 1 1z"/>
						<path class="st48" d="m2154.9 421.5c0.5 0 1-0.4 1-1 0-0.5-0.4-1-1-1s-1 0.4-1 1c0 0.5 0.5 1 1 1z"/>
						<path class="st48" d="m2177.9 455.9c0.5 0 1-0.4 1-1 0-0.5-0.4-1-1-1-0.5 0-1 0.4-1 1s0.5 1 1 1z"/>
						<path class="st48" d="m2145.7 448.3c0.5 0 1-0.4 1-1 0-0.5-0.4-1-1-1s-1 0.4-1 1c0 0.5 0.5 1 1 1z"/>
						<path class="st48" d="m2165.7 412.3c0.5 0 1-0.4 1-1 0-0.5-0.4-1-1-1s-1 0.4-1 1c0 0.5 0.4 1 1 1z"/>
						<path class="st10" d="m1982.4 1168.9 2.2 18.4c0.2 2.1 1.9 3.7 4 4l18.4 2.1-18.4 2.2c-2.1 0.2-3.7 1.9-4 4l-2.2 18.4-2.2-18.4c-0.1-1-0.6-1.9-1.3-2.6s-1.6-1.2-2.6-1.3l-18.4-2.2 18.4-2.1c1-0.1 1.9-0.6 2.6-1.3s1.2-1.6 1.3-2.6l2.2-18.6z"/>
						<path class="st10" d="m1992.3 1183.5-6.6 8.3c-0.7 0.9-0.7 2.2 0 3.2l6.6 8.3-8.3-6.6c-0.5-0.4-1-0.5-1.6-0.5s-1.1 0.2-1.6 0.6l-8.3 6.5 6.6-8.3c0.4-0.5 0.6-1 0.6-1.6s-0.2-1.1-0.6-1.6l-6.6-8.3 8.3 6.5c0.5 0.4 1 0.6 1.6 0.6s1.1-0.2 1.6-0.6l8.3-6.5z"/>
						<path class="st10" d="m2143.6 1215.9v-1.1c0-0.5-0.2-1-0.6-1.4-0.2-0.2-0.4-0.3-0.6-0.4s-0.5-0.2-0.8-0.2l-0.5 0.1c-0.3 0.1-0.6 0.3-0.9 0.5l-0.3 0.4c-0.2 0.3-0.3 0.6-0.3 1v1.1c0 0.3 0 0.5 0.2 0.8 0.1 0.2 0.2 0.5 0.4 0.6 0.4 0.3 0.9 0.6 1.4 0.6l0.5-0.1c0.3-0.1 0.6-0.3 0.9-0.5l0.3-0.4c0.2-0.4 0.3-0.7 0.3-1z"/>
						<path class="st10" d="m2076 1175.3c2.6 0 2.6-4 0-4s-2.5 4 0 4z"/>
						<path class="st10" d="m1914.7 1201.4c2.5 0 2.6-4 0-4s-2.6 4 0 4z"/>
						<path class="st10" d="m2037.9 1169.4c5.7 0 5.8-8.9 0-8.9s-5.8 8.9 0 8.9z"/>
						<path class="st10" d="m2177.3 1187c5.7 0 5.8-8.9 0-8.9s-5.8 8.9 0 8.9z"/>
					
				</g>
			
		
	
	
		
			<path class="st49" d="m0 284.6c22.6 78.7 80.7 164.1 80.7 164.1s9.3 2.1-43.2-9.3l1.1 2.2c23.9 14 63.7 40.3 63.7 40.3s-12 1.1-44.6-3.9c4.1 7.4 8.1 14.4 11.9 21 10.3 7.2 21.3 13.5 32.7 18.8l-24.8-5.3c13.3 22.2 22.7 35.9 22.7 35.9s11.8 2.6-54.9-11.8l0.2 0.5 1.1 2.3c30.3 17.8 80.9 51.2 80.9 51.2s-15.2 1.3-56.6-5c5.1 9.2 10.1 18.1 14.9 26.4 23.3 15.9 41.6 23.8 41.6 23.8l-31.4-6.7c16.9 28.2 28.8 45.6 28.8 45.6s14.9 3.3-69.8-15l1.8 3.5c38.5 22.6 102.8 65 102.8 65s-19.3 1.7-72-6.3c6.6 12 13 23.3 19.2 33.8 29.5 20.2 52.8 30.3 52.8 30.3l-40-8.6c21.5 35.8 36.6 57.9 36.6 57.9s19 4.2-88.7-19.1c0.7 1.5 1.5 3 2.2 4.5 48.9 28.7 130.5 82.6 130.5 82.6s-24.6 2.2-91.4-8c8.4 15.2 16.5 29.6 24.3 43 13.9 9.5 26.6 17.2 37.2 23.2 40.1-12.3 63.6-33 76.3-48.3 1.5-5.1 2.9-10.2 4.3-15.3l-59.6 28.8c16-10.4 30.6-34.9 43.6-65.6l-39.1 15.6 46.6-34.6c2-5.2 3.9-10.6 5.7-16.1-22.5 4.5-53.3 8.7-52.3-2.2 34.8-9.5 54.8-26.9 65.3-39.5 1.1-4 2.2-8 3.3-12l-47 22.7c12.6-8.2 24.1-27.4 34.3-51.6l-30.7 12.3 36.7-27.2c1.5-4.1 3-8.4 4.5-12.7-17.7 3.6-41.9 6.9-41.2-1.7 27.4-7.4 43.1-21.1 51.4-31.1 0.9-3.2 1.8-6.3 2.6-9.5l-36.9 17.9c39.1-25.4 65.2-186.9 65.2-186.9 20.9 80.7 82.7 171.7 82.7 171.7s9.3 2.1-43.2-9.3l1.1 2.2c23.9 14 63.7 40.3 63.7 40.3s-12 1.1-44.6-3.9c4.1 7.4 8.1 14.4 11.9 21 10.3 7.2 21.3 13.5 32.7 18.8l-24.7-5.4c13.2 22.2 22.6 35.9 22.6 35.9s11.8 2.6-54.9-11.8l0.2 0.5 1.1 2.3c30.3 17.8 80.9 51.2 80.9 51.2s-15.2 1.4-56.6-5c5.2 9.4 10.3 18.3 15.1 26.6 23.3 15.9 41.6 23.8 41.6 23.8l-31.5-6.7c16.9 28.2 28.8 45.6 28.8 45.6s14.9 3.3-69.8-15c0.6 1.2 1.1 2.4 1.7 3.5 38.5 22.6 102.8 65 102.8 65s-19.3 1.7-72-6.3c6.6 12 13 23.3 19.1 33.8 29.5 20.2 52.8 30.3 52.8 30.3l-40-8.5c21.5 35.8 36.6 57.9 36.6 57.9s19 4.2-88.7-19.1c0.7 1.5 1.5 3 2.2 4.5 48.9 28.7 130.5 82.6 130.5 82.6s-24.6 2.2-91.4-8c8.4 15.2 16.5 29.6 24.3 43 37.5 25.7 67.1 38.5 67.1 38.5l-50.8-10.8c15.8 26.3 28.9 46.8 37.1 59.5 44-15.9 70.6-39.6 85.4-57.5 1.8-6.5 3.7-12.9 5.4-19.4l-75.7 36.5c20.3-13.2 38.9-44.3 55.3-83.3l-49.6 19.9 59.2-43.9c2.5-6.7 4.9-13.5 7.3-20.4-28.6 5.7-67.7 11.1-66.5-2.8 44.2-12 69.6-34.1 82.9-50.2 1.5-5.1 2.9-10.2 4.3-15.3l-59.6 28.8c16-10.4 30.6-34.9 43.6-65.6l-39.1 15.6 46.5-34.6c2-5.2 3.9-10.6 5.7-16.1-22.5 4.5-53.2 8.7-52.3-2.2 34.8-9.5 54.8-26.9 65.3-39.5 1.1-4 2.3-8 3.3-12l-46.9 22.6c12.6-8.2 24.1-27.4 34.3-51.6l-30.8 12.3 36.7-27.2c1.5-4.1 3-8.4 4.5-12.7-17.7 3.6-41.9 6.9-41.2-1.7 27.4-7.4 43.1-21.1 51.4-31.1 0.9-3.2 1.8-6.3 2.6-9.5l-36.7 17.4c39.1-25.4 65.2-186.9 65.2-186.9 20.9 80.7 82.7 171.7 82.7 171.7s9.3 2.1-43.2-9.3l0.2 0.4 1 1.8c23.9 14 63.7 40.3 63.7 40.3s-12 1.1-44.6-3.9c4.1 7.4 8.1 14.4 11.8 21 10.3 7.2 21.3 13.5 32.7 18.8l-24.8-5.3c13.3 22.2 22.7 35.9 22.7 35.9s11.8 2.6-54.9-11.9l0.2 0.5 1.1 2.3c30.3 17.8 80.9 51.2 80.9 51.2s-15.2 1.4-56.6-5c5.2 9.4 10.3 18.3 15.1 26.6 23.2 15.9 41.6 23.8 41.6 23.8l-31.5-6.8c16.9 28.2 28.8 45.6 28.8 45.6s14.9 3.3-69.8-15l1.8 3.5c38.5 22.6 102.8 65 102.8 65s-19.3 1.7-72-6.3c6.6 12 13 23.3 19.2 33.8 29.5 20.2 52.8 30.3 52.8 30.3l-40-8.5c21.5 35.8 36.6 57.9 36.6 57.9s19 4.2-88.7-19.1c0.7 1.5 1.5 3 2.2 4.5 48.9 28.7 130.5 82.6 130.5 82.6s-24.6 2.2-91.4-8c8.4 15.2 16.5 29.6 24.3 43 37.5 25.7 67.1 38.5 67.1 38.5l-50.8-10.9c27.3 45.5 46.5 73.6 46.5 73.6s24.1 5.4-112.6-24.3l2.8 5.7c16.3 9.6 35.5 21.4 54.9 33.5h-240.3c2.1-7.2 4.1-14.4 6-21.7l-44.9 21.7h-25.6c10.2-13 20-29.3 29.4-47.9-18.3-1.3-44-4-78.7-9.3 10.7 19.3 21 37.6 30.9 54.6l3.8 2.6h-475.9v-1115.7zm516.4 1042.1 12 7.7c2.3-5 4.5-10 6.6-15.2l-18.6 7.5zm-44.4-65.9-83.3-18c0.9 1.9 1.9 3.8 2.8 5.7 33.5 19.7 79.1 48.6 114 71.2l41.7-30.9c3.2-8.5 6.2-17.1 9.2-25.9-35.1 6.9-82.8 13.5-84.4-2.1zm-304.8 21.2-27.3 13.2c10.9 6.6 22.2 13.6 33.6 20.8 10.1-8 19.5-16.9 28-26.6l-34.3-7.4zm-22-4.8-41.8-9 3.6 7.2c8.4 4.9 17.3 10.3 26.6 15.9 4.1-4.5 8-9.2 11.6-14.1zm38.1-95.9 14.9-11c3.2-8.5 6.2-17.1 9.2-25.9-16.4 3.3-35.5 6.5-51.4 7.4 3.7 6.4 7.3 12.6 10.7 18.6 5.7 3.9 11.3 7.6 16.6 10.9zm-9.8-60.3c-11.2-1.4-23.7-3.1-37.6-5.2 3.3 6 6.6 11.9 9.9 17.7 9.4-3.6 18.7-7.8 27.7-12.5zm10.3-39.3c8.6 5.5 16.8 10.8 24.4 15.7 7.3-6.2 14-13 20.2-20.4 1.8-6.5 3.6-12.9 5.4-19.4l-50 24.1zm0.7-59.4c7.2 11.2 11.4 17.3 11.4 17.3s24.1 5.4-112.6-24.3c0.9 1.9 1.9 3.8 2.8 5.7 26.3 15.4 60.1 36.7 90.3 55.9 13.2-16.1 25.6-39.2 36.9-66.2l-28.8 11.6zm-16.6-52.4-18.5-3.9c12.8 21.4 23.9 38.9 32 51.5l41.5-30.8c2.5-6.7 4.9-13.5 7.3-20.4-12.7 2.6-27.6 5-40 5.8 6.4 3.2 10.1 4.8 10.1 4.8l-22-4.7c-3.6-0.2-7.1-0.9-10.4-2.3z"/>
		
	

</svg>
