<?xml version="1.0" encoding="utf-8"?>
<!-- Generator: Adobe Illustrator 25.4.1, SVG Export Plug-In . SVG Version: 6.00 Build 0)  -->
<svg version="1.1" id="Layer_1" xmlns="http://www.w3.org/2000/svg" xmlns:xlink="http://www.w3.org/1999/xlink" x="0px" y="0px"
	 viewBox="0 0 250 250" style="enable-background:new 0 0 250 250;" xml:space="preserve">
<style type="text/css">
	.st0{fill-rule:evenodd;clip-rule:evenodd;fill:#666666;}
	.st1{fill-rule:evenodd;clip-rule:evenodd;fill:#EE1D51;}
	.st2{fill-rule:evenodd;clip-rule:evenodd;fill:#66C8CF;}
	.st3{fill-rule:evenodd;clip-rule:evenodd;fill:#FFFFFF;}
	.st4{fill-rule:evenodd;clip-rule:evenodd;fill:#EE1D52;}
	.st5{fill-rule:evenodd;clip-rule:evenodd;fill:#69C9D0;}
</style>
<g>
	<path class="st0" d="M25,0h200c13.8,0,25,11.2,25,25v200c0,13.8-11.2,25-25,25H25c-13.8,0-25-11.2-25-25V25C0,11.2,11.2,0,25,0z"/>
	<path class="st1" d="M157,230c7.6,0,13.8-6.1,13.8-13.7s-6.2-13.7-13.8-13.7h-2.1c7.6,0,13.8,6.1,13.8,13.7s-6.2,13.7-13.8,13.7
		H157z"/>
	<path class="st2" d="M154.7,202.7h-2.1c-7.6,0-13.8,6.1-13.8,13.7S145,230,152.6,230h2.1c-7.6,0-13.8-6.1-13.8-13.7
		S147.1,202.7,154.7,202.7z"/>
	<ellipse class="st0" cx="154.8" cy="216.3" rx="6.7" ry="6.6"/>
	<path class="st3" d="M50,196.5v6.9h8.1v26.4h8.1v-26.2h6.6l2.3-7.1H50z M116.4,196.5v6.9h8.1v26.4h8.1v-26.2h6.6l2.3-7.1H116.4z
		 M76.6,200.4c0-2.2,1.8-3.9,4-3.9c2.2,0,4,1.8,4,3.9s-1.8,3.9-4,3.9C78.4,204.4,76.6,202.6,76.6,200.4z M76.6,207.2h7.9v22.6h-7.9
		V207.2z M87.9,196.5v33.3h7.9v-8.6l2.5-2.2l7.7,11h8.5l-11.1-16.1l10-9.7h-9.6l-7.9,7.9v-15.5H87.9z M173.4,196.5v33.3h7.9v-8.6
		l2.5-2.2l7.7,11h8.5l-11.1-16.1l10-9.7h-9.6l-7.9,7.9v-15.5H173.4z"/>
	<path class="st4" d="M161.2,81.2c10.9,7.8,24.4,12.4,38.8,12.4V65.8c-2.7,0-5.5-0.3-8.2-0.9v21.9c-14.5,0-27.9-4.6-38.8-12.4v56.8
		c0,28.4-23.1,51.5-51.5,51.5c-10.6,0-20.5-3.2-28.7-8.7c9.4,9.6,22.4,15.5,36.8,15.5c28.4,0,51.5-23,51.5-51.5L161.2,81.2
		L161.2,81.2z M171.2,53.1c-5.6-6.1-9.3-14-10.1-22.7v-3.6h-7.7C155.4,37.9,162,47.3,171.2,53.1z M90.8,152.2
		c-3.1-4.1-4.8-9.1-4.8-14.3c0-13,10.5-23.5,23.6-23.5c2.4,0,4.8,0.4,7.1,1.1V87c-2.7-0.4-5.4-0.5-8.2-0.5v22.2
		c-2.3-0.7-4.7-1.1-7.2-1.1c-13,0-23.6,10.5-23.6,23.5C77.9,140.4,83.1,148.3,90.8,152.2z"/>
	<path class="st3" d="M153,74.4c10.9,7.8,24.4,12.4,38.8,12.4V64.9c-8.1-1.7-15.2-5.9-20.6-11.8c-9.2-5.7-15.8-15.2-17.8-26.3h-20.3
		V138c0,13-10.6,23.5-23.6,23.5c-7.7,0-14.4-3.6-18.8-9.3c-7.7-3.9-13-11.8-13-21c0-13,10.5-23.5,23.6-23.5c2.5,0,4.9,0.4,7.2,1.1
		V86.6C80.6,87.1,58.2,110,58.2,138c0,14,5.6,26.7,14.7,36c8.2,5.5,18.1,8.7,28.7,8.7c28.4,0,51.5-23,51.5-51.5L153,74.4z"/>
	<path class="st5" d="M191.8,64.9V59c-7.3,0-14.4-2-20.6-5.9C176.7,59.1,183.9,63.2,191.8,64.9z M153.4,26.8
		c-0.2-1.1-0.3-2.1-0.4-3.2V20h-28v111.2c0,13-10.6,23.5-23.6,23.5c-3.8,0-7.4-0.9-10.6-2.5c4.3,5.6,11.1,9.3,18.8,9.3
		c13,0,23.5-10.5,23.6-23.5V26.8H153.4z M108.6,86.6v-6.3c-2.3-0.3-4.7-0.5-7.1-0.5c-28.4,0-51.5,23-51.5,51.5
		c0,17.8,9.1,33.5,22.8,42.8c-9.1-9.3-14.7-22-14.7-36C58.2,110,80.6,87.1,108.6,86.6z"/>
	<path class="st3" d="M154.9,230c7.6,0,13.8-6.1,13.8-13.7s-6.2-13.7-13.8-13.7h-0.2c-7.6,0-13.8,6.1-13.8,13.7s6.2,13.7,13.8,13.7
		H154.9z M148.1,216.3c0-3.7,3-6.6,6.7-6.6c3.7,0,6.7,3,6.7,6.6s-3,6.6-6.7,6.6C151.1,223,148.1,220,148.1,216.3z"/>
</g>
</svg>
