<svg xmlns="http://www.w3.org/2000/svg" xmlns:xlink="http://www.w3.org/1999/xlink" viewBox="0 0 44.21 27.66"><defs><style>.cls-1{fill:none;}.cls-2{fill:#fff;}.cls-3{clip-path:url(#clip-path);}.cls-4{fill:#bd1f37;}.cls-5{fill:#2d2f77;}</style><clipPath id="clip-path"><rect class="cls-1" x="1.99" y="2.04" width="39.73" height="23.17"/></clipPath></defs><g id="Layer_2" data-name="Layer 2"><g id="Flags"><rect class="cls-2" width="44.21" height="27.66"/><g id="UNITED_KINGDOM" data-name="UNITED KINGDOM"><g class="cls-3"><rect class="cls-2" x="1.99" y="2.04" width="39.73" height="23.17"/><polygon class="cls-4" points="28.59 10.42 41.72 3.08 41.72 2.04 40.81 2.04 25.84 10.42 28.59 10.42"/><polygon class="cls-4" points="27.97 17.3 41.72 25 41.72 23.46 30.72 17.3 27.97 17.3"/><polygon class="cls-4" points="1.99 3.81 13.75 10.42 16.5 10.42 1.99 2.27 1.99 3.81"/><polygon class="cls-4" points="15.87 17.3 1.99 25.09 1.99 25.22 4.5 25.22 18.62 17.3 15.87 17.3"/><polygon class="cls-5" points="39 2.04 25.09 2.04 25.09 9.84 39 2.04"/><polygon class="cls-5" points="18.95 2.04 5.09 2.04 18.95 9.84 18.95 2.04"/><polygon class="cls-5" points="41.72 10.42 41.72 5.11 32.28 10.42 41.72 10.42"/><polygon class="cls-5" points="41.72 22.57 41.72 17.3 32.28 17.3 41.72 22.57"/><polygon class="cls-5" points="5.88 25.22 18.95 25.22 18.95 17.9 5.88 25.22"/><polygon class="cls-5" points="25.09 25.22 38.2 25.22 25.09 17.9 25.09 25.22"/><polygon class="cls-5" points="1.99 17.3 1.99 22.8 11.75 17.3 1.99 17.3"/><polygon class="cls-5" points="1.99 10.42 11.75 10.42 1.99 4.92 1.99 10.42"/><polygon class="cls-4" points="20.18 2.04 20.18 11.8 1.99 11.8 1.99 15.93 20.18 15.93 20.18 25.22 23.86 25.22 23.86 15.93 41.72 15.93 41.72 11.8 23.86 11.8 23.86 2.04 20.18 2.04"/></g></g></g></g></svg>