<svg xmlns="http://www.w3.org/2000/svg" xmlns:xlink="http://www.w3.org/1999/xlink" viewBox="0 0 44.21 27.66"><defs><style>.cls-1{fill:none;}.cls-2{fill:#fff;}.cls-3{clip-path:url(#clip-path);}.cls-4{fill:#ca2027;}.cls-5{fill:#2b3561;}</style><clipPath id="clip-path"><rect class="cls-1" x="1.99" y="2.04" width="39.73" height="23.18"/></clipPath></defs><g id="Layer_2" data-name="Layer 2"><g id="Flags"><rect class="cls-2" width="44.21" height="27.66"/><g id="USA"><g class="cls-3"><rect class="cls-4" x="1.99" y="23.44" width="39.73" height="1.78"/><rect class="cls-2" x="1.99" y="21.66" width="39.73" height="1.78"/><rect class="cls-4" x="1.99" y="19.88" width="39.73" height="1.78"/><rect class="cls-2" x="1.99" y="18.09" width="39.73" height="1.78"/><rect class="cls-4" x="1.99" y="16.31" width="39.73" height="1.78"/><rect class="cls-2" x="1.99" y="14.53" width="39.73" height="1.78"/><rect class="cls-4" x="1.99" y="12.74" width="39.73" height="1.79"/><rect class="cls-2" x="1.99" y="10.96" width="39.73" height="1.78"/><rect class="cls-4" x="1.99" y="9.18" width="39.73" height="1.78"/><rect class="cls-2" x="1.99" y="7.39" width="39.73" height="1.78"/><rect class="cls-4" x="1.99" y="5.61" width="39.73" height="1.78"/><rect class="cls-2" x="1.99" y="3.83" width="39.73" height="1.78"/><rect class="cls-4" x="1.99" y="2.04" width="39.73" height="1.78"/><rect class="cls-5" x="1.99" y="2.04" width="18.14" height="12.48"/><polygon class="cls-2" points="3.63 3.42 3.78 3.89 4.28 3.89 3.88 4.18 4.03 4.66 3.63 4.37 3.22 4.66 3.38 4.18 2.98 3.89 3.47 3.89 3.63 3.42"/><polygon class="cls-2" points="3.63 5.51 3.78 5.98 4.28 5.98 3.88 6.26 4.03 6.74 3.63 6.45 3.22 6.74 3.38 6.26 2.98 5.98 3.47 5.98 3.63 5.51"/><polygon class="cls-2" points="3.63 7.59 3.78 8.06 4.28 8.06 3.88 8.35 4.03 8.82 3.63 8.53 3.22 8.82 3.38 8.35 2.98 8.06 3.47 8.06 3.63 7.59"/><polygon class="cls-2" points="3.63 9.67 3.78 10.14 4.28 10.14 3.88 10.43 4.03 10.9 3.63 10.62 3.22 10.9 3.38 10.43 2.98 10.14 3.47 10.14 3.63 9.67"/><polygon class="cls-2" points="3.63 11.75 3.78 12.23 4.28 12.23 3.88 12.52 4.03 12.99 3.63 12.7 3.22 12.99 3.38 12.52 2.98 12.23 3.47 12.23 3.63 11.75"/><polygon class="cls-2" points="5.08 4.52 5.23 4.99 5.73 4.99 5.33 5.28 5.48 5.75 5.08 5.46 4.68 5.75 4.83 5.28 4.43 4.99 4.93 4.99 5.08 4.52"/><polygon class="cls-2" points="5.08 6.6 5.23 7.07 5.73 7.07 5.33 7.37 5.48 7.84 5.08 7.55 4.68 7.84 4.83 7.37 4.43 7.07 4.93 7.07 5.08 6.6"/><polygon class="cls-2" points="5.08 8.69 5.23 9.16 5.73 9.16 5.33 9.45 5.48 9.92 5.08 9.63 4.68 9.92 4.83 9.45 4.43 9.16 4.93 9.16 5.08 8.69"/><polygon class="cls-2" points="5.08 10.77 5.23 11.24 5.73 11.24 5.33 11.53 5.48 12 5.08 11.71 4.68 12 4.83 11.53 4.43 11.24 4.93 11.24 5.08 10.77"/><polygon class="cls-2" points="6.54 3.42 6.7 3.89 7.2 3.89 6.79 4.18 6.95 4.66 6.54 4.37 6.14 4.66 6.3 4.18 5.9 3.89 6.39 3.89 6.54 3.42"/><polygon class="cls-2" points="6.54 5.51 6.7 5.98 7.2 5.98 6.79 6.26 6.95 6.74 6.54 6.45 6.14 6.74 6.3 6.26 5.9 5.98 6.39 5.98 6.54 5.51"/><polygon class="cls-2" points="6.54 7.59 6.7 8.06 7.2 8.06 6.79 8.35 6.95 8.82 6.54 8.53 6.14 8.82 6.3 8.35 5.9 8.06 6.39 8.06 6.54 7.59"/><polygon class="cls-2" points="6.54 9.67 6.7 10.14 7.2 10.14 6.79 10.43 6.95 10.9 6.54 10.62 6.14 10.9 6.3 10.43 5.9 10.14 6.39 10.14 6.54 9.67"/><polygon class="cls-2" points="6.54 11.75 6.7 12.23 7.2 12.23 6.79 12.52 6.95 12.99 6.54 12.7 6.14 12.99 6.3 12.52 5.9 12.23 6.39 12.23 6.54 11.75"/><polygon class="cls-2" points="8 4.52 8.15 4.99 8.65 4.99 8.24 5.28 8.4 5.75 8 5.46 7.6 5.75 7.75 5.28 7.35 4.99 7.84 4.99 8 4.52"/><polygon class="cls-2" points="8 6.6 8.15 7.07 8.65 7.07 8.24 7.37 8.4 7.84 8 7.55 7.6 7.84 7.75 7.37 7.35 7.07 7.84 7.07 8 6.6"/><polygon class="cls-2" points="8 8.69 8.15 9.16 8.65 9.16 8.24 9.45 8.4 9.92 8 9.63 7.6 9.92 7.75 9.45 7.35 9.16 7.84 9.16 8 8.69"/><polygon class="cls-2" points="8 10.77 8.15 11.24 8.65 11.24 8.24 11.53 8.4 12 8 11.71 7.6 12 7.75 11.53 7.35 11.24 7.84 11.24 8 10.77"/><polygon class="cls-2" points="9.46 3.42 9.62 3.89 10.11 3.89 9.71 4.18 9.87 4.66 9.46 4.37 9.06 4.66 9.22 4.18 8.82 3.89 9.31 3.89 9.46 3.42"/><polygon class="cls-2" points="9.46 5.51 9.62 5.98 10.11 5.98 9.71 6.26 9.87 6.74 9.46 6.45 9.06 6.74 9.22 6.26 8.82 5.98 9.31 5.98 9.46 5.51"/><polygon class="cls-2" points="9.46 7.59 9.62 8.06 10.11 8.06 9.71 8.35 9.87 8.82 9.46 8.53 9.06 8.82 9.22 8.35 8.82 8.06 9.31 8.06 9.46 7.59"/><polygon class="cls-2" points="9.46 9.67 9.62 10.14 10.11 10.14 9.71 10.43 9.87 10.9 9.46 10.62 9.06 10.9 9.22 10.43 8.82 10.14 9.31 10.14 9.46 9.67"/><polygon class="cls-2" points="9.46 11.75 9.62 12.23 10.11 12.23 9.71 12.52 9.87 12.99 9.46 12.7 9.06 12.99 9.22 12.52 8.82 12.23 9.31 12.23 9.46 11.75"/><polygon class="cls-2" points="10.92 4.52 11.07 4.99 11.57 4.99 11.17 5.28 11.32 5.75 10.92 5.46 10.52 5.75 10.67 5.28 10.27 4.99 10.77 4.99 10.92 4.52"/><polygon class="cls-2" points="10.92 6.6 11.07 7.07 11.57 7.07 11.17 7.37 11.32 7.84 10.92 7.55 10.52 7.84 10.67 7.37 10.27 7.07 10.77 7.07 10.92 6.6"/><polygon class="cls-2" points="10.92 8.69 11.07 9.16 11.57 9.16 11.17 9.45 11.32 9.92 10.92 9.63 10.52 9.92 10.67 9.45 10.27 9.16 10.77 9.16 10.92 8.69"/><polygon class="cls-2" points="10.92 10.77 11.07 11.24 11.57 11.24 11.17 11.53 11.32 12 10.92 11.71 10.52 12 10.67 11.53 10.27 11.24 10.77 11.24 10.92 10.77"/><polygon class="cls-2" points="12.38 3.42 12.54 3.89 13.03 3.89 12.63 4.18 12.79 4.66 12.38 4.37 11.99 4.66 12.14 4.18 11.74 3.89 12.23 3.89 12.38 3.42"/><polygon class="cls-2" points="12.38 5.51 12.54 5.98 13.03 5.98 12.63 6.26 12.79 6.74 12.38 6.45 11.99 6.74 12.14 6.26 11.74 5.98 12.23 5.98 12.38 5.51"/><polygon class="cls-2" points="12.38 7.59 12.54 8.06 13.03 8.06 12.63 8.35 12.79 8.82 12.38 8.53 11.99 8.82 12.14 8.35 11.74 8.06 12.23 8.06 12.38 7.59"/><polygon class="cls-2" points="12.38 9.67 12.54 10.14 13.03 10.14 12.63 10.43 12.79 10.9 12.38 10.62 11.99 10.9 12.14 10.43 11.74 10.14 12.23 10.14 12.38 9.67"/><polygon class="cls-2" points="12.38 11.75 12.54 12.23 13.03 12.23 12.63 12.52 12.79 12.99 12.38 12.7 11.99 12.99 12.14 12.52 11.74 12.23 12.23 12.23 12.38 11.75"/><polygon class="cls-2" points="13.84 4.52 13.99 4.99 14.49 4.99 14.09 5.28 14.24 5.75 13.84 5.46 13.44 5.75 13.59 5.28 13.19 4.99 13.69 4.99 13.84 4.52"/><polygon class="cls-2" points="13.84 6.6 13.99 7.07 14.49 7.07 14.09 7.37 14.24 7.84 13.84 7.55 13.44 7.84 13.59 7.37 13.19 7.07 13.69 7.07 13.84 6.6"/><polygon class="cls-2" points="13.84 8.69 13.99 9.16 14.49 9.16 14.09 9.45 14.24 9.92 13.84 9.63 13.44 9.92 13.59 9.45 13.19 9.16 13.69 9.16 13.84 8.69"/><polygon class="cls-2" points="13.84 10.77 13.99 11.24 14.49 11.24 14.09 11.53 14.24 12 13.84 11.71 13.44 12 13.59 11.53 13.19 11.24 13.69 11.24 13.84 10.77"/><polygon class="cls-2" points="15.31 3.42 15.46 3.89 15.96 3.89 15.55 4.18 15.71 4.66 15.31 4.37 14.91 4.66 15.06 4.18 14.66 3.89 15.15 3.89 15.31 3.42"/><polygon class="cls-2" points="15.31 5.51 15.46 5.98 15.96 5.98 15.55 6.26 15.71 6.74 15.31 6.45 14.91 6.74 15.06 6.26 14.66 5.98 15.15 5.98 15.31 5.51"/><polygon class="cls-2" points="15.31 7.59 15.46 8.06 15.96 8.06 15.55 8.35 15.71 8.82 15.31 8.53 14.91 8.82 15.06 8.35 14.66 8.06 15.15 8.06 15.31 7.59"/><polygon class="cls-2" points="15.31 9.67 15.46 10.14 15.96 10.14 15.55 10.43 15.71 10.9 15.31 10.62 14.91 10.9 15.06 10.43 14.66 10.14 15.15 10.14 15.31 9.67"/><polygon class="cls-2" points="15.31 11.75 15.46 12.23 15.96 12.23 15.55 12.52 15.71 12.99 15.31 12.7 14.91 12.99 15.06 12.52 14.66 12.23 15.15 12.23 15.31 11.75"/><polygon class="cls-2" points="16.76 4.52 16.91 4.99 17.41 4.99 17.01 5.28 17.16 5.75 16.76 5.46 16.36 5.75 16.51 5.28 16.11 4.99 16.6 4.99 16.76 4.52"/><polygon class="cls-2" points="16.76 6.6 16.91 7.07 17.41 7.07 17.01 7.37 17.16 7.84 16.76 7.55 16.36 7.84 16.51 7.37 16.11 7.07 16.6 7.07 16.76 6.6"/><polygon class="cls-2" points="16.76 8.69 16.91 9.16 17.41 9.16 17.01 9.45 17.16 9.92 16.76 9.63 16.36 9.92 16.51 9.45 16.11 9.16 16.6 9.16 16.76 8.69"/><polygon class="cls-2" points="16.76 10.77 16.91 11.24 17.41 11.24 17.01 11.53 17.16 12 16.76 11.71 16.36 12 16.51 11.53 16.11 11.24 16.6 11.24 16.76 10.77"/><polygon class="cls-2" points="18.22 3.42 18.38 3.89 18.87 3.89 18.48 4.18 18.63 4.66 18.22 4.37 17.83 4.66 17.98 4.18 17.58 3.89 18.07 3.89 18.22 3.42"/><polygon class="cls-2" points="18.22 5.51 18.38 5.98 18.87 5.98 18.48 6.26 18.63 6.74 18.22 6.45 17.83 6.74 17.98 6.26 17.58 5.98 18.07 5.98 18.22 5.51"/><polygon class="cls-2" points="18.22 7.59 18.38 8.06 18.87 8.06 18.48 8.35 18.63 8.82 18.22 8.53 17.83 8.82 17.98 8.35 17.58 8.06 18.07 8.06 18.22 7.59"/><polygon class="cls-2" points="18.22 9.67 18.38 10.14 18.87 10.14 18.48 10.43 18.63 10.9 18.22 10.62 17.83 10.9 17.98 10.43 17.58 10.14 18.07 10.14 18.22 9.67"/><polygon class="cls-2" points="18.22 11.75 18.38 12.23 18.87 12.23 18.48 12.52 18.63 12.99 18.22 12.7 17.83 12.99 17.98 12.52 17.58 12.23 18.07 12.23 18.22 11.75"/></g></g></g></g></svg>